<?xml version="1.0" encoding="utf-8"?>
<!-- Generator: Adobe Illustrator 26.3.1, SVG Export Plug-In . SVG Version: 6.00 Build 0)  -->
<svg version="1.1" id="Layer_1" xmlns="http://www.w3.org/2000/svg" xmlns:xlink="http://www.w3.org/1999/xlink" x="0px" y="0px"
	 viewBox="0 0 600 42" style="enable-background:new 0 0 600 42;" xml:space="preserve">
<style type="text/css">
	.st0{clip-path:url(#SVGID_00000071529121717903972810000005877024422375724199_);}
	.st1{fill:#19202C;}
	.st2{fill:#FFFFFF;}
	.st3{fill:#FFDE59;}
	.st4{fill:#38B6FF;}
</style>
<g>
	<g>
		<defs>
			<rect id="SVGID_1_" x="4.7" width="590.6" height="41.3"/>
		</defs>
		<clipPath id="SVGID_00000025435140072097485640000000719418145084194475_">
			<use xlink:href="#SVGID_1_"  style="overflow:visible;"/>
		</clipPath>
	</g>
	<g>
		<defs>
			<rect id="SVGID_00000035531099842704246790000006410099981315516326_" x="4.7" width="590.6" height="41.3"/>
		</defs>
		<use xlink:href="#SVGID_00000035531099842704246790000006410099981315516326_"  style="overflow:visible;fill:#19202C;"/>
		<clipPath id="SVGID_00000183964035534050115880000016675062586700905383_">
			<use xlink:href="#SVGID_00000035531099842704246790000006410099981315516326_"  style="overflow:visible;"/>
		</clipPath>
		<g style="clip-path:url(#SVGID_00000183964035534050115880000016675062586700905383_);">
			<path class="st1" d="M4.7,0h590.6v51.2H4.7V0z"/>
			<path class="st1" d="M4.7,0h590.6v41.3H4.7V0z"/>
			<path class="st1" d="M4.7,0h590.6v41.3H4.7V0z"/>
			<path class="st1" d="M4.7,0h590.6v41.3H4.7V0"/>
		</g>
	</g>
	<g>
		<defs>
			<rect id="SVGID_00000086681456467553881750000011310785740507927471_" x="4.7" width="590.6" height="41.3"/>
		</defs>
		<clipPath id="SVGID_00000081615452544686148850000002589073131179824286_">
			<use xlink:href="#SVGID_00000086681456467553881750000011310785740507927471_"  style="overflow:visible;"/>
		</clipPath>
	</g>
</g>
<g>
	<g transform="translate(89.272342, 22.148438)">
		<g>
			<path class="st2" d="M40.3-6.1v3.4h-2.9v5.1c0,0.6,0.1,1.1,0.3,1.4c0.2,0.3,0.6,0.4,1.1,0.4h1.4v3c-0.4,0.1-1,0.2-1.6,0.3
				c-0.6,0.1-1.2,0.1-1.7,0.1c-1.5,0-2.7-0.3-3.5-0.8c-0.8-0.6-1.2-1.5-1.2-2.8v-6.8h-1.9v-3.4h2.1l1.1-4.1h3.8v4.1H40.3z"/>
		</g>
	</g>
</g>
<g>
	<g transform="translate(96.87369, 22.148438)">
		<g>
			<path class="st2" d="M38.9-4.7c0.5-0.5,1.2-1,1.9-1.2c0.7-0.3,1.5-0.5,2.3-0.5c1.6,0,2.7,0.4,3.5,1.3c0.8,0.9,1.2,2.1,1.2,3.8
				v8.8h-5.1v-8.1c0-0.6-0.2-1-0.5-1.4C42-2.5,41.6-2.7,41-2.7c-0.6,0-1.1,0.2-1.5,0.6c-0.4,0.4-0.6,0.9-0.6,1.5v7.9h-5.1v-18.5h5.1
				V-4.7z"/>
		</g>
	</g>
</g>
<g>
	<g transform="translate(108.755598, 22.148438)">
		<g>
			<path class="st2" d="M44.8-6.4c2.5,0,4.4,0.6,5.7,1.8c1.3,1.2,2,2.9,2,5.3v0.9H42.3c0,1,0.2,1.7,0.6,2.2C43.3,4.2,44,4.4,45,4.4
				c0.8,0,1.5-0.2,1.9-0.5c0.4-0.4,0.6-0.8,0.6-1.4h4.9c0,1.6-0.6,2.9-1.9,3.9c-1.2,0.9-3.1,1.4-5.4,1.4c-2.5,0-4.5-0.6-5.9-1.8
				c-1.4-1.2-2.1-2.9-2.1-5.3c0-2.3,0.7-4.1,2-5.3C40.5-5.8,42.4-6.4,44.8-6.4z M45-3.2c-1.6,0-2.5,0.8-2.7,2.3h5
				c0-0.7-0.2-1.2-0.6-1.6C46.2-3,45.7-3.2,45-3.2z"/>
		</g>
	</g>
</g>
<g>
	<g transform="translate(120.637505, 22.148438)">
	</g>
</g>
<g>
	<g transform="translate(126.108172, 22.148438)">
		<g>
			<path class="st2" d="M49.1-11.5c0.4,0,0.8,0.1,1.4,0.1c0.6,0.1,1,0.2,1.4,0.3v3h-1.2c-0.5,0-0.9,0.1-1.1,0.3
				c-0.2,0.2-0.3,0.5-0.3,1v0.5h2.6v3.4h-2.6V7.4h-5.1V-2.7h-1.9v-3.4h1.9v-0.6c0-1.8,0.4-3,1.3-3.7C46.3-11.1,47.5-11.5,49.1-11.5z
				"/>
		</g>
	</g>
</g>
<g>
	<g transform="translate(132.653782, 22.148438)">
		<g>
			<path class="st2" d="M55.6,7.4l-0.3-2c-0.5,0.7-1.2,1.3-2.1,1.7c-0.9,0.4-1.8,0.6-2.7,0.6c-1.6,0-2.8-0.4-3.5-1.3
				c-0.8-0.9-1.2-2.1-1.2-3.8v-8.8h5.1V2c0,0.6,0.1,1.1,0.4,1.4c0.3,0.3,0.7,0.5,1.3,0.5c0.6,0,1.1-0.2,1.5-0.6
				c0.4-0.4,0.6-0.9,0.6-1.5v-7.9h5.1V7.4H55.6z"/>
		</g>
	</g>
</g>
<g>
	<g transform="translate(144.535687, 22.148438)">
		<g>
			<path class="st2" d="M58.7-6.1v3.4h-2.9v5.1c0,0.6,0.1,1.1,0.3,1.4c0.2,0.3,0.6,0.4,1.1,0.4h1.4v3c-0.4,0.1-1,0.2-1.6,0.3
				c-0.6,0.1-1.2,0.1-1.7,0.1c-1.5,0-2.7-0.3-3.5-0.8c-0.8-0.6-1.2-1.5-1.2-2.8v-6.8h-1.9v-3.4H51l1.1-4.1h3.8v4.1H58.7z"/>
		</g>
	</g>
</g>
<g>
	<g transform="translate(152.137035, 22.148438)">
		<g>
			<path class="st2" d="M62,7.4l-0.3-2c-0.5,0.7-1.2,1.3-2.1,1.7c-0.9,0.4-1.8,0.6-2.7,0.6c-1.6,0-2.8-0.4-3.5-1.3
				c-0.8-0.9-1.2-2.1-1.2-3.8v-8.8h5.1V2c0,0.6,0.1,1.1,0.4,1.4C58,3.8,58.5,3.9,59,3.9c0.6,0,1.1-0.2,1.5-0.6
				c0.4-0.4,0.6-0.9,0.6-1.5v-7.9h5.1V7.4H62z"/>
		</g>
	</g>
</g>
<g>
	<g transform="translate(164.018939, 22.148438)">
		<g>
			<path class="st2" d="M64.4-6.5c0.4,0,0.7,0.1,1,0.1c0.3,0.1,0.5,0.1,0.5,0.1v4.3h-1.6c-1.1,0-1.8,0.3-2.3,0.8
				c-0.5,0.5-0.7,1.3-0.7,2.4v6h-5.1V-6.1h4.2l0.3,2c0.3-0.8,0.8-1.4,1.5-1.8C62.8-6.2,63.6-6.5,64.4-6.5z"/>
		</g>
	</g>
</g>
<g>
	<g transform="translate(171.620287, 22.148438)">
		<g>
			<path class="st2" d="M65.7-6.4c2.5,0,4.4,0.6,5.7,1.8c1.3,1.2,2,2.9,2,5.3v0.9H63.2c0,1,0.2,1.7,0.6,2.2c0.4,0.5,1.1,0.7,2.1,0.7
				c0.8,0,1.5-0.2,1.9-0.5c0.4-0.4,0.6-0.8,0.6-1.4h4.9c0,1.6-0.6,2.9-1.9,3.9c-1.2,0.9-3.1,1.4-5.4,1.4c-2.5,0-4.5-0.6-5.9-1.8
				c-1.4-1.2-2.1-2.9-2.1-5.3c0-2.3,0.7-4.1,2-5.3C61.5-5.8,63.4-6.4,65.7-6.4z M65.9-3.2c-1.6,0-2.5,0.8-2.7,2.3h5
				c0-0.7-0.2-1.2-0.6-1.6C67.2-3,66.6-3.2,65.9-3.2z"/>
		</g>
	</g>
</g>
<g>
	<g transform="translate(183.502192, 22.148438)">
	</g>
</g>
<g>
	<g transform="translate(188.972864, 22.148438)">
		<g>
			<path class="st2" d="M64.7-7.7v-3.4h5.1v3.4H64.7z M64.7,7.4V-6.1h5.1V7.4H64.7z"/>
		</g>
	</g>
</g>
<g>
	<g transform="translate(194.44353, 22.148438)">
		<g>
			<path class="st2" d="M75.7-6.4c1.6,0,2.7,0.4,3.5,1.3C80-4.3,80.4-3,80.4-1.4v8.8h-5.1v-8.1c0-0.6-0.2-1-0.5-1.4
				c-0.3-0.4-0.7-0.5-1.2-0.5c-0.6,0-1.1,0.2-1.5,0.6c-0.4,0.4-0.6,0.9-0.6,1.5v7.9h-5.1V-6.1h4.2l0.3,2c0.5-0.7,1.2-1.3,2.1-1.7
				C73.8-6.2,74.7-6.4,75.7-6.4z"/>
		</g>
	</g>
</g>
<g>
	<g transform="translate(206.324526, 22.148438)">
	</g>
</g>
<g>
	<g transform="translate(211.792421, 22.148438)">
		<g>
			<path class="st3" d="M78.6-6.4c1.8,0,3.3,0.4,4.6,1.1C84.4-4.7,85-3.6,85-2.1h-4.8c0-0.5-0.2-0.9-0.7-1.1
				c-0.3-0.2-0.7-0.2-1.1-0.2c-1.2,0-1.8,0.3-1.8,0.9c0,0.3,0.2,0.6,0.6,0.7c0.4,0.1,1.1,0.3,2.1,0.4c1.2,0.2,2.2,0.4,3,0.6
				c0.8,0.2,1.5,0.6,2.1,1.2c0.6,0.6,0.9,1.4,0.9,2.5c0,1.7-0.6,3-1.9,3.7c-1.3,0.7-3,1.1-5.1,1.1c-1.2,0-2.3-0.2-3.4-0.5
				c-1.1-0.3-1.9-0.8-2.6-1.5c-0.7-0.7-1-1.6-1-2.7h4.7v0.1c0,0.6,0.3,1,0.7,1.2c0.5,0.2,1,0.4,1.5,0.4c1.4,0,2.1-0.3,2.1-1
				c0-0.3-0.2-0.6-0.7-0.8c-0.4-0.2-1.2-0.3-2.2-0.5c-1.2-0.2-2.2-0.4-3-0.7c-0.8-0.2-1.5-0.6-2-1.2c-0.6-0.6-0.9-1.4-0.9-2.4
				c0-1.7,0.6-2.8,1.9-3.5C74.9-6.1,76.5-6.4,78.6-6.4z"/>
		</g>
	</g>
</g>
<g>
	<g transform="translate(222.599394, 22.148438)">
		<g>
			<path class="st3" d="M84.7-6.1v3.4h-2.9v5.1c0,0.6,0.1,1.1,0.3,1.4c0.2,0.3,0.6,0.4,1.1,0.4h1.4v3c-0.4,0.1-1,0.2-1.6,0.3
				c-0.6,0.1-1.2,0.1-1.7,0.1c-1.5,0-2.7-0.3-3.5-0.8c-0.8-0.6-1.2-1.5-1.2-2.8v-6.8h-1.9v-3.4H77l1.1-4.1h3.8v4.1H84.7z"/>
		</g>
	</g>
</g>
<g>
	<g transform="translate(230.200742, 22.148438)">
		<g>
			<path class="st3" d="M87.5,7c-0.7,1.9-1.6,3.3-2.6,4.3c-1,1-2.4,1.5-4.2,1.5c-1.1,0-2.1-0.2-3-0.5v-3h2.1c1.3,0,2-0.6,2.3-1.9
				L76.7-6.1h5.5l2.6,9H85l2.4-9h5L87.5,7z"/>
		</g>
	</g>
</g>
<g>
	<g transform="translate(241.007715, 22.148438)">
		<g>
			<path class="st3" d="M82,7.4v-18.5h5.1V7.4H82z"/>
		</g>
	</g>
</g>
<g>
	<g transform="translate(246.478382, 22.148438)">
		<g>
			<path class="st3" d="M90.7-6.4c2.5,0,4.4,0.6,5.7,1.8c1.3,1.2,2,2.9,2,5.3v0.9H88.2c0,1,0.2,1.7,0.6,2.2c0.4,0.5,1.1,0.7,2.1,0.7
				c0.8,0,1.5-0.2,1.9-0.5c0.4-0.4,0.6-0.8,0.6-1.4h4.9c0,1.6-0.6,2.9-1.9,3.9c-1.2,0.9-3.1,1.4-5.4,1.4c-2.5,0-4.5-0.6-5.9-1.8
				c-1.4-1.2-2.1-2.9-2.1-5.3c0-2.3,0.7-4.1,2-5.3C86.4-5.8,88.3-6.4,90.7-6.4z M90.9-3.2c-1.6,0-2.5,0.8-2.7,2.3h5
				c0-0.7-0.2-1.2-0.6-1.6C92.1-3,91.6-3.2,90.9-3.2z"/>
		</g>
	</g>
</g>
<g>
	<g transform="translate(258.35028, 22.148438)">
	</g>
</g>
<g>
	<g transform="translate(263.818176, 22.148438)">
		<g>
			<path class="st2" d="M102.2,7.4l-2.1-7.5H100l-2.1,7.5h-5L87.9-6.1h5.5l2,8h0.2l2.1-8h5.1l2,8h0.2l2.1-8h5l-5,13.5H102.2z"/>
		</g>
	</g>
</g>
<g>
	<g transform="translate(281.017191, 22.148438)">
		<g>
			<path class="st2" d="M95.4-7.7v-3.4h5.1v3.4H95.4z M95.4,7.4V-6.1h5.1V7.4H95.4z"/>
		</g>
	</g>
</g>
<g>
	<g transform="translate(286.487859, 22.148438)">
		<g>
			<path class="st2" d="M106-6.1v3.4h-2.9v5.1c0,0.6,0.1,1.1,0.3,1.4c0.2,0.3,0.6,0.4,1.1,0.4h1.4v3c-0.4,0.1-1,0.2-1.6,0.3
				c-0.6,0.1-1.2,0.1-1.7,0.1c-1.5,0-2.7-0.3-3.5-0.8c-0.8-0.6-1.2-1.5-1.2-2.8v-6.8h-1.9v-3.4h2.1l1.1-4.1h3.8v4.1H106z"/>
		</g>
	</g>
</g>
<g>
	<g transform="translate(294.089206, 22.148438)">
		<g>
			<path class="st2" d="M104.7-4.7c0.5-0.5,1.2-1,1.9-1.2c0.7-0.3,1.5-0.5,2.3-0.5c1.6,0,2.7,0.4,3.5,1.3c0.8,0.9,1.2,2.1,1.2,3.8
				v8.8h-5.1v-8.1c0-0.6-0.2-1-0.5-1.4c-0.3-0.4-0.7-0.5-1.2-0.5c-0.6,0-1.1,0.2-1.5,0.6c-0.4,0.4-0.6,0.9-0.6,1.5v7.9h-5.1v-18.5
				h5.1V-4.7z"/>
		</g>
	</g>
</g>
<g>
	<g transform="translate(305.971114, 22.148438)">
	</g>
</g>
<g>
	<g transform="translate(311.441781, 22.148438)">
		<g>
			<path class="st2" d="M115.1,7.4l-0.3-2c-0.5,0.7-1.2,1.3-2.1,1.7c-0.9,0.4-1.8,0.6-2.7,0.6c-1.6,0-2.8-0.4-3.5-1.3
				c-0.8-0.9-1.2-2.1-1.2-3.8v-8.8h5.1V2c0,0.6,0.1,1.1,0.4,1.4c0.3,0.3,0.7,0.5,1.3,0.5c0.6,0,1.1-0.2,1.5-0.6
				c0.4-0.4,0.6-0.9,0.6-1.5v-7.9h5.1V7.4H115.1z"/>
		</g>
	</g>
</g>
<g>
	<g transform="translate(323.323686, 22.148438)">
		<g>
			<path class="st2" d="M115.7-6.4c1.8,0,3.3,0.4,4.6,1.1c1.3,0.7,1.9,1.8,1.9,3.3h-4.8c0-0.5-0.2-0.9-0.7-1.1
				c-0.3-0.2-0.7-0.2-1.1-0.2c-1.2,0-1.8,0.3-1.8,0.9c0,0.3,0.2,0.6,0.6,0.7c0.4,0.1,1.1,0.3,2.1,0.4c1.2,0.2,2.2,0.4,3,0.6
				c0.8,0.2,1.5,0.6,2.1,1.2c0.6,0.6,0.9,1.4,0.9,2.5c0,1.7-0.6,3-1.9,3.7c-1.3,0.7-3,1.1-5.1,1.1c-1.2,0-2.3-0.2-3.4-0.5
				c-1.1-0.3-1.9-0.8-2.6-1.5c-0.7-0.7-1-1.6-1-2.7h4.7v0.1c0,0.6,0.3,1,0.7,1.2c0.5,0.2,1,0.4,1.5,0.4c1.4,0,2.1-0.3,2.1-1
				c0-0.3-0.2-0.6-0.7-0.8c-0.4-0.2-1.2-0.3-2.2-0.5c-1.2-0.2-2.2-0.4-3-0.7c-0.8-0.2-1.5-0.6-2-1.2c-0.6-0.6-0.9-1.4-0.9-2.4
				c0-1.7,0.6-2.8,1.9-3.5C112.1-6.1,113.7-6.4,115.7-6.4z"/>
		</g>
	</g>
</g>
<g>
	<g transform="translate(334.127922, 22.148438)">
	</g>
</g>
<path class="st4" d="M452.8,31.5h129.5v2H452.8V31.5z"/>
<g>
	<g transform="translate(339.595818, 22.148438)">
		<g>
			<path class="st4" d="M115.3,7.4v-17.6h5.7V7.4H115.3z"/>
		</g>
	</g>
</g>
<g>
	<g transform="translate(346.141429, 22.148438)">
		<g>
			<path class="st4" d="M124.9-10.2c6.2,0,9.2,2.9,9.2,8.8c0,5.9-3.1,8.8-9.2,8.8h-7.6v-17.6H124.9z M122.9,3.2h1.9
				c2.4,0,3.6-1.3,3.6-3.8v-1.5c0-2.5-1.2-3.8-3.6-3.8h-1.9V3.2z"/>
		</g>
	</g>
</g>
<g>
	<g transform="translate(360.154018, 22.148438)">
		<g>
			<path class="st4" d="M121.9-10.2h15.2V-6h-9.6v2.4h8.2v4h-8.2v2.7h9.7v4.2h-15.4V-10.2z"/>
		</g>
	</g>
</g>
<g>
	<g transform="translate(373.091673, 22.148438)">
		<g>
			<path class="st4" d="M138.8,7.4l-7.4-8.5v8.5h-5.2v-17.6h4.9l7.4,8.7v-8.7h5.2V7.4H138.8z"/>
		</g>
	</g>
</g>
<g>
	<g transform="translate(388.160007, 22.148438)">
		<g>
			<path class="st4" d="M143-10.2c0.9,0,1.7,0.2,2.4,0.6c0.8,0.4,1.3,0.9,1.8,1.5c0.4,0.7,0.7,1.4,0.7,2.2c0,2.2-1,3.5-3,4.1v0.1
				c2.2,0.5,3.4,2,3.4,4.4c0,0.9-0.2,1.8-0.7,2.5c-0.4,0.7-1.1,1.3-1.9,1.6c-0.8,0.4-1.6,0.6-2.6,0.6h-11.9v-17.6H143z M136.9-3.4
				h3.9c0.4,0,0.7-0.1,0.9-0.4c0.2-0.3,0.4-0.6,0.4-1V-5c0-0.4-0.1-0.7-0.4-1c-0.2-0.3-0.6-0.4-0.9-0.4h-3.9V-3.4z M136.9,3.3h4.3
				c0.4,0,0.7-0.1,0.9-0.4c0.2-0.3,0.4-0.6,0.4-1V1.7c0-0.4-0.1-0.7-0.4-1c-0.2-0.3-0.5-0.4-0.9-0.4h-4.3V3.3z"/>
		</g>
	</g>
</g>
<g>
	<g transform="translate(402.172593, 22.148438)">
		<g>
			<path class="st4" d="M152.7-4.8c0,1.1-0.3,2.1-0.9,2.9c-0.6,0.9-1.4,1.5-2.5,1.9l3.9,7.4h-6.3L143.7,1h-2.1v6.4H136v-17.6h10.8
				c1.3,0,2.3,0.2,3.2,0.7c0.9,0.5,1.6,1.1,2,2C152.4-6.7,152.7-5.8,152.7-4.8z M146.9-4.6c0-0.5-0.2-0.8-0.5-1.1
				c-0.3-0.3-0.7-0.5-1.1-0.5h-3.7V-3h3.7c0.4,0,0.8-0.2,1.1-0.5C146.7-3.7,146.9-4.1,146.9-4.6z"/>
		</g>
	</g>
</g>
<g>
	<g transform="translate(416.185178, 22.148438)">
		<g>
			<path class="st4" d="M140.9,7.4v-17.6h5.7V7.4H140.9z"/>
		</g>
	</g>
</g>
<g>
	<g transform="translate(422.730789, 22.148438)">
		<g>
			<path class="st4" d="M150.4-10.2c6.2,0,9.2,2.9,9.2,8.8c0,5.9-3.1,8.8-9.2,8.8h-7.6v-17.6H150.4z M148.5,3.2h1.9
				c2.4,0,3.6-1.3,3.6-3.8v-1.5c0-2.5-1.2-3.8-3.6-3.8h-1.9V3.2z"/>
		</g>
	</g>
</g>
<g>
	<g transform="translate(12.294813, 21.544391)">
		<g>
			<path class="st2" d="M20.5-7c0.3-1.2,0.8-2.1,1.4-2.8c0.6-0.6,1.5-0.9,2.6-0.9c0.8,0,1.5,0.3,2,0.8c0.5,0.5,0.8,1.2,0.8,2
				c0,0.3,0,0.6-0.1,0.9c-0.2,0.8-0.6,1.3-1.1,1.7c-0.5,0.3-1,0.5-1.6,0.5c-0.3,0-0.6,0-0.8-0.1c-0.2,0-0.5-0.1-0.7-0.2l-1.6,5.8
				c-0.6,2.1-1.5,3.8-2.9,4.9c-1.3,1.1-3.2,1.7-5.5,1.7c-2.1,0-3.7-0.4-4.9-1.2C7,5.3,6.4,4.1,6.4,2.4c0-0.8,0.1-1.7,0.4-2.7l2-7.2
				C8.9-7.7,9-8,9-8.2c0-0.2,0-0.4-0.1-0.5C8.8-8.8,8.7-9,8.6-9.2C8.5-9.4,8.4-9.6,8.4-9.7c0-0.1,0-0.2,0.1-0.3
				c0.1-0.2,0.2-0.4,0.5-0.5c0.3-0.1,0.6-0.1,1.1-0.1h6.3c0.8,0,1.1,0.2,1.1,0.7c0,0.1,0,0.2,0,0.3c0,0.2-0.1,0.3-0.2,0.4
				c-0.1,0.1-0.2,0.2-0.4,0.3c-0.3,0.2-0.5,0.3-0.7,0.5c-0.2,0.2-0.3,0.5-0.5,0.9l-2.3,8.2C13.1,1.3,13,1.8,13,2.2
				C13,3.4,13.7,4,15,4c0.8,0,1.4-0.2,2-0.8c0.5-0.5,1-1.4,1.3-2.6L20.5-7z"/>
		</g>
	</g>
</g>
<g>
	<g transform="translate(27.139209, 21.544391)">
		<g>
			<path class="st2" d="M23-7.1c1.4,0,2.4,0.5,3.2,1.4C27-4.8,27.4-3.6,27.4-2c0,0.8-0.1,1.7-0.3,2.6c-0.5,2.2-1.5,3.9-3,5
				C22.7,6.9,21,7.4,19,7.4c-1.2,0-2.3-0.3-3.2-0.8L15,9.5c-0.1,0.2-0.1,0.4-0.1,0.6c0,0.2,0,0.4,0.1,0.5c0.1,0.1,0.2,0.3,0.4,0.4
				c0.1,0.1,0.2,0.2,0.3,0.3c0,0.1,0,0.2,0,0.3c-0.1,0.2-0.2,0.4-0.5,0.5c-0.3,0.1-0.7,0.1-1.2,0.1H7.8c-0.5,0-0.8-0.1-1-0.2
				c-0.2-0.2-0.3-0.3-0.2-0.6c0-0.1,0.1-0.3,0.2-0.4C6.9,11,7,10.9,7.2,10.9c0.3-0.2,0.5-0.4,0.6-0.6C8,10.1,8.1,9.8,8.2,9.4
				l3.9-12.8c0.1-0.2,0.1-0.3,0.1-0.4c0-0.2-0.1-0.4-0.1-0.5c-0.1-0.1-0.2-0.2-0.4-0.4c-0.2-0.2-0.3-0.3-0.4-0.4
				c-0.1-0.1-0.1-0.3,0-0.4c0.1-0.4,0.7-0.8,1.7-1.1C14-6.8,15-7,16.1-7c0.8,0,1.4,0.2,1.9,0.6c0.5,0.4,0.8,0.9,0.9,1.6
				C20.2-6.3,21.5-7.1,23-7.1z M19.9,0.9c0.4-1.6,0.6-2.7,0.6-3.3c0-0.4-0.1-0.6-0.2-0.7c-0.1-0.1-0.3-0.2-0.5-0.2
				c-0.2,0-0.4,0.1-0.6,0.2C19-3,18.8-2.7,18.5-2.3l-2.1,7C16.6,4.9,16.9,5,17.2,5c0.5,0,0.9-0.3,1.4-0.8C19,3.6,19.5,2.5,19.9,0.9z
				"/>
		</g>
	</g>
</g>
<g>
	<g transform="translate(40.037732, 21.544391)">
		<g>
			<path class="st2" d="M28.3,3.3c0,0.1-0.1,0.2-0.1,0.3c0,0.1,0,0.2,0.1,0.3C28.4,4,28.5,4,28.6,4c0.2,0,0.4-0.1,0.5-0.3
				c0.2-0.2,0.3-0.3,0.3-0.3c0.1,0,0.2,0.1,0.2,0.2c0.1,0.1,0.1,0.3,0.1,0.4c0,0.5-0.2,1-0.5,1.5c-0.4,0.5-0.9,0.9-1.5,1.2
				c-0.6,0.3-1.3,0.5-2.1,0.5c-0.9,0-1.7-0.2-2.3-0.5c-0.7-0.3-1.1-0.8-1.4-1.4c-0.5,0.6-1,1.1-1.7,1.4c-0.6,0.3-1.3,0.5-2,0.5
				c-0.8,0-1.6-0.2-2.3-0.6c-0.7-0.4-1.3-1-1.7-1.8c-0.4-0.8-0.6-1.6-0.6-2.6c0-1.6,0.3-3.2,0.9-4.6c0.6-1.4,1.5-2.6,2.6-3.5
				c1.1-0.9,2.4-1.3,3.8-1.3c0.8,0,1.4,0.1,2,0.3c0.5,0.2,1,0.4,1.5,0.8l0.9-3c0.1-0.2,0.1-0.3,0.1-0.4c0-0.2-0.1-0.4-0.1-0.5
				c-0.1-0.1-0.2-0.2-0.4-0.4c-0.2-0.1-0.3-0.3-0.4-0.4c-0.1-0.1-0.1-0.3,0-0.4c0.1-0.4,0.7-0.8,1.7-1.1c1-0.3,2.1-0.5,3.2-0.5
				c1,0,1.8,0.2,2.3,0.6c0.5,0.4,0.7,0.9,0.7,1.6c0,0.4-0.1,0.8-0.2,1.2L28.3,3.3z M23.8-4.2c-0.3-0.2-0.6-0.4-0.9-0.4
				c-0.5,0-1,0.4-1.5,1.2c-0.5,0.8-0.9,1.7-1.2,2.8c-0.3,1.1-0.4,2.1-0.4,2.9c0,1,0.3,1.5,1,1.5c0.2,0,0.4-0.1,0.6-0.3
				c0.2-0.2,0.3-0.5,0.5-0.9L23.8-4.2z"/>
		</g>
	</g>
</g>
<g>
	<g transform="translate(52.214083, 21.544391)">
		<g>
			<path class="st2" d="M26.9-7c2.1,0,3.7,0.4,4.9,1.1c1.2,0.8,1.9,1.9,1.9,3.5c0,0.6-0.1,1.2-0.3,2l-1.1,3.7c0,0.1,0,0.2,0,0.3
				c0,0.3,0.1,0.4,0.4,0.4c0.2,0,0.4-0.1,0.5-0.3c0.2-0.2,0.3-0.3,0.3-0.3c0.1,0,0.2,0.1,0.2,0.2c0.1,0.1,0.1,0.3,0.1,0.4
				c0,0.5-0.2,1-0.6,1.5c-0.4,0.5-0.9,0.9-1.5,1.2c-0.6,0.3-1.3,0.5-2.1,0.5c-0.9,0-1.7-0.2-2.4-0.5c-0.7-0.3-1.1-0.8-1.4-1.5
				c-0.5,0.6-1.2,1.1-1.9,1.5c-0.7,0.3-1.5,0.5-2.3,0.5c-0.9,0-1.7-0.2-2.4-0.5c-0.6-0.4-1.1-0.8-1.4-1.4c-0.3-0.6-0.5-1.2-0.5-1.8
				c0-0.3,0-0.6,0.1-0.8c0.3-1.2,0.9-2.2,1.9-2.8c1-0.6,2.1-0.9,3.4-0.9c1.5,0,2.9,0.2,4.4,0.7l0.7-1.8c0.2-0.8,0.4-1.3,0.4-1.8
				c0-0.4-0.2-0.7-0.4-0.9c-0.3-0.2-0.7-0.3-1.2-0.3c0.1,0.3,0.2,0.6,0.2,0.9c0,0.7-0.2,1.2-0.8,1.7c-0.5,0.5-1.2,0.7-2.1,0.7
				c-0.9,0-1.5-0.2-2-0.6c-0.5-0.4-0.7-0.9-0.7-1.4c0-0.9,0.5-1.6,1.5-2.2C23.4-6.7,24.9-7,26.9-7z M25.4,1.1
				c-0.5,0-0.9,0.2-1.2,0.6c-0.3,0.4-0.5,0.8-0.5,1.2c0,0.3,0.1,0.5,0.2,0.7c0.1,0.2,0.3,0.2,0.6,0.2c0.2,0,0.5-0.1,0.8-0.3
				c0.3-0.2,0.5-0.5,0.6-0.9l0.6-1.6C26.2,1.2,25.8,1.1,25.4,1.1z"/>
		</g>
	</g>
</g>
<g>
	<g transform="translate(64.370371, 21.544391)">
		<g>
			<path class="st2" d="M33.4-6.6c0.3,0,0.6,0.1,0.8,0.2c0.2,0.1,0.3,0.3,0.3,0.6c0,0.1,0,0.2,0,0.4c-0.2,0.8-0.8,1.2-1.6,1.2h-1.6
				l-2,6.6c-0.1,0.3-0.1,0.5-0.1,0.8c0,0.3,0.1,0.6,0.2,0.7C29.6,4,29.8,4,30.1,4c0.3,0,0.7,0,1.1-0.1c0.2,0,0.4-0.1,0.6-0.1
				c0.1,0,0.2,0,0.3,0.1c0.1,0.1,0.1,0.2,0.1,0.3c0,0.4-0.3,0.8-0.8,1.3c-0.5,0.5-1.3,0.9-2.2,1.3c-0.9,0.4-2,0.5-3.1,0.5
				c-1.2,0-2.2-0.3-2.9-0.8c-0.7-0.6-1.1-1.3-1.1-2.3c0-0.4,0.1-0.9,0.2-1.3L24-2.3c0.1-0.3,0.1-0.5,0.1-0.7c0-0.4-0.1-0.7-0.2-0.9
				s-0.4-0.5-0.7-0.8c-0.3-0.2-0.5-0.5-0.6-0.6c-0.1-0.2-0.1-0.4-0.1-0.6c0.1-0.2,0.2-0.4,0.5-0.5c0.2-0.1,0.6-0.2,1.1-0.2h1.5
				l1.7-1.7c0.6-0.6,1.1-1,1.6-1.2c0.5-0.2,1.1-0.4,1.9-0.4c1.1,0,1.7,0.4,1.7,1.3c0,0.3,0,0.5-0.1,0.8L32-6.6H33.4z"/>
		</g>
	</g>
</g>
<g>
	<g transform="translate(72.03312, 21.544391)">
		<g>
			<path class="st2" d="M33.1-7.1C35.3-7.1,37-6.7,38-6c1,0.7,1.5,1.6,1.5,2.8c0,0.3,0,0.7-0.1,0.9c-0.3,1.2-1,2-2.2,2.5
				C36,0.7,34.5,1,32.9,1c-0.8,0-1.6-0.1-2.4-0.2c0,0.9,0.2,1.6,0.8,2c0.5,0.4,1.2,0.6,2.2,0.6c0.4,0,0.8,0,1.2-0.1
				c0.4-0.1,0.9-0.2,1.5-0.4c0.5-0.2,0.8-0.3,1-0.3c0.2,0,0.3,0.1,0.3,0.4c0,0.6-0.2,1.3-0.7,2c-0.5,0.7-1.2,1.3-2.1,1.8
				c-0.9,0.5-2.1,0.7-3.4,0.7c-2,0-3.6-0.5-4.9-1.5c-1.3-1-1.9-2.4-1.9-4.4c0-0.5,0.1-1.2,0.2-1.9c0.4-2.2,1.4-3.8,2.9-5
				C29.1-6.5,30.9-7.1,33.1-7.1z M30.7-0.8c0.1,0,0.2,0,0.3,0c0.8,0,1.3-0.3,1.7-1c0.4-0.7,0.6-1.5,0.6-2.3c0-0.5-0.2-0.8-0.4-0.8
				c-0.2,0-0.4,0.2-0.7,0.5c-0.3,0.3-0.5,0.8-0.8,1.4C31.1-2.4,30.9-1.6,30.7-0.8z"/>
		</g>
	</g>
</g>
</svg>
