<?xml version="1.0" encoding="utf-8"?>
<!-- Generator: Adobe Illustrator 26.3.1, SVG Export Plug-In . SVG Version: 6.00 Build 0)  -->
<svg version="1.1" id="Layer_1" xmlns="http://www.w3.org/2000/svg" xmlns:xlink="http://www.w3.org/1999/xlink" x="0px" y="0px"
	 viewBox="0 0 1893 132" style="enable-background:new 0 0 1893 132;" xml:space="preserve">
<style type="text/css">
	.st0{fill:#1A202C;}
	.st1{fill:#1F9BF0;}
	.st2{fill:#FFFFFF;}
</style>
<rect class="st0" width="1893" height="132"/>
<g>
	<g>
		<path class="st1" d="M78.4,65.6c0,16.7-7.5,25.1-22.6,25.1c-14.4,0-21.7-8-21.7-24.1V30.2h7v35.9c0,12.2,5.1,18.3,15.4,18.3
			c9.9,0,14.9-5.9,14.9-17.7V30.2h7V65.6z"/>
		<path class="st1" d="M99.3,83.5h-0.2v25.7h-6.8v-62h6.8v7.5h0.2c3.3-5.6,8.2-8.5,14.7-8.5c5.5,0,9.8,1.9,12.8,5.7
			s4.6,8.9,4.6,15.3c0,7.1-1.7,12.8-5.2,17.1c-3.5,4.3-8.2,6.4-14.2,6.4C106.5,90.7,102.3,88.3,99.3,83.5z M99.1,66.4v5.9
			c0,3.5,1.1,6.5,3.4,8.9c2.3,2.4,5.2,3.7,8.7,3.7c4.1,0,7.4-1.6,9.7-4.7c2.3-3.2,3.5-7.5,3.5-13.2c0-4.7-1.1-8.4-3.3-11.1
			s-5.1-4-8.9-4c-4,0-7.1,1.4-9.5,4.1S99.1,62.2,99.1,66.4z"/>
		<path class="st1" d="M178.6,89.7h-6.8v-7.2h-0.2c-3.2,5.5-8,8.2-14.6,8.2c-5.3,0-9.6-1.9-12.8-5.7c-3.2-3.8-4.8-9-4.8-15.5
			c0-7,1.8-12.7,5.3-16.9c3.5-4.2,8.3-6.3,14.2-6.3c5.8,0,10.1,2.3,12.7,6.9h0.2V26.8h6.8V89.7z M171.8,70.5v-6.3
			c0-3.4-1.1-6.3-3.4-8.7c-2.3-2.4-5.1-3.6-8.6-3.6c-4.2,0-7.4,1.5-9.8,4.6c-2.4,3-3.6,7.2-3.6,12.6c0,4.9,1.1,8.8,3.4,11.6
			c2.3,2.8,5.3,4.3,9.2,4.3c3.8,0,6.9-1.4,9.2-4.1C170.6,78.1,171.8,74.6,171.8,70.5z"/>
		<path class="st1" d="M222.8,89.7H216V83h-0.2c-3,5.1-7.3,7.6-13.1,7.6c-4.2,0-7.5-1.1-9.9-3.4c-2.4-2.2-3.6-5.2-3.6-8.9
			c0-7.9,4.7-12.6,14-13.9l12.7-1.8c0-7.2-2.9-10.8-8.8-10.8c-5.1,0-9.7,1.7-13.9,5.2v-7c4.2-2.7,9-4,14.4-4c10,0,15,5.3,15,15.9
			V89.7z M216,68.2l-10.3,1.4c-3.2,0.4-5.5,1.2-7.1,2.3c-1.6,1.1-2.4,3.1-2.4,6c0,2.1,0.7,3.8,2.2,5.1c1.5,1.3,3.5,2,5.9,2
			c3.4,0,6.2-1.2,8.4-3.5c2.2-2.4,3.3-5.4,3.3-9V68.2z"/>
		<path class="st1" d="M255.3,89.3c-1.6,0.9-3.7,1.3-6.3,1.3c-7.4,0-11.2-4.2-11.2-12.5V53h-7.3v-5.8h7.3V36.8l6.8-2.2v12.6h10.7V53
			h-10.7v23.9c0,2.9,0.5,4.9,1.5,6.1c1,1.2,2.6,1.8,4.8,1.8c1.7,0,3.2-0.5,4.4-1.4V89.3z"/>
		<path class="st1" d="M298.6,70.1h-30c0.1,4.7,1.4,8.4,3.8,11c2.4,2.6,5.8,3.9,10,3.9c4.8,0,9.2-1.6,13.2-4.7v6.4
			c-3.7,2.7-8.7,4.1-14.8,4.1c-6,0-10.7-1.9-14.2-5.8c-3.4-3.9-5.1-9.3-5.1-16.3c0-6.6,1.9-12,5.6-16.2c3.7-4.2,8.4-6.2,14-6.2
			S291,48,294,51.6c3,3.6,4.6,8.6,4.6,15V70.1z M291.6,64.4c0-3.9-1-7-2.8-9.2c-1.9-2.2-4.5-3.3-7.8-3.3c-3.2,0-5.9,1.1-8.2,3.4
			c-2.2,2.3-3.6,5.3-4.2,9H291.6z"/>
		<path class="st2" d="M344.6,89.7V41.4h-19V30.2h51.8v11.2h-19v48.3H344.6z"/>
		<path class="st2" d="M411.7,43.3c3.6,0,6.9,0.7,9.7,2.2c2.9,1.4,5.1,3.7,6.8,6.6c1.6,3,2.5,6.8,2.5,11.4v26.2h-13.3V65.5
			c0-3.7-0.8-6.4-2.4-8.2c-1.6-1.8-3.9-2.6-6.8-2.6c-2.1,0-4,0.5-5.7,1.4c-1.7,0.9-3,2.2-3.9,4c-0.9,1.8-1.4,4.1-1.4,7v22.6h-13.3
			V26.6h13.3v30l-3-3.8c1.6-3.1,4-5.4,7.1-7.1C404.3,44.1,407.8,43.3,411.7,43.3z"/>
		<path class="st2" d="M465.3,90.4c-5.2,0-9.8-1-13.7-3.1c-3.9-2-6.9-4.8-9.1-8.4c-2.2-3.5-3.2-7.6-3.2-12.1c0-4.5,1-8.6,3.1-12.2
			c2.1-3.6,5-6.4,8.7-8.4c3.7-2,7.9-3,12.5-3c4.5,0,8.5,1,12.1,2.9c3.6,1.9,6.4,4.6,8.5,8.2c2.1,3.5,3.1,7.7,3.1,12.7
			c0,0.5,0,1.1-0.1,1.7c-0.1,0.7-0.1,1.3-0.2,1.8H450v-7.7h30.2l-5.2,2.3c0.1-2.4-0.4-4.4-1.4-6.2c-1-1.8-2.3-3.1-4-4.1
			c-1.7-1-3.7-1.5-6-1.5c-2.3,0-4.3,0.5-6,1.5c-1.7,1-3.1,2.4-4,4.2c-1,1.8-1.4,3.9-1.4,6.3v2c0,2.6,0.6,4.8,1.7,6.6
			c1.1,1.9,2.7,3.3,4.7,4.3c2,1,4.4,1.5,7.1,1.5c2.4,0,4.5-0.4,6.3-1.1c1.8-0.7,3.5-1.8,5.1-3.3l7.1,7.7c-2.1,2.4-4.7,4.2-7.9,5.5
			C473.1,89.7,469.5,90.4,465.3,90.4z"/>
		<path class="st2" d="M535.1,89.7h-13.9V30.2h45v11h-31.1V89.7z M534,56.9h28.6v11H534V56.9z"/>
		<path class="st2" d="M593.9,90.4c-3.9,0-7.3-0.7-10.2-2.2c-2.9-1.5-5.2-3.7-6.9-6.8c-1.6-3.1-2.5-6.9-2.5-11.6V43.9h13.3v23.8
			c0,3.9,0.8,6.7,2.4,8.5s3.9,2.7,6.8,2.7c2,0,3.9-0.5,5.4-1.4c1.6-0.9,2.8-2.3,3.8-4.1c0.9-1.8,1.4-4.1,1.4-6.8V43.9h13.2v45.7
			h-12.6V77l2.3,3.7c-1.6,3.2-3.9,5.6-6.8,7.2C600.7,89.5,597.5,90.4,593.9,90.4z"/>
		<path class="st2" d="M627.6,55.2V45h31.7v10.2H627.6z M651.7,90.4c-5.4,0-9.6-1.4-12.6-4.1c-3-2.7-4.5-6.8-4.5-12.3V33.8H648v39.9
			c0,1.9,0.5,3.4,1.5,4.5c1,1.1,2.3,1.6,4,1.6c2.2,0,4-0.6,5.4-1.7l3.5,9.3c-1.3,1-2.9,1.7-4.8,2.2
			C655.7,90.1,653.8,90.4,651.7,90.4z"/>
		<path class="st2" d="M689.3,90.4c-3.9,0-7.3-0.7-10.2-2.2c-2.9-1.5-5.2-3.7-6.9-6.8c-1.6-3.1-2.5-6.9-2.5-11.6V43.9H683v23.8
			c0,3.9,0.8,6.7,2.4,8.5c1.6,1.8,3.9,2.7,6.8,2.7c2,0,3.9-0.5,5.4-1.4c1.6-0.9,2.8-2.3,3.8-4.1c0.9-1.8,1.4-4.1,1.4-6.8V43.9h13.2
			v45.7h-12.6V77l2.3,3.7c-1.6,3.2-3.9,5.6-6.8,7.2C696.1,89.5,692.8,90.4,689.3,90.4z"/>
		<path class="st2" d="M728.4,89.7V43.9h12.7v13l-1.8-3.8c1.4-3.2,3.5-5.7,6.5-7.4c3-1.7,6.7-2.5,11-2.5v12.3
			c-0.5-0.1-1-0.2-1.5-0.3c-0.5-0.1-0.9-0.1-1.4-0.1c-3.7,0-6.7,1-8.9,3.1c-2.2,2.1-3.3,5.3-3.3,9.7v21.6H728.4z"/>
		<path class="st2" d="M787.7,90.4c-5.2,0-9.8-1-13.7-3.1c-3.9-2-6.9-4.8-9.1-8.4c-2.2-3.5-3.2-7.6-3.2-12.1c0-4.5,1-8.6,3.1-12.2
			c2.1-3.6,5-6.4,8.7-8.4c3.7-2,7.9-3,12.5-3c4.5,0,8.5,1,12.1,2.9c3.6,1.9,6.4,4.6,8.5,8.2c2.1,3.5,3.1,7.7,3.1,12.7
			c0,0.5,0,1.1-0.1,1.7c-0.1,0.7-0.1,1.3-0.2,1.8h-37.1v-7.7h30.2l-5.2,2.3c0.1-2.4-0.4-4.4-1.4-6.2c-1-1.8-2.3-3.1-4-4.1
			c-1.7-1-3.7-1.5-6-1.5c-2.3,0-4.3,0.5-6,1.5c-1.7,1-3.1,2.4-4,4.2c-1,1.8-1.4,3.9-1.4,6.3v2c0,2.6,0.6,4.8,1.7,6.6
			c1.1,1.9,2.7,3.3,4.7,4.3c2,1,4.4,1.5,7.1,1.5c2.4,0,4.5-0.4,6.3-1.1c1.8-0.7,3.5-1.8,5.1-3.3l7.1,7.7c-2.1,2.4-4.7,4.2-7.9,5.5
			C795.5,89.7,791.9,90.4,787.7,90.4z"/>
		<path class="st2" d="M849.4,37.6c-2.5,0-4.5-0.7-6-2.1c-1.5-1.4-2.3-3.2-2.3-5.3c0-2.1,0.8-3.9,2.3-5.3c1.5-1.4,3.5-2.1,6-2.1
			c2.4,0,4.4,0.7,6,2c1.6,1.3,2.3,3,2.3,5.1c0,2.2-0.8,4-2.3,5.5C853.9,36.8,851.9,37.6,849.4,37.6z M842.7,89.7V43.9H856v45.7
			H842.7z"/>
		<path class="st2" d="M896.1,43.3c3.6,0,6.9,0.7,9.7,2.2c2.9,1.4,5.1,3.7,6.8,6.6c1.6,3,2.5,6.8,2.5,11.4v26.2h-13.3V65.5
			c0-3.7-0.8-6.4-2.4-8.2c-1.6-1.8-3.9-2.6-6.8-2.6c-2.1,0-4,0.5-5.7,1.4c-1.7,0.9-3,2.2-3.9,4c-0.9,1.8-1.4,4.1-1.4,7v22.6h-13.3
			V43.9H881v12.7l-2.4-3.8c1.6-3.1,4-5.4,7.1-7.1C888.7,44.1,892.2,43.3,896.1,43.3z"/>
		<path class="st2" d="M971.7,90.7c-4.8,0-9.3-0.6-13.7-1.9c-4.4-1.3-7.9-2.9-10.6-5l4.7-10.4c2.5,1.8,5.5,3.3,9,4.5
			c3.5,1.2,7.1,1.7,10.6,1.7c2.7,0,4.9-0.3,6.6-0.8c1.7-0.6,2.9-1.3,3.7-2.3c0.8-0.9,1.2-2,1.2-3.3c0-1.6-0.6-2.8-1.9-3.8
			c-1.2-0.9-2.9-1.7-5-2.3c-2.1-0.6-4.3-1.2-6.8-1.7c-2.4-0.5-4.9-1.2-7.4-2c-2.5-0.8-4.7-1.8-6.8-3.1c-2.1-1.3-3.7-2.9-4.9-5
			c-1.2-2.1-1.8-4.7-1.8-7.8c0-3.4,0.9-6.5,2.7-9.3c1.8-2.8,4.6-5,8.3-6.7c3.7-1.7,8.4-2.5,14-2.5c3.7,0,7.4,0.5,11.1,1.4
			c3.7,0.9,6.8,2.2,9.6,3.9l-4.3,10.4c-2.7-1.5-5.4-2.7-8.2-3.4c-2.8-0.8-5.6-1.1-8.2-1.1c-2.7,0-4.9,0.3-6.5,0.9
			c-1.6,0.6-2.8,1.4-3.6,2.4c-0.8,1-1.1,2.2-1.1,3.4c0,1.6,0.6,2.9,1.9,3.8c1.2,1,2.9,1.7,4.9,2.3c2,0.5,4.3,1.1,6.8,1.6
			c2.5,0.5,5,1.2,7.4,2c2.4,0.8,4.7,1.8,6.7,3c2,1.2,3.7,2.9,5,4.9c1.3,2.1,1.9,4.6,1.9,7.7c0,3.3-0.9,6.4-2.8,9.2
			c-1.8,2.8-4.6,5-8.4,6.7S977.3,90.7,971.7,90.7z"/>
		<path class="st2" d="M999.9,55.2V45h31.7v10.2H999.9z M1024,90.4c-5.4,0-9.6-1.4-12.6-4.1c-3-2.7-4.5-6.8-4.5-12.3V33.8h13.3v39.9
			c0,1.9,0.5,3.4,1.5,4.5c1,1.1,2.3,1.6,4,1.6c2.2,0,4-0.6,5.4-1.7l3.5,9.3c-1.3,1-2.9,1.7-4.8,2.2C1028,90.1,1026.1,90.4,1024,90.4
			z"/>
		<path class="st2" d="M1048.1,106.8c-2.3,0-4.6-0.4-7-1.1c-2.3-0.7-4.2-1.8-5.8-3.1l4.8-9.5c1,1,2.2,1.7,3.5,2.2
			c1.3,0.5,2.7,0.8,4,0.8c1.8,0,3.3-0.4,4.4-1.3c1.1-0.9,2.1-2.3,3-4.4l2.4-5.6l1-1.4l16.5-39.4h12.7L1067,92.5
			c-1.5,3.7-3.2,6.6-5.1,8.7c-1.9,2.1-4,3.5-6.3,4.4C1053.4,106.4,1050.9,106.8,1048.1,106.8z M1055.9,91.5l-20.3-47.5h13.6
			l15.9,38.3L1055.9,91.5z"/>
		<path class="st2" d="M1093.1,89.7V26.6h13.3v63.1H1093.1z"/>
		<path class="st2" d="M1141.4,90.4c-5.2,0-9.8-1-13.7-3.1s-6.9-4.8-9.1-8.4c-2.2-3.5-3.2-7.6-3.2-12.1c0-4.5,1-8.6,3.1-12.2
			c2.1-3.6,5-6.4,8.7-8.4c3.7-2,7.9-3,12.5-3c4.5,0,8.5,1,12.1,2.9c3.6,1.9,6.4,4.6,8.5,8.2c2.1,3.5,3.1,7.7,3.1,12.7
			c0,0.5,0,1.1-0.1,1.7c-0.1,0.7-0.1,1.3-0.2,1.8h-37.1v-7.7h30.2l-5.2,2.3c0.1-2.4-0.4-4.4-1.4-6.2c-1-1.8-2.3-3.1-4-4.1
			c-1.7-1-3.7-1.5-6-1.5c-2.3,0-4.3,0.5-6,1.5c-1.7,1-3.1,2.4-4,4.2c-1,1.8-1.4,3.9-1.4,6.3v2c0,2.6,0.6,4.8,1.7,6.6
			c1.1,1.9,2.7,3.3,4.7,4.3c2,1,4.4,1.5,7.1,1.5c2.4,0,4.5-0.4,6.3-1.1c1.8-0.7,3.5-1.8,5.1-3.3l7.1,7.7c-2.1,2.4-4.7,4.2-7.9,5.5
			C1149.2,89.7,1145.6,90.4,1141.4,90.4z"/>
		<path class="st2" d="M1206.9,89.7l-16.5-45.7h12.5l13.7,39.4h-6l14.3-39.4h11.3l13.8,39.4h-5.8l14-39.4h11.7l-16.6,45.7h-12.8
			l-12.2-33.7h3.8l-12.4,33.7H1206.9z"/>
		<path class="st2" d="M1282.7,37.6c-2.5,0-4.5-0.7-6-2.1c-1.5-1.4-2.3-3.2-2.3-5.3c0-2.1,0.8-3.9,2.3-5.3c1.5-1.4,3.5-2.1,6-2.1
			c2.4,0,4.4,0.7,6,2c1.6,1.3,2.3,3,2.3,5.1c0,2.2-0.8,4-2.3,5.5C1287.2,36.8,1285.2,37.6,1282.7,37.6z M1276.1,89.7V43.9h13.3v45.7
			H1276.1z"/>
		<path class="st2" d="M1296.2,55.2V45h31.7v10.2H1296.2z M1320.3,90.4c-5.4,0-9.6-1.4-12.6-4.1c-3-2.7-4.5-6.8-4.5-12.3V33.8h13.3
			v39.9c0,1.9,0.5,3.4,1.5,4.5c1,1.1,2.3,1.6,4,1.6c2.2,0,4-0.6,5.4-1.7l3.5,9.3c-1.3,1-2.9,1.7-4.8,2.2
			C1324.3,90.1,1322.4,90.4,1320.3,90.4z"/>
		<path class="st2" d="M1366.4,43.3c3.6,0,6.9,0.7,9.7,2.2c2.9,1.4,5.1,3.7,6.8,6.6c1.6,3,2.5,6.8,2.5,11.4v26.2h-13.3V65.5
			c0-3.7-0.8-6.4-2.4-8.2c-1.6-1.8-3.9-2.6-6.8-2.6c-2.1,0-4,0.5-5.7,1.4c-1.7,0.9-3,2.2-3.9,4c-0.9,1.8-1.4,4.1-1.4,7v22.6h-13.3
			V26.6h13.3v30l-3-3.8c1.6-3.1,4-5.4,7.1-7.1C1359,44.1,1362.5,43.3,1366.4,43.3z"/>
		<path class="st2" d="M1422.3,89.7V30.2h13.9v59.5H1422.3z"/>
		<path class="st2" d="M1450.2,89.7V30.2h27c6.5,0,12.2,1.2,17.1,3.7s8.8,5.9,11.6,10.4c2.8,4.4,4.2,9.7,4.2,15.7
			c0,6-1.4,11.2-4.2,15.7c-2.8,4.4-6.6,7.9-11.6,10.4s-10.6,3.7-17.1,3.7H1450.2z M1464.1,78.5h12.5c4,0,7.4-0.8,10.3-2.3
			c2.9-1.5,5.2-3.7,6.8-6.5c1.6-2.8,2.4-6.1,2.4-9.8c0-3.8-0.8-7.1-2.4-9.9c-1.6-2.8-3.9-4.9-6.8-6.4c-2.9-1.5-6.4-2.3-10.3-2.3
			h-12.5V78.5z"/>
		<path class="st2" d="M1534.1,78.6h32.4v11h-46.1V30.2h45v11h-31.3V78.6z M1533.1,54.1h28.6v10.8h-28.6V54.1z"/>
		<path class="st2" d="M1577.5,89.7V30.2h11.4L1624,73h-5.5V30.2h13.6v59.5h-11.4l-35.1-42.8h5.5v42.8H1577.5z"/>
		<path class="st2" d="M1646.1,89.7V30.2h29.1c7.5,0,13.1,1.4,16.9,4.2c3.8,2.8,5.7,6.6,5.7,11.2c0,3.1-0.8,5.8-2.3,8.1
			c-1.5,2.3-3.6,4.1-6.3,5.3c-2.7,1.2-5.7,1.9-9.1,1.9l1.6-3.6c3.7,0,7,0.6,9.9,1.9c2.9,1.2,5.1,3.1,6.8,5.4
			c1.6,2.4,2.5,5.3,2.5,8.8c0,5.1-2,9.1-6,11.9c-4,2.9-9.9,4.3-17.8,4.3H1646.1z M1659.8,79.3h16.1c3.5,0,6.2-0.6,8.1-1.8
			c1.9-1.2,2.8-3,2.8-5.5c0-2.6-0.9-4.4-2.8-5.6s-4.6-1.8-8.1-1.8h-17.2v-10h14.7c3.3,0,5.9-0.6,7.7-1.7c1.8-1.2,2.7-2.9,2.7-5.3
			s-0.9-4.1-2.7-5.3c-1.8-1.1-4.3-1.7-7.7-1.7h-13.7V79.3z"/>
		<path class="st2" d="M1711.2,89.7V30.2h25.8c5.3,0,9.9,0.9,13.8,2.6c3.9,1.7,6.8,4.2,8.9,7.4c2.1,3.2,3.1,7.1,3.1,11.5
			c0,4.5-1,8.3-3.1,11.5c-2.1,3.2-5.1,5.6-8.9,7.3c-3.9,1.7-8.4,2.5-13.8,2.5h-18.2l6.3-6v22.6H1711.2z M1725,68.6l-6.3-6.5h17.4
			c4.2,0,7.4-0.9,9.5-2.7c2.2-1.8,3.2-4.4,3.2-7.7c0-3.3-1.1-5.8-3.2-7.6c-2.2-1.8-5.3-2.7-9.5-2.7h-17.4l6.3-6.5V68.6z
			 M1749.1,89.7l-15-21.6h14.8l15,21.6H1749.1z"/>
		<path class="st2" d="M1773.6,89.7V30.2h13.9v59.5H1773.6z"/>
		<path class="st2" d="M1801.5,89.7V30.2h27c6.5,0,12.2,1.2,17.1,3.7s8.8,5.9,11.6,10.4c2.8,4.4,4.2,9.7,4.2,15.7
			c0,6-1.4,11.2-4.2,15.7c-2.8,4.4-6.6,7.9-11.6,10.4s-10.6,3.7-17.1,3.7H1801.5z M1815.4,78.5h12.5c4,0,7.4-0.8,10.3-2.3
			c2.9-1.5,5.2-3.7,6.8-6.5c1.6-2.8,2.4-6.1,2.4-9.8c0-3.8-0.8-7.1-2.4-9.9c-1.6-2.8-3.9-4.9-6.8-6.4c-2.9-1.5-6.4-2.3-10.3-2.3
			h-12.5V78.5z"/>
	</g>
</g>
</svg>
