<?xml version="1.0" encoding="utf-8"?>
<!-- Generator: Adobe Illustrator 26.3.0, SVG Export Plug-In . SVG Version: 6.00 Build 0)  -->
<svg version="1.1" id="Layer_1" xmlns="http://www.w3.org/2000/svg" xmlns:xlink="http://www.w3.org/1999/xlink" x="0px" y="0px"
	 viewBox="0 0 548.77 597.45" style="enable-background:new 0 0 548.77 597.45;" xml:space="preserve">
<style type="text/css">
	.st0{fill:url(#SVGID_1_);}
	.st1{fill:url(#SVGID_00000021835288817116986570000015570039370709529234_);}
	.st2{fill:url(#SVGID_00000102542046816967542920000012027648211331862966_);}
	.st3{fill:url(#SVGID_00000096036431436367771890000010830682730797466046_);}
	.st4{fill:url(#SVGID_00000032650483519710796150000015433416600412212151_);}
	.st5{fill:url(#SVGID_00000110471409367367735570000015209343554524551564_);}
	.st6{fill:url(#SVGID_00000010277830501826970810000009942378383833247652_);}
	.st7{fill:url(#SVGID_00000107590310854156992380000016877757344348758413_);}
	.st8{fill:url(#SVGID_00000003100704808954760930000013079862282674185861_);}
	.st9{fill:url(#SVGID_00000091737530775161969630000008232366490631090091_);}
	.st10{fill:url(#SVGID_00000080185039531119955290000009638024605829960328_);}
	.st11{fill:url(#SVGID_00000052784640946029341570000010789245335251456163_);}
	.st12{fill:url(#SVGID_00000162328492785533508970000012091990278196062620_);}
	.st13{fill:url(#SVGID_00000085933406724903832890000009977191522286338734_);}
	.st14{fill:url(#SVGID_00000074402419325917169910000005758092955416526772_);}
	.st15{fill:url(#SVGID_00000162327084553983097350000004964537571740541336_);}
	.st16{fill:url(#SVGID_00000096023175324657904560000013028923473307463613_);}
	.st17{fill:url(#SVGID_00000031208582506872368770000011368998905111272096_);}
	.st18{fill:url(#SVGID_00000051355068171020921360000008253703381893433248_);}
	.st19{fill:url(#SVGID_00000172427158546720245800000003848108817030048946_);}
	.st20{fill:url(#SVGID_00000178174262361568344800000006600974639698198155_);}
	.st21{fill:url(#SVGID_00000018952455397777588900000012816658778724488378_);}
	.st22{fill:url(#SVGID_00000173854155084533775720000003492757793760797116_);}
	.st23{fill:url(#SVGID_00000133505552437787317510000009636208982659997863_);}
	.st24{fill:url(#SVGID_00000100357759008297643860000017971835804451386528_);}
	.st25{fill:url(#SVGID_00000138574906591441113830000000581510461885655737_);}
	.st26{fill:#6A59A6;}
	.st27{fill:#6460AB;}
	.st28{fill:#6474B7;}
	.st29{fill:#2574B1;}
</style>
<g>
	<linearGradient id="SVGID_1_" gradientUnits="userSpaceOnUse" x1="862.0776" y1="-797.2086" x2="1270.9064" y2="-797.2086">
		<stop  offset="0" style="stop-color:#195685"/>
		<stop  offset="0.2118" style="stop-color:#1F5D8E"/>
		<stop  offset="0.5798" style="stop-color:#2F70A5"/>
		<stop  offset="1" style="stop-color:#438ECC"/>
	</linearGradient>
	<path class="st0" d="M862.08-677.51c1.89-3.25,4.75-4.11,8.41-4.06c11.95,0.17,23.9,0.06,36.34,0.06c0-1.85,0-3.4,0-4.95
		c0-42.31,0-84.62,0-126.94c0-7.17,1.79-9.03,8.89-9.04c19.43-0.03,38.85-0.03,58.28,0c7.15,0.01,8.89,1.79,8.89,9.02
		c0.01,42.05,0.01,84.09,0.01,126.14c0,1.71,0,3.42,0,5.45c15.11,0,29.93,0,45.41,0c0-1.54,0-3.19,0-4.85c0-52.56,0-105.11,0-157.67
		c0-8.43,1.66-10.12,9.96-10.12c18.89-0.01,37.79-0.01,56.68,0c7.87,0,9.7,1.81,9.7,9.57c0,52.56,0,105.11,0,157.67
		c0,1.72,0,3.43,0,5.43c15.08,0,29.92,0,45.41,0c0-1.6,0-3.27,0-4.94c0-75.31,0-150.62,0-225.93c0-1.06-0.01-2.13,0-3.19
		c0.04-7.16,1.87-9.03,8.92-9.04c10.64-0.02,21.29,0,31.93,0c8.52,0,17.03,0,25.55,0c7.92,0,9.66,1.72,9.66,9.51
		c0,76.11,0,152.22,0,228.32c0,1.7,0,3.4,0,5.55c7.48,0,14.63,0,21.77,0c4.92,0,9.85,0.09,14.77-0.03c3.43-0.09,6.53,0.39,7.84,4.04
		c1.33,3.69-0.82,6.03-3.62,7.97c-134.94,0-269.87,0-404.81,0C862.08-672.19,862.08-674.85,862.08-677.51z M1213.9-681.61
		c0-77.08,0-153.75,0-230.68c-17.26,0-34.31,0-51.37,0c0,77.06,0,153.83,0,230.68C1179.73-681.61,1196.6-681.61,1213.9-681.61z
		 M1092.07-681.7c0-53.56,0-106.81,0-160.2c-17.19,0-34.13,0-51.18,0c0,53.51,0,106.76,0,160.2
		C1057.98-681.7,1074.82-681.7,1092.07-681.7z M919.15-809.96c0,43,0,85.61,0,128.25c17.27,0,34.24,0,51.39,0
		c0-42.82,0-85.43,0-128.25C953.35-809.96,936.38-809.96,919.15-809.96z"/>
	
		<linearGradient id="SVGID_00000176761237580767128800000002210319230881904784_" gradientUnits="userSpaceOnUse" x1="868.4536" y1="-960.2697" x2="1258.2114" y2="-960.2697">
		<stop  offset="0" style="stop-color:#195685"/>
		<stop  offset="0.2118" style="stop-color:#1F5D8E"/>
		<stop  offset="0.5798" style="stop-color:#2F70A5"/>
		<stop  offset="1" style="stop-color:#438ECC"/>
	</linearGradient>
	<path style="fill:url(#SVGID_00000176761237580767128800000002210319230881904784_);" d="M1193.77-1034.43c-2.21,0-3.66,0-5.1,0
		c-10.12,0.03-18.47-7.14-19.2-16.51c-0.84-10.71,5.96-19.52,16.43-20.91c16.59-2.21,33.2-4.32,49.82-6.3
		c12.96-1.54,22.32,6.83,22.36,19.82c0.05,15.84-0.35,31.68,0.12,47.5c0.39,13.06-8.53,20.12-15.99,21.06
		c-11.09,1.39-19.14-4.81-21.94-17.03c-0.84,0.8-1.62,1.45-2.29,2.2c-19.09,21.4-39.95,40.93-62.49,58.65
		c-0.73,0.58-1.44,1.19-2.23,1.67c-3,1.86-6.33,1.43-8.26-1.03c-1.92-2.45-1.77-6,0.8-8.26c4.39-3.87,9-7.49,13.51-11.21
		c22.33-18.45,42.47-39.08,61.1-61.22c1.23-1.46,2.89-2.93,4.64-3.48c3.92-1.24,7.29,1.57,7.43,5.95c0.14,4.65-0.02,9.32,0.06,13.97
		c0.08,4.77,2.74,7.85,6.66,7.91c3.86,0.06,6.83-3.04,6.85-7.74c0.1-16.37,0.13-32.74-0.02-49.1c-0.05-5.67-3.61-8.21-9.31-7.48
		c-15.81,2.03-31.63,4-47.46,5.95c-5.19,0.64-8.26,3.57-7.8,7.67c0.48,4.28,4.29,6.43,9.68,5.64c4.99-0.73,10.01-1.33,15.02-1.94
		c3.15-0.38,6.16-0.28,7.96,3.03c1.8,3.33,0.17,5.76-1.87,8.26c-25.7,31.55-55.11,59.13-88.23,82.75
		c-41.66,29.72-87.07,51.85-135.88,67.04c-28.45,8.85-57.41,15.38-87.1,18.47c-4.63,0.48-9.27,0.85-13.88,1.4
		c-4.18,0.5-6.86,3.48-6.55,7.06c0.32,3.77,3.2,6.46,7.49,6.01c14.39-1.52,28.87-2.66,43.1-5.18
		c47.33-8.37,92.71-23.05,135.57-44.86c17.84-9.08,34.85-19.82,52.15-29.95c5.43-3.18,8.96-3.39,11.21,0.04
		c2.31,3.52,0.91,6.58-4.53,10.18c-49.43,32.75-103.15,55.64-160.62,69.88c-24.92,6.17-50.14,10.57-75.8,12.27
		c-10.25,0.68-19.51-6.62-20.61-16.49c-1.15-10.31,5.55-19.35,15.91-20.81c12.09-1.7,24.32-2.54,36.37-4.52
		c51.24-8.41,99.81-24.88,145.68-49.25c47.59-25.29,89.35-57.97,125.02-98.4C1192.16-1032.41,1192.71-1033.13,1193.77-1034.43z"/>
</g>
<g>
	
		<linearGradient id="SVGID_00000145055375386632192770000015851417081231769012_" gradientUnits="userSpaceOnUse" x1="94.7199" y1="298.6583" x2="376.2509" y2="298.6583">
		<stop  offset="0" style="stop-color:#195685"/>
		<stop  offset="0.6447" style="stop-color:#367AB2"/>
		<stop  offset="1" style="stop-color:#438ECC"/>
	</linearGradient>
	<path style="fill:url(#SVGID_00000145055375386632192770000015851417081231769012_);" d="M106.83,131.21c0,111.79,0,223.3,0,335.08
		c77.72,0,155.27,0,233.12,0c0,4.04,0,7.82,0,12.09c-1.27,0-2.59,0-3.92,0c-77.73,0-155.45,0-233.18,0c-6.43,0-8.14-1.72-8.14-8.21
		c0-114.3,0-228.6,0-342.9c0-6.67,1.64-8.28,8.43-8.28c68.24,0,136.49,0.02,204.73-0.06c3.52,0,6.1,1.03,8.57,3.53
		c18.72,18.87,37.51,37.65,56.37,56.38c2.39,2.37,3.44,4.84,3.42,8.24c-0.12,23.83-0.06,47.67-0.06,71.5c0,1.23,0,2.45,0,3.92
		c-4.04,0-7.81,0-11.88,0c0-23.8,0-47.46,0-71.65c-1.59,0-2.91,0-4.22,0c-16.09,0-32.19,0.01-48.28-0.01
		c-5.47,0-7.45-1.96-7.46-7.38c-0.01-15.97-0.01-31.94-0.01-47.92c0-1.36,0-2.72,0-4.34C238.47,131.21,172.8,131.21,106.83,131.21z
		 M354.12,178.82c-12.55-12.57-25.21-25.26-37.53-37.61c0,12.06,0,24.79,0,37.61C329.44,178.82,342.02,178.82,354.12,178.82z"/>
	
		<linearGradient id="SVGID_00000044160919336908802370000009507869277375770042_" gradientUnits="userSpaceOnUse" x1="286.3448" y1="376.6048" x2="454.0499" y2="376.6048">
		<stop  offset="0" style="stop-color:#195685"/>
		<stop  offset="0.6447" style="stop-color:#367AB2"/>
		<stop  offset="1" style="stop-color:#438ECC"/>
	</linearGradient>
	<path style="fill:url(#SVGID_00000044160919336908802370000009507869277375770042_);" d="M453.47,346.12
		c0,12.84,1.02,25.78-0.21,38.5c-2.63,27.09-16.04,48.35-38.15,64.05c-13.11,9.31-26.41,18.35-39.64,27.48
		c-4.56,3.15-5.92,3.13-10.42,0.02c-13.13-9.07-26.36-17.99-39.35-27.26c-25.83-18.43-39.14-43.53-39.31-75.38
		c-0.1-20.09-0.02-40.18-0.02-60.27c0-7.3,2.21-9.14,9.63-8.39c25.87,2.6,47.78-5.73,66.02-24.09c0.7-0.71,1.33-1.49,1.99-2.24
		c4.54-5.11,7.86-5.16,12.32-0.07c7.08,8.09,15.44,14.5,25.13,19.08c13.58,6.42,27.83,9.17,42.85,7.34
		c7.57-0.92,9.72,1.01,9.73,8.64c0,10.86,0,21.71,0,32.57C453.86,346.12,453.66,346.12,453.47,346.12z M370.03,465.2
		c12.91-8.96,25.56-17.58,38.05-26.44c22.7-16.1,33.77-38.32,33.99-66.01c0.13-17.09,0.02-34.18,0.03-51.27c0-1.31,0-2.62,0-4.13
		c-28.33,1.43-52.02-8-71.91-27.39c-20.09,19.63-43.86,28.85-71.54,27.43c-0.16,0.76-0.3,1.12-0.29,1.47
		c0.01,19.58-0.49,39.19,0.2,58.75c0.78,22.22,9.48,41.44,26.84,55.49C339.59,444.59,355.05,454.52,370.03,465.2z"/>
	
		<linearGradient id="SVGID_00000028291227460595789270000001380851600370667676_" gradientUnits="userSpaceOnUse" x1="130.8128" y1="286.6758" x2="322.0864" y2="286.6758">
		<stop  offset="0" style="stop-color:#195685"/>
		<stop  offset="0.6447" style="stop-color:#367AB2"/>
		<stop  offset="1" style="stop-color:#438ECC"/>
	</linearGradient>
	<path style="fill:url(#SVGID_00000028291227460595789270000001380851600370667676_);" d="M130.81,292.41c0-3.88,0-7.57,0-11.47
		c63.8,0,127.44,0,191.27,0c0,3.81,0,7.5,0,11.47C258.47,292.41,194.83,292.41,130.81,292.41z"/>
	
		<linearGradient id="SVGID_00000018943640071759480460000000270021944475248797_" gradientUnits="userSpaceOnUse" x1="130.8179" y1="400.4909" x2="274.1781" y2="400.4909">
		<stop  offset="0" style="stop-color:#195685"/>
		<stop  offset="0.6447" style="stop-color:#367AB2"/>
		<stop  offset="1" style="stop-color:#438ECC"/>
	</linearGradient>
	<path style="fill:url(#SVGID_00000018943640071759480460000000270021944475248797_);" d="M130.82,406.23c0-3.9,0-7.59,0-11.48
		c47.83,0,95.5,0,143.36,0c0,3.83,0,7.52,0,11.48C226.51,406.23,178.84,406.23,130.82,406.23z"/>
	
		<linearGradient id="SVGID_00000107586773962062647980000006375492082432239019_" gradientUnits="userSpaceOnUse" x1="130.8665" y1="238.8195" x2="250.2694" y2="238.8195">
		<stop  offset="0" style="stop-color:#195685"/>
		<stop  offset="0.6447" style="stop-color:#367AB2"/>
		<stop  offset="1" style="stop-color:#438ECC"/>
	</linearGradient>
	<path style="fill:url(#SVGID_00000107586773962062647980000006375492082432239019_);" d="M250.27,233.1c0,3.84,0,7.53,0,11.44
		c-39.83,0-79.51,0-119.4,0c0-3.77,0-7.46,0-11.44C170.49,233.1,210.17,233.1,250.27,233.1z"/>
	
		<linearGradient id="SVGID_00000031920373533851156450000005503512594349806771_" gradientUnits="userSpaceOnUse" x1="130.8405" y1="262.7147" x2="244.1225" y2="262.7147">
		<stop  offset="0" style="stop-color:#195685"/>
		<stop  offset="0.6447" style="stop-color:#367AB2"/>
		<stop  offset="1" style="stop-color:#438ECC"/>
	</linearGradient>
	<path style="fill:url(#SVGID_00000031920373533851156450000005503512594349806771_);" d="M130.84,268.48c0-3.97,0-7.66,0-11.52
		c37.78,0,75.38,0,113.28,0c0,3.71,0,7.49,0,11.52C206.5,268.48,168.81,268.48,130.84,268.48z"/>
	
		<linearGradient id="SVGID_00000137112515235054927570000007884340440298687392_" gradientUnits="userSpaceOnUse" x1="232.7828" y1="214.8584" x2="340.0753" y2="214.8584">
		<stop  offset="0" style="stop-color:#195685"/>
		<stop  offset="0.6447" style="stop-color:#367AB2"/>
		<stop  offset="1" style="stop-color:#438ECC"/>
	</linearGradient>
	<path style="fill:url(#SVGID_00000137112515235054927570000007884340440298687392_);" d="M340.08,209.1c0,3.95,0,7.64,0,11.51
		c-35.78,0-71.38,0-107.29,0c0-3.69,0-7.47,0-11.51C268.39,209.1,304.08,209.1,340.08,209.1z"/>
	
		<linearGradient id="SVGID_00000059296621487280796400000004082242703730106283_" gradientUnits="userSpaceOnUse" x1="130.8424" y1="424.4519" x2="238.1353" y2="424.4519">
		<stop  offset="0" style="stop-color:#195685"/>
		<stop  offset="0.6447" style="stop-color:#367AB2"/>
		<stop  offset="1" style="stop-color:#438ECC"/>
	</linearGradient>
	<path style="fill:url(#SVGID_00000059296621487280796400000004082242703730106283_);" d="M130.84,430.22c0-3.97,0-7.66,0-11.53
		c35.79,0,71.39,0,107.29,0c0,3.72,0,7.5,0,11.53C202.5,430.22,166.81,430.22,130.84,430.22z"/>
	
		<linearGradient id="SVGID_00000013886584304981916660000004062683254517766822_" gradientUnits="userSpaceOnUse" x1="184.7325" y1="154.8899" x2="280.18" y2="154.8899">
		<stop  offset="0" style="stop-color:#195685"/>
		<stop  offset="0.6447" style="stop-color:#367AB2"/>
		<stop  offset="1" style="stop-color:#438ECC"/>
	</linearGradient>
	<path style="fill:url(#SVGID_00000013886584304981916660000004062683254517766822_);" d="M184.73,160.64c0-3.94,0-7.62,0-11.5
		c31.87,0,63.57,0,95.45,0c0,3.86,0,7.55,0,11.5C248.45,160.64,216.75,160.64,184.73,160.64z"/>
	
		<linearGradient id="SVGID_00000181057615617178097460000006635288886846554005_" gradientUnits="userSpaceOnUse" x1="184.8632" y1="178.9168" x2="280.1782" y2="178.9168">
		<stop  offset="0" style="stop-color:#195685"/>
		<stop  offset="0.6447" style="stop-color:#367AB2"/>
		<stop  offset="1" style="stop-color:#438ECC"/>
	</linearGradient>
	<path style="fill:url(#SVGID_00000181057615617178097460000006635288886846554005_);" d="M280.18,173.16c0,3.96,0,7.65,0,11.52
		c-31.79,0-63.4,0-95.31,0c0-3.7,0-7.48,0-11.52C216.49,173.16,248.19,173.16,280.18,173.16z"/>
	
		<linearGradient id="SVGID_00000011027013842754790650000001365708824955562934_" gradientUnits="userSpaceOnUse" x1="130.9657" y1="214.8584" x2="220.291" y2="214.8584">
		<stop  offset="0" style="stop-color:#195685"/>
		<stop  offset="0.6447" style="stop-color:#367AB2"/>
		<stop  offset="1" style="stop-color:#438ECC"/>
	</linearGradient>
	<path style="fill:url(#SVGID_00000011027013842754790650000001365708824955562934_);" d="M220.29,209.1c0,3.94,0,7.63,0,11.51
		c-29.79,0-59.4,0-89.33,0c0-3.69,0-7.47,0-11.51C160.58,209.1,190.28,209.1,220.29,209.1z"/>
	
		<linearGradient id="SVGID_00000103985453725761283680000009658993301128816802_" gradientUnits="userSpaceOnUse" x1="130.7498" y1="310.7027" x2="220.1743" y2="310.7027">
		<stop  offset="0" style="stop-color:#195685"/>
		<stop  offset="0.6447" style="stop-color:#367AB2"/>
		<stop  offset="1" style="stop-color:#438ECC"/>
	</linearGradient>
	<path style="fill:url(#SVGID_00000103985453725761283680000009658993301128816802_);" d="M130.75,316.41c0-3.9,0-7.5,0-11.41
		c29.73,0,59.43,0,89.42,0c0,3.61,0,7.39,0,11.41C190.51,316.41,160.81,316.41,130.75,316.41z"/>
	
		<linearGradient id="SVGID_00000005955532538742617440000011163267867765334706_" gradientUnits="userSpaceOnUse" x1="256.6093" y1="262.7806" x2="340.079" y2="262.7806">
		<stop  offset="0" style="stop-color:#195685"/>
		<stop  offset="0.6447" style="stop-color:#367AB2"/>
		<stop  offset="1" style="stop-color:#438ECC"/>
	</linearGradient>
	<path style="fill:url(#SVGID_00000005955532538742617440000011163267867765334706_);" d="M340.08,257.03c0,3.94,0,7.63,0,11.5
		c-27.88,0-55.59,0-83.47,0c0-3.87,0-7.56,0-11.5C284.35,257.03,312.06,257.03,340.08,257.03z"/>
	
		<linearGradient id="SVGID_00000057856332847029282170000012819714797489516713_" gradientUnits="userSpaceOnUse" x1="190.7135" y1="334.5979" x2="274.1833" y2="334.5979">
		<stop  offset="0" style="stop-color:#195685"/>
		<stop  offset="0.6447" style="stop-color:#367AB2"/>
		<stop  offset="1" style="stop-color:#438ECC"/>
	</linearGradient>
	<path style="fill:url(#SVGID_00000057856332847029282170000012819714797489516713_);" d="M190.71,340.34c0-3.91,0-7.6,0-11.48
		c27.87,0,55.58,0,83.47,0c0,3.84,0,7.53,0,11.48C246.47,340.34,218.76,340.34,190.71,340.34z"/>
	
		<linearGradient id="SVGID_00000012470763822131434020000007767386248162128566_" gradientUnits="userSpaceOnUse" x1="262.5976" y1="238.8195" x2="340.0785" y2="238.8195">
		<stop  offset="0" style="stop-color:#195685"/>
		<stop  offset="0.6447" style="stop-color:#367AB2"/>
		<stop  offset="1" style="stop-color:#438ECC"/>
	</linearGradient>
	<path style="fill:url(#SVGID_00000012470763822131434020000007767386248162128566_);" d="M340.08,233.07c0,3.94,0,7.63,0,11.5
		c-25.88,0-51.59,0-77.48,0c0-3.87,0-7.56,0-11.5C288.34,233.07,314.05,233.07,340.08,233.07z"/>
	
		<linearGradient id="SVGID_00000093137269890926329420000011965046462777482428_" gradientUnits="userSpaceOnUse" x1="130.8341" y1="376.5957" x2="202.3262" y2="376.5957">
		<stop  offset="0" style="stop-color:#195685"/>
		<stop  offset="0.6447" style="stop-color:#367AB2"/>
		<stop  offset="1" style="stop-color:#438ECC"/>
	</linearGradient>
	<path style="fill:url(#SVGID_00000093137269890926329420000011965046462777482428_);" d="M202.33,370.85c0,3.94,0,7.62,0,11.5
		c-23.89,0-47.6,0-71.49,0c0-3.87,0-7.55,0-11.5C154.58,370.85,178.3,370.85,202.33,370.85z"/>
	
		<linearGradient id="SVGID_00000165940483713366013990000013537634019199866287_" gradientUnits="userSpaceOnUse" x1="214.7758" y1="376.5957" x2="274.1671" y2="376.5957">
		<stop  offset="0" style="stop-color:#195685"/>
		<stop  offset="0.6447" style="stop-color:#367AB2"/>
		<stop  offset="1" style="stop-color:#438ECC"/>
	</linearGradient>
	<path style="fill:url(#SVGID_00000165940483713366013990000013537634019199866287_);" d="M274.17,382.39c-19.86,0-39.49,0-59.39,0
		c0-3.81,0-7.58,0-11.58c19.74,0,39.47,0,59.39,0C274.17,374.59,274.17,378.28,274.17,382.39z"/>
	
		<linearGradient id="SVGID_00000047757042651324303710000017031782888995096214_" gradientUnits="userSpaceOnUse" x1="130.9705" y1="334.5383" x2="178.2416" y2="334.5383">
		<stop  offset="0" style="stop-color:#195685"/>
		<stop  offset="0.6447" style="stop-color:#367AB2"/>
		<stop  offset="1" style="stop-color:#438ECC"/>
	</linearGradient>
	<path style="fill:url(#SVGID_00000047757042651324303710000017031782888995096214_);" d="M130.97,328.72c15.87,0,31.42,0,47.27,0
		c0,3.83,0,7.6,0,11.64c-15.66,0-31.39,0-47.27,0C130.97,336.48,130.97,332.62,130.97,328.72z"/>
	
		<linearGradient id="SVGID_00000044859458952466767550000007690474042969397419_" gradientUnits="userSpaceOnUse" x1="232.674" y1="310.6369" x2="274.105" y2="310.6369">
		<stop  offset="0" style="stop-color:#195685"/>
		<stop  offset="0.6447" style="stop-color:#367AB2"/>
		<stop  offset="1" style="stop-color:#438ECC"/>
	</linearGradient>
	<path style="fill:url(#SVGID_00000044859458952466767550000007690474042969397419_);" d="M232.67,304.85c13.87,0,27.52,0,41.43,0
		c0,3.82,0,7.59,0,11.58c-13.76,0-27.5,0-41.43,0C232.67,312.63,232.67,308.95,232.67,304.85z"/>
	
		<linearGradient id="SVGID_00000000204047269051402150000010881442913761333914_" gradientUnits="userSpaceOnUse" x1="250.6205" y1="424.5177" x2="286.1823" y2="424.5177">
		<stop  offset="0" style="stop-color:#195685"/>
		<stop  offset="0.6447" style="stop-color:#367AB2"/>
		<stop  offset="1" style="stop-color:#438ECC"/>
	</linearGradient>
	<path style="fill:url(#SVGID_00000000204047269051402150000010881442913761333914_);" d="M286.18,418.77c0,3.93,0,7.61,0,11.49
		c-11.91,0-23.64,0-35.56,0c0-3.86,0-7.54,0-11.49C262.38,418.77,274.12,418.77,286.18,418.77z"/>
	
		<linearGradient id="SVGID_00000123427580175403885020000012907969918473899957_" gradientUnits="userSpaceOnUse" x1="310.3058" y1="378.3592" x2="430.181" y2="378.3592">
		<stop  offset="0" style="stop-color:#195685"/>
		<stop  offset="0.6447" style="stop-color:#367AB2"/>
		<stop  offset="1" style="stop-color:#438ECC"/>
	</linearGradient>
	<path style="fill:url(#SVGID_00000123427580175403885020000012907969918473899957_);" d="M310.34,357.17
		c0-7.11-0.02-14.22,0.01-21.32c0.02-4.53,1.91-6.62,6.35-7.15c17.66-2.13,33.71-8.39,48.19-18.71c4.63-3.3,6.06-3.32,10.68-0.01
		c14.47,10.35,30.53,16.56,48.18,18.72c4.42,0.54,6.32,2.63,6.33,7.17c0.02,13.34,0.24,26.69-0.05,40.03
		c-0.45,20.82-9.03,37.89-25.4,50.63c-9.72,7.56-20.18,14.17-30.28,21.24c-2.8,1.96-5.46,1.95-8.27-0.01
		c-9.7-6.79-19.65-13.22-29.1-20.34c-17.42-13.12-26.3-30.79-26.63-52.65C310.26,368.89,310.34,363.03,310.34,357.17z
		 M418.55,340.21c-15.63-2.59-29.56-7.24-41.99-15.36c-4.74-3.1-7.89-3.14-12.65-0.02c-12.52,8.19-26.55,12.84-41.11,15.28
		c0,13.67-0.73,27.15,0.19,40.52c1.11,16.22,9.54,28.84,22.69,38.24c7.3,5.22,14.78,10.18,22.09,15.38
		c1.78,1.26,3.03,1.38,4.87,0.06c7.19-5.15,14.54-10.08,21.79-15.16c12.31-8.63,20.83-20.26,22.56-35.14
		C418.67,369.61,418.12,354.95,418.55,340.21z"/>
	
		<linearGradient id="SVGID_00000041992579547181669580000006907390618935173048_" gradientUnits="userSpaceOnUse" x1="336.6125" y1="380.7051" x2="410.8216" y2="380.7051">
		<stop  offset="0" style="stop-color:#195685"/>
		<stop  offset="0.6447" style="stop-color:#367AB2"/>
		<stop  offset="1" style="stop-color:#438ECC"/>
	</linearGradient>
	<path style="fill:url(#SVGID_00000041992579547181669580000006907390618935173048_);" d="M336.61,393.33
		c2.41-3.21,4.7-6.26,7.24-9.64c6.41,4.78,12.66,9.45,19.24,14.36c12.8-16.43,25.48-32.7,38.34-49.21c3.18,2.48,6.19,4.83,9.39,7.33
		c-0.83,1.17-1.49,2.19-2.23,3.15c-12.77,16.43-25.54,32.85-38.32,49.27c-3.73,4.8-6.43,5.19-11.3,1.55
		C351.6,404.62,344.25,399.07,336.61,393.33z"/>
</g>
<g>
	
		<linearGradient id="SVGID_00000001647045106548088330000003547929461741393085_" gradientUnits="userSpaceOnUse" x1="1528.5737" y1="-873.925" x2="1911.8157" y2="-873.925">
		<stop  offset="0" style="stop-color:#195685"/>
		<stop  offset="0.2115" style="stop-color:#1C5989"/>
		<stop  offset="0.4456" style="stop-color:#236193"/>
		<stop  offset="0.6905" style="stop-color:#2F70A5"/>
		<stop  offset="0.9414" style="stop-color:#3E86C1"/>
		<stop  offset="1" style="stop-color:#438ECC"/>
	</linearGradient>
	<path style="fill:url(#SVGID_00000001647045106548088330000003547929461741393085_);" d="M1911.82-877.69c0,34.43,0,68.87,0,103.3
		c-3.52,7.37-9.49,9.78-17.37,9.09c-4.95-0.43-9.97-0.02-14.96-0.12c-5.68-0.11-10.2-3.64-11.87-9.1c-0.35-1.15-0.66-2.31-1.08-3.76
		c-8.41,0.56-16.67,1.11-24.93,1.66c-0.12,11.34-5.48,18.6-15.12,22.8c4.84,14.94-4.51,30.56-22.31,30.69
		c-1.84,12.39-8.44,20.12-21.35,21.73c-0.75,0.09-1.76,1.25-1.96,2.08c-3.85,15.44-18.65,20.86-31.58,11.49
		c-5.73-4.15-11.43-8.35-17.41-12.72c-4.78,8.21-8.87,16.86-19.58,18.12c-9.22,1.09-15.74-3.37-21.31-14.51
		c-13.04,1.13-21.67-4.62-25.95-16.79c-13.63,1.76-22.6-3.81-27.23-16.36c-19.86,3.71-35.31-16.69-23.9-35.53
		c-7.33-4.99-27.51-8.12-40.26-6.26c-2.01,9.66-6.15,13.05-15.99,13.05c-5.11,0-10.23,0.06-15.34-0.01
		c-8.49-0.12-13.73-5.41-13.74-13.84c-0.01-31.3-0.01-62.6,0-93.9c0-8.49,5.16-13.75,13.67-13.91c4.49-0.08,8.98-0.02,13.47-0.02
		c11.76,0,14.33,1.77,18.15,12.54c3.91,0,7.84,0,12.19,0c0-1.7,0-3.16,0-4.63c0-45.52,0-91.03,0-136.55
		c0-10.72-0.13-21.45,0.12-32.17c0.24-10.34,6.87-19.15,16.57-22.74c1.24-0.46,2.44-1.02,3.66-1.53c75.85,0,151.7,0,227.56,0
		c16.03,5.21,20.71,16.79,20.55,32.83c-0.53,51.33-0.2,102.67-0.2,154c0,1.46,0,2.93,0,4.59c4.42,0,8.44,0,12.41,0
		c2.3-9.57,6.09-12.54,15.78-12.55c4.11,0,8.26,0.33,12.33-0.07C1902.64-887.53,1908.35-884.82,1911.82-877.69z M1733.64-846.43
		c-0.98,0.85-1.82,1.55-2.63,2.3c-9.88,9.16-19.74,18.33-29.63,27.48c-9.65,8.93-23.37,8.87-32.26-0.13
		c-8.9-9-8.77-22.65,0.32-32.23c8.75-9.23,17.51-18.46,26.25-27.7c0.7-0.74,1.3-1.58,2.17-2.65c-0.97-0.22-1.43-0.38-1.9-0.43
		c-22.03-2.1-42.09,2.98-59.52,16.9c-7.16,5.71-15.1,8.39-24.18,8.3c-11.6-0.11-23.2-0.03-34.8-0.03c-1.3,0-2.6,0-3.8,0
		c0,23.53,0,46.43,0,68.93c8.36,0.55,16.52,0.49,24.45,1.8c7.85,1.29,15.48,3.97,23.65,6.16c3.93-8.24,9.74-15.67,20.42-16.62
		c10.55-0.95,18.06,4.17,22.95,13.2c16-6.19,26.78,0.28,32.78,19.55c13.26,0.67,21.34,7.54,23.67,20.7
		c16.72,1.76,23.42,15.97,17.31,29.46c6.17,4.52,12.35,9.13,18.61,13.62c3.52,2.53,7.45,2.01,9.57-1.07
		c2.05-2.99,1.29-6.54-2.11-9.1c-3.08-2.33-6.34-4.43-9.35-6.84c-1.3-1.04-2.57-2.47-3.13-3.99c-0.98-2.68-0.16-5.19,2.21-6.95
		c2.5-1.86,5.12-1.79,7.63,0c4.47,3.18,8.82,6.52,13.35,9.61c3.63,2.47,7.51,2.54,11.21,0.07c3.39-2.26,4.75-5.73,3.62-9.45
		c-0.74-2.42-2.51-4.9-4.5-6.49c-6.34-5.04-13.02-9.64-19.52-14.47c-3.96-2.95-4.84-6.78-2.43-9.92c2.35-3.05,6.1-3.26,9.95-0.55
		c0.81,0.57,1.61,1.18,2.41,1.77c7.75,5.66,15.47,11.36,23.26,16.97c3.6,2.59,7.42,2.77,11.16,0.3c3.58-2.36,4.72-6.03,3.56-9.82
		c-0.74-2.41-2.58-4.87-4.6-6.44c-7.37-5.74-15.07-11.07-22.55-16.66c-4.5-3.36-4.27-9.11,0.36-11.32c2.77-1.33,5.29-0.58,7.67,1.18
		c6.01,4.45,11.97,8.98,18.12,13.22c6.21,4.28,13.73,1.31,15.04-5.88c0.8-4.4-1.24-7.65-4.83-10.14
		c-18.43-12.8-36.82-25.64-55.23-38.46C1756.85-830.31,1745.29-838.33,1733.64-846.43z M1671.5-893.58
		c-0.21-0.53-0.65-1.66-1.11-2.79c-4.75-11.65-7.54-23.77-7.69-36.33c-0.24-21.33-0.13-42.66-0.08-63.99
		c0.02-9.02,6.07-16.09,14.97-17.25c19.3-2.52,38.23-6.5,56.78-12.49c3.1-1,7.08-0.92,10.2,0.08c18.31,5.87,36.99,9.84,56.03,12.37
		c9.72,1.29,15.36,8.08,15.37,17.96c0.02,20.08-0.01,40.16,0.01,60.24c0.02,21.3-6.03,40.72-17.85,58.4
		c-0.66,0.98-1.24,2.01-1.94,3.17c15.3,0,30.19,0,45.29,0c0-1.63,0-2.99,0-4.34c0-53.01,0-106.02,0-159.03
		c0-10.48-4.79-15.24-15.37-15.24c-62.61,0-125.23,0-187.84,0c-1.31,0-2.62,0-4.71,0c4.3,6.89,3.56,13.93,3.56,20.87
		c0.01,49.39,0.01,98.79,0.01,148.18c0,1.39,0,2.79,0,3.35C1648.62-884.82,1659.81-889.11,1671.5-893.58z M1866.81-861.2
		c-1.81,0-3.17,0-4.53,0c-22.2,0-44.4-0.07-66.6,0.05c-4.88,0.03-9.29-0.99-13.62-3.21c-12.73-6.53-25.52-12.94-38.34-19.3
		c-10.31-5.11-20.3-3.34-28.28,4.96c-7.86,8.18-15.64,16.44-23.46,24.67c-4.55,4.79-9.25,9.46-13.61,14.42
		c-5.33,6.06-2.11,15.01,5.78,16.36c3.79,0.65,6.71-1.17,9.37-3.65c9.75-9.11,19.52-18.2,29.31-27.27
		c7.19-6.67,12.25-7.02,20.28-1.43c28.53,19.87,57.24,39.48,85.42,59.82c6.65,4.8,12.63,7.42,20.8,5.81
		c5.66-1.12,11.59-0.84,17.48-1.2C1866.81-814.47,1866.81-837.61,1866.81-861.2z M1778.29-978.06c-11.45-2.66-21.91-4.86-32.22-7.61
		c-4.47-1.19-8.5-1.63-13.02-0.08c-5.27,1.81-10.81,2.82-16.26,4.05c-5.16,1.16-10.37,2.16-15.32,3.18
		c0,16.99-0.57,33.58,0.19,50.12c0.57,12.42,5.76,23.54,13.7,33.5c15.62-8.54,29.9-3.84,43.75,4.73
		c9.17-9.58,15.9-20.44,17.05-33.21C1777.78-941.54,1777.66-959.88,1778.29-978.06z M1599.13-867.27c7.49-0.5,14.77-0.88,22.03-1.52
		c2.11-0.19,3.3-1.43,3.3-4.06c-0.09-55.47-0.02-110.94-0.19-166.41c-0.01-2.9-1.24-6.16-2.88-8.61c-3.04-4.54-8.84-5.93-14.01-4.16
		c-5.25,1.8-8.48,6.59-8.48,12.78c-0.01,55.97-0.01,111.94,0,167.9C1598.9-870.24,1599.02-869.16,1599.13-867.27z M1782.84-878.45
		c11.2-14.08,18.64-29.65,19.51-47.21c1.16-23.39,0.69-46.86,0.89-70.29c0.03-3.2-1.48-4.99-4.88-5.39
		c-19.07-2.26-37.77-6.26-56.05-12.24c-1.76-0.58-4.02-0.64-5.77-0.07c-18.03,5.92-36.48,9.86-55.28,12.26
		c-4.93,0.63-5.75,1.64-5.75,6.8c-0.02,19.2-0.04,38.41,0.01,57.61c0.03,14.4,2.81,28.2,9.34,41.12c0.54,1.07,1.66,2.49,2.64,2.6
		c4.28,0.49,8.6,0.57,13.45,0.82c-0.87-1.59-1.43-2.66-2.03-3.69c-5.38-9.27-9.45-19.18-9.94-29.85
		c-0.81-17.54-0.73-35.13-0.78-52.71c-0.02-6.51,4.43-11.34,10.61-12.72c12.37-2.77,24.7-5.72,37.08-8.38
		c2.33-0.5,4.95-0.42,7.29,0.09c11.9,2.6,23.72,5.51,35.61,8.14c7.94,1.75,11.71,6.15,11.72,14.36c0.02,13.97,0.08,27.93-0.02,41.9
		c-0.13,17.64-5.63,33.49-16.34,47.51c-0.87,1.13-1.7,2.29-2.67,3.59C1775.47-882.17,1779.02-880.38,1782.84-878.45z
		 M1880.16-778.39c6.37,0,12.51,0,18.64,0c0-31.96,0-63.65,0-95.4c-6.32,0-12.38,0-18.64,0
		C1880.16-841.89,1880.16-810.18,1880.16-778.39z M1541.54-867.22c0,31.96,0,63.45,0,95.13c6.28,0,12.34,0,18.65,0
		c0-31.77,0-63.37,0-95.13C1553.9-867.22,1547.84-867.22,1541.54-867.22z M1660.24-725.53c2.33-1.43,5.49-2.31,6.85-4.38
		c5.88-8.92,11.42-18.08,16.68-27.38c2.38-4.22,0.26-9.56-3.88-11.94c-4.11-2.36-9.44-1.68-12.01,2.34
		c-5.77,8.99-11.43,18.09-16.53,27.47C1648.06-733.37,1652.91-726.35,1660.24-725.53z M1633.07-742.1c2.25-1.36,5.27-2.19,6.6-4.17
		c4.86-7.2,9.39-14.66,13.57-22.28c2.35-4.28,0.26-9.53-3.91-11.91c-4.14-2.37-9.35-1.7-12.01,2.33
		c-4.72,7.15-9.31,14.44-13.29,22.02C1620.74-749.85,1625.63-742.79,1633.07-742.1z M1687.62-709.02c2.32-1.45,5.42-2.36,6.83-4.43
		c4.82-7.07,9.25-14.43,13.42-21.91c2.39-4.28,0.52-9.51-3.56-12c-4.17-2.54-9.56-1.87-12.31,2.27c-4.73,7.14-9.29,14.43-13.3,21.98
		C1675.37-716.83,1680.16-709.75,1687.62-709.02z M1720.88-727.52c-0.74,0.48-2.89,1.16-3.84,2.61c-4.4,6.78-8.57,13.72-12.59,20.74
		c-1.68,2.92-0.41,6.42,2.38,8.1c2.72,1.63,6.21,1.29,8.01-1.51c4.51-7,8.9-14.11,12.9-21.41
		C1729.93-722.99,1726.64-727.53,1720.88-727.52z"/>
	
		<linearGradient id="SVGID_00000178922292112115565190000003606418294587467959_" gradientUnits="userSpaceOnUse" x1="1720.2206" y1="-937.8782" x2="1758.5885" y2="-937.8782">
		<stop  offset="0" style="stop-color:#195685"/>
		<stop  offset="0.2115" style="stop-color:#1C5989"/>
		<stop  offset="0.4456" style="stop-color:#236193"/>
		<stop  offset="0.6905" style="stop-color:#2F70A5"/>
		<stop  offset="0.9414" style="stop-color:#3E86C1"/>
		<stop  offset="1" style="stop-color:#438ECC"/>
	</linearGradient>
	<path style="fill:url(#SVGID_00000178922292112115565190000003606418294587467959_);" d="M1732.44-935.12
		c4.41-5.87,8.7-11.66,13.08-17.38c1.04-1.36,2.2-2.81,3.64-3.67c2.82-1.69,5.63-1.06,7.75,1.37c2.25,2.58,2.18,5.54,0.21,8.25
		c-4.49,6.14-9.1,12.19-13.66,18.27c-1.8,2.39-3.51,4.86-5.45,7.13c-2.68,3.13-6.48,3.36-9.55,0.61c-2.04-1.83-3.95-3.81-5.84-5.8
		c-2.93-3.09-3.17-6.63-0.7-9.34c2.3-2.53,5.74-2.67,9.1-0.39C1731.41-935.8,1731.81-935.54,1732.44-935.12z"/>
</g>
<rect x="-205.56" y="-1304.57" class="st26" width="296.43" height="144.77"/>
<rect x="-205.56" y="-1106.6" class="st27" width="296.43" height="144.77"/>
<rect x="-205.56" y="-903.49" class="st28" width="296.43" height="144.77"/>
<rect x="-205.56" y="-720.14" class="st29" width="296.43" height="144.77"/>
</svg>
