<?xml version="1.0" encoding="utf-8"?>
<!-- Generator: Adobe Illustrator 26.3.0, SVG Export Plug-In . SVG Version: 6.00 Build 0)  -->
<svg version="1.0" id="Layer_1" xmlns="http://www.w3.org/2000/svg" xmlns:xlink="http://www.w3.org/1999/xlink" x="0px" y="0px"
	 viewBox="0 0 1080 1080" style="enable-background:new 0 0 1080 1080;" xml:space="preserve">
<g>
	<linearGradient id="SVGID_1_" gradientUnits="userSpaceOnUse" x1="362.92" y1="507.663" x2="718.0046" y2="507.663">
		<stop  offset="0" style="stop-color:#1B5785"/>
		<stop  offset="0.2118" style="stop-color:#1F5E8F"/>
		<stop  offset="0.5798" style="stop-color:#3171A5"/>
		<stop  offset="1" style="stop-color:#448ECC"/>
	</linearGradient>
	<path style="fill:url(#SVGID_1_);" d="M378.18,685.19c-2.57-1.23-5.36-2.15-7.67-3.76c-6.4-4.46-9-12.45-6.85-19.95
		c2.11-7.37,8.76-12.71,16.5-13.17c1.94-0.12,3.9-0.02,6.4-0.02c0-1.77,0-3.21,0-4.65c0-98.01,0-196.02,0-294.03
		c0-10.35,5.56-17.52,14.9-19.18c1.47-0.26,2.99-0.27,4.49-0.27c53.74-0.01,107.49-0.02,161.23-0.01c12.36,0,19.61,7.24,19.61,19.6
		c0.02,40.22,0.01,80.44,0.01,120.66c0,1.38,0,2.76,0,4.65c1.5,0,2.84,0,4.18,0c29.47,0,58.95,0,88.42,0c9.71,0,14.95,5.24,14.96,15
		c0.01,51.2,0,102.4,0,153.61c0,1.37,0,2.73,0,4.54c1.65,0,3.01-0.02,4.36,0c9.47,0.16,15.64,4.69,18.63,13.64
		c0.14,0.41,0.43,0.77,0.65,1.15c0,2.31,0,4.62,0,6.94c-2.21,7.96-7.37,12.97-15.26,15.26
		C594.56,685.19,486.37,685.19,378.18,685.19z M518.85,648.03c0-5.58-0.03-10.77,0.01-15.96c0.02-2.68,1.56-4.76,4.03-4.81
		c1.84-0.04,4.02,1.21,5.47,2.53c0.86,0.78,0.8,2.8,0.83,4.27c0.09,4.59,0.03,9.18,0.03,13.9c51.77,0,103.12,0,154.74,0
		c0-1.39,0-2.53,0-3.67c0-51.08,0-102.16,0-153.24c0-5.3-0.29-5.58-5.78-5.58c-47.73,0-95.46,0-143.19,0c-5.7,0-5.77,0.06-5.77,5.87
		c0,38.25,0,76.5-0.01,114.76c0,4.4-1.83,6.83-5.09,6.94c-3.28,0.11-5.29-2.35-5.3-6.63c-0.01-39.18-0.03-78.35,0.01-117.53
		c0.01-8.47,5.46-13.78,13.95-13.8c11.56-0.03,23.11-0.01,34.67-0.01c2.86,0,5.72,0,8.77,0c0.07-1.48,0.17-2.6,0.17-3.73
		c0.01-40.45,0.01-80.9,0-121.34c0-6.85-2.59-9.44-9.39-9.44c-53.51-0.01-107.01-0.01-160.52,0c-7.04,0-9.51,2.52-9.51,9.66
		c0,98,0,196,0,294c0,1.22,0,2.44,0,3.83C437.73,648.03,478.01,648.03,518.85,648.03z M540.1,674.77c52.12,0,104.24,0,156.36,0
		c1.39,0,2.79,0.08,4.15-0.13c4.15-0.64,7.09-4.19,6.96-8.23c-0.13-4.11-3.2-7.32-7.45-7.7c-1.26-0.11-2.54-0.09-3.81-0.09
		c-103.89,0-207.78,0-311.68,0c-1.39,0-2.78-0.02-4.15,0.12c-3.77,0.41-6.63,3.26-7.09,6.95c-0.45,3.62,1.68,7.28,5.26,8.41
		c1.71,0.54,3.63,0.64,5.45,0.64C436.1,674.77,488.1,674.77,540.1,674.77z"/>
	
		<linearGradient id="SVGID_00000011033307381343377450000006889838033103770784_" gradientUnits="userSpaceOnUse" x1="608.325" y1="397.9691" x2="695.3191" y2="397.9691">
		<stop  offset="0" style="stop-color:#1B5785"/>
		<stop  offset="0.2118" style="stop-color:#1F5E8F"/>
		<stop  offset="0.5798" style="stop-color:#3171A5"/>
		<stop  offset="1" style="stop-color:#448ECC"/>
	</linearGradient>
	<path style="fill:url(#SVGID_00000011033307381343377450000006889838033103770784_);" d="M652.96,343.2
		c18.5,0.17,34.79,11.51,41.12,28.65c1.49,4.04,0.59,7.03-2.47,8.15c-3.14,1.15-5.61-0.38-7.26-4.48
		c-5.9-14.66-18.83-22.81-34.63-21.81c-13.89,0.87-26.3,11.39-29.8,25.53c-2.79,11.26-0.04,21.76,5.12,31.74
		c6.22,12.02,15.33,21.6,26,29.74c0.73,0.56,2.69,0.51,3.42-0.08c13.95-11.13,25.61-23.97,30.58-41.71c1.03-3.66,3.6-5.17,6.71-4.29
		c2.94,0.83,4.23,3.6,3.23,7.33c-2.97,11.14-8.36,21.11-16.07,29.53c-6.13,6.7-13.02,12.73-19.87,18.72
		c-3.66,3.2-8.19,3.32-11.87,0.61c-15.93-11.72-29.05-25.84-35.51-44.92c-6.54-19.32-3.9-36.99,11.61-51.4
		C631.57,346.79,641.62,343.15,652.96,343.2z"/>
	
		<linearGradient id="SVGID_00000057137093536644717310000004666403172792698285_" gradientUnits="userSpaceOnUse" x1="628.0549" y1="387.3607" x2="677.207" y2="387.3607">
		<stop  offset="0" style="stop-color:#1B5785"/>
		<stop  offset="0.2118" style="stop-color:#1F5E8F"/>
		<stop  offset="0.5798" style="stop-color:#3171A5"/>
		<stop  offset="1" style="stop-color:#448ECC"/>
	</linearGradient>
	<path style="fill:url(#SVGID_00000057137093536644717310000004666403172792698285_);" d="M677.21,387.46
		c-0.04,13.68-11.07,24.59-24.77,24.5c-13.39-0.09-24.45-11.28-24.38-24.66c0.07-13.55,11.35-24.66,24.89-24.53
		C666.42,362.9,677.24,373.91,677.21,387.46z M666.81,387.32c-0.02-7.79-6.26-14.09-14.01-14.15c-7.81-0.06-14.38,6.47-14.33,14.27
		c0.04,7.7,6.4,14.07,14.11,14.11C660.51,401.6,666.83,395.29,666.81,387.32z"/>
	
		<linearGradient id="SVGID_00000041993680870496382380000014008449093649707175_" gradientUnits="userSpaceOnUse" x1="465.5703" y1="577.6451" x2="507.7999" y2="577.6451">
		<stop  offset="0" style="stop-color:#1B5785"/>
		<stop  offset="0.2118" style="stop-color:#1F5E8F"/>
		<stop  offset="0.5798" style="stop-color:#3171A5"/>
		<stop  offset="1" style="stop-color:#448ECC"/>
	</linearGradient>
	<path style="fill:url(#SVGID_00000041993680870496382380000014008449093649707175_);" d="M486.61,556.72
		c3.46,0,6.93-0.06,10.39,0.01c6.24,0.13,10.49,4.12,10.66,10.36c0.19,7.04,0.2,14.08,0,21.12c-0.17,6.22-4.5,10.28-10.69,10.33
		c-6.92,0.06-13.85,0.07-20.77-0.01c-5.95-0.07-10.33-4.22-10.48-10.19c-0.18-7.15-0.19-14.31,0-21.46
		c0.16-5.99,4.46-10,10.51-10.14C479.68,556.66,483.15,556.73,486.61,556.72z M497.11,567.32c-7.15,0-13.91,0-20.77,0
		c0,7.02,0,13.84,0,20.66c7.05,0,13.81,0,20.77,0C497.11,581.06,497.11,574.33,497.11,567.32z"/>
	
		<linearGradient id="SVGID_00000123418857242770868910000015025098448675245961_" gradientUnits="userSpaceOnUse" x1="465.5902" y1="447.7325" x2="507.8028" y2="447.7325">
		<stop  offset="0" style="stop-color:#1B5785"/>
		<stop  offset="0.2118" style="stop-color:#1F5E8F"/>
		<stop  offset="0.5798" style="stop-color:#3171A5"/>
		<stop  offset="1" style="stop-color:#448ECC"/>
	</linearGradient>
	<path style="fill:url(#SVGID_00000123418857242770868910000015025098448675245961_);" d="M486.34,468.78
		c-3.35,0-6.7,0.08-10.04-0.02c-6.14-0.18-10.47-4.39-10.6-10.5c-0.15-6.92-0.13-13.85-0.01-20.78c0.1-6.08,4.06-10.41,10.08-10.63
		c7.26-0.27,14.55-0.26,21.81,0c5.91,0.21,9.91,4.35,10.07,10.27c0.2,7.15,0.22,14.32-0.01,21.47c-0.2,5.98-4.55,10.01-10.56,10.18
		C493.5,468.86,489.92,468.78,486.34,468.78z M476.31,437.39c0,7.09,0,13.94,0,20.71c7.1,0,13.94,0,20.78,0c0-7.04,0-13.78,0-20.71
		C490.03,437.39,483.19,437.39,476.31,437.39z"/>
	
		<linearGradient id="SVGID_00000003788488090866638320000013985277323071410315_" gradientUnits="userSpaceOnUse" x1="412.6581" y1="447.7539" x2="454.5673" y2="447.7539">
		<stop  offset="0" style="stop-color:#1B5785"/>
		<stop  offset="0.2118" style="stop-color:#1F5E8F"/>
		<stop  offset="0.5798" style="stop-color:#3171A5"/>
		<stop  offset="1" style="stop-color:#448ECC"/>
	</linearGradient>
	<path style="fill:url(#SVGID_00000003788488090866638320000013985277323071410315_);" d="M454.54,447.71
		c0,3.58,0.07,7.16-0.02,10.73c-0.15,5.8-4.22,10.12-10.02,10.27c-7.27,0.19-14.54,0.2-21.81,0c-5.8-0.16-9.85-4.46-9.95-10.32
		c-0.12-7.04-0.11-14.08-0.01-21.12c0.08-5.93,3.9-10.18,9.84-10.41c7.37-0.29,14.78-0.3,22.15,0c5.91,0.24,9.68,4.55,9.81,10.46
		C454.6,440.79,454.54,444.25,454.54,447.71z M423.4,437.31c0,7.23,0,14.07,0,20.84c7.04,0,13.79,0,20.45,0c0-7.08,0-13.92,0-20.84
		C436.91,437.31,430.26,437.31,423.4,437.31z"/>
	
		<linearGradient id="SVGID_00000099624280677132066760000008895065903517356975_" gradientUnits="userSpaceOnUse" x1="518.7736" y1="447.7552" x2="560.6794" y2="447.7552">
		<stop  offset="0" style="stop-color:#1B5785"/>
		<stop  offset="0.2118" style="stop-color:#1F5E8F"/>
		<stop  offset="0.5798" style="stop-color:#3171A5"/>
		<stop  offset="1" style="stop-color:#448ECC"/>
	</linearGradient>
	<path style="fill:url(#SVGID_00000099624280677132066760000008895065903517356975_);" d="M560.65,447.71
		c0,3.58,0.07,7.16-0.02,10.73c-0.15,5.81-4.2,10.12-10.01,10.27c-7.26,0.19-14.54,0.2-21.81,0c-5.79-0.16-9.86-4.48-9.95-10.32
		c-0.11-7.04-0.1-14.08-0.01-21.12c0.08-5.92,3.9-10.18,9.84-10.41c7.37-0.3,14.78-0.3,22.15,0.01c5.92,0.25,9.69,4.54,9.81,10.45
		C560.71,440.79,560.65,444.25,560.65,447.71z M549.98,458.27c0-7.19,0-14.03,0-20.86c-7.02,0-13.76,0-20.47,0
		c0,7.11,0,13.95,0,20.86C536.45,458.27,543.11,458.27,549.98,458.27z"/>
	
		<linearGradient id="SVGID_00000000926870621386600130000014603661160805204875_" gradientUnits="userSpaceOnUse" x1="465.5977" y1="382.8438" x2="507.801" y2="382.8438">
		<stop  offset="0" style="stop-color:#1B5785"/>
		<stop  offset="0.2118" style="stop-color:#1F5E8F"/>
		<stop  offset="0.5798" style="stop-color:#3171A5"/>
		<stop  offset="1" style="stop-color:#448ECC"/>
	</linearGradient>
	<path style="fill:url(#SVGID_00000000926870621386600130000014603661160805204875_);" d="M486.86,361.93
		c3.35,0,6.69-0.04,10.04,0.01c6.24,0.09,10.56,4.04,10.74,10.27c0.21,7.03,0.19,14.08,0.01,21.12
		c-0.16,6.37-4.49,10.36-10.95,10.41c-6.69,0.06-13.39,0.06-20.08,0c-6.6-0.06-10.85-4.22-10.95-10.78
		c-0.1-6.81-0.11-13.62,0.01-20.43c0.11-6.35,4.43-10.5,10.79-10.59C479.94,361.89,483.4,361.93,486.86,361.93z M476.32,372.5
		c0,6.84,0,13.66,0,20.61c6.97,0,13.81,0,20.77,0c0-6.97,0-13.7,0-20.61C490.13,372.5,483.36,372.5,476.32,372.5z"/>
	
		<linearGradient id="SVGID_00000037651163586870569020000017475259136767776953_" gradientUnits="userSpaceOnUse" x1="465.5896" y1="512.7455" x2="507.7999" y2="512.7455">
		<stop  offset="0" style="stop-color:#1B5785"/>
		<stop  offset="0.2118" style="stop-color:#1F5E8F"/>
		<stop  offset="0.5798" style="stop-color:#3171A5"/>
		<stop  offset="1" style="stop-color:#448ECC"/>
	</linearGradient>
	<path style="fill:url(#SVGID_00000037651163586870569020000017475259136767776953_);" d="M486.92,491.73c3.23,0,6.46-0.03,9.7,0.01
		c6.41,0.07,10.86,4.08,11.04,10.39c0.2,7.04,0.19,14.09,0,21.12c-0.16,6.1-4.21,10.2-10.32,10.38c-7.15,0.21-14.32,0.22-21.47-0.01
		c-6.04-0.2-10.07-4.46-10.19-10.51c-0.13-6.92-0.13-13.85,0-20.78c0.12-6.3,4.52-10.5,10.85-10.58
		C480,491.69,483.46,491.73,486.92,491.73z M497.11,523.12c0-7.14,0-13.88,0-20.8c-7.03,0-13.87,0-20.81,0c0,7.01,0,13.83,0,20.8
		C483.31,523.12,490.05,523.12,497.11,523.12z"/>
	
		<linearGradient id="SVGID_00000127739163119618733910000015122985861267026092_" gradientUnits="userSpaceOnUse" x1="412.6528" y1="512.7111" x2="454.5654" y2="512.7111">
		<stop  offset="0" style="stop-color:#1B5785"/>
		<stop  offset="0.2118" style="stop-color:#1F5E8F"/>
		<stop  offset="0.5798" style="stop-color:#3171A5"/>
		<stop  offset="1" style="stop-color:#448ECC"/>
	</linearGradient>
	<path style="fill:url(#SVGID_00000127739163119618733910000015122985861267026092_);" d="M454.54,512.7
		c0,3.58,0.08,7.16-0.02,10.73c-0.15,5.55-3.85,9.84-9.4,10.07c-7.71,0.32-15.46,0.32-23.18-0.03c-5.38-0.25-9.09-4.5-9.18-9.9
		c-0.13-7.27-0.14-14.54,0-21.81c0.12-5.76,4.42-9.93,10.23-10.02c7.04-0.11,14.08-0.1,21.12-0.01c6.12,0.08,10.3,4.38,10.42,10.57
		C454.6,505.78,454.54,509.24,454.54,512.7z M444.04,502.4c-7.12,0-13.94,0-20.73,0c0,7.02,0,13.78,0,20.59c7.02,0,13.83,0,20.73,0
		C444.04,516.01,444.04,509.35,444.04,502.4z"/>
	
		<linearGradient id="SVGID_00000088845781815649026520000000033316650478253198_" gradientUnits="userSpaceOnUse" x1="412.6481" y1="382.8236" x2="454.596" y2="382.8236">
		<stop  offset="0" style="stop-color:#1B5785"/>
		<stop  offset="0.2118" style="stop-color:#1F5E8F"/>
		<stop  offset="0.5798" style="stop-color:#3171A5"/>
		<stop  offset="1" style="stop-color:#448ECC"/>
	</linearGradient>
	<path style="fill:url(#SVGID_00000088845781815649026520000000033316650478253198_);" d="M433.74,403.74
		c-3.58,0-7.16,0.07-10.73-0.02c-5.89-0.14-10.13-4.16-10.25-9.96c-0.15-7.27-0.15-14.54,0-21.81c0.12-5.83,4.34-9.92,10.2-10
		c7.15-0.1,14.31-0.11,21.46,0.01c5.81,0.09,10,4.29,10.09,10.12c0.12,7.15,0.12,14.31,0,21.46c-0.1,5.98-4.32,10.06-10.39,10.19
		C440.67,403.81,437.2,403.74,433.74,403.74z M443.93,393.23c0-7.11,0-13.85,0-20.72c-6.96,0-13.7,0-20.55,0c0,7,0,13.82,0,20.72
		C430.33,393.23,436.99,393.23,443.93,393.23z"/>
	
		<linearGradient id="SVGID_00000138570334806306914940000015505877055224537511_" gradientUnits="userSpaceOnUse" x1="518.7609" y1="382.8523" x2="560.713" y2="382.8523">
		<stop  offset="0" style="stop-color:#1B5785"/>
		<stop  offset="0.2118" style="stop-color:#1F5E8F"/>
		<stop  offset="0.5798" style="stop-color:#3171A5"/>
		<stop  offset="1" style="stop-color:#448ECC"/>
	</linearGradient>
	<path style="fill:url(#SVGID_00000138570334806306914940000015505877055224537511_);" d="M539.71,361.93
		c3.58,0,7.16-0.07,10.73,0.02c5.84,0.14,10.07,4.24,10.18,10.04c0.13,7.27,0.13,14.54-0.01,21.81c-0.11,5.63-4.29,9.8-9.93,9.91
		c-7.27,0.14-14.54,0.13-21.81,0c-5.67-0.1-9.87-4.21-9.99-9.85c-0.16-7.38-0.16-14.77,0.01-22.15c0.13-5.61,4.4-9.61,10.09-9.75
		C532.55,361.86,536.13,361.93,539.71,361.93z M550.07,372.56c-7.1,0-13.85,0-20.63,0c0,6.98,0,13.72,0,20.6c6.96,0,13.7,0,20.63,0
		C550.07,386.24,550.07,379.5,550.07,372.56z"/>
	
		<linearGradient id="SVGID_00000049908768623493204190000003425331124269270440_" gradientUnits="userSpaceOnUse" x1="412.6635" y1="577.6418" x2="454.5875" y2="577.6418">
		<stop  offset="0" style="stop-color:#1B5785"/>
		<stop  offset="0.2118" style="stop-color:#1F5E8F"/>
		<stop  offset="0.5798" style="stop-color:#3171A5"/>
		<stop  offset="1" style="stop-color:#448ECC"/>
	</linearGradient>
	<path style="fill:url(#SVGID_00000049908768623493204190000003425331124269270440_);" d="M434,556.72c3.35,0,6.69-0.07,10.04,0.02
		c6.29,0.15,10.4,4.22,10.48,10.46c0.09,6.92,0.08,13.85,0,20.77c-0.07,6.39-4.28,10.52-10.72,10.58c-6.81,0.06-13.62,0.06-20.42,0
		c-6.42-0.06-10.57-4.18-10.66-10.64c-0.09-6.81-0.08-13.62,0-20.42c0.08-6.66,4.16-10.65,10.9-10.75
		C427.08,556.68,430.54,556.72,434,556.72z M444.01,567.35c-7.11,0-13.85,0-20.71,0c0,6.97,0,13.71,0,20.53c7.03,0,13.86,0,20.71,0
		C444.01,580.94,444.01,574.28,444.01,567.35z"/>
	
		<linearGradient id="SVGID_00000101822676704153331250000005401047400198687909_" gradientUnits="userSpaceOnUse" x1="633.6245" y1="606.4754" x2="671.646" y2="606.4754">
		<stop  offset="0" style="stop-color:#1B5785"/>
		<stop  offset="0.2118" style="stop-color:#1F5E8F"/>
		<stop  offset="0.5798" style="stop-color:#3171A5"/>
		<stop  offset="1" style="stop-color:#448ECC"/>
	</linearGradient>
	<path style="fill:url(#SVGID_00000101822676704153331250000005401047400198687909_);" d="M671.62,606.33c0,3.23,0.06,6.47-0.02,9.7
		c-0.13,5.27-3.22,8.83-8.49,9.04c-6.91,0.29-13.85,0.27-20.76,0.02c-5.06-0.19-8.31-3.32-8.52-8.28
		c-0.28-6.91-0.28-13.85,0.01-20.76c0.2-4.83,3.41-7.98,8.25-8.16c7.03-0.27,14.08-0.29,21.11-0.02c5.21,0.2,8.29,3.81,8.41,9.12
		C671.68,600.1,671.62,603.22,671.62,606.33z M661.06,598.4c-5.79,0-11.25,0-16.78,0c0,5.53,0,10.77,0,16.23c5.68,0,11.15,0,16.78,0
		C661.06,609.17,661.06,603.91,661.06,598.4z"/>
	
		<linearGradient id="SVGID_00000072969702245690983760000018166532999779674281_" gradientUnits="userSpaceOnUse" x1="541.2739" y1="606.4403" x2="579.363" y2="606.4403">
		<stop  offset="0" style="stop-color:#1B5785"/>
		<stop  offset="0.2118" style="stop-color:#1F5E8F"/>
		<stop  offset="0.5798" style="stop-color:#3171A5"/>
		<stop  offset="1" style="stop-color:#448ECC"/>
	</linearGradient>
	<path style="fill:url(#SVGID_00000072969702245690983760000018166532999779674281_);" d="M579.33,606.45c0,3.35,0.1,6.7-0.02,10.04
		c-0.17,4.7-3.22,8.28-7.92,8.49c-7.25,0.32-14.54,0.32-21.79,0.03c-4.77-0.19-7.91-3.46-8.11-8.32c-0.27-6.8-0.28-13.62-0.01-20.42
		c0.2-4.96,3.48-8.22,8.43-8.41c6.91-0.26,13.85-0.27,20.77-0.03c5.4,0.19,8.55,3.81,8.66,9.27c0.06,3.12,0.01,6.23,0.01,9.35
		C579.34,606.45,579.33,606.45,579.33,606.45z M551.86,614.54c5.68,0,11.25,0,16.95,0c0-5.43,0-10.71,0-16.13
		c-5.7,0-11.27,0-16.95,0C551.86,603.78,551.86,608.85,551.86,614.54z"/>
	
		<linearGradient id="SVGID_00000178883699292040300140000008248797183609918866_" gradientUnits="userSpaceOnUse" x1="541.2551" y1="521.4781" x2="579.3622" y2="521.4781">
		<stop  offset="0" style="stop-color:#1B5785"/>
		<stop  offset="0.2118" style="stop-color:#1F5E8F"/>
		<stop  offset="0.5798" style="stop-color:#3171A5"/>
		<stop  offset="1" style="stop-color:#448ECC"/>
	</linearGradient>
	<path style="fill:url(#SVGID_00000178883699292040300140000008248797183609918866_);" d="M579.34,521.6c0,3.12,0.06,6.24-0.01,9.35
		c-0.13,5.49-3.64,9.09-9.15,9.2c-6.46,0.13-12.93,0.11-19.4,0.01c-5.42-0.08-9.1-3.36-9.32-8.7c-0.27-6.69-0.27-13.4-0.01-20.08
		c0.21-5.36,3.9-8.57,9.33-8.62c6.47-0.06,12.93-0.08,19.4,0.01c5.53,0.07,9.02,3.59,9.15,9.14
		C579.4,515.14,579.34,518.37,579.34,521.6z M551.93,529.53c5.85,0,11.34,0,16.82,0c0-5.53,0-10.8,0-16.19c-5.67,0-11.15,0-16.82,0
		C551.93,518.8,551.93,524.06,551.93,529.53z"/>
	
		<linearGradient id="SVGID_00000062167174326763061800000003445154541349914807_" gradientUnits="userSpaceOnUse" x1="587.5618" y1="606.4764" x2="625.6628" y2="606.4764">
		<stop  offset="0" style="stop-color:#1B5785"/>
		<stop  offset="0.2118" style="stop-color:#1F5E8F"/>
		<stop  offset="0.5798" style="stop-color:#3171A5"/>
		<stop  offset="1" style="stop-color:#448ECC"/>
	</linearGradient>
	<path style="fill:url(#SVGID_00000062167174326763061800000003445154541349914807_);" d="M587.58,606.38
		c0-3.12-0.05-6.23,0.01-9.35c0.11-5.3,3.19-8.96,8.38-9.16c7.03-0.28,14.08-0.26,21.11,0c4.92,0.18,8.17,3.48,8.37,8.46
		c0.27,6.68,0.27,13.39,0.03,20.08c-0.18,5.16-3.42,8.46-8.56,8.67c-6.91,0.27-13.85,0.28-20.76,0c-5.41-0.22-8.48-3.84-8.57-9.34
		C587.54,612.62,587.58,609.5,587.58,606.38z M614.94,614.62c0-5.62,0-10.88,0-16.29c-5.73,0-11.21,0-16.82,0c0,5.5,0,10.78,0,16.29
		C603.71,614.62,609.19,614.62,614.94,614.62z"/>
	
		<linearGradient id="SVGID_00000089542190303061469980000010002234930499371421_" gradientUnits="userSpaceOnUse" x1="587.547" y1="521.4882" x2="625.671" y2="521.4882">
		<stop  offset="0" style="stop-color:#1B5785"/>
		<stop  offset="0.2118" style="stop-color:#1F5E8F"/>
		<stop  offset="0.5798" style="stop-color:#3171A5"/>
		<stop  offset="1" style="stop-color:#448ECC"/>
	</linearGradient>
	<path style="fill:url(#SVGID_00000089542190303061469980000010002234930499371421_);" d="M606.72,502.75
		c3.12,0,6.24-0.04,9.35,0.01c5.59,0.09,9.24,3.34,9.42,8.9c0.22,6.57,0.24,13.17-0.03,19.74c-0.21,5.35-3.88,8.67-9.26,8.76
		c-6.46,0.11-12.93,0.12-19.4,0c-5.67-0.1-9.16-3.74-9.22-9.48c-0.07-6.12-0.06-12.24,0-18.36c0.06-6.12,3.56-9.51,9.78-9.57
		C600.49,502.72,603.61,502.74,606.72,502.75z M598.09,529.54c5.84,0,11.31,0,16.89,0c0-5.51,0-10.77,0-16.1
		c-5.77,0-11.33,0-16.89,0C598.09,518.92,598.09,524.11,598.09,529.54z"/>
	
		<linearGradient id="SVGID_00000036212776865694883520000009071899180020477627_" gradientUnits="userSpaceOnUse" x1="541.2625" y1="563.8704" x2="579.3851" y2="563.8704">
		<stop  offset="0" style="stop-color:#1B5785"/>
		<stop  offset="0.2118" style="stop-color:#1F5E8F"/>
		<stop  offset="0.5798" style="stop-color:#3171A5"/>
		<stop  offset="1" style="stop-color:#448ECC"/>
	</linearGradient>
	<path style="fill:url(#SVGID_00000036212776865694883520000009071899180020477627_);" d="M560.22,582.63
		c-3.23,0-6.47,0.07-9.7-0.02c-5.22-0.14-8.85-3.32-9.06-8.54c-0.27-6.8-0.27-13.63,0.02-20.43c0.22-5,3.82-8.29,8.85-8.42
		c6.69-0.17,13.4-0.18,20.09,0c5.34,0.15,8.8,3.79,8.88,9.1c0.1,6.35,0.09,12.7,0.01,19.05c-0.08,5.73-3.58,9.13-9.4,9.25
		C566.69,582.69,563.45,582.63,560.22,582.63z M568.75,572.07c0-5.5,0-10.83,0-16.33c-5.65,0-11.11,0-16.79,0
		c0,5.51,0,10.84,0,16.33C557.64,572.07,563.1,572.07,568.75,572.07z"/>
	
		<linearGradient id="SVGID_00000058581975644191036570000004688498987920142781_" gradientUnits="userSpaceOnUse" x1="587.5359" y1="563.8705" x2="625.6693" y2="563.8705">
		<stop  offset="0" style="stop-color:#1B5785"/>
		<stop  offset="0.2118" style="stop-color:#1F5E8F"/>
		<stop  offset="0.5798" style="stop-color:#3171A5"/>
		<stop  offset="1" style="stop-color:#448ECC"/>
	</linearGradient>
	<path style="fill:url(#SVGID_00000058581975644191036570000004688498987920142781_);" d="M606.41,582.61
		c-3.35,0-6.7,0.09-10.04-0.02c-5.13-0.18-8.65-3.68-8.75-8.83c-0.12-6.46-0.1-12.93-0.01-19.4c0.07-5.33,3.51-8.99,8.84-9.14
		c6.69-0.19,13.4-0.18,20.09-0.01c5.19,0.13,8.74,3.51,8.94,8.72c0.25,6.69,0.27,13.4-0.01,20.08c-0.23,5.38-3.86,8.48-9.36,8.6
		c-3.23,0.07-6.47,0.01-9.7,0.01C606.41,582.63,606.41,582.62,606.41,582.61z M598.16,555.74c0,5.62,0,10.88,0,16.2
		c5.72,0,11.25,0,16.82,0c0-5.54,0-10.78,0-16.2C609.31,555.74,603.85,555.74,598.16,555.74z"/>
	
		<linearGradient id="SVGID_00000076605247929716816420000012813470458224561804_" gradientUnits="userSpaceOnUse" x1="633.6191" y1="521.4814" x2="671.6438" y2="521.4814">
		<stop  offset="0" style="stop-color:#1B5785"/>
		<stop  offset="0.2118" style="stop-color:#1F5E8F"/>
		<stop  offset="0.5798" style="stop-color:#3171A5"/>
		<stop  offset="1" style="stop-color:#448ECC"/>
	</linearGradient>
	<path style="fill:url(#SVGID_00000076605247929716816420000012813470458224561804_);" d="M671.62,521.32c0,3.23,0.07,6.47-0.02,9.7
		c-0.14,5.35-3.55,8.99-8.85,9.12c-6.69,0.17-13.39,0.15-20.09,0c-5.04-0.11-8.63-3.38-8.84-8.39c-0.28-6.91-0.29-13.85,0.02-20.76
		c0.22-5.03,3.87-8.15,8.95-8.21c6.58-0.09,13.16-0.09,19.74,0c5.51,0.07,8.94,3.61,9.07,9.2
		C671.68,515.09,671.62,518.21,671.62,521.32z M644.29,513.27c0,5.68,0,10.93,0,16.31c5.69,0,11.16,0,16.68,0
		c0-5.55,0-10.89,0-16.31C655.32,513.27,649.92,513.27,644.29,513.27z"/>
	
		<linearGradient id="SVGID_00000083784514228371981080000004479962058503097999_" gradientUnits="userSpaceOnUse" x1="633.6562" y1="563.869" x2="671.6682" y2="563.869">
		<stop  offset="0" style="stop-color:#1B5785"/>
		<stop  offset="0.2118" style="stop-color:#1F5E8F"/>
		<stop  offset="0.5798" style="stop-color:#3171A5"/>
		<stop  offset="1" style="stop-color:#448ECC"/>
	</linearGradient>
	<path style="fill:url(#SVGID_00000083784514228371981080000004479962058503097999_);" d="M652.39,582.62
		c-3.23,0-6.47,0.08-9.7-0.02c-4.94-0.15-8.58-3.14-8.8-7.98c-0.32-7.14-0.31-14.31,0.01-21.45c0.21-4.63,3.77-7.8,8.53-7.93
		c6.81-0.2,13.63-0.21,20.43,0c5.32,0.16,8.66,3.82,8.74,9.22c0.09,6.35,0.1,12.7,0,19.05c-0.09,5.56-3.57,8.97-9.17,9.11
		C659.08,582.69,655.73,582.63,652.39,582.62z M661.03,572.09c0-5.66,0-10.92,0-16.32c-5.66,0-11.12,0-16.69,0
		c0,5.56,0,10.9,0,16.32C650.01,572.09,655.4,572.09,661.03,572.09z"/>
</g>
<g>
	
		<linearGradient id="SVGID_00000165938340182857066000000017555847249426472337_" gradientUnits="userSpaceOnUse" x1="-1302.2521" y1="90.7559" x2="-990.7698" y2="90.7559">
		<stop  offset="0" style="stop-color:#1B5785"/>
		<stop  offset="0.2118" style="stop-color:#1F5E8F"/>
		<stop  offset="0.5798" style="stop-color:#3171A5"/>
		<stop  offset="1" style="stop-color:#448ECC"/>
	</linearGradient>
	<path style="fill:url(#SVGID_00000165938340182857066000000017555847249426472337_);" d="M-1146.12-35.79
		c35.92,0,71.84-0.01,107.77,0c27.15,0.01,47.54,20.36,47.56,47.55c0.03,40.17,0.03,80.34,0,120.5
		c-0.02,27.22-20.23,47.53-47.53,47.56c-59.25,0.07-118.49,0.06-177.74-0.05c-4.65-0.01-8.37,1.28-12.01,4.09
		c-12.14,9.38-24.47,18.49-36.66,27.79c-7.71,5.89-16.02,7.57-24.84,3.2c-8.93-4.43-12.69-12.08-12.68-21.98
		c0.07-60.38,0.02-120.75,0.04-181.13c0.01-27.16,20.42-47.52,47.58-47.53C-1218.46-35.8-1182.29-35.79-1146.12-35.79z
		 M-1278.26,191.67c1.6-1.13,2.6-1.81,3.57-2.54c11.15-8.41,22.37-16.73,33.42-25.27c7.1-5.49,14.97-8.03,23.94-8.02
		c59.38,0.08,118.75,0.05,178.13,0.03c15.21,0,24.45-9.28,24.46-24.49c0.01-39.55,0.01-79.1,0-118.64c0-15.4-9.26-24.57-24.75-24.58
		c-71.23,0-142.45,0-213.68,0c-16.01,0-25.08,9.04-25.08,24.99c0,58.01,0,116.02,0,174.04
		C-1278.26,188.43-1278.26,189.67-1278.26,191.67z"/>
	
		<linearGradient id="SVGID_00000127021275765849869430000001389395607575540389_" gradientUnits="userSpaceOnUse" x1="-1242.3514" y1="6.1528" x2="-942.8634" y2="6.1528">
		<stop  offset="0" style="stop-color:#1B5785"/>
		<stop  offset="0.2118" style="stop-color:#1F5E8F"/>
		<stop  offset="0.5798" style="stop-color:#3171A5"/>
		<stop  offset="1" style="stop-color:#448ECC"/>
	</linearGradient>
	<path style="fill:url(#SVGID_00000127021275765849869430000001389395607575540389_);" d="M-1108.32-83.71c39.18,0,78.35,0,117.53,0
		c27.65,0,47.9,20.27,47.91,47.97c0.02,39.56,0.02,79.11-0.01,118.67c-0.01,9.42-8.18,15.48-16.32,12.21
		c-4.77-1.91-7.6-6.19-7.61-11.78c-0.04-11.98-0.01-23.96-0.01-35.94c0-27.58,0.01-55.15,0-82.73c-0.01-15.18-9.3-24.44-24.52-24.44
		c-78.98,0-157.95-0.02-236.93,0.04c-5.77,0-10.35-1.72-12.92-7.06c-3.55-7.39,1.52-16.07,9.74-16.88c1.24-0.12,2.49-0.06,3.74-0.06
		C-1187.92-83.71-1148.12-83.71-1108.32-83.71z"/>
	
		<linearGradient id="SVGID_00000025442295538860973180000003616332255140419995_" gradientUnits="userSpaceOnUse" x1="-1111.2874" y1="73.0967" x2="-1087.3558" y2="73.0967">
		<stop  offset="0" style="stop-color:#1B5785"/>
		<stop  offset="0.2118" style="stop-color:#1F5E8F"/>
		<stop  offset="0.5798" style="stop-color:#3171A5"/>
		<stop  offset="1" style="stop-color:#448ECC"/>
	</linearGradient>
	<path style="fill:url(#SVGID_00000025442295538860973180000003616332255140419995_);" d="M-1087.36,73.12
		c-0.01,6.55-5.3,11.86-11.88,11.9c-6.53,0.04-11.96-5.26-12.05-11.76c-0.09-6.7,5.36-12.15,12.08-12.09
		C-1092.66,61.24-1087.35,66.59-1087.36,73.12z"/>
	
		<linearGradient id="SVGID_00000076598955823814431680000006078933506072143275_" gradientUnits="userSpaceOnUse" x1="-1205.6461" y1="73.0973" x2="-1181.7163" y2="73.0973">
		<stop  offset="0" style="stop-color:#1B5785"/>
		<stop  offset="0.2118" style="stop-color:#1F5E8F"/>
		<stop  offset="0.5798" style="stop-color:#3171A5"/>
		<stop  offset="1" style="stop-color:#448ECC"/>
	</linearGradient>
	<path style="fill:url(#SVGID_00000076598955823814431680000006078933506072143275_);" d="M-1205.64,72.82
		c0.14-6.56,5.53-11.74,12.13-11.64c6.51,0.1,11.85,5.54,11.8,12.02c-0.05,6.66-5.66,12.03-12.35,11.82
		C-1200.62,84.82-1205.78,79.37-1205.64,72.82z"/>
	
		<linearGradient id="SVGID_00000149376119011786955640000009007958562726654874_" gradientUnits="userSpaceOnUse" x1="-1157.734" y1="73.0949" x2="-1133.8018" y2="73.0949">
		<stop  offset="0" style="stop-color:#1B5785"/>
		<stop  offset="0.2118" style="stop-color:#1F5E8F"/>
		<stop  offset="0.5798" style="stop-color:#3171A5"/>
		<stop  offset="1" style="stop-color:#448ECC"/>
	</linearGradient>
	<path style="fill:url(#SVGID_00000149376119011786955640000009007958562726654874_);" d="M-1146.23,85.01
		c-6.55-0.24-11.67-5.7-11.5-12.27c0.17-6.55,5.62-11.71,12.2-11.57c6.66,0.14,12.02,5.85,11.72,12.47
		C-1134.12,80.15-1139.68,85.25-1146.23,85.01z"/>
</g>
<linearGradient id="SVGID_00000112628597106961472920000015958279783742832527_" gradientUnits="userSpaceOnUse" x1="2596.8867" y1="-496.8359" x2="2947.5417" y2="-496.8359">
	<stop  offset="0" style="stop-color:#1B5785"/>
	<stop  offset="0.2118" style="stop-color:#1F5E8F"/>
	<stop  offset="0.5798" style="stop-color:#3171A5"/>
	<stop  offset="1" style="stop-color:#448ECC"/>
</linearGradient>
<path style="fill:url(#SVGID_00000112628597106961472920000015958279783742832527_);" d="M2920.15-321.52
	c-0.29-35.14-11.21-66.61-33.66-93.63c-24.91-30-56.76-48.28-95.7-52.97c-45-5.42-84.61,7.18-118.2,37.67
	c-27.55,25-43.15,56.31-47.45,93.23c-0.61,5.2-0.58,10.47-0.85,15.7c-9.13,0-18.26,0-27.39,0c2.8-80.95,43.84-134.89,117-166.27
	c-27.21-20.37-42.52-47.62-42.91-82.27c-0.32-28.26,9.86-52.77,29.97-72.62c41.78-41.22,106.31-37.87,144.32,1.76
	c42.01,43.79,37.24,116.06-15.43,153.62c1.46,0.59,2.64,1.06,3.81,1.53c53.45,21.3,89.13,59.22,106.57,114.11
	c3.77,11.88,5.9,24.13,6.72,36.58c0.07,1.1,0.39,2.19,0.6,3.28c0,3.42,0,6.85,0,10.27C2938.41-321.52,2929.28-321.52,2920.15-321.52
	z M2772.28-644.78c-40.58-0.06-73.81,33.03-74.02,73.72c-0.21,40.64,33.14,74.13,73.89,74.19c40.58,0.06,73.81-33.03,74.02-73.72
	C2846.38-611.22,2813.03-644.71,2772.28-644.78z"/>
<g>
	
		<linearGradient id="SVGID_00000129206906924337512990000006985996814533515648_" gradientUnits="userSpaceOnUse" x1="3445.675" y1="1381.2894" x2="3639.354" y2="1381.2894">
		<stop  offset="0" style="stop-color:#1B5785"/>
		<stop  offset="0.2118" style="stop-color:#1F5E8F"/>
		<stop  offset="0.5798" style="stop-color:#3171A5"/>
		<stop  offset="1" style="stop-color:#448ECC"/>
	</linearGradient>
	<path style="fill:url(#SVGID_00000129206906924337512990000006985996814533515648_);" d="M3632.78,1349
		c8.77,12.77,8.77,51.77-0.01,64.59c6.47,6.73,6.36,15.42,6.18,24.2c-0.16,7.86,0.06,15.72-0.06,23.58
		c-0.21,13.81-10.39,24.26-24.13,24.29c-48.18,0.11-96.35,0.11-144.53,0c-13.72-0.03-23.92-10.53-24.09-24.33
		c-0.11-9.2,0.14-18.4-0.08-27.6c-0.18-7.42,0.96-14.32,6-19.94c-8.54-14.55-8.54-52.17,0.22-64.83c-6.53-6.7-6.38-15.4-6.2-24.17
		c0.16-7.69-0.02-15.39,0.05-23.08c0.13-14.41,10.3-24.81,24.62-24.83c47.84-0.08,95.68-0.08,143.53,0
		c14.33,0.02,24.5,10.38,24.64,24.81c0.09,9.03-0.15,18.07,0.07,27.1C3639.14,1336.22,3637.98,1343.12,3632.78,1349z
		 M3543.01,1292.92c-23.6,0-47.19-0.02-70.79,0.01c-7.22,0.01-10.01,2.81-10.04,10.02c-0.04,9.54-0.06,19.08,0.01,28.62
		c0.05,6.57,2.96,9.53,9.51,9.53c47.19,0.04,94.39,0.04,141.58,0c6.56,0,9.49-2.97,9.54-9.52c0.07-9.37,0.04-18.74,0.01-28.11
		c-0.02-7.87-2.67-10.53-10.54-10.54C3589.2,1292.91,3566.11,1292.92,3543.01,1292.92z M3542,1405.39c23.6,0,47.19,0.02,70.79-0.01
		c7.2-0.01,10-2.84,10.04-10.04c0.04-9.54,0.06-19.08-0.01-28.62c-0.05-6.55-2.97-9.51-9.54-9.51c-47.19-0.03-94.39-0.03-141.58,0
		c-6.57,0-9.47,2.95-9.52,9.52c-0.07,9.37-0.04,18.74-0.01,28.11c0.02,7.87,2.67,10.53,10.54,10.54
		C3495.81,1405.4,3518.91,1405.39,3542,1405.39z M3542,1469.65c23.6,0,47.19,0.02,70.79-0.01c7.2-0.01,10.01-2.84,10.04-10.04
		c0.04-9.54,0.06-19.08-0.01-28.62c-0.05-6.56-2.97-9.51-9.53-9.51c-47.19-0.03-94.39-0.03-141.58,0c-6.57,0-9.47,2.95-9.52,9.52
		c-0.07,9.37-0.04,18.74-0.01,28.11c0.02,7.87,2.67,10.53,10.54,10.54C3495.81,1469.67,3518.9,1469.65,3542,1469.65z"/>
	
		<linearGradient id="SVGID_00000181088095088718511740000011904914503626291607_" gradientUnits="userSpaceOnUse" x1="3293.4744" y1="1325.0242" x2="3686.0378" y2="1325.0242">
		<stop  offset="0" style="stop-color:#1B5785"/>
		<stop  offset="0.2118" style="stop-color:#1F5E8F"/>
		<stop  offset="0.5798" style="stop-color:#3171A5"/>
		<stop  offset="1" style="stop-color:#448ECC"/>
	</linearGradient>
	<path style="fill:url(#SVGID_00000181088095088718511740000011904914503626291607_);" d="M3342.7,1505.85
		c-4.38,2.64-8.76,5.28-13.15,7.92c-57.3-91.75-49.05-225.52,44.22-311.45c93.52-86.18,226.87-82.77,312.27-20.07
		c-2.89,4.07-5.78,8.14-8.94,12.6c-56.24-37.93-117.54-51.09-183.93-37.13c-45.73,9.61-84.67,31.98-117.66,65.09
		C3312.28,1286.26,3281.41,1402.66,3342.7,1505.85z"/>
	
		<linearGradient id="SVGID_00000121978776045248344930000010957455479191743166_" gradientUnits="userSpaceOnUse" x1="3401.6909" y1="1447.7323" x2="3791.4988" y2="1447.7323">
		<stop  offset="0" style="stop-color:#1B5785"/>
		<stop  offset="0.2118" style="stop-color:#1F5E8F"/>
		<stop  offset="0.5798" style="stop-color:#3171A5"/>
		<stop  offset="1" style="stop-color:#448ECC"/>
	</linearGradient>
	<path style="fill:url(#SVGID_00000121978776045248344930000010957455479191743166_);" d="M3758.02,1261.16
		c54.7,91.93,44.95,224.12-48.44,308.61c-94.68,85.66-226.06,79.28-307.89,20.38c2.8-4.1,5.61-8.2,8.66-12.65
		c57.62,37.58,119.85,49.9,186.87,34.12c46.73-11,86.11-34.95,118.4-70.47c62.27-68.49,82.46-177.28,28.96-272.14
		C3748.97,1266.44,3753.38,1263.87,3758.02,1261.16z"/>
	
		<linearGradient id="SVGID_00000171684331645552313960000015788039159596993159_" gradientUnits="userSpaceOnUse" x1="3320.9817" y1="1551.6864" x2="3417.1895" y2="1551.6864">
		<stop  offset="0" style="stop-color:#1B5785"/>
		<stop  offset="0.2118" style="stop-color:#1F5E8F"/>
		<stop  offset="0.5798" style="stop-color:#3171A5"/>
		<stop  offset="1" style="stop-color:#448ECC"/>
	</linearGradient>
	<path style="fill:url(#SVGID_00000171684331645552313960000015788039159596993159_);" d="M3368.95,1503.58
		c5.06,0.11,8.26,2.63,9.81,7.24c1.12,3.32,1.98,6.73,3.04,10.07c2.95,9.3,9.06,15.41,18.45,18.19c3.36,1,6.77,1.88,10.06,3.08
		c4.34,1.57,6.87,4.68,6.88,9.45c0.01,4.72-2.32,7.95-6.76,9.49c-3.31,1.15-6.72,2-10.07,3.05c-9.47,2.95-15.81,9.07-18.67,18.65
		c-0.96,3.2-1.89,6.41-2.88,9.59c-1.46,4.7-4.79,7.39-9.6,7.42c-4.79,0.02-8.21-2.52-9.66-7.28c-0.93-3.03-1.86-6.07-2.74-9.11
		c-2.89-9.95-9.29-16.41-19.22-19.36c-3.04-0.9-6.08-1.8-9.12-2.72c-4.74-1.42-7.23-4.72-7.47-9.56c-0.23-4.56,2.79-8.24,7.76-9.84
		c2.23-0.72,4.49-1.33,6.75-1.92c11.32-2.95,18.71-9.89,21.75-21.3c0.77-2.9,1.5-5.84,2.56-8.64
		C3361.39,1505.91,3364.55,1503.73,3368.95,1503.58z M3368.59,1569.18c6.04-6.02,12.19-12.15,18.13-18.07
		c-2.61-1.99-6.33-4.27-9.33-7.27c-3.14-3.14-5.6-6.97-7.72-9.69c-5.86,5.87-12.05,12.05-18.03,18.04c2.78,2.17,6.47,4.53,9.48,7.55
		C3364.14,1562.78,3366.49,1566.47,3368.59,1569.18z"/>
	
		<linearGradient id="SVGID_00000045612084357596258890000015726900193756193186_" gradientUnits="userSpaceOnUse" x1="3668.6228" y1="1225.6375" x2="3764.7771" y2="1225.6375">
		<stop  offset="0" style="stop-color:#1B5785"/>
		<stop  offset="0.2118" style="stop-color:#1F5E8F"/>
		<stop  offset="0.5798" style="stop-color:#3171A5"/>
		<stop  offset="1" style="stop-color:#448ECC"/>
	</linearGradient>
	<path style="fill:url(#SVGID_00000045612084357596258890000015726900193756193186_);" d="M3716.88,1177.45
		c4.6,0.47,7.89,2.68,9.36,7.15c1.15,3.49,2.05,7.06,3.18,10.55c2.89,8.88,8.72,14.88,17.68,17.72c3.18,1.01,6.41,1.89,9.59,2.89
		c5.4,1.68,8.23,5.18,8.08,10.11c-0.16,5.23-3.13,8.26-7.94,9.71c-2.72,0.82-5.48,1.51-8.2,2.32c-10.06,3.01-16.73,9.42-19.63,19.62
		c-0.82,2.89-1.66,5.78-2.6,8.64c-1.67,5.07-5.2,7.86-9.88,7.66c-4.9-0.22-8.06-2.82-9.49-7.52c-1.02-3.36-1.95-6.74-3.05-10.07
		c-2.92-8.85-8.68-14.91-17.68-17.72c-3.35-1.04-6.74-1.95-10.07-3.03c-4.98-1.62-7.77-5.26-7.61-9.97
		c0.17-4.96,2.88-8.07,7.48-9.55c2.86-0.92,5.79-1.64,8.67-2.49c10.09-2.98,16.73-9.41,19.62-19.61c0.91-3.21,1.76-6.45,2.9-9.59
		C3708.89,1179.86,3712.26,1177.73,3716.88,1177.45z M3733.61,1225.76c-5.61-5.71-11.64-11.85-16.82-17.12
		c-5.61,5.62-11.73,11.75-16.95,16.97c5.62,5.73,11.65,11.88,16.79,17.12C3722.17,1237.19,3728.21,1231.15,3733.61,1225.76z"/>
	
		<linearGradient id="SVGID_00000065761619467417675120000018305664207774980260_" gradientUnits="userSpaceOnUse" x1="3542.7593" y1="1317.0885" x2="3614.4666" y2="1317.0885">
		<stop  offset="0" style="stop-color:#1B5785"/>
		<stop  offset="0.2118" style="stop-color:#1F5E8F"/>
		<stop  offset="0.5798" style="stop-color:#3171A5"/>
		<stop  offset="1" style="stop-color:#448ECC"/>
	</linearGradient>
	<path style="fill:url(#SVGID_00000065761619467417675120000018305664207774980260_);" d="M3614.47,1324.82c-24.1,0-47.78,0-71.71,0
		c0-5.18,0-10.13,0-15.46c23.77,0,47.57,0,71.71,0C3614.47,1314.34,3614.47,1319.41,3614.47,1324.82z"/>
	
		<linearGradient id="SVGID_00000024692715787004480570000016598484121540086175_" gradientUnits="userSpaceOnUse" x1="3470.4316" y1="1316.9755" x2="3485.8777" y2="1316.9755">
		<stop  offset="0" style="stop-color:#1B5785"/>
		<stop  offset="0.2118" style="stop-color:#1F5E8F"/>
		<stop  offset="0.5798" style="stop-color:#3171A5"/>
		<stop  offset="1" style="stop-color:#448ECC"/>
	</linearGradient>
	<path style="fill:url(#SVGID_00000024692715787004480570000016598484121540086175_);" d="M3470.43,1324.7c0-5.32,0-10.26,0-15.46
		c5.16,0,10.11,0,15.45,0c0,4.97,0,10.04,0,15.46C3480.94,1324.7,3475.88,1324.7,3470.43,1324.7z"/>
	
		<linearGradient id="SVGID_00000075147339474068015700000008394881013529448866_" gradientUnits="userSpaceOnUse" x1="3542.7363" y1="1381.2418" x2="3614.4041" y2="1381.2418">
		<stop  offset="0" style="stop-color:#1B5785"/>
		<stop  offset="0.2118" style="stop-color:#1F5E8F"/>
		<stop  offset="0.5798" style="stop-color:#3171A5"/>
		<stop  offset="1" style="stop-color:#448ECC"/>
	</linearGradient>
	<path style="fill:url(#SVGID_00000075147339474068015700000008394881013529448866_);" d="M3542.74,1388.97c0-5.31,0-10.26,0-15.46
		c23.91,0,47.58,0,71.67,0c0,4.96,0,10.03,0,15.46C3590.73,1388.97,3566.94,1388.97,3542.74,1388.97z"/>
	
		<linearGradient id="SVGID_00000060714495663398297630000001019440686128565401_" gradientUnits="userSpaceOnUse" x1="3470.3816" y1="1381.2418" x2="3486.0024" y2="1381.2418">
		<stop  offset="0" style="stop-color:#1B5785"/>
		<stop  offset="0.2118" style="stop-color:#1F5E8F"/>
		<stop  offset="0.5798" style="stop-color:#3171A5"/>
		<stop  offset="1" style="stop-color:#448ECC"/>
	</linearGradient>
	<path style="fill:url(#SVGID_00000060714495663398297630000001019440686128565401_);" d="M3470.38,1388.92c0-5.16,0-10.1,0-15.35
		c5.23,0,10.29,0,15.62,0c0,5.06,0,10.01,0,15.35C3481.05,1388.92,3475.99,1388.92,3470.38,1388.92z"/>
	
		<linearGradient id="SVGID_00000126294330950082910160000001858305542144570036_" gradientUnits="userSpaceOnUse" x1="3542.7695" y1="1445.5081" x2="3614.4563" y2="1445.5081">
		<stop  offset="0" style="stop-color:#1B5785"/>
		<stop  offset="0.2118" style="stop-color:#1F5E8F"/>
		<stop  offset="0.5798" style="stop-color:#3171A5"/>
		<stop  offset="1" style="stop-color:#448ECC"/>
	</linearGradient>
	<path style="fill:url(#SVGID_00000126294330950082910160000001858305542144570036_);" d="M3542.77,1437.73c23.98,0,47.66,0,71.69,0
		c0,5.13,0,10.19,0,15.56c-23.83,0-47.63,0-71.69,0C3542.77,1448.19,3542.77,1443.24,3542.77,1437.73z"/>
	
		<linearGradient id="SVGID_00000147942351128175645890000015018469028920869808_" gradientUnits="userSpaceOnUse" x1="3470.6216" y1="1445.4373" x2="3485.8887" y2="1445.4373">
		<stop  offset="0" style="stop-color:#1B5785"/>
		<stop  offset="0.2118" style="stop-color:#1F5E8F"/>
		<stop  offset="0.5798" style="stop-color:#3171A5"/>
		<stop  offset="1" style="stop-color:#448ECC"/>
	</linearGradient>
	<path style="fill:url(#SVGID_00000147942351128175645890000015018469028920869808_);" d="M3470.62,1437.63c5.24,0,10.06,0,15.27,0
		c0,5.15,0,10.22,0,15.62c-4.98,0-10.04,0-15.27,0C3470.62,1448.01,3470.62,1442.83,3470.62,1437.63z"/>
</g>
<linearGradient id="SVGID_00000114044665087791680340000006580824953740440209_" gradientUnits="userSpaceOnUse" x1="1989.135" y1="73.0949" x2="2437.5713" y2="73.0949">
	<stop  offset="0" style="stop-color:#1B5785"/>
	<stop  offset="0.2118" style="stop-color:#1F5E8F"/>
	<stop  offset="0.5798" style="stop-color:#3171A5"/>
	<stop  offset="1" style="stop-color:#448ECC"/>
</linearGradient>
<path style="fill:url(#SVGID_00000114044665087791680340000006580824953740440209_);" d="M2133.96,74.32
	c-8.23-8.66-18.27-14.47-30.22-14.95c-17.5-0.69-35.13-1.25-52.54,0.19c-24.48,2.02-43.23,23.54-43.9,48.18
	c-0.19,7.1,0.13,14.22-0.15,21.32c-0.14,3.51,0.84,5.67,4.27,6.69c13.9,4.12,27.71,8.58,41.7,12.34c7.06,1.89,10.8,6.09,9.01,12.07
	c-1.44,4.8-5.72,6.88-12.35,5.79c-17.4-2.87-34.07-8.11-49.96-15.81c-1.84-0.89-4.06-1.4-5.45-2.77c-2-1.97-4.78-4.53-4.83-6.89
	c-0.25-13.45-1.07-27.08,0.69-40.32c3.58-26.9,19.1-45.17,44.24-55.22c1.2-0.48,2.39-1,3.63-1.52
	c-29.48-29.98-20.48-67.35-0.24-86.06c22.62-20.9,55.86-21.27,78.82-0.78c19.73,17.61,31.38,54.81,0.58,86.95
	c13,4.15,23.95,11.34,32.71,21.57c5.78-2,11.22-3.88,17.21-5.96c-20.21-17.45-30.83-39.02-28.62-65.71
	c1.62-19.66,10.41-36.13,25.03-49.29c29.71-26.74,73.41-25.56,101.96,2.09c27.52,26.66,35.39,77.61-5.6,113.01
	c5.52,1.92,10.95,3.8,16.12,5.6c5.27-4.36,10.12-9.08,15.66-12.75c5.39-3.57,11.5-6.07,17.62-9.2
	c-13.74-13.66-20.78-30.37-18.32-50.22c1.87-15.08,9.06-27.58,20.64-37.4c23.24-19.7,56.58-18.23,78.32,3.11
	c20.14,19.77,27.05,56.08-1.43,85.07c12.3,4.21,23.02,10.67,31.55,20.43c11.13,12.72,17.02,27.54,17.35,44.46
	c0.19,9.91-0.1,19.83,0.09,29.74c0.1,4.98-2.11,7.96-6.41,10.09c-16.82,8.34-34.35,14.48-52.9,17.51c-2.54,0.41-5.34,0.81-7.74,0.17
	c-4.23-1.13-6.4-4.4-6.19-8.88c0.23-4.81,3.12-7.46,7.59-8.45c6.01-1.33,12.19-2.02,18.04-3.82c8.88-2.75,17.58-6.12,26.26-9.49
	c1.39-0.54,3.21-2.47,3.2-3.75c-0.02-10.27,0.55-20.68-0.93-30.77c-3.28-22.23-21.05-39.59-43.28-41.2
	c-17.8-1.29-35.8-0.76-53.66,0.09c-11.33,0.54-20.79,6.48-28.75,14.7c0.51,0.7,0.75,1.22,1.16,1.55
	c21.68,17.39,33.14,40.09,34.34,67.76c0.61,13.99,0.56,28.05,0,42.04c-0.12,2.96-3.18,7.05-5.97,8.46
	c-70.64,35.54-141.74,36.33-213.35,2.62c-8.13-3.83-11.36-8.51-10.69-17.64c0.99-13.39-0.08-26.92,0.76-40.33
	c1.49-23.7,11.91-43.28,29.39-59.18c1.66-1.51,3.37-2.95,5.04-4.43C2133.61,75.03,2133.67,74.83,2133.96,74.32z M2310.37,157.58
	c-0.12,0-0.23,0-0.35,0c0-4.11,0.02-8.21,0-12.32c-0.18-38.38-30.9-69.53-69.18-69.95c-18.47-0.2-36.94-0.22-55.41,0.02
	c-32.37,0.42-61.69,24.1-67.06,56.05c-2.54,15.13-1.51,30.88-1.72,46.35c-0.02,1.47,2.34,3.53,4.06,4.37
	c23.73,11.53,48.78,18.23,75.08,20.38c38.8,3.17,75.73-3.76,110.78-20.61c1.78-0.86,3.47-3.74,3.64-5.8
	C2310.67,169.94,2310.37,163.75,2310.37,157.58z M2213.48-57.27c-30.96-0.04-57.16,26.07-57.25,57.05
	c-0.09,31.03,25.94,57.37,56.81,57.48c31.28,0.12,57.55-26.06,57.53-57.32C2270.55-31.07,2244.44-57.24,2213.48-57.27z
	 M2077.4,40.46c22.51,0.03,40.8-18.03,40.85-40.32c0.05-22.31-18.3-40.74-40.56-40.75c-22.25-0.01-40.63,18.45-40.56,40.74
	C2037.2,22.25,2055.35,40.43,2077.4,40.46z M2348.97,40.46c22.46,0.02,40.7-18.11,40.69-40.47c-0.01-22.3-18.42-40.67-40.69-40.61
	c-22,0.06-40.33,18.35-40.43,40.32C2308.43,22.09,2326.64,40.44,2348.97,40.46z"/>
</svg>
