<svg version="1.0" xmlns="http://www.w3.org/2000/svg" viewBox="0 0 1080 1080" style="enable-background:new 0 0 1080 1080" xml:space="preserve"><linearGradient id="a" gradientUnits="userSpaceOnUse" x1="362.92" y1="507.663" x2="718.005" y2="507.663"><stop offset="0" style="stop-color:#1b5785"/><stop offset=".212" style="stop-color:#1f5e8f"/><stop offset=".58" style="stop-color:#3171a5"/><stop offset="1" style="stop-color:#448ecc"/></linearGradient><path style="fill:url(#a)" d="M378.18 685.19c-2.57-1.23-5.36-2.15-7.67-3.76-6.4-4.46-9-12.45-6.85-19.95 2.11-7.37 8.76-12.71 16.5-13.17 1.94-.12 3.9-.02 6.4-.02V349.61c0-10.35 5.56-17.52 14.9-19.18 1.47-.26 2.99-.27 4.49-.27 53.74-.01 107.49-.02 161.23-.01 12.36 0 19.61 7.24 19.61 19.6.02 40.22.01 80.44.01 120.66v4.65h92.6c9.71 0 14.95 5.24 14.96 15 .01 51.2 0 102.4 0 153.61v4.54c1.65 0 3.01-.02 4.36 0 9.47.16 15.64 4.69 18.63 13.64.14.41.43.77.65 1.15v6.94c-2.21 7.96-7.37 12.97-15.26 15.26-108.18-.01-216.37-.01-324.56-.01zm140.67-37.16c0-5.58-.03-10.77.01-15.96.02-2.68 1.56-4.76 4.03-4.81 1.84-.04 4.02 1.21 5.47 2.53.86.78.8 2.8.83 4.27.09 4.59.03 9.18.03 13.9h154.74V491.05c0-5.3-.29-5.58-5.78-5.58H534.99c-5.7 0-5.77.06-5.77 5.87 0 38.25 0 76.5-.01 114.76 0 4.4-1.83 6.83-5.09 6.94-3.28.11-5.29-2.35-5.3-6.63-.01-39.18-.03-78.35.01-117.53.01-8.47 5.46-13.78 13.95-13.8 11.56-.03 23.11-.01 34.67-.01h8.77c.07-1.48.17-2.6.17-3.73.01-40.45.01-80.9 0-121.34 0-6.85-2.59-9.44-9.39-9.44-53.51-.01-107.01-.01-160.52 0-7.04 0-9.51 2.52-9.51 9.66v297.83c40.76-.02 81.04-.02 121.88-.02zm21.25 26.74h156.36c1.39 0 2.79.08 4.15-.13 4.15-.64 7.09-4.19 6.96-8.23-.13-4.11-3.2-7.32-7.45-7.7-1.26-.11-2.54-.09-3.81-.09H384.63c-1.39 0-2.78-.02-4.15.12-3.77.41-6.63 3.26-7.09 6.95-.45 3.62 1.68 7.28 5.26 8.41 1.71.54 3.63.64 5.45.64 52 .03 104 .03 156 .03z"/><linearGradient id="b" gradientUnits="userSpaceOnUse" x1="608.325" y1="397.969" x2="695.319" y2="397.969"><stop offset="0" style="stop-color:#1b5785"/><stop offset=".212" style="stop-color:#1f5e8f"/><stop offset=".58" style="stop-color:#3171a5"/><stop offset="1" style="stop-color:#448ecc"/></linearGradient><path style="fill:url(#b)" d="M652.96 343.2c18.5.17 34.79 11.51 41.12 28.65 1.49 4.04.59 7.03-2.47 8.15-3.14 1.15-5.61-.38-7.26-4.48-5.9-14.66-18.83-22.81-34.63-21.81-13.89.87-26.3 11.39-29.8 25.53-2.79 11.26-.04 21.76 5.12 31.74 6.22 12.02 15.33 21.6 26 29.74.73.56 2.69.51 3.42-.08 13.95-11.13 25.61-23.97 30.58-41.71 1.03-3.66 3.6-5.17 6.71-4.29 2.94.83 4.23 3.6 3.23 7.33-2.97 11.14-8.36 21.11-16.07 29.53-6.13 6.7-13.02 12.73-19.87 18.72-3.66 3.2-8.19 3.32-11.87.61-15.93-11.72-29.05-25.84-35.51-44.92-6.54-19.32-3.9-36.99 11.61-51.4 8.3-7.72 18.35-11.36 29.69-11.31z"/><linearGradient id="c" gradientUnits="userSpaceOnUse" x1="628.055" y1="387.361" x2="677.207" y2="387.361"><stop offset="0" style="stop-color:#1b5785"/><stop offset=".212" style="stop-color:#1f5e8f"/><stop offset=".58" style="stop-color:#3171a5"/><stop offset="1" style="stop-color:#448ecc"/></linearGradient><path style="fill:url(#c)" d="M677.21 387.46c-.04 13.68-11.07 24.59-24.77 24.5-13.39-.09-24.45-11.28-24.38-24.66.07-13.55 11.35-24.66 24.89-24.53 13.47.13 24.29 11.14 24.26 24.69zm-10.4-.14c-.02-7.79-6.26-14.09-14.01-14.15-7.81-.06-14.38 6.47-14.33 14.27.04 7.7 6.4 14.07 14.11 14.11 7.93.05 14.25-6.26 14.23-14.23z"/><linearGradient id="d" gradientUnits="userSpaceOnUse" x1="465.57" y1="577.645" x2="507.8" y2="577.645"><stop offset="0" style="stop-color:#1b5785"/><stop offset=".212" style="stop-color:#1f5e8f"/><stop offset=".58" style="stop-color:#3171a5"/><stop offset="1" style="stop-color:#448ecc"/></linearGradient><path style="fill:url(#d)" d="M486.61 556.72c3.46 0 6.93-.06 10.39.01 6.24.13 10.49 4.12 10.66 10.36.19 7.04.2 14.08 0 21.12-.17 6.22-4.5 10.28-10.69 10.33-6.92.06-13.85.07-20.77-.01-5.95-.07-10.33-4.22-10.48-10.19-.18-7.15-.19-14.31 0-21.46.16-5.99 4.46-10 10.51-10.14 3.45-.08 6.92-.01 10.38-.02zm10.5 10.6h-20.77v20.66h20.77v-20.66z"/><linearGradient id="e" gradientUnits="userSpaceOnUse" x1="465.59" y1="447.733" x2="507.803" y2="447.733"><stop offset="0" style="stop-color:#1b5785"/><stop offset=".212" style="stop-color:#1f5e8f"/><stop offset=".58" style="stop-color:#3171a5"/><stop offset="1" style="stop-color:#448ecc"/></linearGradient><path style="fill:url(#e)" d="M486.34 468.78c-3.35 0-6.7.08-10.04-.02-6.14-.18-10.47-4.39-10.6-10.5-.15-6.92-.13-13.85-.01-20.78.1-6.08 4.06-10.41 10.08-10.63 7.26-.27 14.55-.26 21.81 0 5.91.21 9.91 4.35 10.07 10.27.2 7.15.22 14.32-.01 21.47-.2 5.98-4.55 10.01-10.56 10.18-3.58.09-7.16.01-10.74.01zm-10.03-31.39v20.71h20.78v-20.71h-20.78z"/><linearGradient id="f" gradientUnits="userSpaceOnUse" x1="412.658" y1="447.754" x2="454.567" y2="447.754"><stop offset="0" style="stop-color:#1b5785"/><stop offset=".212" style="stop-color:#1f5e8f"/><stop offset=".58" style="stop-color:#3171a5"/><stop offset="1" style="stop-color:#448ecc"/></linearGradient><path style="fill:url(#f)" d="M454.54 447.71c0 3.58.07 7.16-.02 10.73-.15 5.8-4.22 10.12-10.02 10.27-7.27.19-14.54.2-21.81 0-5.8-.16-9.85-4.46-9.95-10.32-.12-7.04-.11-14.08-.01-21.12.08-5.93 3.9-10.18 9.84-10.41 7.37-.29 14.78-.3 22.15 0 5.91.24 9.68 4.55 9.81 10.46.07 3.47.01 6.93.01 10.39zm-31.14-10.4v20.84h20.45v-20.84H423.4z"/><linearGradient id="g" gradientUnits="userSpaceOnUse" x1="518.774" y1="447.755" x2="560.679" y2="447.755"><stop offset="0" style="stop-color:#1b5785"/><stop offset=".212" style="stop-color:#1f5e8f"/><stop offset=".58" style="stop-color:#3171a5"/><stop offset="1" style="stop-color:#448ecc"/></linearGradient><path style="fill:url(#g)" d="M560.65 447.71c0 3.58.07 7.16-.02 10.73-.15 5.81-4.2 10.12-10.01 10.27-7.26.19-14.54.2-21.81 0-5.79-.16-9.86-4.48-9.95-10.32-.11-7.04-.1-14.08-.01-21.12.08-5.92 3.9-10.18 9.84-10.41 7.37-.3 14.78-.3 22.15.01 5.92.25 9.69 4.54 9.81 10.45.06 3.47 0 6.93 0 10.39zm-10.67 10.56v-20.86h-20.47v20.86h20.47z"/><linearGradient id="h" gradientUnits="userSpaceOnUse" x1="465.598" y1="382.844" x2="507.801" y2="382.844"><stop offset="0" style="stop-color:#1b5785"/><stop offset=".212" style="stop-color:#1f5e8f"/><stop offset=".58" style="stop-color:#3171a5"/><stop offset="1" style="stop-color:#448ecc"/></linearGradient><path style="fill:url(#h)" d="M486.86 361.93c3.35 0 6.69-.04 10.04.01 6.24.09 10.56 4.04 10.74 10.27.21 7.03.19 14.08.01 21.12-.16 6.37-4.49 10.36-10.95 10.41-6.69.06-13.39.06-20.08 0-6.6-.06-10.85-4.22-10.95-10.78-.1-6.81-.11-13.62.01-20.43.11-6.35 4.43-10.5 10.79-10.59 3.47-.05 6.93-.01 10.39-.01zm-10.54 10.57v20.61h20.77V372.5h-20.77z"/><linearGradient id="i" gradientUnits="userSpaceOnUse" x1="465.59" y1="512.745" x2="507.8" y2="512.745"><stop offset="0" style="stop-color:#1b5785"/><stop offset=".212" style="stop-color:#1f5e8f"/><stop offset=".58" style="stop-color:#3171a5"/><stop offset="1" style="stop-color:#448ecc"/></linearGradient><path style="fill:url(#i)" d="M486.92 491.73c3.23 0 6.46-.03 9.7.01 6.41.07 10.86 4.08 11.04 10.39.2 7.04.19 14.09 0 21.12-.16 6.1-4.21 10.2-10.32 10.38-7.15.21-14.32.22-21.47-.01-6.04-.2-10.07-4.46-10.19-10.51-.13-6.92-.13-13.85 0-20.78.12-6.3 4.52-10.5 10.85-10.58 3.47-.06 6.93-.02 10.39-.02zm10.19 31.39v-20.8H476.3v20.8h20.81z"/><linearGradient id="j" gradientUnits="userSpaceOnUse" x1="412.653" y1="512.711" x2="454.565" y2="512.711"><stop offset="0" style="stop-color:#1b5785"/><stop offset=".212" style="stop-color:#1f5e8f"/><stop offset=".58" style="stop-color:#3171a5"/><stop offset="1" style="stop-color:#448ecc"/></linearGradient><path style="fill:url(#j)" d="M454.54 512.7c0 3.58.08 7.16-.02 10.73-.15 5.55-3.85 9.84-9.4 10.07-7.71.32-15.46.32-23.18-.03-5.38-.25-9.09-4.5-9.18-9.9-.13-7.27-.14-14.54 0-21.81.12-5.76 4.42-9.93 10.23-10.02 7.04-.11 14.08-.1 21.12-.01 6.12.08 10.3 4.38 10.42 10.57.07 3.48.01 6.94.01 10.4zm-10.5-10.3h-20.73v20.59h20.73V502.4z"/><linearGradient id="k" gradientUnits="userSpaceOnUse" x1="412.648" y1="382.824" x2="454.596" y2="382.824"><stop offset="0" style="stop-color:#1b5785"/><stop offset=".212" style="stop-color:#1f5e8f"/><stop offset=".58" style="stop-color:#3171a5"/><stop offset="1" style="stop-color:#448ecc"/></linearGradient><path style="fill:url(#k)" d="M433.74 403.74c-3.58 0-7.16.07-10.73-.02-5.89-.14-10.13-4.16-10.25-9.96-.15-7.27-.15-14.54 0-21.81.12-5.83 4.34-9.92 10.2-10 7.15-.1 14.31-.11 21.46.01 5.81.09 10 4.29 10.09 10.12.12 7.15.12 14.31 0 21.46-.1 5.98-4.32 10.06-10.39 10.19-3.45.08-6.92.01-10.38.01zm10.19-10.51v-20.72h-20.55v20.72h20.55z"/><linearGradient id="l" gradientUnits="userSpaceOnUse" x1="518.761" y1="382.852" x2="560.713" y2="382.852"><stop offset="0" style="stop-color:#1b5785"/><stop offset=".212" style="stop-color:#1f5e8f"/><stop offset=".58" style="stop-color:#3171a5"/><stop offset="1" style="stop-color:#448ecc"/></linearGradient><path style="fill:url(#l)" d="M539.71 361.93c3.58 0 7.16-.07 10.73.02 5.84.14 10.07 4.24 10.18 10.04.13 7.27.13 14.54-.01 21.81-.11 5.63-4.29 9.8-9.93 9.91-7.27.14-14.54.13-21.81 0-5.67-.1-9.87-4.21-9.99-9.85-.16-7.38-.16-14.77.01-22.15.13-5.61 4.4-9.61 10.09-9.75 3.57-.1 7.15-.03 10.73-.03zm10.36 10.63h-20.63v20.6h20.63v-20.6z"/><linearGradient id="m" gradientUnits="userSpaceOnUse" x1="412.663" y1="577.642" x2="454.587" y2="577.642"><stop offset="0" style="stop-color:#1b5785"/><stop offset=".212" style="stop-color:#1f5e8f"/><stop offset=".58" style="stop-color:#3171a5"/><stop offset="1" style="stop-color:#448ecc"/></linearGradient><path style="fill:url(#m)" d="M434 556.72c3.35 0 6.69-.07 10.04.02 6.29.15 10.4 4.22 10.48 10.46.09 6.92.08 13.85 0 20.77-.07 6.39-4.28 10.52-10.72 10.58-6.81.06-13.62.06-20.42 0-6.42-.06-10.57-4.18-10.66-10.64-.09-6.81-.08-13.62 0-20.42.08-6.66 4.16-10.65 10.9-10.75 3.46-.06 6.92-.02 10.38-.02zm10.01 10.63H423.3v20.53h20.71v-20.53z"/><linearGradient id="n" gradientUnits="userSpaceOnUse" x1="633.625" y1="606.475" x2="671.646" y2="606.475"><stop offset="0" style="stop-color:#1b5785"/><stop offset=".212" style="stop-color:#1f5e8f"/><stop offset=".58" style="stop-color:#3171a5"/><stop offset="1" style="stop-color:#448ecc"/></linearGradient><path style="fill:url(#n)" d="M671.62 606.33c0 3.23.06 6.47-.02 9.7-.13 5.27-3.22 8.83-8.49 9.04-6.91.29-13.85.27-20.76.02-5.06-.19-8.31-3.32-8.52-8.28-.28-6.91-.28-13.85.01-20.76.2-4.83 3.41-7.98 8.25-8.16 7.03-.27 14.08-.29 21.11-.02 5.21.2 8.29 3.81 8.41 9.12.07 3.11.01 6.23.01 9.34zm-10.56-7.93h-16.78v16.23h16.78V598.4z"/><linearGradient id="o" gradientUnits="userSpaceOnUse" x1="541.274" y1="606.44" x2="579.363" y2="606.44"><stop offset="0" style="stop-color:#1b5785"/><stop offset=".212" style="stop-color:#1f5e8f"/><stop offset=".58" style="stop-color:#3171a5"/><stop offset="1" style="stop-color:#448ecc"/></linearGradient><path style="fill:url(#o)" d="M579.33 606.45c0 3.35.1 6.7-.02 10.04-.17 4.7-3.22 8.28-7.92 8.49-7.25.32-14.54.32-21.79.03-4.77-.19-7.91-3.46-8.11-8.32-.27-6.8-.28-13.62-.01-20.42.2-4.96 3.48-8.22 8.43-8.41 6.91-.26 13.85-.27 20.77-.03 5.4.19 8.55 3.81 8.66 9.27.06 3.12.01 6.23.01 9.35h-.02zm-27.47 8.09h16.95v-16.13h-16.95v16.13z"/><linearGradient id="p" gradientUnits="userSpaceOnUse" x1="541.255" y1="521.478" x2="579.362" y2="521.478"><stop offset="0" style="stop-color:#1b5785"/><stop offset=".212" style="stop-color:#1f5e8f"/><stop offset=".58" style="stop-color:#3171a5"/><stop offset="1" style="stop-color:#448ecc"/></linearGradient><path style="fill:url(#p)" d="M579.34 521.6c0 3.12.06 6.24-.01 9.35-.13 5.49-3.64 9.09-9.15 9.2-6.46.13-12.93.11-19.4.01-5.42-.08-9.1-3.36-9.32-8.7-.27-6.69-.27-13.4-.01-20.08.21-5.36 3.9-8.57 9.33-8.62 6.47-.06 12.93-.08 19.4.01 5.53.07 9.02 3.59 9.15 9.14.07 3.23.01 6.46.01 9.69zm-27.41 7.93h16.82v-16.19h-16.82v16.19z"/><linearGradient id="q" gradientUnits="userSpaceOnUse" x1="587.562" y1="606.476" x2="625.663" y2="606.476"><stop offset="0" style="stop-color:#1b5785"/><stop offset=".212" style="stop-color:#1f5e8f"/><stop offset=".58" style="stop-color:#3171a5"/><stop offset="1" style="stop-color:#448ecc"/></linearGradient><path style="fill:url(#q)" d="M587.58 606.38c0-3.12-.05-6.23.01-9.35.11-5.3 3.19-8.96 8.38-9.16 7.03-.28 14.08-.26 21.11 0 4.92.18 8.17 3.48 8.37 8.46.27 6.68.27 13.39.03 20.08-.18 5.16-3.42 8.46-8.56 8.67-6.91.27-13.85.28-20.76 0-5.41-.22-8.48-3.84-8.57-9.34-.05-3.12-.01-6.24-.01-9.36zm27.36 8.24v-16.29h-16.82v16.29h16.82z"/><linearGradient id="r" gradientUnits="userSpaceOnUse" x1="587.547" y1="521.488" x2="625.671" y2="521.488"><stop offset="0" style="stop-color:#1b5785"/><stop offset=".212" style="stop-color:#1f5e8f"/><stop offset=".58" style="stop-color:#3171a5"/><stop offset="1" style="stop-color:#448ecc"/></linearGradient><path style="fill:url(#r)" d="M606.72 502.75c3.12 0 6.24-.04 9.35.01 5.59.09 9.24 3.34 9.42 8.9.22 6.57.24 13.17-.03 19.74-.21 5.35-3.88 8.67-9.26 8.76-6.46.11-12.93.12-19.4 0-5.67-.1-9.16-3.74-9.22-9.48-.07-6.12-.06-12.24 0-18.36.06-6.12 3.56-9.51 9.78-9.57 3.13-.03 6.25-.01 9.36 0zm-8.63 26.79h16.89v-16.1h-16.89v16.1z"/><linearGradient id="s" gradientUnits="userSpaceOnUse" x1="541.263" y1="563.87" x2="579.385" y2="563.87"><stop offset="0" style="stop-color:#1b5785"/><stop offset=".212" style="stop-color:#1f5e8f"/><stop offset=".58" style="stop-color:#3171a5"/><stop offset="1" style="stop-color:#448ecc"/></linearGradient><path style="fill:url(#s)" d="M560.22 582.63c-3.23 0-6.47.07-9.7-.02-5.22-.14-8.85-3.32-9.06-8.54-.27-6.8-.27-13.63.02-20.43.22-5 3.82-8.29 8.85-8.42 6.69-.17 13.4-.18 20.09 0 5.34.15 8.8 3.79 8.88 9.1.1 6.35.09 12.7.01 19.05-.08 5.73-3.58 9.13-9.4 9.25-3.22.07-6.46.01-9.69.01zm8.53-10.56v-16.33h-16.79v16.33h16.79z"/><linearGradient id="t" gradientUnits="userSpaceOnUse" x1="587.536" y1="563.87" x2="625.669" y2="563.87"><stop offset="0" style="stop-color:#1b5785"/><stop offset=".212" style="stop-color:#1f5e8f"/><stop offset=".58" style="stop-color:#3171a5"/><stop offset="1" style="stop-color:#448ecc"/></linearGradient><path style="fill:url(#t)" d="M606.41 582.61c-3.35 0-6.7.09-10.04-.02-5.13-.18-8.65-3.68-8.75-8.83-.12-6.46-.1-12.93-.01-19.4.07-5.33 3.51-8.99 8.84-9.14 6.69-.19 13.4-.18 20.09-.01 5.19.13 8.74 3.51 8.94 8.72.25 6.69.27 13.4-.01 20.08-.23 5.38-3.86 8.48-9.36 8.6-3.23.07-6.47.01-9.7.01v-.01zm-8.25-26.87v16.2h16.82v-16.2h-16.82z"/><linearGradient id="u" gradientUnits="userSpaceOnUse" x1="633.619" y1="521.481" x2="671.644" y2="521.481"><stop offset="0" style="stop-color:#1b5785"/><stop offset=".212" style="stop-color:#1f5e8f"/><stop offset=".58" style="stop-color:#3171a5"/><stop offset="1" style="stop-color:#448ecc"/></linearGradient><path style="fill:url(#u)" d="M671.62 521.32c0 3.23.07 6.47-.02 9.7-.14 5.35-3.55 8.99-8.85 9.12-6.69.17-13.39.15-20.09 0-5.04-.11-8.63-3.38-8.84-8.39-.28-6.91-.29-13.85.02-20.76.22-5.03 3.87-8.15 8.95-8.21 6.58-.09 13.16-.09 19.74 0 5.51.07 8.94 3.61 9.07 9.2.08 3.11.02 6.23.02 9.34zm-27.33-8.05v16.31h16.68v-16.31h-16.68z"/><linearGradient id="v" gradientUnits="userSpaceOnUse" x1="633.656" y1="563.869" x2="671.668" y2="563.869"><stop offset="0" style="stop-color:#1b5785"/><stop offset=".212" style="stop-color:#1f5e8f"/><stop offset=".58" style="stop-color:#3171a5"/><stop offset="1" style="stop-color:#448ecc"/></linearGradient><path style="fill:url(#v)" d="M652.39 582.62c-3.23 0-6.47.08-9.7-.02-4.94-.15-8.58-3.14-8.8-7.98-.32-7.14-.31-14.31.01-21.45.21-4.63 3.77-7.8 8.53-7.93 6.81-.2 13.63-.21 20.43 0 5.32.16 8.66 3.82 8.74 9.22.09 6.35.1 12.7 0 19.05-.09 5.56-3.57 8.97-9.17 9.11-3.35.07-6.7.01-10.04 0zm8.64-10.53v-16.32h-16.69v16.32h16.69z"/><g><linearGradient id="w" gradientUnits="userSpaceOnUse" x1="-1302.252" y1="90.756" x2="-990.77" y2="90.756"><stop offset="0" style="stop-color:#1b5785"/><stop offset=".212" style="stop-color:#1f5e8f"/><stop offset=".58" style="stop-color:#3171a5"/><stop offset="1" style="stop-color:#448ecc"/></linearGradient><path style="fill:url(#w)" d="M-1146.12-35.79c35.92 0 71.84-.01 107.77 0 27.15.01 47.54 20.36 47.56 47.55.03 40.17.03 80.34 0 120.5-.02 27.22-20.23 47.53-47.53 47.56-59.25.07-118.49.06-177.74-.05-4.65-.01-8.37 1.28-12.01 4.09-12.14 9.38-24.47 18.49-36.66 27.79-7.71 5.89-16.02 7.57-24.84 3.2-8.93-4.43-12.69-12.08-12.68-21.98.07-60.38.02-120.75.04-181.13.01-27.16 20.42-47.52 47.58-47.53 36.17-.01 72.34 0 108.51 0zm-132.14 227.46c1.6-1.13 2.6-1.81 3.57-2.54 11.15-8.41 22.37-16.73 33.42-25.27 7.1-5.49 14.97-8.03 23.94-8.02 59.38.08 118.75.05 178.13.03 15.21 0 24.45-9.28 24.46-24.49.01-39.55.01-79.1 0-118.64 0-15.4-9.26-24.57-24.75-24.58h-213.68c-16.01 0-25.08 9.04-25.08 24.99v174.04c-.01 1.24-.01 2.48-.01 4.48z"/><linearGradient id="x" gradientUnits="userSpaceOnUse" x1="-1242.351" y1="6.153" x2="-942.863" y2="6.153"><stop offset="0" style="stop-color:#1b5785"/><stop offset=".212" style="stop-color:#1f5e8f"/><stop offset=".58" style="stop-color:#3171a5"/><stop offset="1" style="stop-color:#448ecc"/></linearGradient><path style="fill:url(#x)" d="M-1108.32-83.71h117.53c27.65 0 47.9 20.27 47.91 47.97.02 39.56.02 79.11-.01 118.67-.01 9.42-8.18 15.48-16.32 12.21-4.77-1.91-7.6-6.19-7.61-11.78-.04-11.98-.01-23.96-.01-35.94 0-27.58.01-55.15 0-82.73-.01-15.18-9.3-24.44-24.52-24.44-78.98 0-157.95-.02-236.93.04-5.77 0-10.35-1.72-12.92-7.06-3.55-7.39 1.52-16.07 9.74-16.88 1.24-.12 2.49-.06 3.74-.06h119.4z"/><linearGradient id="y" gradientUnits="userSpaceOnUse" x1="-1111.287" y1="73.097" x2="-1087.356" y2="73.097"><stop offset="0" style="stop-color:#1b5785"/><stop offset=".212" style="stop-color:#1f5e8f"/><stop offset=".58" style="stop-color:#3171a5"/><stop offset="1" style="stop-color:#448ecc"/></linearGradient><path style="fill:url(#y)" d="M-1087.36 73.12c-.01 6.55-5.3 11.86-11.88 11.9-6.53.04-11.96-5.26-12.05-11.76-.09-6.7 5.36-12.15 12.08-12.09 6.55.07 11.86 5.42 11.85 11.95z"/><linearGradient id="z" gradientUnits="userSpaceOnUse" x1="-1205.646" y1="73.097" x2="-1181.716" y2="73.097"><stop offset="0" style="stop-color:#1b5785"/><stop offset=".212" style="stop-color:#1f5e8f"/><stop offset=".58" style="stop-color:#3171a5"/><stop offset="1" style="stop-color:#448ecc"/></linearGradient><path style="fill:url(#z)" d="M-1205.64 72.82c.14-6.56 5.53-11.74 12.13-11.64 6.51.1 11.85 5.54 11.8 12.02-.05 6.66-5.66 12.03-12.35 11.82-6.56-.2-11.72-5.65-11.58-12.2z"/><linearGradient id="A" gradientUnits="userSpaceOnUse" x1="-1157.734" y1="73.095" x2="-1133.802" y2="73.095"><stop offset="0" style="stop-color:#1b5785"/><stop offset=".212" style="stop-color:#1f5e8f"/><stop offset=".58" style="stop-color:#3171a5"/><stop offset="1" style="stop-color:#448ecc"/></linearGradient><path style="fill:url(#A)" d="M-1146.23 85.01c-6.55-.24-11.67-5.7-11.5-12.27.17-6.55 5.62-11.71 12.2-11.57 6.66.14 12.02 5.85 11.72 12.47-.31 6.51-5.87 11.61-12.42 11.37z"/></g><linearGradient id="B" gradientUnits="userSpaceOnUse" x1="2596.887" y1="-496.836" x2="2947.542" y2="-496.836"><stop offset="0" style="stop-color:#1b5785"/><stop offset=".212" style="stop-color:#1f5e8f"/><stop offset=".58" style="stop-color:#3171a5"/><stop offset="1" style="stop-color:#448ecc"/></linearGradient><path style="fill:url(#B)" d="M2920.15-321.52c-.29-35.14-11.21-66.61-33.66-93.63-24.91-30-56.76-48.28-95.7-52.97-45-5.42-84.61 7.18-118.2 37.67-27.55 25-43.15 56.31-47.45 93.23-.61 5.2-.58 10.47-.85 15.7h-27.39c2.8-80.95 43.84-134.89 117-166.27-27.21-20.37-42.52-47.62-42.91-82.27-.32-28.26 9.86-52.77 29.97-72.62 41.78-41.22 106.31-37.87 144.32 1.76 42.01 43.79 37.24 116.06-15.43 153.62 1.46.59 2.64 1.06 3.81 1.53 53.45 21.3 89.13 59.22 106.57 114.11 3.77 11.88 5.9 24.13 6.72 36.58.07 1.1.39 2.19.6 3.28v10.27c-9.14.01-18.27.01-27.4.01zm-147.87-323.26c-40.58-.06-73.81 33.03-74.02 73.72-.21 40.64 33.14 74.13 73.89 74.19 40.58.06 73.81-33.03 74.02-73.72.21-40.63-33.14-74.12-73.89-74.19z"/><g><linearGradient id="C" gradientUnits="userSpaceOnUse" x1="3445.675" y1="1381.289" x2="3639.354" y2="1381.289"><stop offset="0" style="stop-color:#1b5785"/><stop offset=".212" style="stop-color:#1f5e8f"/><stop offset=".58" style="stop-color:#3171a5"/><stop offset="1" style="stop-color:#448ecc"/></linearGradient><path style="fill:url(#C)" d="M3632.78 1349c8.77 12.77 8.77 51.77-.01 64.59 6.47 6.73 6.36 15.42 6.18 24.2-.16 7.86.06 15.72-.06 23.58-.21 13.81-10.39 24.26-24.13 24.29-48.18.11-96.35.11-144.53 0-13.72-.03-23.92-10.53-24.09-24.33-.11-9.2.14-18.4-.08-27.6-.18-7.42.96-14.32 6-19.94-8.54-14.55-8.54-52.17.22-64.83-6.53-6.7-6.38-15.4-6.2-24.17.16-7.69-.02-15.39.05-23.08.13-14.41 10.3-24.81 24.62-24.83 47.84-.08 95.68-.08 143.53 0 14.33.02 24.5 10.38 24.64 24.81.09 9.03-.15 18.07.07 27.1.15 7.43-1.01 14.33-6.21 20.21zm-89.77-56.08c-23.6 0-47.19-.02-70.79.01-7.22.01-10.01 2.81-10.04 10.02-.04 9.54-.06 19.08.01 28.62.05 6.57 2.96 9.53 9.51 9.53 47.19.04 94.39.04 141.58 0 6.56 0 9.49-2.97 9.54-9.52.07-9.37.04-18.74.01-28.11-.02-7.87-2.67-10.53-10.54-10.54-23.09-.02-46.18-.01-69.28-.01zm-1.01 112.47c23.6 0 47.19.02 70.79-.01 7.2-.01 10-2.84 10.04-10.04.04-9.54.06-19.08-.01-28.62-.05-6.55-2.97-9.51-9.54-9.51-47.19-.03-94.39-.03-141.58 0-6.57 0-9.47 2.95-9.52 9.52-.07 9.37-.04 18.74-.01 28.11.02 7.87 2.67 10.53 10.54 10.54 23.1.02 46.2.01 69.29.01zm0 64.26c23.6 0 47.19.02 70.79-.01 7.2-.01 10.01-2.84 10.04-10.04.04-9.54.06-19.08-.01-28.62-.05-6.56-2.97-9.51-9.53-9.51-47.19-.03-94.39-.03-141.58 0-6.57 0-9.47 2.95-9.52 9.52-.07 9.37-.04 18.74-.01 28.11.02 7.87 2.67 10.53 10.54 10.54 23.09.03 46.18.01 69.28.01z"/><linearGradient id="D" gradientUnits="userSpaceOnUse" x1="3293.474" y1="1325.024" x2="3686.038" y2="1325.024"><stop offset="0" style="stop-color:#1b5785"/><stop offset=".212" style="stop-color:#1f5e8f"/><stop offset=".58" style="stop-color:#3171a5"/><stop offset="1" style="stop-color:#448ecc"/></linearGradient><path style="fill:url(#D)" d="M3342.7 1505.85c-4.38 2.64-8.76 5.28-13.15 7.92-57.3-91.75-49.05-225.52 44.22-311.45 93.52-86.18 226.87-82.77 312.27-20.07-2.89 4.07-5.78 8.14-8.94 12.6-56.24-37.93-117.54-51.09-183.93-37.13-45.73 9.61-84.67 31.98-117.66 65.09-63.23 63.45-94.1 179.85-32.81 283.04z"/><linearGradient id="E" gradientUnits="userSpaceOnUse" x1="3401.691" y1="1447.732" x2="3791.499" y2="1447.732"><stop offset="0" style="stop-color:#1b5785"/><stop offset=".212" style="stop-color:#1f5e8f"/><stop offset=".58" style="stop-color:#3171a5"/><stop offset="1" style="stop-color:#448ecc"/></linearGradient><path style="fill:url(#E)" d="M3758.02 1261.16c54.7 91.93 44.95 224.12-48.44 308.61-94.68 85.66-226.06 79.28-307.89 20.38 2.8-4.1 5.61-8.2 8.66-12.65 57.62 37.58 119.85 49.9 186.87 34.12 46.73-11 86.11-34.95 118.4-70.47 62.27-68.49 82.46-177.28 28.96-272.14 4.39-2.57 8.8-5.14 13.44-7.85z"/><linearGradient id="F" gradientUnits="userSpaceOnUse" x1="3320.982" y1="1551.686" x2="3417.189" y2="1551.686"><stop offset="0" style="stop-color:#1b5785"/><stop offset=".212" style="stop-color:#1f5e8f"/><stop offset=".58" style="stop-color:#3171a5"/><stop offset="1" style="stop-color:#448ecc"/></linearGradient><path style="fill:url(#F)" d="M3368.95 1503.58c5.06.11 8.26 2.63 9.81 7.24 1.12 3.32 1.98 6.73 3.04 10.07 2.95 9.3 9.06 15.41 18.45 18.19 3.36 1 6.77 1.88 10.06 3.08 4.34 1.57 6.87 4.68 6.88 9.45.01 4.72-2.32 7.95-6.76 9.49-3.31 1.15-6.72 2-10.07 3.05-9.47 2.95-15.81 9.07-18.67 18.65-.96 3.2-1.89 6.41-2.88 9.59-1.46 4.7-4.79 7.39-9.6 7.42-4.79.02-8.21-2.52-9.66-7.28-.93-3.03-1.86-6.07-2.74-9.11-2.89-9.95-9.29-16.41-19.22-19.36-3.04-.9-6.08-1.8-9.12-2.72-4.74-1.42-7.23-4.72-7.47-9.56-.23-4.56 2.79-8.24 7.76-9.84 2.23-.72 4.49-1.33 6.75-1.92 11.32-2.95 18.71-9.89 21.75-21.3.77-2.9 1.5-5.84 2.56-8.64 1.57-4.17 4.73-6.35 9.13-6.5zm-.36 65.6 18.13-18.07c-2.61-1.99-6.33-4.27-9.33-7.27-3.14-3.14-5.6-6.97-7.72-9.69-5.86 5.87-12.05 12.05-18.03 18.04 2.78 2.17 6.47 4.53 9.48 7.55 3.02 3.04 5.37 6.73 7.47 9.44z"/><linearGradient id="G" gradientUnits="userSpaceOnUse" x1="3668.623" y1="1225.638" x2="3764.777" y2="1225.638"><stop offset="0" style="stop-color:#1b5785"/><stop offset=".212" style="stop-color:#1f5e8f"/><stop offset=".58" style="stop-color:#3171a5"/><stop offset="1" style="stop-color:#448ecc"/></linearGradient><path style="fill:url(#G)" d="M3716.88 1177.45c4.6.47 7.89 2.68 9.36 7.15 1.15 3.49 2.05 7.06 3.18 10.55 2.89 8.88 8.72 14.88 17.68 17.72 3.18 1.01 6.41 1.89 9.59 2.89 5.4 1.68 8.23 5.18 8.08 10.11-.16 5.23-3.13 8.26-7.94 9.71-2.72.82-5.48 1.51-8.2 2.32-10.06 3.01-16.73 9.42-19.63 19.62-.82 2.89-1.66 5.78-2.6 8.64-1.67 5.07-5.2 7.86-9.88 7.66-4.9-.22-8.06-2.82-9.49-7.52-1.02-3.36-1.95-6.74-3.05-10.07-2.92-8.85-8.68-14.91-17.68-17.72-3.35-1.04-6.74-1.95-10.07-3.03-4.98-1.62-7.77-5.26-7.61-9.97.17-4.96 2.88-8.07 7.48-9.55 2.86-.92 5.79-1.64 8.67-2.49 10.09-2.98 16.73-9.41 19.62-19.61.91-3.21 1.76-6.45 2.9-9.59 1.6-4.41 4.97-6.54 9.59-6.82zm16.73 48.31c-5.61-5.71-11.64-11.85-16.82-17.12-5.61 5.62-11.73 11.75-16.95 16.97l16.79 17.12c5.54-5.54 11.58-11.58 16.98-16.97z"/><linearGradient id="H" gradientUnits="userSpaceOnUse" x1="3542.759" y1="1317.089" x2="3614.467" y2="1317.089"><stop offset="0" style="stop-color:#1b5785"/><stop offset=".212" style="stop-color:#1f5e8f"/><stop offset=".58" style="stop-color:#3171a5"/><stop offset="1" style="stop-color:#448ecc"/></linearGradient><path style="fill:url(#H)" d="M3614.47 1324.82h-71.71v-15.46h71.71v15.46z"/><linearGradient id="I" gradientUnits="userSpaceOnUse" x1="3470.432" y1="1316.976" x2="3485.878" y2="1316.976"><stop offset="0" style="stop-color:#1b5785"/><stop offset=".212" style="stop-color:#1f5e8f"/><stop offset=".58" style="stop-color:#3171a5"/><stop offset="1" style="stop-color:#448ecc"/></linearGradient><path style="fill:url(#I)" d="M3470.43 1324.7v-15.46h15.45v15.46h-15.45z"/><linearGradient id="J" gradientUnits="userSpaceOnUse" x1="3542.736" y1="1381.242" x2="3614.404" y2="1381.242"><stop offset="0" style="stop-color:#1b5785"/><stop offset=".212" style="stop-color:#1f5e8f"/><stop offset=".58" style="stop-color:#3171a5"/><stop offset="1" style="stop-color:#448ecc"/></linearGradient><path style="fill:url(#J)" d="M3542.74 1388.97v-15.46h71.67v15.46h-71.67z"/><linearGradient id="K" gradientUnits="userSpaceOnUse" x1="3470.382" y1="1381.242" x2="3486.002" y2="1381.242"><stop offset="0" style="stop-color:#1b5785"/><stop offset=".212" style="stop-color:#1f5e8f"/><stop offset=".58" style="stop-color:#3171a5"/><stop offset="1" style="stop-color:#448ecc"/></linearGradient><path style="fill:url(#K)" d="M3470.38 1388.92v-15.35H3486v15.35h-15.62z"/><linearGradient id="L" gradientUnits="userSpaceOnUse" x1="3542.769" y1="1445.508" x2="3614.456" y2="1445.508"><stop offset="0" style="stop-color:#1b5785"/><stop offset=".212" style="stop-color:#1f5e8f"/><stop offset=".58" style="stop-color:#3171a5"/><stop offset="1" style="stop-color:#448ecc"/></linearGradient><path style="fill:url(#L)" d="M3542.77 1437.73h71.69v15.56h-71.69v-15.56z"/><linearGradient id="M" gradientUnits="userSpaceOnUse" x1="3470.622" y1="1445.437" x2="3485.889" y2="1445.437"><stop offset="0" style="stop-color:#1b5785"/><stop offset=".212" style="stop-color:#1f5e8f"/><stop offset=".58" style="stop-color:#3171a5"/><stop offset="1" style="stop-color:#448ecc"/></linearGradient><path style="fill:url(#M)" d="M3470.62 1437.63h15.27v15.62h-15.27v-15.62z"/></g><linearGradient id="N" gradientUnits="userSpaceOnUse" x1="1989.135" y1="73.095" x2="2437.571" y2="73.095"><stop offset="0" style="stop-color:#1b5785"/><stop offset=".212" style="stop-color:#1f5e8f"/><stop offset=".58" style="stop-color:#3171a5"/><stop offset="1" style="stop-color:#448ecc"/></linearGradient><path style="fill:url(#N)" d="M2133.96 74.32c-8.23-8.66-18.27-14.47-30.22-14.95-17.5-.69-35.13-1.25-52.54.19-24.48 2.02-43.23 23.54-43.9 48.18-.19 7.1.13 14.22-.15 21.32-.14 3.51.84 5.67 4.27 6.69 13.9 4.12 27.71 8.58 41.7 12.34 7.06 1.89 10.8 6.09 9.01 12.07-1.44 4.8-5.72 6.88-12.35 5.79-17.4-2.87-34.07-8.11-49.96-15.81-1.84-.89-4.06-1.4-5.45-2.77-2-1.97-4.78-4.53-4.83-6.89-.25-13.45-1.07-27.08.69-40.32 3.58-26.9 19.1-45.17 44.24-55.22 1.2-.48 2.39-1 3.63-1.52-29.48-29.98-20.48-67.35-.24-86.06 22.62-20.9 55.86-21.27 78.82-.78 19.73 17.61 31.38 54.81.58 86.95 13 4.15 23.95 11.34 32.71 21.57 5.78-2 11.22-3.88 17.21-5.96-20.21-17.45-30.83-39.02-28.62-65.71 1.62-19.66 10.41-36.13 25.03-49.29 29.71-26.74 73.41-25.56 101.96 2.09 27.52 26.66 35.39 77.61-5.6 113.01 5.52 1.92 10.95 3.8 16.12 5.6 5.27-4.36 10.12-9.08 15.66-12.75 5.39-3.57 11.5-6.07 17.62-9.2-13.74-13.66-20.78-30.37-18.32-50.22 1.87-15.08 9.06-27.58 20.64-37.4 23.24-19.7 56.58-18.23 78.32 3.11 20.14 19.77 27.05 56.08-1.43 85.07 12.3 4.21 23.02 10.67 31.55 20.43 11.13 12.72 17.02 27.54 17.35 44.46.19 9.91-.1 19.83.09 29.74.1 4.98-2.11 7.96-6.41 10.09-16.82 8.34-34.35 14.48-52.9 17.51-2.54.41-5.34.81-7.74.17-4.23-1.13-6.4-4.4-6.19-8.88.23-4.81 3.12-7.46 7.59-8.45 6.01-1.33 12.19-2.02 18.04-3.82 8.88-2.75 17.58-6.12 26.26-9.49 1.39-.54 3.21-2.47 3.2-3.75-.02-10.27.55-20.68-.93-30.77-3.28-22.23-21.05-39.59-43.28-41.2-17.8-1.29-35.8-.76-53.66.09-11.33.54-20.79 6.48-28.75 14.7.51.7.75 1.22 1.16 1.55 21.68 17.39 33.14 40.09 34.34 67.76.61 13.99.56 28.05 0 42.04-.12 2.96-3.18 7.05-5.97 8.46-70.64 35.54-141.74 36.33-213.35 2.62-8.13-3.83-11.36-8.51-10.69-17.64.99-13.39-.08-26.92.76-40.33 1.49-23.7 11.91-43.28 29.39-59.18 1.66-1.51 3.37-2.95 5.04-4.43.15-.1.21-.3.5-.81zm176.41 83.26h-.35c0-4.11.02-8.21 0-12.32-.18-38.38-30.9-69.53-69.18-69.95-18.47-.2-36.94-.22-55.41.02-32.37.42-61.69 24.1-67.06 56.05-2.54 15.13-1.51 30.88-1.72 46.35-.02 1.47 2.34 3.53 4.06 4.37 23.73 11.53 48.78 18.23 75.08 20.38 38.8 3.17 75.73-3.76 110.78-20.61 1.78-.86 3.47-3.74 3.64-5.8.46-6.13.16-12.32.16-18.49zm-96.89-214.85c-30.96-.04-57.16 26.07-57.25 57.05-.09 31.03 25.94 57.37 56.81 57.48 31.28.12 57.55-26.06 57.53-57.32-.02-31.01-26.13-57.18-57.09-57.21zM2077.4 40.46c22.51.03 40.8-18.03 40.85-40.32.05-22.31-18.3-40.74-40.56-40.75-22.25-.01-40.63 18.45-40.56 40.74.07 22.12 18.22 40.3 40.27 40.33zm271.57 0c22.46.02 40.7-18.11 40.69-40.47-.01-22.3-18.42-40.67-40.69-40.61-22 .06-40.33 18.35-40.43 40.32-.11 22.39 18.1 40.74 40.43 40.76z"/></svg>