<svg version="1.0" xmlns="http://www.w3.org/2000/svg" viewBox="0 0 1080 1080" style="enable-background:new 0 0 1080 1080" xml:space="preserve"><linearGradient id="a" gradientUnits="userSpaceOnUse" x1="-1864.62" y1="-570.82" x2="-1509.536" y2="-570.82"><stop offset="0" style="stop-color:#1b5785"/><stop offset=".212" style="stop-color:#1f5e8f"/><stop offset=".58" style="stop-color:#3171a5"/><stop offset="1" style="stop-color:#448ecc"/></linearGradient><path style="fill:url(#a)" d="M-1849.36-393.29c-2.57-1.23-5.36-2.15-7.67-3.76-6.4-4.46-9-12.45-6.85-19.95 2.11-7.37 8.76-12.71 16.5-13.17 1.94-.12 3.9-.02 6.4-.02V-728.87c0-10.35 5.56-17.52 14.9-19.18 1.47-.26 2.99-.27 4.49-.27 53.74-.01 107.49-.02 161.23-.01 12.36 0 19.61 7.24 19.61 19.6.02 40.22.01 80.44.01 120.66v4.65h92.6c9.71 0 14.95 5.24 14.96 15 .01 51.2 0 102.4 0 153.61v4.54c1.65 0 3.01-.02 4.36 0 9.47.16 15.64 4.69 18.63 13.64.14.41.43.77.65 1.15v6.94c-2.21 7.96-7.37 12.97-15.26 15.26-108.18-.01-216.37-.01-324.56-.01zm140.67-37.16c0-5.58-.03-10.77.01-15.96.02-2.68 1.56-4.76 4.03-4.81 1.84-.04 4.02 1.21 5.47 2.53.86.78.8 2.8.83 4.27.09 4.59.03 9.18.03 13.9h154.74v-156.91c0-5.3-.29-5.58-5.78-5.58h-143.19c-5.7 0-5.77.06-5.77 5.87 0 38.25 0 76.5-.01 114.76 0 4.4-1.83 6.83-5.09 6.94-3.28.11-5.29-2.35-5.3-6.63-.01-39.18-.03-78.35.01-117.53.01-8.47 5.46-13.78 13.95-13.8 11.56-.03 23.11-.01 34.67-.01h8.77c.07-1.48.17-2.6.17-3.73.01-40.45.01-80.9 0-121.34 0-6.85-2.59-9.44-9.39-9.44-53.51-.01-107.01-.01-160.52 0-7.04 0-9.51 2.52-9.51 9.66v297.83c40.76-.02 81.04-.02 121.88-.02zm21.25 26.73h156.36c1.39 0 2.79.08 4.15-.13 4.15-.64 7.09-4.19 6.96-8.23-.13-4.11-3.2-7.32-7.45-7.7-1.26-.11-2.54-.09-3.81-.09h-311.68c-1.39 0-2.78-.02-4.15.12-3.77.41-6.63 3.26-7.09 6.95-.45 3.62 1.68 7.28 5.26 8.41 1.71.54 3.63.64 5.45.64 52 .04 104 .03 156 .03z"/><linearGradient id="b" gradientUnits="userSpaceOnUse" x1="-1619.216" y1="-680.514" x2="-1532.221" y2="-680.514"><stop offset="0" style="stop-color:#1b5785"/><stop offset=".212" style="stop-color:#1f5e8f"/><stop offset=".58" style="stop-color:#3171a5"/><stop offset="1" style="stop-color:#448ecc"/></linearGradient><path style="fill:url(#b)" d="M-1574.58-735.29c18.5.17 34.79 11.51 41.12 28.65 1.49 4.04.59 7.03-2.47 8.15-3.14 1.15-5.61-.38-7.26-4.48-5.9-14.66-18.83-22.81-34.63-21.81-13.89.87-26.3 11.39-29.8 25.53-2.79 11.26-.04 21.76 5.12 31.74 6.22 12.02 15.33 21.6 26 29.74.73.56 2.69.51 3.42-.08 13.95-11.13 25.61-23.97 30.58-41.71 1.03-3.66 3.6-5.17 6.71-4.29 2.94.83 4.23 3.6 3.23 7.33-2.97 11.14-8.36 21.11-16.07 29.53-6.13 6.7-13.02 12.73-19.87 18.72-3.66 3.2-8.19 3.32-11.87.61-15.93-11.72-29.05-25.84-35.51-44.92-6.54-19.32-3.9-36.99 11.61-51.4 8.3-7.71 18.35-11.35 29.69-11.31z"/><linearGradient id="c" gradientUnits="userSpaceOnUse" x1="-1599.486" y1="-691.122" x2="-1550.333" y2="-691.122"><stop offset="0" style="stop-color:#1b5785"/><stop offset=".212" style="stop-color:#1f5e8f"/><stop offset=".58" style="stop-color:#3171a5"/><stop offset="1" style="stop-color:#448ecc"/></linearGradient><path style="fill:url(#c)" d="M-1550.33-691.02c-.04 13.68-11.07 24.59-24.78 24.5-13.39-.09-24.45-11.28-24.38-24.66.07-13.55 11.35-24.66 24.89-24.53 13.48.12 24.3 11.14 24.27 24.69zm-10.4-.14c-.02-7.79-6.26-14.09-14.01-14.15-7.81-.06-14.38 6.47-14.33 14.27.04 7.7 6.4 14.07 14.11 14.11 7.93.05 14.25-6.27 14.23-14.23z"/><linearGradient id="d" gradientUnits="userSpaceOnUse" x1="-1761.97" y1="-500.838" x2="-1719.741" y2="-500.838"><stop offset="0" style="stop-color:#1b5785"/><stop offset=".212" style="stop-color:#1f5e8f"/><stop offset=".58" style="stop-color:#3171a5"/><stop offset="1" style="stop-color:#448ecc"/></linearGradient><path style="fill:url(#d)" d="M-1740.93-521.76c3.46 0 6.93-.06 10.39.01 6.24.13 10.49 4.12 10.66 10.36.19 7.04.2 14.08 0 21.12-.17 6.22-4.5 10.28-10.69 10.33-6.92.06-13.85.07-20.77-.01-5.95-.07-10.33-4.22-10.48-10.19-.18-7.15-.19-14.31 0-21.46.16-5.99 4.46-10 10.51-10.14 3.45-.08 6.91-.02 10.38-.02zm10.5 10.6h-20.77v20.66h20.77v-20.66z"/><linearGradient id="e" gradientUnits="userSpaceOnUse" x1="-1761.95" y1="-630.75" x2="-1719.738" y2="-630.75"><stop offset="0" style="stop-color:#1b5785"/><stop offset=".212" style="stop-color:#1f5e8f"/><stop offset=".58" style="stop-color:#3171a5"/><stop offset="1" style="stop-color:#448ecc"/></linearGradient><path style="fill:url(#e)" d="M-1741.2-609.7c-3.35 0-6.7.08-10.04-.02-6.14-.18-10.47-4.39-10.6-10.5-.15-6.92-.13-13.85-.01-20.78.1-6.08 4.06-10.41 10.08-10.63 7.26-.27 14.55-.26 21.81 0 5.91.21 9.91 4.35 10.07 10.27.2 7.15.22 14.32-.01 21.47-.2 5.98-4.55 10.01-10.56 10.18-3.58.09-7.16.01-10.74.01zm-10.03-31.39v20.71h20.78v-20.71h-20.78z"/><linearGradient id="f" gradientUnits="userSpaceOnUse" x1="-1814.882" y1="-630.729" x2="-1772.973" y2="-630.729"><stop offset="0" style="stop-color:#1b5785"/><stop offset=".212" style="stop-color:#1f5e8f"/><stop offset=".58" style="stop-color:#3171a5"/><stop offset="1" style="stop-color:#448ecc"/></linearGradient><path style="fill:url(#f)" d="M-1773-630.77c0 3.58.07 7.16-.02 10.73-.15 5.8-4.22 10.12-10.02 10.27-7.27.19-14.54.2-21.81 0-5.8-.16-9.85-4.46-9.95-10.32-.12-7.04-.11-14.08-.01-21.12.08-5.93 3.9-10.18 9.84-10.41 7.37-.29 14.78-.3 22.15 0 5.91.24 9.68 4.55 9.81 10.46.07 3.47.01 6.93.01 10.39zm-31.14-10.41v20.84h20.45v-20.84h-20.45z"/><linearGradient id="g" gradientUnits="userSpaceOnUse" x1="-1708.767" y1="-630.728" x2="-1666.861" y2="-630.728"><stop offset="0" style="stop-color:#1b5785"/><stop offset=".212" style="stop-color:#1f5e8f"/><stop offset=".58" style="stop-color:#3171a5"/><stop offset="1" style="stop-color:#448ecc"/></linearGradient><path style="fill:url(#g)" d="M-1666.89-630.77c0 3.58.07 7.16-.02 10.73-.15 5.81-4.2 10.12-10.01 10.27-7.26.19-14.54.2-21.81 0-5.79-.16-9.86-4.48-9.95-10.32-.11-7.04-.1-14.08-.01-21.12.08-5.92 3.9-10.18 9.84-10.41 7.37-.3 14.78-.3 22.15.01 5.92.25 9.69 4.54 9.81 10.45.06 3.47 0 6.93 0 10.39zm-10.67 10.55v-20.86h-20.47v20.86h20.47z"/><linearGradient id="h" gradientUnits="userSpaceOnUse" x1="-1761.943" y1="-695.639" x2="-1719.739" y2="-695.639"><stop offset="0" style="stop-color:#1b5785"/><stop offset=".212" style="stop-color:#1f5e8f"/><stop offset=".58" style="stop-color:#3171a5"/><stop offset="1" style="stop-color:#448ecc"/></linearGradient><path style="fill:url(#h)" d="M-1740.68-716.56c3.35 0 6.69-.04 10.04.01 6.24.09 10.56 4.04 10.74 10.27.21 7.03.19 14.08.01 21.12-.16 6.37-4.49 10.36-10.95 10.41-6.69.06-13.39.06-20.08 0-6.6-.06-10.85-4.22-10.95-10.78-.1-6.81-.11-13.62.01-20.43.11-6.35 4.43-10.5 10.79-10.59 3.47-.05 6.93-.01 10.39-.01zm-10.54 10.58v20.61h20.77v-20.61h-20.77z"/><linearGradient id="i" gradientUnits="userSpaceOnUse" x1="-1761.951" y1="-565.737" x2="-1719.741" y2="-565.737"><stop offset="0" style="stop-color:#1b5785"/><stop offset=".212" style="stop-color:#1f5e8f"/><stop offset=".58" style="stop-color:#3171a5"/><stop offset="1" style="stop-color:#448ecc"/></linearGradient><path style="fill:url(#i)" d="M-1740.62-586.76c3.23 0 6.46-.03 9.7.01 6.41.07 10.86 4.08 11.04 10.39.2 7.04.19 14.09 0 21.12-.16 6.1-4.21 10.2-10.32 10.38-7.15.21-14.32.22-21.47-.01-6.04-.2-10.07-4.46-10.19-10.51-.13-6.92-.13-13.85 0-20.78.12-6.3 4.52-10.5 10.85-10.58 3.47-.06 6.93-.02 10.39-.02zm10.19 31.4v-20.8h-20.81v20.8h20.81z"/><linearGradient id="j" gradientUnits="userSpaceOnUse" x1="-1814.888" y1="-565.772" x2="-1772.975" y2="-565.772"><stop offset="0" style="stop-color:#1b5785"/><stop offset=".212" style="stop-color:#1f5e8f"/><stop offset=".58" style="stop-color:#3171a5"/><stop offset="1" style="stop-color:#448ecc"/></linearGradient><path style="fill:url(#j)" d="M-1773-565.78c0 3.58.08 7.16-.02 10.73-.15 5.55-3.85 9.84-9.4 10.07-7.71.32-15.46.32-23.18-.03-5.38-.25-9.09-4.5-9.18-9.9-.13-7.27-.14-14.54 0-21.81.12-5.76 4.42-9.93 10.23-10.02 7.04-.11 14.08-.1 21.12-.01 6.12.08 10.3 4.38 10.42 10.57.07 3.48.01 6.94.01 10.4zm-10.5-10.3h-20.73v20.59h20.73v-20.59z"/><linearGradient id="k" gradientUnits="userSpaceOnUse" x1="-1814.892" y1="-695.659" x2="-1772.945" y2="-695.659"><stop offset="0" style="stop-color:#1b5785"/><stop offset=".212" style="stop-color:#1f5e8f"/><stop offset=".58" style="stop-color:#3171a5"/><stop offset="1" style="stop-color:#448ecc"/></linearGradient><path style="fill:url(#k)" d="M-1793.8-674.74c-3.58 0-7.16.07-10.73-.02-5.89-.14-10.13-4.16-10.25-9.96-.15-7.27-.15-14.54 0-21.81.12-5.83 4.34-9.92 10.2-10 7.15-.1 14.31-.11 21.46.01 5.81.09 10 4.29 10.09 10.12.12 7.15.12 14.31 0 21.46-.1 5.98-4.32 10.06-10.39 10.19-3.46.07-6.92.01-10.38.01zm10.19-10.52v-20.72h-20.55v20.72h20.55z"/><linearGradient id="l" gradientUnits="userSpaceOnUse" x1="-1708.78" y1="-695.631" x2="-1666.828" y2="-695.631"><stop offset="0" style="stop-color:#1b5785"/><stop offset=".212" style="stop-color:#1f5e8f"/><stop offset=".58" style="stop-color:#3171a5"/><stop offset="1" style="stop-color:#448ecc"/></linearGradient><path style="fill:url(#l)" d="M-1687.83-716.55c3.58 0 7.16-.07 10.73.02 5.84.14 10.07 4.24 10.18 10.04.13 7.27.13 14.54-.01 21.81-.11 5.63-4.29 9.8-9.93 9.91-7.27.14-14.54.13-21.81 0-5.67-.1-9.87-4.21-9.99-9.85-.16-7.38-.16-14.77.01-22.15.13-5.61 4.4-9.61 10.09-9.75 3.57-.1 7.15-.03 10.73-.03zm10.36 10.63h-20.63v20.6h20.63v-20.6z"/><linearGradient id="m" gradientUnits="userSpaceOnUse" x1="-1814.877" y1="-500.841" x2="-1772.953" y2="-500.841"><stop offset="0" style="stop-color:#1b5785"/><stop offset=".212" style="stop-color:#1f5e8f"/><stop offset=".58" style="stop-color:#3171a5"/><stop offset="1" style="stop-color:#448ecc"/></linearGradient><path style="fill:url(#m)" d="M-1793.54-521.76c3.35 0 6.69-.07 10.04.02 6.29.15 10.4 4.22 10.48 10.46.09 6.92.08 13.85 0 20.77-.08 6.39-4.28 10.52-10.72 10.58-6.81.06-13.62.06-20.42 0-6.42-.06-10.57-4.18-10.66-10.64-.09-6.81-.08-13.62 0-20.42.08-6.66 4.16-10.65 10.9-10.75 3.46-.07 6.92-.02 10.38-.02zm10.01 10.63h-20.71v20.53h20.71v-20.53z"/><linearGradient id="n" gradientUnits="userSpaceOnUse" x1="-1593.916" y1="-472.007" x2="-1555.895" y2="-472.007"><stop offset="0" style="stop-color:#1b5785"/><stop offset=".212" style="stop-color:#1f5e8f"/><stop offset=".58" style="stop-color:#3171a5"/><stop offset="1" style="stop-color:#448ecc"/></linearGradient><path style="fill:url(#n)" d="M-1555.92-472.15c0 3.23.06 6.47-.02 9.7-.13 5.27-3.22 8.83-8.49 9.04-6.91.29-13.85.27-20.76.02-5.06-.19-8.31-3.32-8.52-8.28-.28-6.91-.28-13.85.01-20.76.2-4.83 3.41-7.98 8.25-8.16 7.03-.27 14.08-.29 21.11-.02 5.21.2 8.29 3.81 8.41 9.12.07 3.1.01 6.22.01 9.34zm-10.56-7.94h-16.78v16.23h16.78v-16.23z"/><linearGradient id="o" gradientUnits="userSpaceOnUse" x1="-1686.267" y1="-472.043" x2="-1648.178" y2="-472.043"><stop offset="0" style="stop-color:#1b5785"/><stop offset=".212" style="stop-color:#1f5e8f"/><stop offset=".58" style="stop-color:#3171a5"/><stop offset="1" style="stop-color:#448ecc"/></linearGradient><path style="fill:url(#o)" d="M-1648.22-472.04c0 3.35.1 6.7-.02 10.04-.17 4.7-3.22 8.28-7.92 8.49-7.25.32-14.54.32-21.79.03-4.77-.19-7.91-3.46-8.11-8.32-.27-6.8-.28-13.62-.01-20.42.2-4.96 3.48-8.22 8.43-8.41 6.91-.26 13.85-.27 20.77-.03 5.4.19 8.55 3.8 8.66 9.27.06 3.12.01 6.23.01 9.35h-.02zm-27.46 8.1h16.95v-16.13h-16.95v16.13z"/><linearGradient id="p" gradientUnits="userSpaceOnUse" x1="-1686.285" y1="-557.005" x2="-1648.178" y2="-557.005"><stop offset="0" style="stop-color:#1b5785"/><stop offset=".212" style="stop-color:#1f5e8f"/><stop offset=".58" style="stop-color:#3171a5"/><stop offset="1" style="stop-color:#448ecc"/></linearGradient><path style="fill:url(#p)" d="M-1648.2-556.88c0 3.12.06 6.24-.01 9.35-.13 5.49-3.64 9.09-9.15 9.2-6.46.13-12.93.11-19.4.01-5.42-.08-9.1-3.36-9.32-8.7-.27-6.69-.27-13.4-.01-20.08.21-5.36 3.9-8.57 9.33-8.62 6.47-.06 12.93-.08 19.4.01 5.53.07 9.02 3.59 9.15 9.14.07 3.22.01 6.46.01 9.69zm-27.41 7.93h16.82v-16.19h-16.82v16.19z"/><linearGradient id="q" gradientUnits="userSpaceOnUse" x1="-1639.979" y1="-472.006" x2="-1601.878" y2="-472.006"><stop offset="0" style="stop-color:#1b5785"/><stop offset=".212" style="stop-color:#1f5e8f"/><stop offset=".58" style="stop-color:#3171a5"/><stop offset="1" style="stop-color:#448ecc"/></linearGradient><path style="fill:url(#q)" d="M-1639.96-472.1c0-3.12-.05-6.23.01-9.35.11-5.3 3.19-8.96 8.38-9.16 7.03-.28 14.08-.26 21.11 0 4.92.18 8.17 3.48 8.37 8.46.27 6.68.27 13.39.03 20.08-.18 5.16-3.42 8.46-8.56 8.67-6.91.27-13.85.28-20.76 0-5.41-.22-8.48-3.84-8.57-9.34-.05-3.12-.01-6.24-.01-9.36zm27.36 8.24v-16.29h-16.82v16.29h16.82z"/><linearGradient id="r" gradientUnits="userSpaceOnUse" x1="-1639.994" y1="-556.995" x2="-1601.87" y2="-556.995"><stop offset="0" style="stop-color:#1b5785"/><stop offset=".212" style="stop-color:#1f5e8f"/><stop offset=".58" style="stop-color:#3171a5"/><stop offset="1" style="stop-color:#448ecc"/></linearGradient><path style="fill:url(#r)" d="M-1620.82-575.74c3.12 0 6.24-.04 9.35.01 5.59.09 9.24 3.34 9.42 8.9.22 6.57.24 13.17-.03 19.74-.21 5.35-3.88 8.67-9.26 8.76-6.46.11-12.93.12-19.4 0-5.67-.1-9.16-3.74-9.22-9.48-.07-6.12-.06-12.24 0-18.36.06-6.12 3.56-9.51 9.78-9.57 3.13-.02 6.25 0 9.36 0zm-8.63 26.8h16.89v-16.1h-16.89v16.1z"/><linearGradient id="s" gradientUnits="userSpaceOnUse" x1="-1686.278" y1="-514.612" x2="-1648.155" y2="-514.612"><stop offset="0" style="stop-color:#1b5785"/><stop offset=".212" style="stop-color:#1f5e8f"/><stop offset=".58" style="stop-color:#3171a5"/><stop offset="1" style="stop-color:#448ecc"/></linearGradient><path style="fill:url(#s)" d="M-1667.32-495.85c-3.23 0-6.47.07-9.7-.02-5.22-.14-8.85-3.32-9.06-8.54-.27-6.8-.27-13.63.02-20.43.22-5 3.82-8.29 8.85-8.42 6.69-.17 13.4-.18 20.09 0 5.34.15 8.8 3.79 8.88 9.1.1 6.35.09 12.7.01 19.05-.08 5.73-3.58 9.13-9.4 9.25-3.22.06-6.46.01-9.69.01zm8.53-10.57v-16.33h-16.79v16.33h16.79z"/><linearGradient id="t" gradientUnits="userSpaceOnUse" x1="-1640.005" y1="-514.612" x2="-1601.871" y2="-514.612"><stop offset="0" style="stop-color:#1b5785"/><stop offset=".212" style="stop-color:#1f5e8f"/><stop offset=".58" style="stop-color:#3171a5"/><stop offset="1" style="stop-color:#448ecc"/></linearGradient><path style="fill:url(#t)" d="M-1621.13-495.87c-3.35 0-6.7.09-10.04-.02-5.13-.18-8.65-3.68-8.75-8.83-.12-6.46-.1-12.93-.01-19.4.07-5.33 3.51-8.99 8.84-9.14 6.69-.19 13.4-.18 20.09-.01 5.19.13 8.74 3.51 8.94 8.72.25 6.69.27 13.4-.01 20.08-.23 5.38-3.86 8.48-9.36 8.6-3.23.07-6.47.01-9.7.01v-.01zm-8.25-26.87v16.2h16.82v-16.2h-16.82z"/><linearGradient id="u" gradientUnits="userSpaceOnUse" x1="-1593.921" y1="-557.001" x2="-1555.897" y2="-557.001"><stop offset="0" style="stop-color:#1b5785"/><stop offset=".212" style="stop-color:#1f5e8f"/><stop offset=".58" style="stop-color:#3171a5"/><stop offset="1" style="stop-color:#448ecc"/></linearGradient><path style="fill:url(#u)" d="M-1555.92-557.16c0 3.23.07 6.47-.02 9.7-.14 5.35-3.55 8.99-8.85 9.12-6.69.17-13.39.15-20.09 0-5.04-.11-8.63-3.38-8.84-8.39-.28-6.91-.29-13.85.02-20.76.22-5.03 3.87-8.15 8.95-8.21 6.58-.09 13.16-.09 19.74 0 5.51.07 8.94 3.61 9.07 9.2.08 3.1.02 6.22.02 9.34zm-27.33-8.05v16.31h16.68v-16.31h-16.68z"/><linearGradient id="v" gradientUnits="userSpaceOnUse" x1="-1593.884" y1="-514.614" x2="-1555.872" y2="-514.614"><stop offset="0" style="stop-color:#1b5785"/><stop offset=".212" style="stop-color:#1f5e8f"/><stop offset=".58" style="stop-color:#3171a5"/><stop offset="1" style="stop-color:#448ecc"/></linearGradient><path style="fill:url(#v)" d="M-1575.15-495.86c-3.23 0-6.47.08-9.7-.02-4.94-.15-8.58-3.14-8.8-7.98-.32-7.14-.31-14.31.01-21.45.21-4.63 3.77-7.8 8.53-7.93 6.81-.2 13.63-.21 20.43 0 5.32.16 8.66 3.82 8.74 9.22.09 6.35.1 12.7 0 19.05-.09 5.56-3.57 8.97-9.17 9.11-3.35.07-6.7 0-10.04 0zm8.64-10.53v-16.32h-16.69v16.32h16.69z"/><g><linearGradient id="w" gradientUnits="userSpaceOnUse" x1="-1970.912" y1="849.239" x2="-1627.808" y2="849.239"><stop offset="0" style="stop-color:#1b5785"/><stop offset=".212" style="stop-color:#1f5e8f"/><stop offset=".58" style="stop-color:#3171a5"/><stop offset="1" style="stop-color:#448ecc"/></linearGradient><path style="fill:url(#w)" d="M-1798.93 709.84c39.57 0 79.14-.01 118.71 0 29.91.01 52.37 22.43 52.39 52.37.04 44.25.03 88.49 0 132.74-.02 29.98-22.29 52.35-52.35 52.39-65.26.08-130.52.07-195.78-.06-5.12-.01-9.22 1.41-13.23 4.5-13.37 10.33-26.96 20.36-40.38 30.62-8.49 6.49-17.65 8.33-27.36 3.52-9.84-4.88-13.98-13.31-13.97-24.21.07-66.51.02-133.01.05-199.52.01-29.92 22.49-52.34 52.41-52.35 39.82-.01 79.67 0 119.51 0zm-145.56 250.56c1.76-1.25 2.87-1.99 3.94-2.8 12.28-9.26 24.64-18.43 36.81-27.83 7.83-6.05 16.49-8.85 26.37-8.83 65.4.09 130.81.06 196.21.04 16.76 0 26.93-10.22 26.94-26.98.01-43.56.01-87.13 0-130.69 0-16.96-10.2-27.07-27.26-27.07h-235.37c-17.63 0-27.63 9.96-27.63 27.52v191.7c-.01 1.37-.01 2.74-.01 4.94z"/><linearGradient id="x" gradientUnits="userSpaceOnUse" x1="-1904.93" y1="756.047" x2="-1575.039" y2="756.047"><stop offset="0" style="stop-color:#1b5785"/><stop offset=".212" style="stop-color:#1f5e8f"/><stop offset=".58" style="stop-color:#3171a5"/><stop offset="1" style="stop-color:#448ecc"/></linearGradient><path style="fill:url(#x)" d="M-1757.29 657.06h129.46c30.46 0 52.76 22.32 52.78 52.84.02 43.57.02 87.14-.01 130.72-.01 10.38-9.01 17.05-17.97 13.45-5.25-2.11-8.37-6.82-8.39-12.98-.04-13.2-.01-26.39-.01-39.59 0-30.38.01-60.75 0-91.13-.01-16.73-10.24-26.92-27-26.93-86.99 0-173.99-.03-260.98.05-6.35.01-11.4-1.89-14.23-7.78-3.91-8.14 1.67-17.7 10.73-18.6 1.36-.14 2.75-.06 4.12-.06 43.81.01 87.66.01 131.5.01z"/><linearGradient id="y" gradientUnits="userSpaceOnUse" x1="-1760.561" y1="829.787" x2="-1734.2" y2="829.787"><stop offset="0" style="stop-color:#1b5785"/><stop offset=".212" style="stop-color:#1f5e8f"/><stop offset=".58" style="stop-color:#3171a5"/><stop offset="1" style="stop-color:#448ecc"/></linearGradient><path style="fill:url(#y)" d="M-1734.2 829.81c-.01 7.22-5.84 13.06-13.09 13.11-7.19.05-13.18-5.79-13.27-12.95-.1-7.38 5.9-13.39 13.31-13.32 7.21.07 13.06 5.97 13.05 13.16z"/><linearGradient id="z" gradientUnits="userSpaceOnUse" x1="-1864.498" y1="829.788" x2="-1838.139" y2="829.788"><stop offset="0" style="stop-color:#1b5785"/><stop offset=".212" style="stop-color:#1f5e8f"/><stop offset=".58" style="stop-color:#3171a5"/><stop offset="1" style="stop-color:#448ecc"/></linearGradient><path style="fill:url(#z)" d="M-1864.5 829.48c.15-7.23 6.1-12.94 13.36-12.82 7.18.11 13.05 6.1 13 13.24-.06 7.34-6.23 13.25-13.61 13.02-7.21-.22-12.9-6.22-12.75-13.44z"/><linearGradient id="A" gradientUnits="userSpaceOnUse" x1="-1811.723" y1="829.785" x2="-1785.361" y2="829.785"><stop offset="0" style="stop-color:#1b5785"/><stop offset=".212" style="stop-color:#1f5e8f"/><stop offset=".58" style="stop-color:#3171a5"/><stop offset="1" style="stop-color:#448ecc"/></linearGradient><path style="fill:url(#A)" d="M-1799.05 842.91c-7.21-.26-12.86-6.28-12.67-13.51.19-7.21 6.19-12.9 13.44-12.74 7.34.16 13.24 6.44 12.91 13.73-.34 7.17-6.46 12.78-13.68 12.52z"/></g><linearGradient id="B" gradientUnits="userSpaceOnUse" x1="-1651.668" y1="35.901" x2="-1367.403" y2="35.901"><stop offset="0" style="stop-color:#1b5785"/><stop offset=".212" style="stop-color:#1f5e8f"/><stop offset=".58" style="stop-color:#3171a5"/><stop offset="1" style="stop-color:#448ecc"/></linearGradient><path style="fill:url(#B)" d="M-1389.61 178.02c-.24-28.49-9.09-54-27.28-75.9-20.2-24.32-46.02-39.14-77.58-42.94-36.48-4.39-68.59 5.82-95.82 30.53-22.34 20.27-34.98 45.65-38.47 75.58-.49 4.21-.47 8.49-.69 12.73h-22.21c2.27-65.63 35.54-109.35 94.85-134.79-22.06-16.52-34.47-38.61-34.79-66.69-.26-22.91 7.99-42.78 24.3-58.87 33.87-33.42 86.18-30.7 117 1.43 34.05 35.5 30.19 94.09-12.51 124.53 1.19.48 2.14.86 3.09 1.24 43.33 17.26 72.26 48 86.39 92.5 3.06 9.63 4.78 19.56 5.45 29.66.06.89.32 1.78.48 2.66v8.33h-22.21zm-119.87-262.05c-32.89-.05-59.83 26.78-60.01 59.76-.17 32.94 26.87 60.1 59.9 60.15 32.89.05 59.83-26.78 60.01-59.76.17-32.95-26.87-60.1-59.9-60.15z"/><g><linearGradient id="C" gradientUnits="userSpaceOnUse" x1="481.863" y1="524.101" x2="598.17" y2="524.101"><stop offset="0" style="stop-color:#1b5785"/><stop offset=".212" style="stop-color:#1f5e8f"/><stop offset=".58" style="stop-color:#3171a5"/><stop offset="1" style="stop-color:#448ecc"/></linearGradient><path style="fill:url(#C)" d="M594.22 504.71c5.27 7.67 5.27 31.09-.01 38.79 3.88 4.04 3.82 9.26 3.71 14.53-.1 4.72.03 9.44-.04 14.16-.12 8.29-6.24 14.57-14.49 14.59-28.93.07-57.86.07-86.79 0-8.24-.02-14.37-6.33-14.47-14.61-.07-5.52.09-11.05-.05-16.57-.11-4.46.57-8.6 3.6-11.98-5.13-8.74-5.13-31.33.13-38.93-3.92-4.02-3.83-9.25-3.73-14.51.09-4.62-.01-9.24.03-13.86.08-8.65 6.19-14.9 14.78-14.91 28.73-.05 57.46-.05 86.19 0 8.61.01 14.71 6.23 14.79 14.9.05 5.42-.09 10.85.04 16.27.13 4.45-.56 8.6-3.69 12.13zm-53.91-33.68c-14.17 0-28.34-.01-42.51.01-4.34.01-6.01 1.69-6.03 6.02-.03 5.73-.04 11.46 0 17.18.03 3.94 1.78 5.72 5.71 5.72 28.34.02 56.68.02 85.02 0 3.94 0 5.7-1.78 5.73-5.72.04-5.63.02-11.26.01-16.88-.01-4.73-1.61-6.33-6.33-6.33h-41.6zm-.6 67.54c14.17 0 28.34.01 42.51-.01 4.32-.01 6.01-1.7 6.03-6.03.03-5.73.04-11.46 0-17.18-.03-3.94-1.79-5.71-5.73-5.71-28.34-.02-56.68-.02-85.02 0-3.95 0-5.69 1.77-5.72 5.72-.04 5.63-.02 11.26-.01 16.88.01 4.73 1.6 6.32 6.33 6.33 13.87.01 27.74 0 41.61 0zm0 38.59c14.17 0 28.34.01 42.51-.01 4.32-.01 6.01-1.7 6.03-6.03.03-5.73.04-11.46 0-17.18-.03-3.94-1.79-5.71-5.72-5.71-28.34-.02-56.68-.02-85.02 0-3.95 0-5.69 1.77-5.72 5.72-.04 5.63-.02 11.26-.01 16.88.01 4.73 1.6 6.33 6.33 6.33 13.86.01 27.73 0 41.6 0z"/><linearGradient id="D" gradientUnits="userSpaceOnUse" x1="390.464" y1="490.313" x2="626.205" y2="490.313"><stop offset="0" style="stop-color:#1b5785"/><stop offset=".212" style="stop-color:#1f5e8f"/><stop offset=".58" style="stop-color:#3171a5"/><stop offset="1" style="stop-color:#448ecc"/></linearGradient><path style="fill:url(#D)" d="M420.02 598.9c-2.63 1.58-5.26 3.17-7.89 4.75-34.41-55.1-29.45-135.43 26.55-187.03 56.16-51.75 136.24-49.71 187.52-12.05-1.73 2.44-3.47 4.89-5.37 7.56-33.77-22.78-70.58-30.68-110.45-22.3-27.46 5.77-50.85 19.21-70.66 39.09-37.96 38.11-56.5 108.02-19.7 169.98z"/><linearGradient id="E" gradientUnits="userSpaceOnUse" x1="455.45" y1="564.001" x2="689.536" y2="564.001"><stop offset="0" style="stop-color:#1b5785"/><stop offset=".212" style="stop-color:#1f5e8f"/><stop offset=".58" style="stop-color:#3171a5"/><stop offset="1" style="stop-color:#448ecc"/></linearGradient><path style="fill:url(#E)" d="M669.43 451.96c32.85 55.21 26.99 134.59-29.09 185.33-56.86 51.44-135.76 47.61-184.89 12.24 1.68-2.46 3.37-4.92 5.2-7.6 34.6 22.57 71.97 29.97 112.22 20.49 28.06-6.61 51.71-20.99 71.1-42.32 37.39-41.13 49.52-106.46 17.39-163.43 2.64-1.54 5.29-3.08 8.07-4.71z"/><linearGradient id="F" gradientUnits="userSpaceOnUse" x1="406.983" y1="626.427" x2="464.757" y2="626.427"><stop offset="0" style="stop-color:#1b5785"/><stop offset=".212" style="stop-color:#1f5e8f"/><stop offset=".58" style="stop-color:#3171a5"/><stop offset="1" style="stop-color:#448ecc"/></linearGradient><path style="fill:url(#F)" d="M435.79 597.54c3.04.06 4.96 1.58 5.89 4.35.67 1.99 1.19 4.04 1.83 6.05 1.77 5.58 5.44 9.26 11.08 10.93 2.02.6 4.06 1.13 6.04 1.85 2.61.94 4.13 2.81 4.13 5.67 0 2.84-1.4 4.78-4.06 5.7-1.99.69-4.04 1.2-6.05 1.83-5.69 1.77-9.49 5.44-11.21 11.2-.57 1.92-1.13 3.85-1.73 5.76-.88 2.82-2.88 4.44-5.76 4.45-2.87.01-4.93-1.51-5.8-4.37-.56-1.82-1.12-3.64-1.65-5.47-1.73-5.98-5.58-9.85-11.54-11.63-1.83-.54-3.65-1.08-5.48-1.63-2.85-.86-4.34-2.83-4.49-5.74-.14-2.74 1.67-4.95 4.66-5.91a71.7 71.7 0 0 1 4.05-1.15c6.8-1.77 11.24-5.94 13.06-12.79.46-1.74.9-3.51 1.54-5.19.95-2.51 2.85-3.82 5.49-3.91zm-.22 39.39c3.62-3.61 7.32-7.3 10.89-10.85-1.56-1.19-3.8-2.56-5.6-4.36-1.89-1.89-3.36-4.18-4.64-5.82-3.52 3.52-7.23 7.24-10.83 10.83 1.67 1.3 3.88 2.72 5.7 4.54 1.81 1.82 3.22 4.04 4.48 5.66z"/><linearGradient id="G" gradientUnits="userSpaceOnUse" x1="615.747" y1="430.629" x2="673.489" y2="430.629"><stop offset="0" style="stop-color:#1b5785"/><stop offset=".212" style="stop-color:#1f5e8f"/><stop offset=".58" style="stop-color:#3171a5"/><stop offset="1" style="stop-color:#448ecc"/></linearGradient><path style="fill:url(#G)" d="M644.73 401.69c2.76.28 4.74 1.61 5.62 4.29.69 2.1 1.23 4.24 1.91 6.34 1.73 5.33 5.23 8.94 10.61 10.64 1.91.6 3.85 1.14 5.76 1.73 3.24 1.01 4.94 3.11 4.85 6.07-.1 3.14-1.88 4.96-4.77 5.83-1.63.49-3.29.91-4.92 1.4-6.04 1.81-10.05 5.66-11.79 11.78-.49 1.74-1 3.47-1.56 5.19-1 3.04-3.12 4.72-5.93 4.6-2.95-.13-4.84-1.69-5.7-4.52-.61-2.02-1.17-4.05-1.83-6.05-1.75-5.31-5.21-8.96-10.62-10.64-2.01-.63-4.05-1.17-6.05-1.82-2.99-.97-4.67-3.16-4.57-5.99.1-2.98 1.73-4.84 4.49-5.74 1.72-.55 3.47-.98 5.21-1.5 6.06-1.79 10.05-5.65 11.78-11.78.55-1.93 1.06-3.88 1.74-5.76.97-2.62 2.99-3.9 5.77-4.07zm10.04 29.01c-3.37-3.43-6.99-7.11-10.1-10.28-3.37 3.37-7.05 7.06-10.18 10.19 3.38 3.44 7 7.13 10.08 10.28 3.33-3.32 6.96-6.95 10.2-10.19z"/><linearGradient id="H" gradientUnits="userSpaceOnUse" x1="540.164" y1="485.547" x2="583.225" y2="485.547"><stop offset="0" style="stop-color:#1b5785"/><stop offset=".212" style="stop-color:#1f5e8f"/><stop offset=".58" style="stop-color:#3171a5"/><stop offset="1" style="stop-color:#448ecc"/></linearGradient><path style="fill:url(#H)" d="M583.23 490.19h-43.06v-9.28h43.06v9.28z"/><linearGradient id="I" gradientUnits="userSpaceOnUse" x1="496.73" y1="485.479" x2="506.005" y2="485.479"><stop offset="0" style="stop-color:#1b5785"/><stop offset=".212" style="stop-color:#1f5e8f"/><stop offset=".58" style="stop-color:#3171a5"/><stop offset="1" style="stop-color:#448ecc"/></linearGradient><path style="fill:url(#I)" d="M496.73 490.12v-9.28h9.28v9.28h-9.28z"/><linearGradient id="J" gradientUnits="userSpaceOnUse" x1="540.15" y1="524.072" x2="583.188" y2="524.072"><stop offset="0" style="stop-color:#1b5785"/><stop offset=".212" style="stop-color:#1f5e8f"/><stop offset=".58" style="stop-color:#3171a5"/><stop offset="1" style="stop-color:#448ecc"/></linearGradient><path style="fill:url(#J)" d="M540.15 528.71v-9.28h43.04v9.28h-43.04z"/><linearGradient id="K" gradientUnits="userSpaceOnUse" x1="496.7" y1="524.072" x2="506.08" y2="524.072"><stop offset="0" style="stop-color:#1b5785"/><stop offset=".212" style="stop-color:#1f5e8f"/><stop offset=".58" style="stop-color:#3171a5"/><stop offset="1" style="stop-color:#448ecc"/></linearGradient><path style="fill:url(#K)" d="M496.7 528.68v-9.22h9.38v9.22h-9.38z"/><linearGradient id="L" gradientUnits="userSpaceOnUse" x1="540.17" y1="562.665" x2="583.219" y2="562.665"><stop offset="0" style="stop-color:#1b5785"/><stop offset=".212" style="stop-color:#1f5e8f"/><stop offset=".58" style="stop-color:#3171a5"/><stop offset="1" style="stop-color:#448ecc"/></linearGradient><path style="fill:url(#L)" d="M540.17 557.99h43.05v9.35h-43.05v-9.35z"/><linearGradient id="M" gradientUnits="userSpaceOnUse" x1="496.844" y1="562.623" x2="506.012" y2="562.623"><stop offset="0" style="stop-color:#1b5785"/><stop offset=".212" style="stop-color:#1f5e8f"/><stop offset=".58" style="stop-color:#3171a5"/><stop offset="1" style="stop-color:#448ecc"/></linearGradient><path style="fill:url(#M)" d="M496.84 557.93h9.17v9.38h-9.17v-9.38z"/></g><linearGradient id="N" gradientUnits="userSpaceOnUse" x1="-1814.351" y1="398.038" x2="-1337.086" y2="398.038"><stop offset="0" style="stop-color:#1b5785"/><stop offset=".212" style="stop-color:#1f5e8f"/><stop offset=".58" style="stop-color:#3171a5"/><stop offset="1" style="stop-color:#448ecc"/></linearGradient><path style="fill:url(#N)" d="M-1660.22 399.34c-8.76-9.21-19.45-15.4-32.16-15.91-18.62-.74-37.39-1.33-55.92.2-26.05 2.15-46.01 25.05-46.73 51.28-.21 7.56.14 15.14-.16 22.69-.15 3.73.9 6.03 4.55 7.11 14.79 4.39 29.49 9.14 44.38 13.14 7.51 2.02 11.5 6.48 9.59 12.84-1.53 5.11-6.09 7.32-13.14 6.16-18.52-3.06-36.26-8.63-53.17-16.82-1.96-.95-4.32-1.49-5.8-2.94-2.13-2.1-5.09-4.83-5.14-7.33-.27-14.31-1.14-28.82.74-42.91 3.81-28.63 20.32-48.07 47.09-58.77 1.28-.51 2.55-1.06 3.86-1.62-31.37-31.91-21.8-71.68-.26-91.59 24.08-22.25 59.45-22.64 83.89-.83 21 18.75 33.4 58.34.62 92.54 13.83 4.42 25.49 12.07 34.81 22.96 6.16-2.13 11.94-4.13 18.32-6.34-21.51-18.57-32.81-41.52-30.46-69.93 1.73-20.92 11.08-38.45 26.63-52.46 31.62-28.46 78.13-27.2 108.52 2.22 29.29 28.37 37.67 82.6-5.96 120.28 5.87 2.04 11.65 4.05 17.15 5.96 5.61-4.64 10.77-9.66 16.67-13.57 5.74-3.8 12.24-6.46 18.75-9.8-14.62-14.54-22.12-32.32-19.49-53.45 1.99-16.05 9.64-29.36 21.97-39.8 24.74-20.96 60.22-19.4 83.36 3.31 21.44 21.04 28.79 59.69-1.52 90.54 13.09 4.48 24.5 11.36 33.58 21.74 11.85 13.54 18.12 29.31 18.47 47.32.21 10.55-.11 21.11.1 31.65.11 5.3-2.24 8.47-6.82 10.74-17.9 8.87-36.56 15.41-56.3 18.63-2.71.44-5.68.86-8.24.18-4.5-1.2-6.81-4.68-6.59-9.45.24-5.12 3.32-7.94 8.07-8.99 6.39-1.41 12.98-2.14 19.2-4.07 9.46-2.92 18.71-6.51 27.95-10.1 1.48-.58 3.41-2.62 3.41-3.99-.02-10.93.59-22.01-.99-32.75-3.49-23.65-22.41-42.14-46.06-43.85-18.94-1.37-38.1-.81-57.11.09-12.06.57-22.13 6.9-30.6 15.64.55.74.8 1.3 1.23 1.65 23.08 18.5 35.27 42.66 36.55 72.12.65 14.89.6 29.85 0 44.74-.13 3.15-3.38 7.51-6.35 9-75.18 37.82-150.85 38.67-227.07 2.79-8.66-4.07-12.09-9.05-11.38-18.78 1.05-14.25-.09-28.65.81-42.92 1.58-25.23 12.68-46.06 31.28-62.98 1.76-1.6 3.58-3.14 5.37-4.72.13-.09.19-.31.5-.85zm187.75 88.62h-.37c0-4.37.02-8.74 0-13.11-.19-40.85-32.89-74-73.63-74.45-19.66-.21-39.32-.23-58.97.02-34.46.44-65.65 25.65-71.37 59.65-2.71 16.1-1.6 32.86-1.83 49.33-.02 1.56 2.49 3.76 4.32 4.65 25.25 12.27 51.92 19.4 79.9 21.69 41.29 3.38 80.6-4.01 117.9-21.93 1.9-.91 3.7-3.98 3.87-6.17.51-6.53.18-13.12.18-19.68zm-103.11-228.67c-32.95-.04-60.84 27.75-60.93 60.71-.1 33.03 27.61 61.06 60.47 61.18 33.29.12 61.25-27.73 61.23-61.01-.03-32.99-27.83-60.84-60.77-60.88zm-144.83 104.01c23.96.03 43.43-19.19 43.48-42.91.05-23.74-19.47-43.36-43.17-43.37-23.68-.01-43.24 19.63-43.17 43.36.08 23.55 19.39 42.9 42.86 42.92zm289.03 0c23.91.02 43.31-19.28 43.31-43.07-.01-23.73-19.6-43.29-43.3-43.22-23.41.07-42.92 19.53-43.03 42.92-.13 23.82 19.25 43.36 43.02 43.37z"/></svg>