<?xml version="1.0" encoding="utf-8"?>
<!-- Generator: Adobe Illustrator 26.3.0, SVG Export Plug-In . SVG Version: 6.00 Build 0)  -->
<svg version="1.0" id="Layer_1" xmlns="http://www.w3.org/2000/svg" xmlns:xlink="http://www.w3.org/1999/xlink" x="0px" y="0px"
	 viewBox="0 0 1080 1080" style="enable-background:new 0 0 1080 1080;" xml:space="preserve">
<g>
	<linearGradient id="SVGID_1_" gradientUnits="userSpaceOnUse" x1="-1864.6205" y1="-570.8199" x2="-1509.5359" y2="-570.8199">
		<stop  offset="0" style="stop-color:#1B5785"/>
		<stop  offset="0.2118" style="stop-color:#1F5E8F"/>
		<stop  offset="0.5798" style="stop-color:#3171A5"/>
		<stop  offset="1" style="stop-color:#448ECC"/>
	</linearGradient>
	<path style="fill:url(#SVGID_1_);" d="M-1849.36-393.29c-2.57-1.23-5.36-2.15-7.67-3.76c-6.4-4.46-9-12.45-6.85-19.95
		c2.11-7.37,8.76-12.71,16.5-13.17c1.94-0.12,3.9-0.02,6.4-0.02c0-1.77,0-3.21,0-4.65c0-98.01,0-196.02,0-294.03
		c0-10.35,5.56-17.52,14.9-19.18c1.47-0.26,2.99-0.27,4.49-0.27c53.74-0.01,107.49-0.02,161.23-0.01c12.36,0,19.61,7.24,19.61,19.6
		c0.02,40.22,0.01,80.44,0.01,120.66c0,1.38,0,2.76,0,4.65c1.5,0,2.84,0,4.18,0c29.47,0,58.95,0,88.42,0c9.71,0,14.95,5.24,14.96,15
		c0.01,51.2,0,102.4,0,153.61c0,1.37,0,2.73,0,4.54c1.65,0,3.01-0.02,4.36,0c9.47,0.16,15.64,4.69,18.63,13.64
		c0.14,0.41,0.43,0.77,0.65,1.15c0,2.31,0,4.62,0,6.94c-2.21,7.96-7.37,12.97-15.26,15.26
		C-1632.98-393.29-1741.17-393.29-1849.36-393.29z M-1708.69-430.45c0-5.58-0.03-10.77,0.01-15.96c0.02-2.68,1.56-4.76,4.03-4.81
		c1.84-0.04,4.02,1.21,5.47,2.53c0.86,0.78,0.8,2.8,0.83,4.27c0.09,4.59,0.03,9.18,0.03,13.9c51.77,0,103.12,0,154.74,0
		c0-1.39,0-2.53,0-3.67c0-51.08,0-102.16,0-153.24c0-5.3-0.29-5.58-5.78-5.58c-47.73,0-95.46,0-143.19,0c-5.7,0-5.77,0.06-5.77,5.87
		c0,38.25,0,76.5-0.01,114.76c0,4.4-1.83,6.83-5.09,6.94c-3.28,0.11-5.29-2.35-5.3-6.63c-0.01-39.18-0.03-78.35,0.01-117.53
		c0.01-8.47,5.46-13.78,13.95-13.8c11.56-0.03,23.11-0.01,34.67-0.01c2.86,0,5.72,0,8.77,0c0.07-1.48,0.17-2.6,0.17-3.73
		c0.01-40.45,0.01-80.9,0-121.34c0-6.85-2.59-9.44-9.39-9.44c-53.51-0.01-107.01-0.01-160.52,0c-7.04,0-9.51,2.52-9.51,9.66
		c0,98,0,196,0,294c0,1.22,0,2.44,0,3.83C-1789.81-430.45-1749.53-430.45-1708.69-430.45z M-1687.44-403.72
		c52.12,0,104.24,0,156.36,0c1.39,0,2.79,0.08,4.15-0.13c4.15-0.64,7.09-4.19,6.96-8.23c-0.13-4.11-3.2-7.32-7.45-7.7
		c-1.26-0.11-2.54-0.09-3.81-0.09c-103.89,0-207.78,0-311.68,0c-1.39,0-2.78-0.02-4.15,0.12c-3.77,0.41-6.63,3.26-7.09,6.95
		c-0.45,3.62,1.68,7.28,5.26,8.41c1.71,0.54,3.63,0.64,5.45,0.64C-1791.44-403.71-1739.44-403.72-1687.44-403.72z"/>
	
		<linearGradient id="SVGID_00000070107143728356604930000004515423038948639892_" gradientUnits="userSpaceOnUse" x1="-1619.2156" y1="-680.5138" x2="-1532.2214" y2="-680.5138">
		<stop  offset="0" style="stop-color:#1B5785"/>
		<stop  offset="0.2118" style="stop-color:#1F5E8F"/>
		<stop  offset="0.5798" style="stop-color:#3171A5"/>
		<stop  offset="1" style="stop-color:#448ECC"/>
	</linearGradient>
	<path style="fill:url(#SVGID_00000070107143728356604930000004515423038948639892_);" d="M-1574.58-735.29
		c18.5,0.17,34.79,11.51,41.12,28.65c1.49,4.04,0.59,7.03-2.47,8.15c-3.14,1.15-5.61-0.38-7.26-4.48
		c-5.9-14.66-18.83-22.81-34.63-21.81c-13.89,0.87-26.3,11.39-29.8,25.53c-2.79,11.26-0.04,21.76,5.12,31.74
		c6.22,12.02,15.33,21.6,26,29.74c0.73,0.56,2.69,0.51,3.42-0.08c13.95-11.13,25.61-23.97,30.58-41.71c1.03-3.66,3.6-5.17,6.71-4.29
		c2.94,0.83,4.23,3.6,3.23,7.33c-2.97,11.14-8.36,21.11-16.07,29.53c-6.13,6.7-13.02,12.73-19.87,18.72
		c-3.66,3.2-8.19,3.32-11.87,0.61c-15.93-11.72-29.05-25.84-35.51-44.92c-6.54-19.32-3.9-36.99,11.61-51.4
		C-1595.97-731.69-1585.92-735.33-1574.58-735.29z"/>
	
		<linearGradient id="SVGID_00000151516416870034129330000012611565609070785950_" gradientUnits="userSpaceOnUse" x1="-1599.4856" y1="-691.1221" x2="-1550.3335" y2="-691.1221">
		<stop  offset="0" style="stop-color:#1B5785"/>
		<stop  offset="0.2118" style="stop-color:#1F5E8F"/>
		<stop  offset="0.5798" style="stop-color:#3171A5"/>
		<stop  offset="1" style="stop-color:#448ECC"/>
	</linearGradient>
	<path style="fill:url(#SVGID_00000151516416870034129330000012611565609070785950_);" d="M-1550.33-691.02
		c-0.04,13.68-11.07,24.59-24.78,24.5c-13.39-0.09-24.45-11.28-24.38-24.66c0.07-13.55,11.35-24.66,24.89-24.53
		C-1561.12-715.59-1550.3-704.57-1550.33-691.02z M-1560.73-691.16c-0.02-7.79-6.26-14.09-14.01-14.15
		c-7.81-0.06-14.38,6.47-14.33,14.27c0.04,7.7,6.4,14.07,14.11,14.11C-1567.03-676.88-1560.71-683.2-1560.73-691.16z"/>
	
		<linearGradient id="SVGID_00000073679602333790906430000011443582435559196317_" gradientUnits="userSpaceOnUse" x1="-1761.9702" y1="-500.8378" x2="-1719.7406" y2="-500.8378">
		<stop  offset="0" style="stop-color:#1B5785"/>
		<stop  offset="0.2118" style="stop-color:#1F5E8F"/>
		<stop  offset="0.5798" style="stop-color:#3171A5"/>
		<stop  offset="1" style="stop-color:#448ECC"/>
	</linearGradient>
	<path style="fill:url(#SVGID_00000073679602333790906430000011443582435559196317_);" d="M-1740.93-521.76
		c3.46,0,6.93-0.06,10.39,0.01c6.24,0.13,10.49,4.12,10.66,10.36c0.19,7.04,0.2,14.08,0,21.12c-0.17,6.22-4.5,10.28-10.69,10.33
		c-6.92,0.06-13.85,0.07-20.77-0.01c-5.95-0.07-10.33-4.22-10.48-10.19c-0.18-7.15-0.19-14.31,0-21.46
		c0.16-5.99,4.46-10,10.51-10.14C-1747.86-521.82-1744.4-521.76-1740.93-521.76z M-1730.43-511.16c-7.15,0-13.91,0-20.77,0
		c0,7.02,0,13.84,0,20.66c7.05,0,13.81,0,20.77,0C-1730.43-497.42-1730.43-504.15-1730.43-511.16z"/>
	
		<linearGradient id="SVGID_00000044175072711249018780000005559486158426899328_" gradientUnits="userSpaceOnUse" x1="-1761.9503" y1="-630.7504" x2="-1719.7377" y2="-630.7504">
		<stop  offset="0" style="stop-color:#1B5785"/>
		<stop  offset="0.2118" style="stop-color:#1F5E8F"/>
		<stop  offset="0.5798" style="stop-color:#3171A5"/>
		<stop  offset="1" style="stop-color:#448ECC"/>
	</linearGradient>
	<path style="fill:url(#SVGID_00000044175072711249018780000005559486158426899328_);" d="M-1741.2-609.7
		c-3.35,0-6.7,0.08-10.04-0.02c-6.14-0.18-10.47-4.39-10.6-10.5c-0.15-6.92-0.13-13.85-0.01-20.78c0.1-6.08,4.06-10.41,10.08-10.63
		c7.26-0.27,14.55-0.26,21.81,0c5.91,0.21,9.91,4.35,10.07,10.27c0.2,7.15,0.22,14.32-0.01,21.47c-0.2,5.98-4.55,10.01-10.56,10.18
		C-1734.04-609.62-1737.62-609.7-1741.2-609.7z M-1751.23-641.09c0,7.09,0,13.94,0,20.71c7.1,0,13.94,0,20.78,0
		c0-7.04,0-13.78,0-20.71C-1737.51-641.09-1744.35-641.09-1751.23-641.09z"/>
	
		<linearGradient id="SVGID_00000052793795689371482770000014834301029459965368_" gradientUnits="userSpaceOnUse" x1="-1814.8823" y1="-630.7289" x2="-1772.9731" y2="-630.7289">
		<stop  offset="0" style="stop-color:#1B5785"/>
		<stop  offset="0.2118" style="stop-color:#1F5E8F"/>
		<stop  offset="0.5798" style="stop-color:#3171A5"/>
		<stop  offset="1" style="stop-color:#448ECC"/>
	</linearGradient>
	<path style="fill:url(#SVGID_00000052793795689371482770000014834301029459965368_);" d="M-1773-630.77
		c0,3.58,0.07,7.16-0.02,10.73c-0.15,5.8-4.22,10.12-10.02,10.27c-7.27,0.19-14.54,0.2-21.81,0c-5.8-0.16-9.85-4.46-9.95-10.32
		c-0.12-7.04-0.11-14.08-0.01-21.12c0.08-5.93,3.9-10.18,9.84-10.41c7.37-0.29,14.78-0.3,22.15,0c5.91,0.24,9.68,4.55,9.81,10.46
		C-1772.94-637.69-1773-634.23-1773-630.77z M-1804.14-641.18c0,7.23,0,14.07,0,20.84c7.04,0,13.79,0,20.45,0
		c0-7.08,0-13.92,0-20.84C-1790.63-641.18-1797.28-641.18-1804.14-641.18z"/>
	
		<linearGradient id="SVGID_00000003795700114332820750000006301300798289211295_" gradientUnits="userSpaceOnUse" x1="-1708.767" y1="-630.7277" x2="-1666.8611" y2="-630.7277">
		<stop  offset="0" style="stop-color:#1B5785"/>
		<stop  offset="0.2118" style="stop-color:#1F5E8F"/>
		<stop  offset="0.5798" style="stop-color:#3171A5"/>
		<stop  offset="1" style="stop-color:#448ECC"/>
	</linearGradient>
	<path style="fill:url(#SVGID_00000003795700114332820750000006301300798289211295_);" d="M-1666.89-630.77
		c0,3.58,0.07,7.16-0.02,10.73c-0.15,5.81-4.2,10.12-10.01,10.27c-7.26,0.19-14.54,0.2-21.81,0c-5.79-0.16-9.86-4.48-9.95-10.32
		c-0.11-7.04-0.1-14.08-0.01-21.12c0.08-5.92,3.9-10.18,9.84-10.41c7.37-0.3,14.78-0.3,22.15,0.01c5.92,0.25,9.69,4.54,9.81,10.45
		C-1666.83-637.69-1666.89-634.23-1666.89-630.77z M-1677.56-620.22c0-7.19,0-14.03,0-20.86c-7.02,0-13.76,0-20.47,0
		c0,7.11,0,13.95,0,20.86C-1691.09-620.22-1684.43-620.22-1677.56-620.22z"/>
	
		<linearGradient id="SVGID_00000128467069003394947180000003815343161204182680_" gradientUnits="userSpaceOnUse" x1="-1761.9427" y1="-695.6392" x2="-1719.7395" y2="-695.6392">
		<stop  offset="0" style="stop-color:#1B5785"/>
		<stop  offset="0.2118" style="stop-color:#1F5E8F"/>
		<stop  offset="0.5798" style="stop-color:#3171A5"/>
		<stop  offset="1" style="stop-color:#448ECC"/>
	</linearGradient>
	<path style="fill:url(#SVGID_00000128467069003394947180000003815343161204182680_);" d="M-1740.68-716.56
		c3.35,0,6.69-0.04,10.04,0.01c6.24,0.09,10.56,4.04,10.74,10.27c0.21,7.03,0.19,14.08,0.01,21.12
		c-0.16,6.37-4.49,10.36-10.95,10.41c-6.69,0.06-13.39,0.06-20.08,0c-6.6-0.06-10.85-4.22-10.95-10.78
		c-0.1-6.81-0.11-13.62,0.01-20.43c0.11-6.35,4.43-10.5,10.79-10.59C-1747.6-716.6-1744.14-716.56-1740.68-716.56z M-1751.22-705.98
		c0,6.84,0,13.66,0,20.61c6.97,0,13.81,0,20.77,0c0-6.97,0-13.7,0-20.61C-1737.42-705.98-1744.18-705.98-1751.22-705.98z"/>
	
		<linearGradient id="SVGID_00000049221202022949452960000007318992503131065781_" gradientUnits="userSpaceOnUse" x1="-1761.9509" y1="-565.7374" x2="-1719.7406" y2="-565.7374">
		<stop  offset="0" style="stop-color:#1B5785"/>
		<stop  offset="0.2118" style="stop-color:#1F5E8F"/>
		<stop  offset="0.5798" style="stop-color:#3171A5"/>
		<stop  offset="1" style="stop-color:#448ECC"/>
	</linearGradient>
	<path style="fill:url(#SVGID_00000049221202022949452960000007318992503131065781_);" d="M-1740.62-586.76
		c3.23,0,6.46-0.03,9.7,0.01c6.41,0.07,10.86,4.08,11.04,10.39c0.2,7.04,0.19,14.09,0,21.12c-0.16,6.1-4.21,10.2-10.32,10.38
		c-7.15,0.21-14.32,0.22-21.47-0.01c-6.04-0.2-10.07-4.46-10.19-10.51c-0.13-6.92-0.13-13.85,0-20.78
		c0.12-6.3,4.52-10.5,10.85-10.58C-1747.54-586.8-1744.08-586.76-1740.62-586.76z M-1730.43-555.36c0-7.14,0-13.88,0-20.8
		c-7.03,0-13.87,0-20.81,0c0,7.01,0,13.83,0,20.8C-1744.24-555.36-1737.49-555.36-1730.43-555.36z"/>
	
		<linearGradient id="SVGID_00000165913485282744177070000016644767038024237745_" gradientUnits="userSpaceOnUse" x1="-1814.8877" y1="-565.7719" x2="-1772.9751" y2="-565.7719">
		<stop  offset="0" style="stop-color:#1B5785"/>
		<stop  offset="0.2118" style="stop-color:#1F5E8F"/>
		<stop  offset="0.5798" style="stop-color:#3171A5"/>
		<stop  offset="1" style="stop-color:#448ECC"/>
	</linearGradient>
	<path style="fill:url(#SVGID_00000165913485282744177070000016644767038024237745_);" d="M-1773-565.78
		c0,3.58,0.08,7.16-0.02,10.73c-0.15,5.55-3.85,9.84-9.4,10.07c-7.71,0.32-15.46,0.32-23.18-0.03c-5.38-0.25-9.09-4.5-9.18-9.9
		c-0.13-7.27-0.14-14.54,0-21.81c0.12-5.76,4.42-9.93,10.23-10.02c7.04-0.11,14.08-0.1,21.12-0.01c6.12,0.08,10.3,4.38,10.42,10.57
		C-1772.94-572.7-1773-569.24-1773-565.78z M-1783.5-576.08c-7.12,0-13.94,0-20.73,0c0,7.02,0,13.78,0,20.59c7.02,0,13.83,0,20.73,0
		C-1783.5-562.47-1783.5-569.13-1783.5-576.08z"/>
	
		<linearGradient id="SVGID_00000047744708738702086340000018116532834354226057_" gradientUnits="userSpaceOnUse" x1="-1814.8925" y1="-695.6593" x2="-1772.9446" y2="-695.6593">
		<stop  offset="0" style="stop-color:#1B5785"/>
		<stop  offset="0.2118" style="stop-color:#1F5E8F"/>
		<stop  offset="0.5798" style="stop-color:#3171A5"/>
		<stop  offset="1" style="stop-color:#448ECC"/>
	</linearGradient>
	<path style="fill:url(#SVGID_00000047744708738702086340000018116532834354226057_);" d="M-1793.8-674.74
		c-3.58,0-7.16,0.07-10.73-0.02c-5.89-0.14-10.13-4.16-10.25-9.96c-0.15-7.27-0.15-14.54,0-21.81c0.12-5.83,4.34-9.92,10.2-10
		c7.15-0.1,14.31-0.11,21.46,0.01c5.81,0.09,10,4.29,10.09,10.12c0.12,7.15,0.12,14.31,0,21.46c-0.1,5.98-4.32,10.06-10.39,10.19
		C-1786.88-674.68-1790.34-674.74-1793.8-674.74z M-1783.61-685.26c0-7.11,0-13.85,0-20.72c-6.96,0-13.7,0-20.55,0
		c0,7,0,13.82,0,20.72C-1797.21-685.26-1790.55-685.26-1783.61-685.26z"/>
	
		<linearGradient id="SVGID_00000136413648876532493690000010198687534181857970_" gradientUnits="userSpaceOnUse" x1="-1708.7795" y1="-695.6306" x2="-1666.8276" y2="-695.6306">
		<stop  offset="0" style="stop-color:#1B5785"/>
		<stop  offset="0.2118" style="stop-color:#1F5E8F"/>
		<stop  offset="0.5798" style="stop-color:#3171A5"/>
		<stop  offset="1" style="stop-color:#448ECC"/>
	</linearGradient>
	<path style="fill:url(#SVGID_00000136413648876532493690000010198687534181857970_);" d="M-1687.83-716.55
		c3.58,0,7.16-0.07,10.73,0.02c5.84,0.14,10.07,4.24,10.18,10.04c0.13,7.27,0.13,14.54-0.01,21.81c-0.11,5.63-4.29,9.8-9.93,9.91
		c-7.27,0.14-14.54,0.13-21.81,0c-5.67-0.1-9.87-4.21-9.99-9.85c-0.16-7.38-0.16-14.77,0.01-22.15c0.13-5.61,4.4-9.61,10.09-9.75
		C-1694.99-716.62-1691.41-716.55-1687.83-716.55z M-1677.47-705.92c-7.1,0-13.85,0-20.63,0c0,6.98,0,13.72,0,20.6
		c6.96,0,13.7,0,20.63,0C-1677.47-692.24-1677.47-698.98-1677.47-705.92z"/>
	
		<linearGradient id="SVGID_00000063622468312801683630000014376025689666834851_" gradientUnits="userSpaceOnUse" x1="-1814.877" y1="-500.8411" x2="-1772.953" y2="-500.8411">
		<stop  offset="0" style="stop-color:#1B5785"/>
		<stop  offset="0.2118" style="stop-color:#1F5E8F"/>
		<stop  offset="0.5798" style="stop-color:#3171A5"/>
		<stop  offset="1" style="stop-color:#448ECC"/>
	</linearGradient>
	<path style="fill:url(#SVGID_00000063622468312801683630000014376025689666834851_);" d="M-1793.54-521.76
		c3.35,0,6.69-0.07,10.04,0.02c6.29,0.15,10.4,4.22,10.48,10.46c0.09,6.92,0.08,13.85,0,20.77c-0.08,6.39-4.28,10.52-10.72,10.58
		c-6.81,0.06-13.62,0.06-20.42,0c-6.42-0.06-10.57-4.18-10.66-10.64c-0.09-6.81-0.08-13.62,0-20.42c0.08-6.66,4.16-10.65,10.9-10.75
		C-1800.46-521.81-1797-521.76-1793.54-521.76z M-1783.53-511.13c-7.11,0-13.85,0-20.71,0c0,6.97,0,13.71,0,20.53
		c7.03,0,13.86,0,20.71,0C-1783.53-497.54-1783.53-504.2-1783.53-511.13z"/>
	
		<linearGradient id="SVGID_00000027573520382530324700000017440491460073941177_" gradientUnits="userSpaceOnUse" x1="-1593.916" y1="-472.0075" x2="-1555.8945" y2="-472.0075">
		<stop  offset="0" style="stop-color:#1B5785"/>
		<stop  offset="0.2118" style="stop-color:#1F5E8F"/>
		<stop  offset="0.5798" style="stop-color:#3171A5"/>
		<stop  offset="1" style="stop-color:#448ECC"/>
	</linearGradient>
	<path style="fill:url(#SVGID_00000027573520382530324700000017440491460073941177_);" d="M-1555.92-472.15
		c0,3.23,0.06,6.47-0.02,9.7c-0.13,5.27-3.22,8.83-8.49,9.04c-6.91,0.29-13.85,0.27-20.76,0.02c-5.06-0.19-8.31-3.32-8.52-8.28
		c-0.28-6.91-0.28-13.85,0.01-20.76c0.2-4.83,3.41-7.98,8.25-8.16c7.03-0.27,14.08-0.29,21.11-0.02c5.21,0.2,8.29,3.81,8.41,9.12
		C-1555.86-478.39-1555.92-475.27-1555.92-472.15z M-1566.48-480.09c-5.79,0-11.25,0-16.78,0c0,5.53,0,10.77,0,16.23
		c5.68,0,11.15,0,16.78,0C-1566.48-469.31-1566.48-474.58-1566.48-480.09z"/>
	
		<linearGradient id="SVGID_00000054236623812884804120000017341373371846142860_" gradientUnits="userSpaceOnUse" x1="-1686.2666" y1="-472.0426" x2="-1648.1776" y2="-472.0426">
		<stop  offset="0" style="stop-color:#1B5785"/>
		<stop  offset="0.2118" style="stop-color:#1F5E8F"/>
		<stop  offset="0.5798" style="stop-color:#3171A5"/>
		<stop  offset="1" style="stop-color:#448ECC"/>
	</linearGradient>
	<path style="fill:url(#SVGID_00000054236623812884804120000017341373371846142860_);" d="M-1648.22-472.04
		c0,3.35,0.1,6.7-0.02,10.04c-0.17,4.7-3.22,8.28-7.92,8.49c-7.25,0.32-14.54,0.32-21.79,0.03c-4.77-0.19-7.91-3.46-8.11-8.32
		c-0.27-6.8-0.28-13.62-0.01-20.42c0.2-4.96,3.48-8.22,8.43-8.41c6.91-0.26,13.85-0.27,20.77-0.03c5.4,0.19,8.55,3.8,8.66,9.27
		c0.06,3.12,0.01,6.23,0.01,9.35C-1648.2-472.04-1648.21-472.04-1648.22-472.04z M-1675.68-463.94c5.68,0,11.25,0,16.95,0
		c0-5.43,0-10.71,0-16.13c-5.7,0-11.27,0-16.95,0C-1675.68-474.7-1675.68-469.64-1675.68-463.94z"/>
	
		<linearGradient id="SVGID_00000039110527789642689510000009280977875446931105_" gradientUnits="userSpaceOnUse" x1="-1686.2854" y1="-557.0048" x2="-1648.1782" y2="-557.0048">
		<stop  offset="0" style="stop-color:#1B5785"/>
		<stop  offset="0.2118" style="stop-color:#1F5E8F"/>
		<stop  offset="0.5798" style="stop-color:#3171A5"/>
		<stop  offset="1" style="stop-color:#448ECC"/>
	</linearGradient>
	<path style="fill:url(#SVGID_00000039110527789642689510000009280977875446931105_);" d="M-1648.2-556.88
		c0,3.12,0.06,6.24-0.01,9.35c-0.13,5.49-3.64,9.09-9.15,9.2c-6.46,0.13-12.93,0.11-19.4,0.01c-5.42-0.08-9.1-3.36-9.32-8.7
		c-0.27-6.69-0.27-13.4-0.01-20.08c0.21-5.36,3.9-8.57,9.33-8.62c6.47-0.06,12.93-0.08,19.4,0.01c5.53,0.07,9.02,3.59,9.15,9.14
		C-1648.14-563.35-1648.2-560.11-1648.2-556.88z M-1675.61-548.95c5.85,0,11.34,0,16.82,0c0-5.53,0-10.8,0-16.19
		c-5.67,0-11.15,0-16.82,0C-1675.61-559.69-1675.61-554.43-1675.61-548.95z"/>
	
		<linearGradient id="SVGID_00000064326912577960575540000013701193755247651517_" gradientUnits="userSpaceOnUse" x1="-1639.9788" y1="-472.0064" x2="-1601.8777" y2="-472.0064">
		<stop  offset="0" style="stop-color:#1B5785"/>
		<stop  offset="0.2118" style="stop-color:#1F5E8F"/>
		<stop  offset="0.5798" style="stop-color:#3171A5"/>
		<stop  offset="1" style="stop-color:#448ECC"/>
	</linearGradient>
	<path style="fill:url(#SVGID_00000064326912577960575540000013701193755247651517_);" d="M-1639.96-472.1
		c0-3.12-0.05-6.23,0.01-9.35c0.11-5.3,3.19-8.96,8.38-9.16c7.03-0.28,14.08-0.26,21.11,0c4.92,0.18,8.17,3.48,8.37,8.46
		c0.27,6.68,0.27,13.39,0.03,20.08c-0.18,5.16-3.42,8.46-8.56,8.67c-6.91,0.27-13.85,0.28-20.76,0c-5.41-0.22-8.48-3.84-8.57-9.34
		C-1640-465.86-1639.96-468.98-1639.96-472.1z M-1612.6-463.86c0-5.62,0-10.88,0-16.29c-5.73,0-11.21,0-16.82,0
		c0,5.5,0,10.78,0,16.29C-1623.83-463.86-1618.35-463.86-1612.6-463.86z"/>
	
		<linearGradient id="SVGID_00000134238456292458714370000005289533570048371893_" gradientUnits="userSpaceOnUse" x1="-1639.9935" y1="-556.9946" x2="-1601.8696" y2="-556.9946">
		<stop  offset="0" style="stop-color:#1B5785"/>
		<stop  offset="0.2118" style="stop-color:#1F5E8F"/>
		<stop  offset="0.5798" style="stop-color:#3171A5"/>
		<stop  offset="1" style="stop-color:#448ECC"/>
	</linearGradient>
	<path style="fill:url(#SVGID_00000134238456292458714370000005289533570048371893_);" d="M-1620.82-575.74
		c3.12,0,6.24-0.04,9.35,0.01c5.59,0.09,9.24,3.34,9.42,8.9c0.22,6.57,0.24,13.17-0.03,19.74c-0.21,5.35-3.88,8.67-9.26,8.76
		c-6.46,0.11-12.93,0.12-19.4,0c-5.67-0.1-9.16-3.74-9.22-9.48c-0.07-6.12-0.06-12.24,0-18.36c0.06-6.12,3.56-9.51,9.78-9.57
		C-1627.05-575.76-1623.93-575.74-1620.82-575.74z M-1629.45-548.94c5.84,0,11.31,0,16.89,0c0-5.51,0-10.77,0-16.1
		c-5.77,0-11.33,0-16.89,0C-1629.45-559.56-1629.45-554.37-1629.45-548.94z"/>
	
		<linearGradient id="SVGID_00000078725166164256591670000009193032153382825122_" gradientUnits="userSpaceOnUse" x1="-1686.2781" y1="-514.6125" x2="-1648.1554" y2="-514.6125">
		<stop  offset="0" style="stop-color:#1B5785"/>
		<stop  offset="0.2118" style="stop-color:#1F5E8F"/>
		<stop  offset="0.5798" style="stop-color:#3171A5"/>
		<stop  offset="1" style="stop-color:#448ECC"/>
	</linearGradient>
	<path style="fill:url(#SVGID_00000078725166164256591670000009193032153382825122_);" d="M-1667.32-495.85
		c-3.23,0-6.47,0.07-9.7-0.02c-5.22-0.14-8.85-3.32-9.06-8.54c-0.27-6.8-0.27-13.63,0.02-20.43c0.22-5,3.82-8.29,8.85-8.42
		c6.69-0.17,13.4-0.18,20.09,0c5.34,0.15,8.8,3.79,8.88,9.1c0.1,6.35,0.09,12.7,0.01,19.05c-0.08,5.73-3.58,9.13-9.4,9.25
		C-1660.85-495.8-1664.09-495.85-1667.32-495.85z M-1658.79-506.42c0-5.5,0-10.83,0-16.33c-5.65,0-11.11,0-16.79,0
		c0,5.51,0,10.84,0,16.33C-1669.9-506.42-1664.44-506.42-1658.79-506.42z"/>
	
		<linearGradient id="SVGID_00000050655578418417051370000000427416546472148922_" gradientUnits="userSpaceOnUse" x1="-1640.0045" y1="-514.6124" x2="-1601.8713" y2="-514.6124">
		<stop  offset="0" style="stop-color:#1B5785"/>
		<stop  offset="0.2118" style="stop-color:#1F5E8F"/>
		<stop  offset="0.5798" style="stop-color:#3171A5"/>
		<stop  offset="1" style="stop-color:#448ECC"/>
	</linearGradient>
	<path style="fill:url(#SVGID_00000050655578418417051370000000427416546472148922_);" d="M-1621.13-495.87
		c-3.35,0-6.7,0.09-10.04-0.02c-5.13-0.18-8.65-3.68-8.75-8.83c-0.12-6.46-0.1-12.93-0.01-19.4c0.07-5.33,3.51-8.99,8.84-9.14
		c6.69-0.19,13.4-0.18,20.09-0.01c5.19,0.13,8.74,3.51,8.94,8.72c0.25,6.69,0.27,13.4-0.01,20.08c-0.23,5.38-3.86,8.48-9.36,8.6
		c-3.23,0.07-6.47,0.01-9.7,0.01C-1621.13-495.86-1621.13-495.86-1621.13-495.87z M-1629.38-522.74c0,5.62,0,10.88,0,16.2
		c5.72,0,11.25,0,16.82,0c0-5.54,0-10.78,0-16.2C-1618.23-522.74-1623.69-522.74-1629.38-522.74z"/>
	
		<linearGradient id="SVGID_00000119108330809719047780000004059463895412411047_" gradientUnits="userSpaceOnUse" x1="-1593.9214" y1="-557.0015" x2="-1555.8967" y2="-557.0015">
		<stop  offset="0" style="stop-color:#1B5785"/>
		<stop  offset="0.2118" style="stop-color:#1F5E8F"/>
		<stop  offset="0.5798" style="stop-color:#3171A5"/>
		<stop  offset="1" style="stop-color:#448ECC"/>
	</linearGradient>
	<path style="fill:url(#SVGID_00000119108330809719047780000004059463895412411047_);" d="M-1555.92-557.16
		c0,3.23,0.07,6.47-0.02,9.7c-0.14,5.35-3.55,8.99-8.85,9.12c-6.69,0.17-13.39,0.15-20.09,0c-5.04-0.11-8.63-3.38-8.84-8.39
		c-0.28-6.91-0.29-13.85,0.02-20.76c0.22-5.03,3.87-8.15,8.95-8.21c6.58-0.09,13.16-0.09,19.74,0c5.51,0.07,8.94,3.61,9.07,9.2
		C-1555.86-563.4-1555.92-560.28-1555.92-557.16z M-1583.25-565.21c0,5.68,0,10.93,0,16.31c5.69,0,11.16,0,16.68,0
		c0-5.55,0-10.89,0-16.31C-1572.22-565.21-1577.62-565.21-1583.25-565.21z"/>
	
		<linearGradient id="SVGID_00000064328122929847665220000014858499033128301214_" gradientUnits="userSpaceOnUse" x1="-1593.8843" y1="-514.6138" x2="-1555.8723" y2="-514.6138">
		<stop  offset="0" style="stop-color:#1B5785"/>
		<stop  offset="0.2118" style="stop-color:#1F5E8F"/>
		<stop  offset="0.5798" style="stop-color:#3171A5"/>
		<stop  offset="1" style="stop-color:#448ECC"/>
	</linearGradient>
	<path style="fill:url(#SVGID_00000064328122929847665220000014858499033128301214_);" d="M-1575.15-495.86
		c-3.23,0-6.47,0.08-9.7-0.02c-4.94-0.15-8.58-3.14-8.8-7.98c-0.32-7.14-0.31-14.31,0.01-21.45c0.21-4.63,3.77-7.8,8.53-7.93
		c6.81-0.2,13.63-0.21,20.43,0c5.32,0.16,8.66,3.82,8.74,9.22c0.09,6.35,0.1,12.7,0,19.05c-0.09,5.56-3.57,8.97-9.17,9.11
		C-1568.46-495.79-1571.81-495.86-1575.15-495.86z M-1566.51-506.39c0-5.66,0-10.92,0-16.32c-5.66,0-11.12,0-16.69,0
		c0,5.56,0,10.9,0,16.32C-1577.53-506.39-1572.14-506.39-1566.51-506.39z"/>
</g>
<g>
	
		<linearGradient id="SVGID_00000147908028746005833260000002323739150533198485_" gradientUnits="userSpaceOnUse" x1="-1970.9116" y1="849.2392" x2="-1627.8083" y2="849.2392">
		<stop  offset="0" style="stop-color:#1B5785"/>
		<stop  offset="0.2118" style="stop-color:#1F5E8F"/>
		<stop  offset="0.5798" style="stop-color:#3171A5"/>
		<stop  offset="1" style="stop-color:#448ECC"/>
	</linearGradient>
	<path style="fill:url(#SVGID_00000147908028746005833260000002323739150533198485_);" d="M-1798.93,709.84
		c39.57,0,79.14-0.01,118.71,0c29.91,0.01,52.37,22.43,52.39,52.37c0.04,44.25,0.03,88.49,0,132.74
		c-0.02,29.98-22.29,52.35-52.35,52.39c-65.26,0.08-130.52,0.07-195.78-0.06c-5.12-0.01-9.22,1.41-13.23,4.5
		c-13.37,10.33-26.96,20.36-40.38,30.62c-8.49,6.49-17.65,8.33-27.36,3.52c-9.84-4.88-13.98-13.31-13.97-24.21
		c0.07-66.51,0.02-133.01,0.05-199.52c0.01-29.92,22.49-52.34,52.41-52.35C-1878.62,709.83-1838.77,709.84-1798.93,709.84z
		 M-1944.49,960.4c1.76-1.25,2.87-1.99,3.94-2.8c12.28-9.26,24.64-18.43,36.81-27.83c7.83-6.05,16.49-8.85,26.37-8.83
		c65.4,0.09,130.81,0.06,196.21,0.04c16.76,0,26.93-10.22,26.94-26.98c0.01-43.56,0.01-87.13,0-130.69
		c0-16.96-10.2-27.07-27.26-27.07c-78.46,0-156.92,0-235.37,0c-17.63,0-27.63,9.96-27.63,27.52c0,63.9,0,127.8,0,191.7
		C-1944.49,956.83-1944.49,958.2-1944.49,960.4z"/>
	
		<linearGradient id="SVGID_00000035502847180480889340000012807344577235184531_" gradientUnits="userSpaceOnUse" x1="-1904.9301" y1="756.0474" x2="-1575.0387" y2="756.0474">
		<stop  offset="0" style="stop-color:#1B5785"/>
		<stop  offset="0.2118" style="stop-color:#1F5E8F"/>
		<stop  offset="0.5798" style="stop-color:#3171A5"/>
		<stop  offset="1" style="stop-color:#448ECC"/>
	</linearGradient>
	<path style="fill:url(#SVGID_00000035502847180480889340000012807344577235184531_);" d="M-1757.29,657.06
		c43.15,0,86.31,0,129.46,0c30.46,0,52.76,22.32,52.78,52.84c0.02,43.57,0.02,87.14-0.01,130.72c-0.01,10.38-9.01,17.05-17.97,13.45
		c-5.25-2.11-8.37-6.82-8.39-12.98c-0.04-13.2-0.01-26.39-0.01-39.59c0-30.38,0.01-60.75,0-91.13c-0.01-16.73-10.24-26.92-27-26.93
		c-86.99,0-173.99-0.03-260.98,0.05c-6.35,0.01-11.4-1.89-14.23-7.78c-3.91-8.14,1.67-17.7,10.73-18.6
		c1.36-0.14,2.75-0.06,4.12-0.06C-1844.98,657.06-1801.13,657.06-1757.29,657.06z"/>
	
		<linearGradient id="SVGID_00000087386195395137929550000013439276243538272425_" gradientUnits="userSpaceOnUse" x1="-1760.5607" y1="829.7874" x2="-1734.1997" y2="829.7874">
		<stop  offset="0" style="stop-color:#1B5785"/>
		<stop  offset="0.2118" style="stop-color:#1F5E8F"/>
		<stop  offset="0.5798" style="stop-color:#3171A5"/>
		<stop  offset="1" style="stop-color:#448ECC"/>
	</linearGradient>
	<path style="fill:url(#SVGID_00000087386195395137929550000013439276243538272425_);" d="M-1734.2,829.81
		c-0.01,7.22-5.84,13.06-13.09,13.11c-7.19,0.05-13.18-5.79-13.27-12.95c-0.1-7.38,5.9-13.39,13.31-13.32
		C-1740.04,816.72-1734.19,822.62-1734.2,829.81z"/>
	
		<linearGradient id="SVGID_00000013913398528849329490000009908869644717060789_" gradientUnits="userSpaceOnUse" x1="-1864.4984" y1="829.788" x2="-1838.1394" y2="829.788">
		<stop  offset="0" style="stop-color:#1B5785"/>
		<stop  offset="0.2118" style="stop-color:#1F5E8F"/>
		<stop  offset="0.5798" style="stop-color:#3171A5"/>
		<stop  offset="1" style="stop-color:#448ECC"/>
	</linearGradient>
	<path style="fill:url(#SVGID_00000013913398528849329490000009908869644717060789_);" d="M-1864.5,829.48
		c0.15-7.23,6.1-12.94,13.36-12.82c7.18,0.11,13.05,6.1,13,13.24c-0.06,7.34-6.23,13.25-13.61,13.02
		C-1858.96,842.7-1864.65,836.7-1864.5,829.48z"/>
	
		<linearGradient id="SVGID_00000175321124153178912140000017117723971568230056_" gradientUnits="userSpaceOnUse" x1="-1811.7225" y1="829.7853" x2="-1785.3607" y2="829.7853">
		<stop  offset="0" style="stop-color:#1B5785"/>
		<stop  offset="0.2118" style="stop-color:#1F5E8F"/>
		<stop  offset="0.5798" style="stop-color:#3171A5"/>
		<stop  offset="1" style="stop-color:#448ECC"/>
	</linearGradient>
	<path style="fill:url(#SVGID_00000175321124153178912140000017117723971568230056_);" d="M-1799.05,842.91
		c-7.21-0.26-12.86-6.28-12.67-13.51c0.19-7.21,6.19-12.9,13.44-12.74c7.34,0.16,13.24,6.44,12.91,13.73
		C-1785.71,837.56-1791.83,843.17-1799.05,842.91z"/>
</g>
<linearGradient id="SVGID_00000013888815687376241260000004792216658917632649_" gradientUnits="userSpaceOnUse" x1="-1651.6683" y1="35.9012" x2="-1367.4033" y2="35.9012">
	<stop  offset="0" style="stop-color:#1B5785"/>
	<stop  offset="0.2118" style="stop-color:#1F5E8F"/>
	<stop  offset="0.5798" style="stop-color:#3171A5"/>
	<stop  offset="1" style="stop-color:#448ECC"/>
</linearGradient>
<path style="fill:url(#SVGID_00000013888815687376241260000004792216658917632649_);" d="M-1389.61,178.02
	c-0.24-28.49-9.09-54-27.28-75.9c-20.2-24.32-46.02-39.14-77.58-42.94c-36.48-4.39-68.59,5.82-95.82,30.53
	c-22.34,20.27-34.98,45.65-38.47,75.58c-0.49,4.21-0.47,8.49-0.69,12.73c-7.4,0-14.81,0-22.21,0
	c2.27-65.63,35.54-109.35,94.85-134.79c-22.06-16.52-34.47-38.61-34.79-66.69c-0.26-22.91,7.99-42.78,24.3-58.87
	c33.87-33.42,86.18-30.7,117,1.43c34.05,35.5,30.19,94.09-12.51,124.53c1.19,0.48,2.14,0.86,3.09,1.24
	c43.33,17.26,72.26,48,86.39,92.5c3.06,9.63,4.78,19.56,5.45,29.66c0.06,0.89,0.32,1.78,0.48,2.66c0,2.78,0,5.55,0,8.33
	C-1374.81,178.02-1382.21,178.02-1389.61,178.02z M-1509.48-84.03c-32.89-0.05-59.83,26.78-60.01,59.76
	c-0.17,32.94,26.87,60.1,59.9,60.15c32.89,0.05,59.83-26.78,60.01-59.76C-1449.41-56.83-1476.45-83.98-1509.48-84.03z"/>
<g>
	
		<linearGradient id="SVGID_00000109014817899608408610000007035210309696418217_" gradientUnits="userSpaceOnUse" x1="481.863" y1="524.1008" x2="598.1705" y2="524.1008">
		<stop  offset="0" style="stop-color:#1B5785"/>
		<stop  offset="0.2118" style="stop-color:#1F5E8F"/>
		<stop  offset="0.5798" style="stop-color:#3171A5"/>
		<stop  offset="1" style="stop-color:#448ECC"/>
	</linearGradient>
	<path style="fill:url(#SVGID_00000109014817899608408610000007035210309696418217_);" d="M594.22,504.71
		c5.27,7.67,5.27,31.09-0.01,38.79c3.88,4.04,3.82,9.26,3.71,14.53c-0.1,4.72,0.03,9.44-0.04,14.16
		c-0.12,8.29-6.24,14.57-14.49,14.59c-28.93,0.07-57.86,0.07-86.79,0c-8.24-0.02-14.37-6.33-14.47-14.61
		c-0.07-5.52,0.09-11.05-0.05-16.57c-0.11-4.46,0.57-8.6,3.6-11.98c-5.13-8.74-5.13-31.33,0.13-38.93
		c-3.92-4.02-3.83-9.25-3.73-14.51c0.09-4.62-0.01-9.24,0.03-13.86c0.08-8.65,6.19-14.9,14.78-14.91c28.73-0.05,57.46-0.05,86.19,0
		c8.61,0.01,14.71,6.23,14.79,14.9c0.05,5.42-0.09,10.85,0.04,16.27C598.04,497.03,597.35,501.18,594.22,504.71z M540.31,471.03
		c-14.17,0-28.34-0.01-42.51,0.01c-4.34,0.01-6.01,1.69-6.03,6.02c-0.03,5.73-0.04,11.46,0,17.18c0.03,3.94,1.78,5.72,5.71,5.72
		c28.34,0.02,56.68,0.02,85.02,0c3.94,0,5.7-1.78,5.73-5.72c0.04-5.63,0.02-11.26,0.01-16.88c-0.01-4.73-1.61-6.33-6.33-6.33
		C568.05,471.03,554.18,471.03,540.31,471.03z M539.71,538.57c14.17,0,28.34,0.01,42.51-0.01c4.32-0.01,6.01-1.7,6.03-6.03
		c0.03-5.73,0.04-11.46,0-17.18c-0.03-3.94-1.79-5.71-5.73-5.71c-28.34-0.02-56.68-0.02-85.02,0c-3.95,0-5.69,1.77-5.72,5.72
		c-0.04,5.63-0.02,11.26-0.01,16.88c0.01,4.73,1.6,6.32,6.33,6.33C511.97,538.58,525.84,538.57,539.71,538.57z M539.71,577.16
		c14.17,0,28.34,0.01,42.51-0.01c4.32-0.01,6.01-1.7,6.03-6.03c0.03-5.73,0.04-11.46,0-17.18c-0.03-3.94-1.79-5.71-5.72-5.71
		c-28.34-0.02-56.68-0.02-85.02,0c-3.95,0-5.69,1.77-5.72,5.72c-0.04,5.63-0.02,11.26-0.01,16.88c0.01,4.73,1.6,6.33,6.33,6.33
		C511.97,577.17,525.84,577.16,539.71,577.16z"/>
	
		<linearGradient id="SVGID_00000121979069779488504870000002342308524915535008_" gradientUnits="userSpaceOnUse" x1="390.464" y1="490.3125" x2="626.2049" y2="490.3125">
		<stop  offset="0" style="stop-color:#1B5785"/>
		<stop  offset="0.2118" style="stop-color:#1F5E8F"/>
		<stop  offset="0.5798" style="stop-color:#3171A5"/>
		<stop  offset="1" style="stop-color:#448ECC"/>
	</linearGradient>
	<path style="fill:url(#SVGID_00000121979069779488504870000002342308524915535008_);" d="M420.02,598.9
		c-2.63,1.58-5.26,3.17-7.89,4.75c-34.41-55.1-29.45-135.43,26.55-187.03c56.16-51.75,136.24-49.71,187.52-12.05
		c-1.73,2.44-3.47,4.89-5.37,7.56c-33.77-22.78-70.58-30.68-110.45-22.3c-27.46,5.77-50.85,19.21-70.66,39.09
		C401.76,467.03,383.22,536.94,420.02,598.9z"/>
	
		<linearGradient id="SVGID_00000015339793120968661870000001661849072266337183_" gradientUnits="userSpaceOnUse" x1="455.4498" y1="564.0008" x2="689.536" y2="564.0008">
		<stop  offset="0" style="stop-color:#1B5785"/>
		<stop  offset="0.2118" style="stop-color:#1F5E8F"/>
		<stop  offset="0.5798" style="stop-color:#3171A5"/>
		<stop  offset="1" style="stop-color:#448ECC"/>
	</linearGradient>
	<path style="fill:url(#SVGID_00000015339793120968661870000001661849072266337183_);" d="M669.43,451.96
		c32.85,55.21,26.99,134.59-29.09,185.33c-56.86,51.44-135.76,47.61-184.89,12.24c1.68-2.46,3.37-4.92,5.2-7.6
		c34.6,22.57,71.97,29.97,112.22,20.49c28.06-6.61,51.71-20.99,71.1-42.32c37.39-41.13,49.52-106.46,17.39-163.43
		C664,455.13,666.65,453.59,669.43,451.96z"/>
	
		<linearGradient id="SVGID_00000035519706840492077750000017831137069432628355_" gradientUnits="userSpaceOnUse" x1="406.9825" y1="626.427" x2="464.757" y2="626.427">
		<stop  offset="0" style="stop-color:#1B5785"/>
		<stop  offset="0.2118" style="stop-color:#1F5E8F"/>
		<stop  offset="0.5798" style="stop-color:#3171A5"/>
		<stop  offset="1" style="stop-color:#448ECC"/>
	</linearGradient>
	<path style="fill:url(#SVGID_00000035519706840492077750000017831137069432628355_);" d="M435.79,597.54
		c3.04,0.06,4.96,1.58,5.89,4.35c0.67,1.99,1.19,4.04,1.83,6.05c1.77,5.58,5.44,9.26,11.08,10.93c2.02,0.6,4.06,1.13,6.04,1.85
		c2.61,0.94,4.13,2.81,4.13,5.67c0,2.84-1.4,4.78-4.06,5.7c-1.99,0.69-4.04,1.2-6.05,1.83c-5.69,1.77-9.49,5.44-11.21,11.2
		c-0.57,1.92-1.13,3.85-1.73,5.76c-0.88,2.82-2.88,4.44-5.76,4.45c-2.87,0.01-4.93-1.51-5.8-4.37c-0.56-1.82-1.12-3.64-1.65-5.47
		c-1.73-5.98-5.58-9.85-11.54-11.63c-1.83-0.54-3.65-1.08-5.48-1.63c-2.85-0.86-4.34-2.83-4.49-5.74c-0.14-2.74,1.67-4.95,4.66-5.91
		c1.34-0.43,2.69-0.8,4.05-1.15c6.8-1.77,11.24-5.94,13.06-12.79c0.46-1.74,0.9-3.51,1.54-5.19
		C431.25,598.94,433.15,597.63,435.79,597.54z M435.57,636.93c3.62-3.61,7.32-7.3,10.89-10.85c-1.56-1.19-3.8-2.56-5.6-4.36
		c-1.89-1.89-3.36-4.18-4.64-5.82c-3.52,3.52-7.23,7.24-10.83,10.83c1.67,1.3,3.88,2.72,5.7,4.54
		C432.9,633.09,434.31,635.31,435.57,636.93z"/>
	
		<linearGradient id="SVGID_00000118370664466771398660000003786219598948463541_" gradientUnits="userSpaceOnUse" x1="615.7468" y1="430.6291" x2="673.4893" y2="430.6291">
		<stop  offset="0" style="stop-color:#1B5785"/>
		<stop  offset="0.2118" style="stop-color:#1F5E8F"/>
		<stop  offset="0.5798" style="stop-color:#3171A5"/>
		<stop  offset="1" style="stop-color:#448ECC"/>
	</linearGradient>
	<path style="fill:url(#SVGID_00000118370664466771398660000003786219598948463541_);" d="M644.73,401.69
		c2.76,0.28,4.74,1.61,5.62,4.29c0.69,2.1,1.23,4.24,1.91,6.34c1.73,5.33,5.23,8.94,10.61,10.64c1.91,0.6,3.85,1.14,5.76,1.73
		c3.24,1.01,4.94,3.11,4.85,6.07c-0.1,3.14-1.88,4.96-4.77,5.83c-1.63,0.49-3.29,0.91-4.92,1.4c-6.04,1.81-10.05,5.66-11.79,11.78
		c-0.49,1.74-1,3.47-1.56,5.19c-1,3.04-3.12,4.72-5.93,4.6c-2.95-0.13-4.84-1.69-5.7-4.52c-0.61-2.02-1.17-4.05-1.83-6.05
		c-1.75-5.31-5.21-8.96-10.62-10.64c-2.01-0.63-4.05-1.17-6.05-1.82c-2.99-0.97-4.67-3.16-4.57-5.99c0.1-2.98,1.73-4.84,4.49-5.74
		c1.72-0.55,3.47-0.98,5.21-1.5c6.06-1.79,10.05-5.65,11.78-11.78c0.55-1.93,1.06-3.88,1.74-5.76
		C639.93,403.14,641.95,401.86,644.73,401.69z M654.77,430.7c-3.37-3.43-6.99-7.11-10.1-10.28c-3.37,3.37-7.05,7.06-10.18,10.19
		c3.38,3.44,7,7.13,10.08,10.28C647.9,437.57,651.53,433.94,654.77,430.7z"/>
	
		<linearGradient id="SVGID_00000088119847437131914550000009848791760988496558_" gradientUnits="userSpaceOnUse" x1="540.1638" y1="485.547" x2="583.2252" y2="485.547">
		<stop  offset="0" style="stop-color:#1B5785"/>
		<stop  offset="0.2118" style="stop-color:#1F5E8F"/>
		<stop  offset="0.5798" style="stop-color:#3171A5"/>
		<stop  offset="1" style="stop-color:#448ECC"/>
	</linearGradient>
	<path style="fill:url(#SVGID_00000088119847437131914550000009848791760988496558_);" d="M583.23,490.19c-14.47,0-28.69,0-43.06,0
		c0-3.11,0-6.08,0-9.28c14.27,0,28.56,0,43.06,0C583.23,483.9,583.23,486.94,583.23,490.19z"/>
	
		<linearGradient id="SVGID_00000144312600124130416790000004118808520516667819_" gradientUnits="userSpaceOnUse" x1="496.7297" y1="485.4792" x2="506.0054" y2="485.4792">
		<stop  offset="0" style="stop-color:#1B5785"/>
		<stop  offset="0.2118" style="stop-color:#1F5E8F"/>
		<stop  offset="0.5798" style="stop-color:#3171A5"/>
		<stop  offset="1" style="stop-color:#448ECC"/>
	</linearGradient>
	<path style="fill:url(#SVGID_00000144312600124130416790000004118808520516667819_);" d="M496.73,490.12c0-3.19,0-6.16,0-9.28
		c3.1,0,6.07,0,9.28,0c0,2.99,0,6.03,0,9.28C503.04,490.12,500,490.12,496.73,490.12z"/>
	
		<linearGradient id="SVGID_00000008827059088113356110000013990139145225555587_" gradientUnits="userSpaceOnUse" x1="540.1499" y1="524.0721" x2="583.1876" y2="524.0721">
		<stop  offset="0" style="stop-color:#1B5785"/>
		<stop  offset="0.2118" style="stop-color:#1F5E8F"/>
		<stop  offset="0.5798" style="stop-color:#3171A5"/>
		<stop  offset="1" style="stop-color:#448ECC"/>
	</linearGradient>
	<path style="fill:url(#SVGID_00000008827059088113356110000013990139145225555587_);" d="M540.15,528.71c0-3.19,0-6.16,0-9.28
		c14.36,0,28.57,0,43.04,0c0,2.98,0,6.03,0,9.28C568.97,528.71,554.68,528.71,540.15,528.71z"/>
	
		<linearGradient id="SVGID_00000127022166312869771900000009732680522537360030_" gradientUnits="userSpaceOnUse" x1="496.6997" y1="524.0721" x2="506.0803" y2="524.0721">
		<stop  offset="0" style="stop-color:#1B5785"/>
		<stop  offset="0.2118" style="stop-color:#1F5E8F"/>
		<stop  offset="0.5798" style="stop-color:#3171A5"/>
		<stop  offset="1" style="stop-color:#448ECC"/>
	</linearGradient>
	<path style="fill:url(#SVGID_00000127022166312869771900000009732680522537360030_);" d="M496.7,528.68c0-3.1,0-6.07,0-9.22
		c3.14,0,6.18,0,9.38,0c0,3.04,0,6.01,0,9.22C503.11,528.68,500.07,528.68,496.7,528.68z"/>
	
		<linearGradient id="SVGID_00000179632881128280969350000008518182981480802487_" gradientUnits="userSpaceOnUse" x1="540.1699" y1="562.6651" x2="583.2191" y2="562.6651">
		<stop  offset="0" style="stop-color:#1B5785"/>
		<stop  offset="0.2118" style="stop-color:#1F5E8F"/>
		<stop  offset="0.5798" style="stop-color:#3171A5"/>
		<stop  offset="1" style="stop-color:#448ECC"/>
	</linearGradient>
	<path style="fill:url(#SVGID_00000179632881128280969350000008518182981480802487_);" d="M540.17,557.99c14.4,0,28.62,0,43.05,0
		c0,3.08,0,6.12,0,9.35c-14.31,0-28.6,0-43.05,0C540.17,564.28,540.17,561.3,540.17,557.99z"/>
	
		<linearGradient id="SVGID_00000173121496948087538170000005228598163958051989_" gradientUnits="userSpaceOnUse" x1="496.8439" y1="562.6226" x2="506.0119" y2="562.6226">
		<stop  offset="0" style="stop-color:#1B5785"/>
		<stop  offset="0.2118" style="stop-color:#1F5E8F"/>
		<stop  offset="0.5798" style="stop-color:#3171A5"/>
		<stop  offset="1" style="stop-color:#448ECC"/>
	</linearGradient>
	<path style="fill:url(#SVGID_00000173121496948087538170000005228598163958051989_);" d="M496.84,557.93c3.15,0,6.04,0,9.17,0
		c0,3.09,0,6.13,0,9.38c-2.99,0-6.03,0-9.17,0C496.84,564.17,496.84,561.06,496.84,557.93z"/>
</g>
<linearGradient id="SVGID_00000119816715681240575870000009207075986787157668_" gradientUnits="userSpaceOnUse" x1="-1814.3505" y1="398.0385" x2="-1337.0865" y2="398.0385">
	<stop  offset="0" style="stop-color:#1B5785"/>
	<stop  offset="0.2118" style="stop-color:#1F5E8F"/>
	<stop  offset="0.5798" style="stop-color:#3171A5"/>
	<stop  offset="1" style="stop-color:#448ECC"/>
</linearGradient>
<path style="fill:url(#SVGID_00000119816715681240575870000009207075986787157668_);" d="M-1660.22,399.34
	c-8.76-9.21-19.45-15.4-32.16-15.91c-18.62-0.74-37.39-1.33-55.92,0.2c-26.05,2.15-46.01,25.05-46.73,51.28
	c-0.21,7.56,0.14,15.14-0.16,22.69c-0.15,3.73,0.9,6.03,4.55,7.11c14.79,4.39,29.49,9.14,44.38,13.14
	c7.51,2.02,11.5,6.48,9.59,12.84c-1.53,5.11-6.09,7.32-13.14,6.16c-18.52-3.06-36.26-8.63-53.17-16.82
	c-1.96-0.95-4.32-1.49-5.8-2.94c-2.13-2.1-5.09-4.83-5.14-7.33c-0.27-14.31-1.14-28.82,0.74-42.91
	c3.81-28.63,20.32-48.07,47.09-58.77c1.28-0.51,2.55-1.06,3.86-1.62c-31.37-31.91-21.8-71.68-0.26-91.59
	c24.08-22.25,59.45-22.64,83.89-0.83c21,18.75,33.4,58.34,0.62,92.54c13.83,4.42,25.49,12.07,34.81,22.96
	c6.16-2.13,11.94-4.13,18.32-6.34c-21.51-18.57-32.81-41.52-30.46-69.93c1.73-20.92,11.08-38.45,26.63-52.46
	c31.62-28.46,78.13-27.2,108.52,2.22c29.29,28.37,37.67,82.6-5.96,120.28c5.87,2.04,11.65,4.05,17.15,5.96
	c5.61-4.64,10.77-9.66,16.67-13.57c5.74-3.8,12.24-6.46,18.75-9.8c-14.62-14.54-22.12-32.32-19.49-53.45
	c1.99-16.05,9.64-29.36,21.97-39.8c24.74-20.96,60.22-19.4,83.36,3.31c21.44,21.04,28.79,59.69-1.52,90.54
	c13.09,4.48,24.5,11.36,33.58,21.74c11.85,13.54,18.12,29.31,18.47,47.32c0.21,10.55-0.11,21.11,0.1,31.65
	c0.11,5.3-2.24,8.47-6.82,10.74c-17.9,8.87-36.56,15.41-56.3,18.63c-2.71,0.44-5.68,0.86-8.24,0.18c-4.5-1.2-6.81-4.68-6.59-9.45
	c0.24-5.12,3.32-7.94,8.07-8.99c6.39-1.41,12.98-2.14,19.2-4.07c9.46-2.92,18.71-6.51,27.95-10.1c1.48-0.58,3.41-2.62,3.41-3.99
	c-0.02-10.93,0.59-22.01-0.99-32.75c-3.49-23.65-22.41-42.14-46.06-43.85c-18.94-1.37-38.1-0.81-57.11,0.09
	c-12.06,0.57-22.13,6.9-30.6,15.64c0.55,0.74,0.8,1.3,1.23,1.65c23.08,18.5,35.27,42.66,36.55,72.12c0.65,14.89,0.6,29.85,0,44.74
	c-0.13,3.15-3.38,7.51-6.35,9c-75.18,37.82-150.85,38.67-227.07,2.79c-8.66-4.07-12.09-9.05-11.38-18.78
	c1.05-14.25-0.09-28.65,0.81-42.92c1.58-25.23,12.68-46.06,31.28-62.98c1.76-1.6,3.58-3.14,5.37-4.72
	C-1660.59,400.1-1660.53,399.88-1660.22,399.34z M-1472.47,487.96c-0.12,0-0.25,0-0.37,0c0-4.37,0.02-8.74,0-13.11
	c-0.19-40.85-32.89-74-73.63-74.45c-19.66-0.21-39.32-0.23-58.97,0.02c-34.46,0.44-65.65,25.65-71.37,59.65
	c-2.71,16.1-1.6,32.86-1.83,49.33c-0.02,1.56,2.49,3.76,4.32,4.65c25.25,12.27,51.92,19.4,79.9,21.69
	c41.29,3.38,80.6-4.01,117.9-21.93c1.9-0.91,3.7-3.98,3.87-6.17C-1472.14,501.11-1472.47,494.52-1472.47,487.96z M-1575.58,259.29
	c-32.95-0.04-60.84,27.75-60.93,60.71c-0.1,33.03,27.61,61.06,60.47,61.18c33.29,0.12,61.25-27.73,61.23-61.01
	C-1514.84,287.18-1542.64,259.33-1575.58,259.29z M-1720.41,363.3c23.96,0.03,43.43-19.19,43.48-42.91
	c0.05-23.74-19.47-43.36-43.17-43.37c-23.68-0.01-43.24,19.63-43.17,43.36C-1763.19,343.93-1743.88,363.28-1720.41,363.3z
	 M-1431.38,363.3c23.91,0.02,43.31-19.28,43.31-43.07c-0.01-23.73-19.6-43.29-43.3-43.22c-23.41,0.07-42.92,19.53-43.03,42.92
	C-1474.53,343.75-1455.15,363.29-1431.38,363.3z"/>
</svg>
