<?xml version="1.0" encoding="utf-8"?>
<!-- Generator: Adobe Illustrator 26.3.0, SVG Export Plug-In . SVG Version: 6.00 Build 0)  -->
<svg version="1.0" id="Layer_1" xmlns="http://www.w3.org/2000/svg" xmlns:xlink="http://www.w3.org/1999/xlink" x="0px" y="0px"
	 viewBox="0 0 1080 1080" style="enable-background:new 0 0 1080 1080;" xml:space="preserve">
<g>
	<linearGradient id="SVGID_1_" gradientUnits="userSpaceOnUse" x1="-1864.6205" y1="-570.8199" x2="-1509.5359" y2="-570.8199">
		<stop  offset="0" style="stop-color:#1B5785"/>
		<stop  offset="0.2118" style="stop-color:#1F5E8F"/>
		<stop  offset="0.5798" style="stop-color:#3171A5"/>
		<stop  offset="1" style="stop-color:#448ECC"/>
	</linearGradient>
	<path style="fill:url(#SVGID_1_);" d="M-1849.36-393.29c-2.57-1.23-5.36-2.15-7.67-3.76c-6.4-4.46-9-12.45-6.85-19.95
		c2.11-7.37,8.76-12.71,16.5-13.17c1.94-0.12,3.9-0.02,6.4-0.02c0-1.77,0-3.21,0-4.65c0-98.01,0-196.02,0-294.03
		c0-10.35,5.56-17.52,14.9-19.18c1.47-0.26,2.99-0.27,4.49-0.27c53.74-0.01,107.49-0.02,161.23-0.01c12.36,0,19.61,7.24,19.61,19.6
		c0.02,40.22,0.01,80.44,0.01,120.66c0,1.38,0,2.76,0,4.65c1.5,0,2.84,0,4.18,0c29.47,0,58.95,0,88.42,0c9.71,0,14.95,5.24,14.96,15
		c0.01,51.2,0,102.4,0,153.61c0,1.37,0,2.73,0,4.54c1.65,0,3.01-0.02,4.36,0c9.47,0.16,15.64,4.69,18.63,13.64
		c0.14,0.41,0.43,0.77,0.65,1.15c0,2.31,0,4.62,0,6.94c-2.21,7.96-7.37,12.97-15.26,15.26
		C-1632.98-393.29-1741.17-393.29-1849.36-393.29z M-1708.69-430.45c0-5.58-0.03-10.77,0.01-15.96c0.02-2.68,1.56-4.76,4.03-4.81
		c1.84-0.04,4.02,1.21,5.47,2.53c0.86,0.78,0.8,2.8,0.83,4.27c0.09,4.59,0.03,9.18,0.03,13.9c51.77,0,103.12,0,154.74,0
		c0-1.39,0-2.53,0-3.67c0-51.08,0-102.16,0-153.24c0-5.3-0.29-5.58-5.78-5.58c-47.73,0-95.46,0-143.19,0c-5.7,0-5.77,0.06-5.77,5.87
		c0,38.25,0,76.5-0.01,114.76c0,4.4-1.83,6.83-5.09,6.94c-3.28,0.11-5.29-2.35-5.3-6.63c-0.01-39.18-0.03-78.35,0.01-117.53
		c0.01-8.47,5.46-13.78,13.95-13.8c11.56-0.03,23.11-0.01,34.67-0.01c2.86,0,5.72,0,8.77,0c0.07-1.48,0.17-2.6,0.17-3.73
		c0.01-40.45,0.01-80.9,0-121.34c0-6.85-2.59-9.44-9.39-9.44c-53.51-0.01-107.01-0.01-160.52,0c-7.04,0-9.51,2.52-9.51,9.66
		c0,98,0,196,0,294c0,1.22,0,2.44,0,3.83C-1789.81-430.45-1749.53-430.45-1708.69-430.45z M-1687.44-403.72
		c52.12,0,104.24,0,156.36,0c1.39,0,2.79,0.08,4.15-0.13c4.15-0.64,7.09-4.19,6.96-8.23c-0.13-4.11-3.2-7.32-7.45-7.7
		c-1.26-0.11-2.54-0.09-3.81-0.09c-103.89,0-207.78,0-311.68,0c-1.39,0-2.78-0.02-4.15,0.12c-3.77,0.41-6.63,3.26-7.09,6.95
		c-0.45,3.62,1.68,7.28,5.26,8.41c1.71,0.54,3.63,0.64,5.45,0.64C-1791.44-403.71-1739.44-403.72-1687.44-403.72z"/>
	
		<linearGradient id="SVGID_00000008130735398961495730000012919209562091764881_" gradientUnits="userSpaceOnUse" x1="-1619.2156" y1="-680.5138" x2="-1532.2214" y2="-680.5138">
		<stop  offset="0" style="stop-color:#1B5785"/>
		<stop  offset="0.2118" style="stop-color:#1F5E8F"/>
		<stop  offset="0.5798" style="stop-color:#3171A5"/>
		<stop  offset="1" style="stop-color:#448ECC"/>
	</linearGradient>
	<path style="fill:url(#SVGID_00000008130735398961495730000012919209562091764881_);" d="M-1574.58-735.29
		c18.5,0.17,34.79,11.51,41.12,28.65c1.49,4.04,0.59,7.03-2.47,8.15c-3.14,1.15-5.61-0.38-7.26-4.48
		c-5.9-14.66-18.83-22.81-34.63-21.81c-13.89,0.87-26.3,11.39-29.8,25.53c-2.79,11.26-0.04,21.76,5.12,31.74
		c6.22,12.02,15.33,21.6,26,29.74c0.73,0.56,2.69,0.51,3.42-0.08c13.95-11.13,25.61-23.97,30.58-41.71c1.03-3.66,3.6-5.17,6.71-4.29
		c2.94,0.83,4.23,3.6,3.23,7.33c-2.97,11.14-8.36,21.11-16.07,29.53c-6.13,6.7-13.02,12.73-19.87,18.72
		c-3.66,3.2-8.19,3.32-11.87,0.61c-15.93-11.72-29.05-25.84-35.51-44.92c-6.54-19.32-3.9-36.99,11.61-51.4
		C-1595.97-731.69-1585.92-735.33-1574.58-735.29z"/>
	
		<linearGradient id="SVGID_00000132784534687261957800000017827459378945528457_" gradientUnits="userSpaceOnUse" x1="-1599.4856" y1="-691.1221" x2="-1550.3335" y2="-691.1221">
		<stop  offset="0" style="stop-color:#1B5785"/>
		<stop  offset="0.2118" style="stop-color:#1F5E8F"/>
		<stop  offset="0.5798" style="stop-color:#3171A5"/>
		<stop  offset="1" style="stop-color:#448ECC"/>
	</linearGradient>
	<path style="fill:url(#SVGID_00000132784534687261957800000017827459378945528457_);" d="M-1550.33-691.02
		c-0.04,13.68-11.07,24.59-24.78,24.5c-13.39-0.09-24.45-11.28-24.38-24.66c0.07-13.55,11.35-24.66,24.89-24.53
		C-1561.12-715.59-1550.3-704.57-1550.33-691.02z M-1560.73-691.16c-0.02-7.79-6.26-14.09-14.01-14.15
		c-7.81-0.06-14.38,6.47-14.33,14.27c0.04,7.7,6.4,14.07,14.11,14.11C-1567.03-676.88-1560.71-683.2-1560.73-691.16z"/>
	
		<linearGradient id="SVGID_00000116916530606756094690000003675064262951207849_" gradientUnits="userSpaceOnUse" x1="-1761.9702" y1="-500.8378" x2="-1719.7406" y2="-500.8378">
		<stop  offset="0" style="stop-color:#1B5785"/>
		<stop  offset="0.2118" style="stop-color:#1F5E8F"/>
		<stop  offset="0.5798" style="stop-color:#3171A5"/>
		<stop  offset="1" style="stop-color:#448ECC"/>
	</linearGradient>
	<path style="fill:url(#SVGID_00000116916530606756094690000003675064262951207849_);" d="M-1740.93-521.76
		c3.46,0,6.93-0.06,10.39,0.01c6.24,0.13,10.49,4.12,10.66,10.36c0.19,7.04,0.2,14.08,0,21.12c-0.17,6.22-4.5,10.28-10.69,10.33
		c-6.92,0.06-13.85,0.07-20.77-0.01c-5.95-0.07-10.33-4.22-10.48-10.19c-0.18-7.15-0.19-14.31,0-21.46
		c0.16-5.99,4.46-10,10.51-10.14C-1747.86-521.82-1744.4-521.76-1740.93-521.76z M-1730.43-511.16c-7.15,0-13.91,0-20.77,0
		c0,7.02,0,13.84,0,20.66c7.05,0,13.81,0,20.77,0C-1730.43-497.42-1730.43-504.15-1730.43-511.16z"/>
	
		<linearGradient id="SVGID_00000049183028194564659500000009303092955240857511_" gradientUnits="userSpaceOnUse" x1="-1761.9503" y1="-630.7504" x2="-1719.7377" y2="-630.7504">
		<stop  offset="0" style="stop-color:#1B5785"/>
		<stop  offset="0.2118" style="stop-color:#1F5E8F"/>
		<stop  offset="0.5798" style="stop-color:#3171A5"/>
		<stop  offset="1" style="stop-color:#448ECC"/>
	</linearGradient>
	<path style="fill:url(#SVGID_00000049183028194564659500000009303092955240857511_);" d="M-1741.2-609.7
		c-3.35,0-6.7,0.08-10.04-0.02c-6.14-0.18-10.47-4.39-10.6-10.5c-0.15-6.92-0.13-13.85-0.01-20.78c0.1-6.08,4.06-10.41,10.08-10.63
		c7.26-0.27,14.55-0.26,21.81,0c5.91,0.21,9.91,4.35,10.07,10.27c0.2,7.15,0.22,14.32-0.01,21.47c-0.2,5.98-4.55,10.01-10.56,10.18
		C-1734.04-609.62-1737.62-609.7-1741.2-609.7z M-1751.23-641.09c0,7.09,0,13.94,0,20.71c7.1,0,13.94,0,20.78,0
		c0-7.04,0-13.78,0-20.71C-1737.51-641.09-1744.35-641.09-1751.23-641.09z"/>
	
		<linearGradient id="SVGID_00000031184850757605636060000012738493956714939805_" gradientUnits="userSpaceOnUse" x1="-1814.8823" y1="-630.7289" x2="-1772.9731" y2="-630.7289">
		<stop  offset="0" style="stop-color:#1B5785"/>
		<stop  offset="0.2118" style="stop-color:#1F5E8F"/>
		<stop  offset="0.5798" style="stop-color:#3171A5"/>
		<stop  offset="1" style="stop-color:#448ECC"/>
	</linearGradient>
	<path style="fill:url(#SVGID_00000031184850757605636060000012738493956714939805_);" d="M-1773-630.77
		c0,3.58,0.07,7.16-0.02,10.73c-0.15,5.8-4.22,10.12-10.02,10.27c-7.27,0.19-14.54,0.2-21.81,0c-5.8-0.16-9.85-4.46-9.95-10.32
		c-0.12-7.04-0.11-14.08-0.01-21.12c0.08-5.93,3.9-10.18,9.84-10.41c7.37-0.29,14.78-0.3,22.15,0c5.91,0.24,9.68,4.55,9.81,10.46
		C-1772.94-637.69-1773-634.23-1773-630.77z M-1804.14-641.18c0,7.23,0,14.07,0,20.84c7.04,0,13.79,0,20.45,0
		c0-7.08,0-13.92,0-20.84C-1790.63-641.18-1797.28-641.18-1804.14-641.18z"/>
	
		<linearGradient id="SVGID_00000052090250643482125820000017023717169020813716_" gradientUnits="userSpaceOnUse" x1="-1708.767" y1="-630.7277" x2="-1666.8611" y2="-630.7277">
		<stop  offset="0" style="stop-color:#1B5785"/>
		<stop  offset="0.2118" style="stop-color:#1F5E8F"/>
		<stop  offset="0.5798" style="stop-color:#3171A5"/>
		<stop  offset="1" style="stop-color:#448ECC"/>
	</linearGradient>
	<path style="fill:url(#SVGID_00000052090250643482125820000017023717169020813716_);" d="M-1666.89-630.77
		c0,3.58,0.07,7.16-0.02,10.73c-0.15,5.81-4.2,10.12-10.01,10.27c-7.26,0.19-14.54,0.2-21.81,0c-5.79-0.16-9.86-4.48-9.95-10.32
		c-0.11-7.04-0.1-14.08-0.01-21.12c0.08-5.92,3.9-10.18,9.84-10.41c7.37-0.3,14.78-0.3,22.15,0.01c5.92,0.25,9.69,4.54,9.81,10.45
		C-1666.83-637.69-1666.89-634.23-1666.89-630.77z M-1677.56-620.22c0-7.19,0-14.03,0-20.86c-7.02,0-13.76,0-20.47,0
		c0,7.11,0,13.95,0,20.86C-1691.09-620.22-1684.43-620.22-1677.56-620.22z"/>
	
		<linearGradient id="SVGID_00000085968609355955277060000011466316465937323706_" gradientUnits="userSpaceOnUse" x1="-1761.9427" y1="-695.6392" x2="-1719.7395" y2="-695.6392">
		<stop  offset="0" style="stop-color:#1B5785"/>
		<stop  offset="0.2118" style="stop-color:#1F5E8F"/>
		<stop  offset="0.5798" style="stop-color:#3171A5"/>
		<stop  offset="1" style="stop-color:#448ECC"/>
	</linearGradient>
	<path style="fill:url(#SVGID_00000085968609355955277060000011466316465937323706_);" d="M-1740.68-716.56
		c3.35,0,6.69-0.04,10.04,0.01c6.24,0.09,10.56,4.04,10.74,10.27c0.21,7.03,0.19,14.08,0.01,21.12
		c-0.16,6.37-4.49,10.36-10.95,10.41c-6.69,0.06-13.39,0.06-20.08,0c-6.6-0.06-10.85-4.22-10.95-10.78
		c-0.1-6.81-0.11-13.62,0.01-20.43c0.11-6.35,4.43-10.5,10.79-10.59C-1747.6-716.6-1744.14-716.56-1740.68-716.56z M-1751.22-705.98
		c0,6.84,0,13.66,0,20.61c6.97,0,13.81,0,20.77,0c0-6.97,0-13.7,0-20.61C-1737.42-705.98-1744.18-705.98-1751.22-705.98z"/>
	
		<linearGradient id="SVGID_00000146469247487871475040000002685658031489061030_" gradientUnits="userSpaceOnUse" x1="-1761.9509" y1="-565.7374" x2="-1719.7406" y2="-565.7374">
		<stop  offset="0" style="stop-color:#1B5785"/>
		<stop  offset="0.2118" style="stop-color:#1F5E8F"/>
		<stop  offset="0.5798" style="stop-color:#3171A5"/>
		<stop  offset="1" style="stop-color:#448ECC"/>
	</linearGradient>
	<path style="fill:url(#SVGID_00000146469247487871475040000002685658031489061030_);" d="M-1740.62-586.76
		c3.23,0,6.46-0.03,9.7,0.01c6.41,0.07,10.86,4.08,11.04,10.39c0.2,7.04,0.19,14.09,0,21.12c-0.16,6.1-4.21,10.2-10.32,10.38
		c-7.15,0.21-14.32,0.22-21.47-0.01c-6.04-0.2-10.07-4.46-10.19-10.51c-0.13-6.92-0.13-13.85,0-20.78
		c0.12-6.3,4.52-10.5,10.85-10.58C-1747.54-586.8-1744.08-586.76-1740.62-586.76z M-1730.43-555.36c0-7.14,0-13.88,0-20.8
		c-7.03,0-13.87,0-20.81,0c0,7.01,0,13.83,0,20.8C-1744.24-555.36-1737.49-555.36-1730.43-555.36z"/>
	
		<linearGradient id="SVGID_00000033334965126053879130000000829882041145372844_" gradientUnits="userSpaceOnUse" x1="-1814.8877" y1="-565.7719" x2="-1772.9751" y2="-565.7719">
		<stop  offset="0" style="stop-color:#1B5785"/>
		<stop  offset="0.2118" style="stop-color:#1F5E8F"/>
		<stop  offset="0.5798" style="stop-color:#3171A5"/>
		<stop  offset="1" style="stop-color:#448ECC"/>
	</linearGradient>
	<path style="fill:url(#SVGID_00000033334965126053879130000000829882041145372844_);" d="M-1773-565.78
		c0,3.58,0.08,7.16-0.02,10.73c-0.15,5.55-3.85,9.84-9.4,10.07c-7.71,0.32-15.46,0.32-23.18-0.03c-5.38-0.25-9.09-4.5-9.18-9.9
		c-0.13-7.27-0.14-14.54,0-21.81c0.12-5.76,4.42-9.93,10.23-10.02c7.04-0.11,14.08-0.1,21.12-0.01c6.12,0.08,10.3,4.38,10.42,10.57
		C-1772.94-572.7-1773-569.24-1773-565.78z M-1783.5-576.08c-7.12,0-13.94,0-20.73,0c0,7.02,0,13.78,0,20.59c7.02,0,13.83,0,20.73,0
		C-1783.5-562.47-1783.5-569.13-1783.5-576.08z"/>
	
		<linearGradient id="SVGID_00000060020988593608302780000013779664803539737266_" gradientUnits="userSpaceOnUse" x1="-1814.8925" y1="-695.6593" x2="-1772.9446" y2="-695.6593">
		<stop  offset="0" style="stop-color:#1B5785"/>
		<stop  offset="0.2118" style="stop-color:#1F5E8F"/>
		<stop  offset="0.5798" style="stop-color:#3171A5"/>
		<stop  offset="1" style="stop-color:#448ECC"/>
	</linearGradient>
	<path style="fill:url(#SVGID_00000060020988593608302780000013779664803539737266_);" d="M-1793.8-674.74
		c-3.58,0-7.16,0.07-10.73-0.02c-5.89-0.14-10.13-4.16-10.25-9.96c-0.15-7.27-0.15-14.54,0-21.81c0.12-5.83,4.34-9.92,10.2-10
		c7.15-0.1,14.31-0.11,21.46,0.01c5.81,0.09,10,4.29,10.09,10.12c0.12,7.15,0.12,14.31,0,21.46c-0.1,5.98-4.32,10.06-10.39,10.19
		C-1786.88-674.68-1790.34-674.74-1793.8-674.74z M-1783.61-685.26c0-7.11,0-13.85,0-20.72c-6.96,0-13.7,0-20.55,0
		c0,7,0,13.82,0,20.72C-1797.21-685.26-1790.55-685.26-1783.61-685.26z"/>
	
		<linearGradient id="SVGID_00000160910380949145087540000005666505641524413339_" gradientUnits="userSpaceOnUse" x1="-1708.7795" y1="-695.6306" x2="-1666.8276" y2="-695.6306">
		<stop  offset="0" style="stop-color:#1B5785"/>
		<stop  offset="0.2118" style="stop-color:#1F5E8F"/>
		<stop  offset="0.5798" style="stop-color:#3171A5"/>
		<stop  offset="1" style="stop-color:#448ECC"/>
	</linearGradient>
	<path style="fill:url(#SVGID_00000160910380949145087540000005666505641524413339_);" d="M-1687.83-716.55
		c3.58,0,7.16-0.07,10.73,0.02c5.84,0.14,10.07,4.24,10.18,10.04c0.13,7.27,0.13,14.54-0.01,21.81c-0.11,5.63-4.29,9.8-9.93,9.91
		c-7.27,0.14-14.54,0.13-21.81,0c-5.67-0.1-9.87-4.21-9.99-9.85c-0.16-7.38-0.16-14.77,0.01-22.15c0.13-5.61,4.4-9.61,10.09-9.75
		C-1694.99-716.62-1691.41-716.55-1687.83-716.55z M-1677.47-705.92c-7.1,0-13.85,0-20.63,0c0,6.98,0,13.72,0,20.6
		c6.96,0,13.7,0,20.63,0C-1677.47-692.24-1677.47-698.98-1677.47-705.92z"/>
	
		<linearGradient id="SVGID_00000001642737703719916360000016477825373958947971_" gradientUnits="userSpaceOnUse" x1="-1814.877" y1="-500.8411" x2="-1772.953" y2="-500.8411">
		<stop  offset="0" style="stop-color:#1B5785"/>
		<stop  offset="0.2118" style="stop-color:#1F5E8F"/>
		<stop  offset="0.5798" style="stop-color:#3171A5"/>
		<stop  offset="1" style="stop-color:#448ECC"/>
	</linearGradient>
	<path style="fill:url(#SVGID_00000001642737703719916360000016477825373958947971_);" d="M-1793.54-521.76
		c3.35,0,6.69-0.07,10.04,0.02c6.29,0.15,10.4,4.22,10.48,10.46c0.09,6.92,0.08,13.85,0,20.77c-0.08,6.39-4.28,10.52-10.72,10.58
		c-6.81,0.06-13.62,0.06-20.42,0c-6.42-0.06-10.57-4.18-10.66-10.64c-0.09-6.81-0.08-13.62,0-20.42c0.08-6.66,4.16-10.65,10.9-10.75
		C-1800.46-521.81-1797-521.76-1793.54-521.76z M-1783.53-511.13c-7.11,0-13.85,0-20.71,0c0,6.97,0,13.71,0,20.53
		c7.03,0,13.86,0,20.71,0C-1783.53-497.54-1783.53-504.2-1783.53-511.13z"/>
	
		<linearGradient id="SVGID_00000076571535516579715220000015620337248394486448_" gradientUnits="userSpaceOnUse" x1="-1593.916" y1="-472.0075" x2="-1555.8945" y2="-472.0075">
		<stop  offset="0" style="stop-color:#1B5785"/>
		<stop  offset="0.2118" style="stop-color:#1F5E8F"/>
		<stop  offset="0.5798" style="stop-color:#3171A5"/>
		<stop  offset="1" style="stop-color:#448ECC"/>
	</linearGradient>
	<path style="fill:url(#SVGID_00000076571535516579715220000015620337248394486448_);" d="M-1555.92-472.15
		c0,3.23,0.06,6.47-0.02,9.7c-0.13,5.27-3.22,8.83-8.49,9.04c-6.91,0.29-13.85,0.27-20.76,0.02c-5.06-0.19-8.31-3.32-8.52-8.28
		c-0.28-6.91-0.28-13.85,0.01-20.76c0.2-4.83,3.41-7.98,8.25-8.16c7.03-0.27,14.08-0.29,21.11-0.02c5.21,0.2,8.29,3.81,8.41,9.12
		C-1555.86-478.39-1555.92-475.27-1555.92-472.15z M-1566.48-480.09c-5.79,0-11.25,0-16.78,0c0,5.53,0,10.77,0,16.23
		c5.68,0,11.15,0,16.78,0C-1566.48-469.31-1566.48-474.58-1566.48-480.09z"/>
	
		<linearGradient id="SVGID_00000065773590227537948940000009574666805671603119_" gradientUnits="userSpaceOnUse" x1="-1686.2666" y1="-472.0426" x2="-1648.1776" y2="-472.0426">
		<stop  offset="0" style="stop-color:#1B5785"/>
		<stop  offset="0.2118" style="stop-color:#1F5E8F"/>
		<stop  offset="0.5798" style="stop-color:#3171A5"/>
		<stop  offset="1" style="stop-color:#448ECC"/>
	</linearGradient>
	<path style="fill:url(#SVGID_00000065773590227537948940000009574666805671603119_);" d="M-1648.22-472.04
		c0,3.35,0.1,6.7-0.02,10.04c-0.17,4.7-3.22,8.28-7.92,8.49c-7.25,0.32-14.54,0.32-21.79,0.03c-4.77-0.19-7.91-3.46-8.11-8.32
		c-0.27-6.8-0.28-13.62-0.01-20.42c0.2-4.96,3.48-8.22,8.43-8.41c6.91-0.26,13.85-0.27,20.77-0.03c5.4,0.19,8.55,3.8,8.66,9.27
		c0.06,3.12,0.01,6.23,0.01,9.35C-1648.2-472.04-1648.21-472.04-1648.22-472.04z M-1675.68-463.94c5.68,0,11.25,0,16.95,0
		c0-5.43,0-10.71,0-16.13c-5.7,0-11.27,0-16.95,0C-1675.68-474.7-1675.68-469.64-1675.68-463.94z"/>
	
		<linearGradient id="SVGID_00000125604941748748641370000015049097956501452693_" gradientUnits="userSpaceOnUse" x1="-1686.2854" y1="-557.0048" x2="-1648.1782" y2="-557.0048">
		<stop  offset="0" style="stop-color:#1B5785"/>
		<stop  offset="0.2118" style="stop-color:#1F5E8F"/>
		<stop  offset="0.5798" style="stop-color:#3171A5"/>
		<stop  offset="1" style="stop-color:#448ECC"/>
	</linearGradient>
	<path style="fill:url(#SVGID_00000125604941748748641370000015049097956501452693_);" d="M-1648.2-556.88
		c0,3.12,0.06,6.24-0.01,9.35c-0.13,5.49-3.64,9.09-9.15,9.2c-6.46,0.13-12.93,0.11-19.4,0.01c-5.42-0.08-9.1-3.36-9.32-8.7
		c-0.27-6.69-0.27-13.4-0.01-20.08c0.21-5.36,3.9-8.57,9.33-8.62c6.47-0.06,12.93-0.08,19.4,0.01c5.53,0.07,9.02,3.59,9.15,9.14
		C-1648.14-563.35-1648.2-560.11-1648.2-556.88z M-1675.61-548.95c5.85,0,11.34,0,16.82,0c0-5.53,0-10.8,0-16.19
		c-5.67,0-11.15,0-16.82,0C-1675.61-559.69-1675.61-554.43-1675.61-548.95z"/>
	
		<linearGradient id="SVGID_00000168829722431335739880000008405331875020694144_" gradientUnits="userSpaceOnUse" x1="-1639.9788" y1="-472.0064" x2="-1601.8777" y2="-472.0064">
		<stop  offset="0" style="stop-color:#1B5785"/>
		<stop  offset="0.2118" style="stop-color:#1F5E8F"/>
		<stop  offset="0.5798" style="stop-color:#3171A5"/>
		<stop  offset="1" style="stop-color:#448ECC"/>
	</linearGradient>
	<path style="fill:url(#SVGID_00000168829722431335739880000008405331875020694144_);" d="M-1639.96-472.1
		c0-3.12-0.05-6.23,0.01-9.35c0.11-5.3,3.19-8.96,8.38-9.16c7.03-0.28,14.08-0.26,21.11,0c4.92,0.18,8.17,3.48,8.37,8.46
		c0.27,6.68,0.27,13.39,0.03,20.08c-0.18,5.16-3.42,8.46-8.56,8.67c-6.91,0.27-13.85,0.28-20.76,0c-5.41-0.22-8.48-3.84-8.57-9.34
		C-1640-465.86-1639.96-468.98-1639.96-472.1z M-1612.6-463.86c0-5.62,0-10.88,0-16.29c-5.73,0-11.21,0-16.82,0
		c0,5.5,0,10.78,0,16.29C-1623.83-463.86-1618.35-463.86-1612.6-463.86z"/>
	
		<linearGradient id="SVGID_00000013902200362463067420000000372605019420055692_" gradientUnits="userSpaceOnUse" x1="-1639.9935" y1="-556.9946" x2="-1601.8696" y2="-556.9946">
		<stop  offset="0" style="stop-color:#1B5785"/>
		<stop  offset="0.2118" style="stop-color:#1F5E8F"/>
		<stop  offset="0.5798" style="stop-color:#3171A5"/>
		<stop  offset="1" style="stop-color:#448ECC"/>
	</linearGradient>
	<path style="fill:url(#SVGID_00000013902200362463067420000000372605019420055692_);" d="M-1620.82-575.74
		c3.12,0,6.24-0.04,9.35,0.01c5.59,0.09,9.24,3.34,9.42,8.9c0.22,6.57,0.24,13.17-0.03,19.74c-0.21,5.35-3.88,8.67-9.26,8.76
		c-6.46,0.11-12.93,0.12-19.4,0c-5.67-0.1-9.16-3.74-9.22-9.48c-0.07-6.12-0.06-12.24,0-18.36c0.06-6.12,3.56-9.51,9.78-9.57
		C-1627.05-575.76-1623.93-575.74-1620.82-575.74z M-1629.45-548.94c5.84,0,11.31,0,16.89,0c0-5.51,0-10.77,0-16.1
		c-5.77,0-11.33,0-16.89,0C-1629.45-559.56-1629.45-554.37-1629.45-548.94z"/>
	
		<linearGradient id="SVGID_00000042009460093884511430000014336839121386999731_" gradientUnits="userSpaceOnUse" x1="-1686.2781" y1="-514.6125" x2="-1648.1554" y2="-514.6125">
		<stop  offset="0" style="stop-color:#1B5785"/>
		<stop  offset="0.2118" style="stop-color:#1F5E8F"/>
		<stop  offset="0.5798" style="stop-color:#3171A5"/>
		<stop  offset="1" style="stop-color:#448ECC"/>
	</linearGradient>
	<path style="fill:url(#SVGID_00000042009460093884511430000014336839121386999731_);" d="M-1667.32-495.85
		c-3.23,0-6.47,0.07-9.7-0.02c-5.22-0.14-8.85-3.32-9.06-8.54c-0.27-6.8-0.27-13.63,0.02-20.43c0.22-5,3.82-8.29,8.85-8.42
		c6.69-0.17,13.4-0.18,20.09,0c5.34,0.15,8.8,3.79,8.88,9.1c0.1,6.35,0.09,12.7,0.01,19.05c-0.08,5.73-3.58,9.13-9.4,9.25
		C-1660.85-495.8-1664.09-495.85-1667.32-495.85z M-1658.79-506.42c0-5.5,0-10.83,0-16.33c-5.65,0-11.11,0-16.79,0
		c0,5.51,0,10.84,0,16.33C-1669.9-506.42-1664.44-506.42-1658.79-506.42z"/>
	
		<linearGradient id="SVGID_00000020362695219439962250000010360846099185843605_" gradientUnits="userSpaceOnUse" x1="-1640.0045" y1="-514.6124" x2="-1601.8713" y2="-514.6124">
		<stop  offset="0" style="stop-color:#1B5785"/>
		<stop  offset="0.2118" style="stop-color:#1F5E8F"/>
		<stop  offset="0.5798" style="stop-color:#3171A5"/>
		<stop  offset="1" style="stop-color:#448ECC"/>
	</linearGradient>
	<path style="fill:url(#SVGID_00000020362695219439962250000010360846099185843605_);" d="M-1621.13-495.87
		c-3.35,0-6.7,0.09-10.04-0.02c-5.13-0.18-8.65-3.68-8.75-8.83c-0.12-6.46-0.1-12.93-0.01-19.4c0.07-5.33,3.51-8.99,8.84-9.14
		c6.69-0.19,13.4-0.18,20.09-0.01c5.19,0.13,8.74,3.51,8.94,8.72c0.25,6.69,0.27,13.4-0.01,20.08c-0.23,5.38-3.86,8.48-9.36,8.6
		c-3.23,0.07-6.47,0.01-9.7,0.01C-1621.13-495.86-1621.13-495.86-1621.13-495.87z M-1629.38-522.74c0,5.62,0,10.88,0,16.2
		c5.72,0,11.25,0,16.82,0c0-5.54,0-10.78,0-16.2C-1618.23-522.74-1623.69-522.74-1629.38-522.74z"/>
	
		<linearGradient id="SVGID_00000149367280794542540440000017605363761059917455_" gradientUnits="userSpaceOnUse" x1="-1593.9214" y1="-557.0015" x2="-1555.8967" y2="-557.0015">
		<stop  offset="0" style="stop-color:#1B5785"/>
		<stop  offset="0.2118" style="stop-color:#1F5E8F"/>
		<stop  offset="0.5798" style="stop-color:#3171A5"/>
		<stop  offset="1" style="stop-color:#448ECC"/>
	</linearGradient>
	<path style="fill:url(#SVGID_00000149367280794542540440000017605363761059917455_);" d="M-1555.92-557.16
		c0,3.23,0.07,6.47-0.02,9.7c-0.14,5.35-3.55,8.99-8.85,9.12c-6.69,0.17-13.39,0.15-20.09,0c-5.04-0.11-8.63-3.38-8.84-8.39
		c-0.28-6.91-0.29-13.85,0.02-20.76c0.22-5.03,3.87-8.15,8.95-8.21c6.58-0.09,13.16-0.09,19.74,0c5.51,0.07,8.94,3.61,9.07,9.2
		C-1555.86-563.4-1555.92-560.28-1555.92-557.16z M-1583.25-565.21c0,5.68,0,10.93,0,16.31c5.69,0,11.16,0,16.68,0
		c0-5.55,0-10.89,0-16.31C-1572.22-565.21-1577.62-565.21-1583.25-565.21z"/>
	
		<linearGradient id="SVGID_00000047028316553890050630000003082162703369873040_" gradientUnits="userSpaceOnUse" x1="-1593.8843" y1="-514.6138" x2="-1555.8723" y2="-514.6138">
		<stop  offset="0" style="stop-color:#1B5785"/>
		<stop  offset="0.2118" style="stop-color:#1F5E8F"/>
		<stop  offset="0.5798" style="stop-color:#3171A5"/>
		<stop  offset="1" style="stop-color:#448ECC"/>
	</linearGradient>
	<path style="fill:url(#SVGID_00000047028316553890050630000003082162703369873040_);" d="M-1575.15-495.86
		c-3.23,0-6.47,0.08-9.7-0.02c-4.94-0.15-8.58-3.14-8.8-7.98c-0.32-7.14-0.31-14.31,0.01-21.45c0.21-4.63,3.77-7.8,8.53-7.93
		c6.81-0.2,13.63-0.21,20.43,0c5.32,0.16,8.66,3.82,8.74,9.22c0.09,6.35,0.1,12.7,0,19.05c-0.09,5.56-3.57,8.97-9.17,9.11
		C-1568.46-495.79-1571.81-495.86-1575.15-495.86z M-1566.51-506.39c0-5.66,0-10.92,0-16.32c-5.66,0-11.12,0-16.69,0
		c0,5.56,0,10.9,0,16.32C-1577.53-506.39-1572.14-506.39-1566.51-506.39z"/>
</g>
<g>
	
		<linearGradient id="SVGID_00000000199060816999104490000005406414749396875931_" gradientUnits="userSpaceOnUse" x1="-1970.9116" y1="849.2392" x2="-1627.8083" y2="849.2392">
		<stop  offset="0" style="stop-color:#1B5785"/>
		<stop  offset="0.2118" style="stop-color:#1F5E8F"/>
		<stop  offset="0.5798" style="stop-color:#3171A5"/>
		<stop  offset="1" style="stop-color:#448ECC"/>
	</linearGradient>
	<path style="fill:url(#SVGID_00000000199060816999104490000005406414749396875931_);" d="M-1798.93,709.84
		c39.57,0,79.14-0.01,118.71,0c29.91,0.01,52.37,22.43,52.39,52.37c0.04,44.25,0.03,88.49,0,132.74
		c-0.02,29.98-22.29,52.35-52.35,52.39c-65.26,0.08-130.52,0.07-195.78-0.06c-5.12-0.01-9.22,1.41-13.23,4.5
		c-13.37,10.33-26.96,20.36-40.38,30.62c-8.49,6.49-17.65,8.33-27.36,3.52c-9.84-4.88-13.98-13.31-13.97-24.21
		c0.07-66.51,0.02-133.01,0.05-199.52c0.01-29.92,22.49-52.34,52.41-52.35C-1878.62,709.83-1838.77,709.84-1798.93,709.84z
		 M-1944.49,960.4c1.76-1.25,2.87-1.99,3.94-2.8c12.28-9.26,24.64-18.43,36.81-27.83c7.83-6.05,16.49-8.85,26.37-8.83
		c65.4,0.09,130.81,0.06,196.21,0.04c16.76,0,26.93-10.22,26.94-26.98c0.01-43.56,0.01-87.13,0-130.69
		c0-16.96-10.2-27.07-27.26-27.07c-78.46,0-156.92,0-235.37,0c-17.63,0-27.63,9.96-27.63,27.52c0,63.9,0,127.8,0,191.7
		C-1944.49,956.83-1944.49,958.2-1944.49,960.4z"/>
	
		<linearGradient id="SVGID_00000054251555288243356430000018241905129813817489_" gradientUnits="userSpaceOnUse" x1="-1904.9301" y1="756.0474" x2="-1575.0387" y2="756.0474">
		<stop  offset="0" style="stop-color:#1B5785"/>
		<stop  offset="0.2118" style="stop-color:#1F5E8F"/>
		<stop  offset="0.5798" style="stop-color:#3171A5"/>
		<stop  offset="1" style="stop-color:#448ECC"/>
	</linearGradient>
	<path style="fill:url(#SVGID_00000054251555288243356430000018241905129813817489_);" d="M-1757.29,657.06
		c43.15,0,86.31,0,129.46,0c30.46,0,52.76,22.32,52.78,52.84c0.02,43.57,0.02,87.14-0.01,130.72c-0.01,10.38-9.01,17.05-17.97,13.45
		c-5.25-2.11-8.37-6.82-8.39-12.98c-0.04-13.2-0.01-26.39-0.01-39.59c0-30.38,0.01-60.75,0-91.13c-0.01-16.73-10.24-26.92-27-26.93
		c-86.99,0-173.99-0.03-260.98,0.05c-6.35,0.01-11.4-1.89-14.23-7.78c-3.91-8.14,1.67-17.7,10.73-18.6
		c1.36-0.14,2.75-0.06,4.12-0.06C-1844.98,657.06-1801.13,657.06-1757.29,657.06z"/>
	
		<linearGradient id="SVGID_00000066476485408889266860000008281148337859742109_" gradientUnits="userSpaceOnUse" x1="-1760.5607" y1="829.7874" x2="-1734.1997" y2="829.7874">
		<stop  offset="0" style="stop-color:#1B5785"/>
		<stop  offset="0.2118" style="stop-color:#1F5E8F"/>
		<stop  offset="0.5798" style="stop-color:#3171A5"/>
		<stop  offset="1" style="stop-color:#448ECC"/>
	</linearGradient>
	<path style="fill:url(#SVGID_00000066476485408889266860000008281148337859742109_);" d="M-1734.2,829.81
		c-0.01,7.22-5.84,13.06-13.09,13.11c-7.19,0.05-13.18-5.79-13.27-12.95c-0.1-7.38,5.9-13.39,13.31-13.32
		C-1740.04,816.72-1734.19,822.62-1734.2,829.81z"/>
	
		<linearGradient id="SVGID_00000011024879792697023570000017400059588684108461_" gradientUnits="userSpaceOnUse" x1="-1864.4984" y1="829.788" x2="-1838.1394" y2="829.788">
		<stop  offset="0" style="stop-color:#1B5785"/>
		<stop  offset="0.2118" style="stop-color:#1F5E8F"/>
		<stop  offset="0.5798" style="stop-color:#3171A5"/>
		<stop  offset="1" style="stop-color:#448ECC"/>
	</linearGradient>
	<path style="fill:url(#SVGID_00000011024879792697023570000017400059588684108461_);" d="M-1864.5,829.48
		c0.15-7.23,6.1-12.94,13.36-12.82c7.18,0.11,13.05,6.1,13,13.24c-0.06,7.34-6.23,13.25-13.61,13.02
		C-1858.96,842.7-1864.65,836.7-1864.5,829.48z"/>
	
		<linearGradient id="SVGID_00000007391764373186048860000011536412450492375683_" gradientUnits="userSpaceOnUse" x1="-1811.7225" y1="829.7853" x2="-1785.3607" y2="829.7853">
		<stop  offset="0" style="stop-color:#1B5785"/>
		<stop  offset="0.2118" style="stop-color:#1F5E8F"/>
		<stop  offset="0.5798" style="stop-color:#3171A5"/>
		<stop  offset="1" style="stop-color:#448ECC"/>
	</linearGradient>
	<path style="fill:url(#SVGID_00000007391764373186048860000011536412450492375683_);" d="M-1799.05,842.91
		c-7.21-0.26-12.86-6.28-12.67-13.51c0.19-7.21,6.19-12.9,13.44-12.74c7.34,0.16,13.24,6.44,12.91,13.73
		C-1785.71,837.56-1791.83,843.17-1799.05,842.91z"/>
</g>
<linearGradient id="SVGID_00000056394065242783417600000012015549502854690485_" gradientUnits="userSpaceOnUse" x1="-1651.6683" y1="35.9012" x2="-1367.4033" y2="35.9012">
	<stop  offset="0" style="stop-color:#1B5785"/>
	<stop  offset="0.2118" style="stop-color:#1F5E8F"/>
	<stop  offset="0.5798" style="stop-color:#3171A5"/>
	<stop  offset="1" style="stop-color:#448ECC"/>
</linearGradient>
<path style="fill:url(#SVGID_00000056394065242783417600000012015549502854690485_);" d="M-1389.61,178.02
	c-0.24-28.49-9.09-54-27.28-75.9c-20.2-24.32-46.02-39.14-77.58-42.94c-36.48-4.39-68.59,5.82-95.82,30.53
	c-22.34,20.27-34.98,45.65-38.47,75.58c-0.49,4.21-0.47,8.49-0.69,12.73c-7.4,0-14.81,0-22.21,0
	c2.27-65.63,35.54-109.35,94.85-134.79c-22.06-16.52-34.47-38.61-34.79-66.69c-0.26-22.91,7.99-42.78,24.3-58.87
	c33.87-33.42,86.18-30.7,117,1.43c34.05,35.5,30.19,94.09-12.51,124.53c1.19,0.48,2.14,0.86,3.09,1.24
	c43.33,17.26,72.26,48,86.39,92.5c3.06,9.63,4.78,19.56,5.45,29.66c0.06,0.89,0.32,1.78,0.48,2.66c0,2.78,0,5.55,0,8.33
	C-1374.81,178.02-1382.21,178.02-1389.61,178.02z M-1509.48-84.03c-32.89-0.05-59.83,26.78-60.01,59.76
	c-0.17,32.94,26.87,60.1,59.9,60.15c32.89,0.05,59.83-26.78,60.01-59.76C-1449.41-56.83-1476.45-83.98-1509.48-84.03z"/>
<g>
	
		<linearGradient id="SVGID_00000088121676030585959600000006007460719711871421_" gradientUnits="userSpaceOnUse" x1="3445.675" y1="1381.2894" x2="3639.354" y2="1381.2894">
		<stop  offset="0" style="stop-color:#1B5785"/>
		<stop  offset="0.2118" style="stop-color:#1F5E8F"/>
		<stop  offset="0.5798" style="stop-color:#3171A5"/>
		<stop  offset="1" style="stop-color:#448ECC"/>
	</linearGradient>
	<path style="fill:url(#SVGID_00000088121676030585959600000006007460719711871421_);" d="M3632.78,1349
		c8.77,12.77,8.77,51.77-0.01,64.59c6.47,6.73,6.36,15.42,6.18,24.2c-0.16,7.86,0.06,15.72-0.06,23.58
		c-0.21,13.81-10.39,24.26-24.13,24.29c-48.18,0.11-96.35,0.11-144.53,0c-13.72-0.03-23.92-10.53-24.09-24.33
		c-0.11-9.2,0.14-18.4-0.08-27.6c-0.18-7.42,0.96-14.32,6-19.94c-8.54-14.55-8.54-52.17,0.22-64.83c-6.53-6.7-6.38-15.4-6.2-24.17
		c0.16-7.69-0.02-15.39,0.05-23.08c0.13-14.41,10.3-24.81,24.62-24.83c47.84-0.08,95.68-0.08,143.53,0
		c14.33,0.02,24.5,10.38,24.64,24.81c0.09,9.03-0.15,18.07,0.07,27.1C3639.14,1336.22,3637.98,1343.12,3632.78,1349z
		 M3543.01,1292.92c-23.6,0-47.19-0.02-70.79,0.01c-7.22,0.01-10.01,2.81-10.04,10.02c-0.04,9.54-0.06,19.08,0.01,28.62
		c0.05,6.57,2.96,9.53,9.51,9.53c47.19,0.04,94.39,0.04,141.58,0c6.56,0,9.49-2.97,9.54-9.52c0.07-9.37,0.04-18.74,0.01-28.11
		c-0.02-7.87-2.67-10.53-10.54-10.54C3589.2,1292.91,3566.11,1292.92,3543.01,1292.92z M3542,1405.39c23.6,0,47.19,0.02,70.79-0.01
		c7.2-0.01,10-2.84,10.04-10.04c0.04-9.54,0.06-19.08-0.01-28.62c-0.05-6.55-2.97-9.51-9.54-9.51c-47.19-0.03-94.39-0.03-141.58,0
		c-6.57,0-9.47,2.95-9.52,9.52c-0.07,9.37-0.04,18.74-0.01,28.11c0.02,7.87,2.67,10.53,10.54,10.54
		C3495.81,1405.4,3518.91,1405.39,3542,1405.39z M3542,1469.65c23.6,0,47.19,0.02,70.79-0.01c7.2-0.01,10.01-2.84,10.04-10.04
		c0.04-9.54,0.06-19.08-0.01-28.62c-0.05-6.56-2.97-9.51-9.53-9.51c-47.19-0.03-94.39-0.03-141.58,0c-6.57,0-9.47,2.95-9.52,9.52
		c-0.07,9.37-0.04,18.74-0.01,28.11c0.02,7.87,2.67,10.53,10.54,10.54C3495.81,1469.67,3518.9,1469.65,3542,1469.65z"/>
	
		<linearGradient id="SVGID_00000015316032730975364400000004612550974624120210_" gradientUnits="userSpaceOnUse" x1="3293.4744" y1="1325.0242" x2="3686.0378" y2="1325.0242">
		<stop  offset="0" style="stop-color:#1B5785"/>
		<stop  offset="0.2118" style="stop-color:#1F5E8F"/>
		<stop  offset="0.5798" style="stop-color:#3171A5"/>
		<stop  offset="1" style="stop-color:#448ECC"/>
	</linearGradient>
	<path style="fill:url(#SVGID_00000015316032730975364400000004612550974624120210_);" d="M3342.7,1505.85
		c-4.38,2.64-8.76,5.28-13.15,7.92c-57.3-91.75-49.05-225.52,44.22-311.45c93.52-86.18,226.87-82.77,312.27-20.07
		c-2.89,4.07-5.78,8.14-8.94,12.6c-56.24-37.93-117.54-51.09-183.93-37.13c-45.73,9.61-84.67,31.98-117.66,65.09
		C3312.28,1286.26,3281.41,1402.66,3342.7,1505.85z"/>
	
		<linearGradient id="SVGID_00000134947527384851888650000015774587114600679848_" gradientUnits="userSpaceOnUse" x1="3401.6909" y1="1447.7323" x2="3791.4988" y2="1447.7323">
		<stop  offset="0" style="stop-color:#1B5785"/>
		<stop  offset="0.2118" style="stop-color:#1F5E8F"/>
		<stop  offset="0.5798" style="stop-color:#3171A5"/>
		<stop  offset="1" style="stop-color:#448ECC"/>
	</linearGradient>
	<path style="fill:url(#SVGID_00000134947527384851888650000015774587114600679848_);" d="M3758.02,1261.16
		c54.7,91.93,44.95,224.12-48.44,308.61c-94.68,85.66-226.06,79.28-307.89,20.38c2.8-4.1,5.61-8.2,8.66-12.65
		c57.62,37.58,119.85,49.9,186.87,34.12c46.73-11,86.11-34.95,118.4-70.47c62.27-68.49,82.46-177.28,28.96-272.14
		C3748.97,1266.44,3753.38,1263.87,3758.02,1261.16z"/>
	
		<linearGradient id="SVGID_00000155124126861180042140000015331178967164969600_" gradientUnits="userSpaceOnUse" x1="3320.9817" y1="1551.6864" x2="3417.1895" y2="1551.6864">
		<stop  offset="0" style="stop-color:#1B5785"/>
		<stop  offset="0.2118" style="stop-color:#1F5E8F"/>
		<stop  offset="0.5798" style="stop-color:#3171A5"/>
		<stop  offset="1" style="stop-color:#448ECC"/>
	</linearGradient>
	<path style="fill:url(#SVGID_00000155124126861180042140000015331178967164969600_);" d="M3368.95,1503.58
		c5.06,0.11,8.26,2.63,9.81,7.24c1.12,3.32,1.98,6.73,3.04,10.07c2.95,9.3,9.06,15.41,18.45,18.19c3.36,1,6.77,1.88,10.06,3.08
		c4.34,1.57,6.87,4.68,6.88,9.45c0.01,4.72-2.32,7.95-6.76,9.49c-3.31,1.15-6.72,2-10.07,3.05c-9.47,2.95-15.81,9.07-18.67,18.65
		c-0.96,3.2-1.89,6.41-2.88,9.59c-1.46,4.7-4.79,7.39-9.6,7.42c-4.79,0.02-8.21-2.52-9.66-7.28c-0.93-3.03-1.86-6.07-2.74-9.11
		c-2.89-9.95-9.29-16.41-19.22-19.36c-3.04-0.9-6.08-1.8-9.12-2.72c-4.74-1.42-7.23-4.72-7.47-9.56c-0.23-4.56,2.79-8.24,7.76-9.84
		c2.23-0.72,4.49-1.33,6.75-1.92c11.32-2.95,18.71-9.89,21.75-21.3c0.77-2.9,1.5-5.84,2.56-8.64
		C3361.39,1505.91,3364.55,1503.73,3368.95,1503.58z M3368.59,1569.18c6.04-6.02,12.19-12.15,18.13-18.07
		c-2.61-1.99-6.33-4.27-9.33-7.27c-3.14-3.14-5.6-6.97-7.72-9.69c-5.86,5.87-12.05,12.05-18.03,18.04c2.78,2.17,6.47,4.53,9.48,7.55
		C3364.14,1562.78,3366.49,1566.47,3368.59,1569.18z"/>
	
		<linearGradient id="SVGID_00000121987054132662364740000010938000697068935047_" gradientUnits="userSpaceOnUse" x1="3668.6228" y1="1225.6375" x2="3764.7771" y2="1225.6375">
		<stop  offset="0" style="stop-color:#1B5785"/>
		<stop  offset="0.2118" style="stop-color:#1F5E8F"/>
		<stop  offset="0.5798" style="stop-color:#3171A5"/>
		<stop  offset="1" style="stop-color:#448ECC"/>
	</linearGradient>
	<path style="fill:url(#SVGID_00000121987054132662364740000010938000697068935047_);" d="M3716.88,1177.45
		c4.6,0.47,7.89,2.68,9.36,7.15c1.15,3.49,2.05,7.06,3.18,10.55c2.89,8.88,8.72,14.88,17.68,17.72c3.18,1.01,6.41,1.89,9.59,2.89
		c5.4,1.68,8.23,5.18,8.08,10.11c-0.16,5.23-3.13,8.26-7.94,9.71c-2.72,0.82-5.48,1.51-8.2,2.32c-10.06,3.01-16.73,9.42-19.63,19.62
		c-0.82,2.89-1.66,5.78-2.6,8.64c-1.67,5.07-5.2,7.86-9.88,7.66c-4.9-0.22-8.06-2.82-9.49-7.52c-1.02-3.36-1.95-6.74-3.05-10.07
		c-2.92-8.85-8.68-14.91-17.68-17.72c-3.35-1.04-6.74-1.95-10.07-3.03c-4.98-1.62-7.77-5.26-7.61-9.97
		c0.17-4.96,2.88-8.07,7.48-9.55c2.86-0.92,5.79-1.64,8.67-2.49c10.09-2.98,16.73-9.41,19.62-19.61c0.91-3.21,1.76-6.45,2.9-9.59
		C3708.89,1179.86,3712.26,1177.73,3716.88,1177.45z M3733.61,1225.76c-5.61-5.71-11.64-11.85-16.82-17.12
		c-5.61,5.62-11.73,11.75-16.95,16.97c5.62,5.73,11.65,11.88,16.79,17.12C3722.17,1237.19,3728.21,1231.15,3733.61,1225.76z"/>
	
		<linearGradient id="SVGID_00000096020731288696176990000005822742890173596068_" gradientUnits="userSpaceOnUse" x1="3542.7593" y1="1317.0885" x2="3614.4666" y2="1317.0885">
		<stop  offset="0" style="stop-color:#1B5785"/>
		<stop  offset="0.2118" style="stop-color:#1F5E8F"/>
		<stop  offset="0.5798" style="stop-color:#3171A5"/>
		<stop  offset="1" style="stop-color:#448ECC"/>
	</linearGradient>
	<path style="fill:url(#SVGID_00000096020731288696176990000005822742890173596068_);" d="M3614.47,1324.82c-24.1,0-47.78,0-71.71,0
		c0-5.18,0-10.13,0-15.46c23.77,0,47.57,0,71.71,0C3614.47,1314.34,3614.47,1319.41,3614.47,1324.82z"/>
	
		<linearGradient id="SVGID_00000078037842907092859080000018411284579734752692_" gradientUnits="userSpaceOnUse" x1="3470.4316" y1="1316.9755" x2="3485.8777" y2="1316.9755">
		<stop  offset="0" style="stop-color:#1B5785"/>
		<stop  offset="0.2118" style="stop-color:#1F5E8F"/>
		<stop  offset="0.5798" style="stop-color:#3171A5"/>
		<stop  offset="1" style="stop-color:#448ECC"/>
	</linearGradient>
	<path style="fill:url(#SVGID_00000078037842907092859080000018411284579734752692_);" d="M3470.43,1324.7c0-5.32,0-10.26,0-15.46
		c5.16,0,10.11,0,15.45,0c0,4.97,0,10.04,0,15.46C3480.94,1324.7,3475.88,1324.7,3470.43,1324.7z"/>
	
		<linearGradient id="SVGID_00000053540368744271483430000008940341133894915251_" gradientUnits="userSpaceOnUse" x1="3542.7363" y1="1381.2418" x2="3614.4041" y2="1381.2418">
		<stop  offset="0" style="stop-color:#1B5785"/>
		<stop  offset="0.2118" style="stop-color:#1F5E8F"/>
		<stop  offset="0.5798" style="stop-color:#3171A5"/>
		<stop  offset="1" style="stop-color:#448ECC"/>
	</linearGradient>
	<path style="fill:url(#SVGID_00000053540368744271483430000008940341133894915251_);" d="M3542.74,1388.97c0-5.31,0-10.26,0-15.46
		c23.91,0,47.58,0,71.67,0c0,4.96,0,10.03,0,15.46C3590.73,1388.97,3566.94,1388.97,3542.74,1388.97z"/>
	
		<linearGradient id="SVGID_00000146474141421077160080000003222249980996293761_" gradientUnits="userSpaceOnUse" x1="3470.3816" y1="1381.2418" x2="3486.0024" y2="1381.2418">
		<stop  offset="0" style="stop-color:#1B5785"/>
		<stop  offset="0.2118" style="stop-color:#1F5E8F"/>
		<stop  offset="0.5798" style="stop-color:#3171A5"/>
		<stop  offset="1" style="stop-color:#448ECC"/>
	</linearGradient>
	<path style="fill:url(#SVGID_00000146474141421077160080000003222249980996293761_);" d="M3470.38,1388.92c0-5.16,0-10.1,0-15.35
		c5.23,0,10.29,0,15.62,0c0,5.06,0,10.01,0,15.35C3481.05,1388.92,3475.99,1388.92,3470.38,1388.92z"/>
	
		<linearGradient id="SVGID_00000071545591519928333140000012569200228653829550_" gradientUnits="userSpaceOnUse" x1="3542.7695" y1="1445.5081" x2="3614.4563" y2="1445.5081">
		<stop  offset="0" style="stop-color:#1B5785"/>
		<stop  offset="0.2118" style="stop-color:#1F5E8F"/>
		<stop  offset="0.5798" style="stop-color:#3171A5"/>
		<stop  offset="1" style="stop-color:#448ECC"/>
	</linearGradient>
	<path style="fill:url(#SVGID_00000071545591519928333140000012569200228653829550_);" d="M3542.77,1437.73c23.98,0,47.66,0,71.69,0
		c0,5.13,0,10.19,0,15.56c-23.83,0-47.63,0-71.69,0C3542.77,1448.19,3542.77,1443.24,3542.77,1437.73z"/>
	
		<linearGradient id="SVGID_00000004512570668865437890000016222016833884068516_" gradientUnits="userSpaceOnUse" x1="3470.6216" y1="1445.4373" x2="3485.8887" y2="1445.4373">
		<stop  offset="0" style="stop-color:#1B5785"/>
		<stop  offset="0.2118" style="stop-color:#1F5E8F"/>
		<stop  offset="0.5798" style="stop-color:#3171A5"/>
		<stop  offset="1" style="stop-color:#448ECC"/>
	</linearGradient>
	<path style="fill:url(#SVGID_00000004512570668865437890000016222016833884068516_);" d="M3470.62,1437.63c5.24,0,10.06,0,15.27,0
		c0,5.15,0,10.22,0,15.62c-4.98,0-10.04,0-15.27,0C3470.62,1448.01,3470.62,1442.83,3470.62,1437.63z"/>
</g>
<linearGradient id="SVGID_00000008855016523016269480000006837272042025607323_" gradientUnits="userSpaceOnUse" x1="301.368" y1="499.2035" x2="778.632" y2="499.2035">
	<stop  offset="0" style="stop-color:#1B5785"/>
	<stop  offset="0.2118" style="stop-color:#1F5E8F"/>
	<stop  offset="0.5798" style="stop-color:#3171A5"/>
	<stop  offset="1" style="stop-color:#448ECC"/>
</linearGradient>
<path style="fill:url(#SVGID_00000008855016523016269480000006837272042025607323_);" d="M455.5,500.51
	c-8.76-9.21-19.45-15.4-32.16-15.91c-18.62-0.74-37.39-1.33-55.92,0.2c-26.05,2.15-46.01,25.05-46.73,51.28
	c-0.21,7.56,0.14,15.14-0.16,22.69c-0.15,3.73,0.9,6.03,4.55,7.11c14.79,4.39,29.49,9.14,44.38,13.14
	c7.51,2.02,11.5,6.48,9.59,12.84c-1.53,5.11-6.09,7.32-13.14,6.16c-18.52-3.06-36.26-8.63-53.17-16.82
	c-1.96-0.95-4.32-1.49-5.8-2.94c-2.13-2.1-5.09-4.83-5.14-7.33c-0.27-14.31-1.14-28.82,0.74-42.91
	c3.81-28.63,20.32-48.07,47.09-58.77c1.28-0.51,2.55-1.06,3.86-1.62c-31.37-31.91-21.8-71.68-0.26-91.59
	c24.08-22.25,59.45-22.64,83.89-0.83c21,18.75,33.4,58.34,0.62,92.54c13.83,4.42,25.49,12.07,34.81,22.96
	c6.16-2.13,11.94-4.13,18.32-6.34c-21.51-18.57-32.81-41.52-30.46-69.93c1.73-20.92,11.08-38.45,26.63-52.46
	c31.62-28.46,78.13-27.2,108.52,2.22c29.29,28.37,37.67,82.6-5.96,120.28c5.87,2.04,11.65,4.05,17.15,5.96
	c5.61-4.64,10.77-9.66,16.67-13.57c5.74-3.8,12.24-6.46,18.75-9.8c-14.62-14.54-22.12-32.32-19.49-53.45
	c1.99-16.05,9.64-29.36,21.97-39.8c24.74-20.96,60.22-19.4,83.36,3.31c21.44,21.04,28.79,59.69-1.52,90.54
	c13.09,4.48,24.5,11.36,33.58,21.74c11.85,13.54,18.12,29.31,18.47,47.32c0.21,10.55-0.11,21.11,0.1,31.65
	c0.11,5.3-2.24,8.47-6.82,10.74c-17.9,8.87-36.56,15.41-56.3,18.63c-2.71,0.44-5.68,0.86-8.24,0.18c-4.5-1.2-6.81-4.68-6.59-9.45
	c0.24-5.12,3.32-7.94,8.07-8.99c6.39-1.41,12.98-2.14,19.2-4.07c9.46-2.92,18.71-6.51,27.95-10.1c1.48-0.58,3.41-2.62,3.41-3.99
	c-0.02-10.93,0.59-22.01-0.99-32.75c-3.49-23.65-22.41-42.14-46.06-43.85c-18.94-1.37-38.1-0.81-57.11,0.09
	c-12.06,0.57-22.13,6.9-30.6,15.64c0.55,0.74,0.8,1.3,1.23,1.65c23.08,18.5,35.27,42.66,36.55,72.12c0.65,14.89,0.6,29.85,0,44.74
	c-0.13,3.15-3.38,7.51-6.35,9c-75.18,37.82-150.85,38.67-227.07,2.79c-8.66-4.07-12.09-9.05-11.38-18.78
	c1.05-14.25-0.09-28.65,0.81-42.92c1.58-25.23,12.68-46.06,31.28-62.98c1.76-1.6,3.58-3.14,5.37-4.72
	C455.13,501.26,455.19,501.05,455.5,500.51z M643.25,589.12c-0.12,0-0.25,0-0.37,0c0-4.37,0.02-8.74,0-13.11
	c-0.19-40.85-32.89-74-73.63-74.45c-19.66-0.21-39.32-0.23-58.97,0.02c-34.46,0.44-65.65,25.65-71.37,59.65
	c-2.71,16.1-1.6,32.86-1.83,49.33c-0.02,1.56,2.49,3.76,4.32,4.65c25.25,12.27,51.92,19.4,79.9,21.69
	c41.29,3.38,80.6-4.01,117.9-21.93c1.9-0.91,3.7-3.98,3.87-6.17C643.58,602.28,643.25,595.69,643.25,589.12z M540.13,360.45
	c-32.95-0.04-60.84,27.75-60.93,60.71c-0.1,33.03,27.61,61.06,60.47,61.18c33.29,0.12,61.25-27.73,61.23-61.01
	C600.87,388.34,573.08,360.49,540.13,360.45z M395.31,464.47c23.96,0.03,43.43-19.19,43.48-42.91
	c0.05-23.74-19.48-43.36-43.17-43.37c-23.68-0.01-43.24,19.63-43.17,43.36C352.52,445.09,371.84,464.44,395.31,464.47z
	 M684.33,464.47c23.91,0.02,43.31-19.28,43.31-43.07c-0.01-23.73-19.6-43.29-43.3-43.22c-23.41,0.07-42.92,19.53-43.03,42.92
	C641.19,444.92,660.57,464.45,684.33,464.47z"/>
</svg>
