<svg width="18" height="18" fill="none" xmlns="http://www.w3.org/2000/svg"><path d="M17.997.34a.359.359 0 0 0-.038-.125c-.006-.011-.008-.023-.014-.034l-.017-.019a.4.4 0 0 0-.044-.05.38.38 0 0 0-.05-.043c-.007-.005-.011-.011-.018-.015-.011-.007-.023-.009-.035-.014a.41.41 0 0 0-.065-.026.414.414 0 0 0-.19-.003c-.013.003-.026.002-.04.007L.266 5.888a.39.39 0 0 0-.014.736l8.045 3.091 3.477 8.049a.392.392 0 0 0 .36.236h.019a.391.391 0 0 0 .353-.273l5.48-17.22c.004-.013.002-.025.005-.038a.371.371 0 0 0 .006-.13zM1.54 6.28l14.605-4.979-7.65 7.651L1.54 6.28zm10.537 10.212L9.056 9.498l7.696-7.696-4.675 14.69z" fill="#333"/><path d="M6.148 11.852a.39.39 0 0 0-.554 0l-5.48 5.48a.39.39 0 1 0 .554.553l5.48-5.48a.39.39 0 0 0 0-.553zM7.16 14.592l-2.74 2.74a.39.39 0 1 0 .553.553l2.74-2.74a.39.39 0 1 0-.553-.553zM.391 13.694c.1 0 .2-.038.277-.114l2.74-2.74a.391.391 0 1 0-.554-.553l-2.74 2.74a.39.39 0 0 0 .277.667z" fill="#333"/></svg>