<svg width="20" height="20" fill="none" xmlns="http://www.w3.org/2000/svg"><path d="M19.996.377a.408.408 0 0 0-.042-.138c-.006-.012-.008-.026-.015-.038-.005-.008-.013-.013-.019-.02a.45.45 0 0 0-.049-.056.426.426 0 0 0-.056-.048c-.007-.006-.012-.013-.02-.017-.012-.008-.025-.01-.038-.016a.453.453 0 0 0-.072-.029.456.456 0 0 0-.21-.003c-.016.004-.03.002-.046.008L.295 6.543a.433.433 0 0 0-.015.817l8.94 3.435 3.862 8.943c.07.16.227.262.4.262h.021a.435.435 0 0 0 .393-.303L19.984.563c.005-.014.003-.028.006-.042a.406.406 0 0 0 .006-.144zM1.711 6.978 17.94 1.446l-8.502 8.5-7.727-2.968zM13.42 18.325l-3.357-7.772 8.551-8.551-5.194 16.323z" fill="#fff"/><path d="M6.83 13.169a.434.434 0 0 0-.614 0L.128 19.257a.434.434 0 1 0 .614.615l6.089-6.088a.434.434 0 0 0 0-.615zM7.955 16.213l-3.044 3.045a.434.434 0 1 0 .615.614l3.044-3.044a.434.434 0 1 0-.615-.614zM.435 15.216a.434.434 0 0 0 .307-.127l3.045-3.044a.434.434 0 1 0-.615-.615L.128 14.474a.434.434 0 0 0 .307.742z" fill="#fff"/></svg>