<svg version="1.1" id="Layer_1" xmlns="http://www.w3.org/2000/svg" x="0" y="0" viewBox="0 0 548.77 597.45" style="enable-background:new 0 0 548.77 597.45" xml:space="preserve"><style></style><linearGradient id="SVGID_1_" gradientUnits="userSpaceOnUse" x1="862.078" y1="-797.209" x2="1270.906" y2="-797.209"><stop offset="0" style="stop-color:#195685"/><stop offset=".212" style="stop-color:#1f5d8e"/><stop offset=".58" style="stop-color:#2f70a5"/><stop offset="1" style="stop-color:#438ecc"/></linearGradient><path d="M862.08-677.51c1.89-3.25 4.75-4.11 8.41-4.06 11.95.17 23.9.06 36.34.06V-813.4c0-7.17 1.79-9.03 8.89-9.04 19.43-.03 38.85-.03 58.28 0 7.15.01 8.89 1.79 8.89 9.02.01 42.05.01 84.09.01 126.14v5.45h45.41V-844.35c0-8.43 1.66-10.12 9.96-10.12 18.89-.01 37.79-.01 56.68 0 7.87 0 9.7 1.81 9.7 9.57v163.1h45.41v-230.87c0-1.06-.01-2.13 0-3.19.04-7.16 1.87-9.03 8.92-9.04 10.64-.02 21.29 0 31.93 0h25.55c7.92 0 9.66 1.72 9.66 9.51v233.87h21.77c4.92 0 9.85.09 14.77-.03 3.43-.09 6.53.39 7.84 4.04 1.33 3.69-.82 6.03-3.62 7.97H862.07c.01-2.65.01-5.31.01-7.97zm351.82-4.1v-230.68h-51.37v230.68h51.37zm-121.83-.09v-160.2h-51.18v160.2h51.18zM919.15-809.96v128.25h51.39v-128.25h-51.39z" style="fill:url(#SVGID_1_)"/><linearGradient id="SVGID_00000176761237580767128800000002210319230881904784_" gradientUnits="userSpaceOnUse" x1="868.454" y1="-960.27" x2="1258.211" y2="-960.27"><stop offset="0" style="stop-color:#195685"/><stop offset=".212" style="stop-color:#1f5d8e"/><stop offset=".58" style="stop-color:#2f70a5"/><stop offset="1" style="stop-color:#438ecc"/></linearGradient><path style="fill:url(#SVGID_00000176761237580767128800000002210319230881904784_)" d="M1193.77-1034.43h-5.1c-10.12.03-18.47-7.14-19.2-16.51-.84-10.71 5.96-19.52 16.43-20.91 16.59-2.21 33.2-4.32 49.82-6.3 12.96-1.54 22.32 6.83 22.36 19.82.05 15.84-.35 31.68.12 47.5.39 13.06-8.53 20.12-15.99 21.06-11.09 1.39-19.14-4.81-21.94-17.03-.84.8-1.62 1.45-2.29 2.2-19.09 21.4-39.95 40.93-62.49 58.65-.73.58-1.44 1.19-2.23 1.67-3 1.86-6.33 1.43-8.26-1.03-1.92-2.45-1.77-6 .8-8.26 4.39-3.87 9-7.49 13.51-11.21 22.33-18.45 42.47-39.08 61.1-61.22 1.23-1.46 2.89-2.93 4.64-3.48 3.92-1.24 7.29 1.57 7.43 5.95.14 4.65-.02 9.32.06 13.97.08 4.77 2.74 7.85 6.66 7.91 3.86.06 6.83-3.04 6.85-7.74.1-16.37.13-32.74-.02-49.1-.05-5.67-3.61-8.21-9.31-7.48-15.81 2.03-31.63 4-47.46 5.95-5.19.64-8.26 3.57-7.8 7.67.48 4.28 4.29 6.43 9.68 5.64 4.99-.73 10.01-1.33 15.02-1.94 3.15-.38 6.16-.28 7.96 3.03 1.8 3.33.17 5.76-1.87 8.26-25.7 31.55-55.11 59.13-88.23 82.75-41.66 29.72-87.07 51.85-135.88 67.04-28.45 8.85-57.41 15.38-87.1 18.47-4.63.48-9.27.85-13.88 1.4-4.18.5-6.86 3.48-6.55 7.06.32 3.77 3.2 6.46 7.49 6.01 14.39-1.52 28.87-2.66 43.1-5.18 47.33-8.37 92.71-23.05 135.57-44.86 17.84-9.08 34.85-19.82 52.15-29.95 5.43-3.18 8.96-3.39 11.21.04 2.31 3.52.91 6.58-4.53 10.18-49.43 32.75-103.15 55.64-160.62 69.88-24.92 6.17-50.14 10.57-75.8 12.27-10.25.68-19.51-6.62-20.61-16.49-1.15-10.31 5.55-19.35 15.91-20.81 12.09-1.7 24.32-2.54 36.37-4.52 51.24-8.41 99.81-24.88 145.68-49.25 47.59-25.29 89.35-57.97 125.02-98.4.61-.69 1.16-1.41 2.22-2.71z"/><linearGradient id="SVGID_00000145055375386632192770000015851417081231769012_" gradientUnits="userSpaceOnUse" x1="94.72" y1="298.658" x2="376.251" y2="298.658"><stop offset="0" style="stop-color:#195685"/><stop offset=".645" style="stop-color:#367ab2"/><stop offset="1" style="stop-color:#438ecc"/></linearGradient><path style="fill:url(#SVGID_00000145055375386632192770000015851417081231769012_)" d="M106.83 131.21v335.08h233.12v12.09h-237.1c-6.43 0-8.14-1.72-8.14-8.21v-342.9c0-6.67 1.64-8.28 8.43-8.28 68.24 0 136.49.02 204.73-.06 3.52 0 6.1 1.03 8.57 3.53 18.72 18.87 37.51 37.65 56.37 56.38 2.39 2.37 3.44 4.84 3.42 8.24-.12 23.83-.06 47.67-.06 71.5v3.92h-11.88v-71.65h-4.22c-16.09 0-32.19.01-48.28-.01-5.47 0-7.45-1.96-7.46-7.38-.01-15.97-.01-31.94-.01-47.92v-4.34c-65.85.01-131.52.01-197.49.01zm247.29 47.61c-12.55-12.57-25.21-25.26-37.53-37.61v37.61h37.53z"/><linearGradient id="SVGID_00000044160919336908802370000009507869277375770042_" gradientUnits="userSpaceOnUse" x1="286.345" y1="376.605" x2="454.05" y2="376.605"><stop offset="0" style="stop-color:#195685"/><stop offset=".645" style="stop-color:#367ab2"/><stop offset="1" style="stop-color:#438ecc"/></linearGradient><path style="fill:url(#SVGID_00000044160919336908802370000009507869277375770042_)" d="M453.47 346.12c0 12.84 1.02 25.78-.21 38.5-2.63 27.09-16.04 48.35-38.15 64.05-13.11 9.31-26.41 18.35-39.64 27.48-4.56 3.15-5.92 3.13-10.42.02-13.13-9.07-26.36-17.99-39.35-27.26-25.83-18.43-39.14-43.53-39.31-75.38-.1-20.09-.02-40.18-.02-60.27 0-7.3 2.21-9.14 9.63-8.39 25.87 2.6 47.78-5.73 66.02-24.09.7-.71 1.33-1.49 1.99-2.24 4.54-5.11 7.86-5.16 12.32-.07 7.08 8.09 15.44 14.5 25.13 19.08 13.58 6.42 27.83 9.17 42.85 7.34 7.57-.92 9.72 1.01 9.73 8.64v32.57c-.18.02-.38.02-.57.02zM370.03 465.2c12.91-8.96 25.56-17.58 38.05-26.44 22.7-16.1 33.77-38.32 33.99-66.01.13-17.09.02-34.18.03-51.27v-4.13c-28.33 1.43-52.02-8-71.91-27.39-20.09 19.63-43.86 28.85-71.54 27.43-.16.76-.3 1.12-.29 1.47.01 19.58-.49 39.19.2 58.75.78 22.22 9.48 41.44 26.84 55.49 14.19 11.49 29.65 21.42 44.63 32.1z"/><linearGradient id="SVGID_00000028291227460595789270000001380851600370667676_" gradientUnits="userSpaceOnUse" x1="130.813" y1="286.676" x2="322.086" y2="286.676"><stop offset="0" style="stop-color:#195685"/><stop offset=".645" style="stop-color:#367ab2"/><stop offset="1" style="stop-color:#438ecc"/></linearGradient><path style="fill:url(#SVGID_00000028291227460595789270000001380851600370667676_)" d="M130.81 292.41v-11.47h191.27v11.47H130.81z"/><linearGradient id="SVGID_00000018943640071759480460000000270021944475248797_" gradientUnits="userSpaceOnUse" x1="130.818" y1="400.491" x2="274.178" y2="400.491"><stop offset="0" style="stop-color:#195685"/><stop offset=".645" style="stop-color:#367ab2"/><stop offset="1" style="stop-color:#438ecc"/></linearGradient><path style="fill:url(#SVGID_00000018943640071759480460000000270021944475248797_)" d="M130.82 406.23v-11.48h143.36v11.48H130.82z"/><linearGradient id="SVGID_00000107586773962062647980000006375492082432239019_" gradientUnits="userSpaceOnUse" x1="130.867" y1="238.82" x2="250.269" y2="238.82"><stop offset="0" style="stop-color:#195685"/><stop offset=".645" style="stop-color:#367ab2"/><stop offset="1" style="stop-color:#438ecc"/></linearGradient><path style="fill:url(#SVGID_00000107586773962062647980000006375492082432239019_)" d="M250.27 233.1v11.44h-119.4V233.1h119.4z"/><linearGradient id="SVGID_00000031920373533851156450000005503512594349806771_" gradientUnits="userSpaceOnUse" x1="130.84" y1="262.715" x2="244.123" y2="262.715"><stop offset="0" style="stop-color:#195685"/><stop offset=".645" style="stop-color:#367ab2"/><stop offset="1" style="stop-color:#438ecc"/></linearGradient><path style="fill:url(#SVGID_00000031920373533851156450000005503512594349806771_)" d="M130.84 268.48v-11.52h113.28v11.52H130.84z"/><linearGradient id="SVGID_00000137112515235054927570000007884340440298687392_" gradientUnits="userSpaceOnUse" x1="232.783" y1="214.858" x2="340.075" y2="214.858"><stop offset="0" style="stop-color:#195685"/><stop offset=".645" style="stop-color:#367ab2"/><stop offset="1" style="stop-color:#438ecc"/></linearGradient><path style="fill:url(#SVGID_00000137112515235054927570000007884340440298687392_)" d="M340.08 209.1v11.51H232.79V209.1h107.29z"/><linearGradient id="SVGID_00000059296621487280796400000004082242703730106283_" gradientUnits="userSpaceOnUse" x1="130.842" y1="424.452" x2="238.135" y2="424.452"><stop offset="0" style="stop-color:#195685"/><stop offset=".645" style="stop-color:#367ab2"/><stop offset="1" style="stop-color:#438ecc"/></linearGradient><path style="fill:url(#SVGID_00000059296621487280796400000004082242703730106283_)" d="M130.84 430.22v-11.53h107.29v11.53H130.84z"/><linearGradient id="SVGID_00000013886584304981916660000004062683254517766822_" gradientUnits="userSpaceOnUse" x1="184.732" y1="154.89" x2="280.18" y2="154.89"><stop offset="0" style="stop-color:#195685"/><stop offset=".645" style="stop-color:#367ab2"/><stop offset="1" style="stop-color:#438ecc"/></linearGradient><path style="fill:url(#SVGID_00000013886584304981916660000004062683254517766822_)" d="M184.73 160.64v-11.5h95.45v11.5h-95.45z"/><linearGradient id="SVGID_00000181057615617178097460000006635288886846554005_" gradientUnits="userSpaceOnUse" x1="184.863" y1="178.917" x2="280.178" y2="178.917"><stop offset="0" style="stop-color:#195685"/><stop offset=".645" style="stop-color:#367ab2"/><stop offset="1" style="stop-color:#438ecc"/></linearGradient><path style="fill:url(#SVGID_00000181057615617178097460000006635288886846554005_)" d="M280.18 173.16v11.52h-95.31v-11.52h95.31z"/><linearGradient id="SVGID_00000011027013842754790650000001365708824955562934_" gradientUnits="userSpaceOnUse" x1="130.966" y1="214.858" x2="220.291" y2="214.858"><stop offset="0" style="stop-color:#195685"/><stop offset=".645" style="stop-color:#367ab2"/><stop offset="1" style="stop-color:#438ecc"/></linearGradient><path style="fill:url(#SVGID_00000011027013842754790650000001365708824955562934_)" d="M220.29 209.1v11.51h-89.33V209.1h89.33z"/><linearGradient id="SVGID_00000103985453725761283680000009658993301128816802_" gradientUnits="userSpaceOnUse" x1="130.75" y1="310.703" x2="220.174" y2="310.703"><stop offset="0" style="stop-color:#195685"/><stop offset=".645" style="stop-color:#367ab2"/><stop offset="1" style="stop-color:#438ecc"/></linearGradient><path style="fill:url(#SVGID_00000103985453725761283680000009658993301128816802_)" d="M130.75 316.41V305h89.42v11.41h-89.42z"/><linearGradient id="SVGID_00000005955532538742617440000011163267867765334706_" gradientUnits="userSpaceOnUse" x1="256.609" y1="262.781" x2="340.079" y2="262.781"><stop offset="0" style="stop-color:#195685"/><stop offset=".645" style="stop-color:#367ab2"/><stop offset="1" style="stop-color:#438ecc"/></linearGradient><path style="fill:url(#SVGID_00000005955532538742617440000011163267867765334706_)" d="M340.08 257.03v11.5h-83.47v-11.5h83.47z"/><linearGradient id="SVGID_00000057856332847029282170000012819714797489516713_" gradientUnits="userSpaceOnUse" x1="190.714" y1="334.598" x2="274.183" y2="334.598"><stop offset="0" style="stop-color:#195685"/><stop offset=".645" style="stop-color:#367ab2"/><stop offset="1" style="stop-color:#438ecc"/></linearGradient><path style="fill:url(#SVGID_00000057856332847029282170000012819714797489516713_)" d="M190.71 340.34v-11.48h83.47v11.48h-83.47z"/><linearGradient id="SVGID_00000012470763822131434020000007767386248162128566_" gradientUnits="userSpaceOnUse" x1="262.598" y1="238.82" x2="340.079" y2="238.82"><stop offset="0" style="stop-color:#195685"/><stop offset=".645" style="stop-color:#367ab2"/><stop offset="1" style="stop-color:#438ecc"/></linearGradient><path style="fill:url(#SVGID_00000012470763822131434020000007767386248162128566_)" d="M340.08 233.07v11.5H262.6v-11.5h77.48z"/><linearGradient id="SVGID_00000093137269890926329420000011965046462777482428_" gradientUnits="userSpaceOnUse" x1="130.834" y1="376.596" x2="202.326" y2="376.596"><stop offset="0" style="stop-color:#195685"/><stop offset=".645" style="stop-color:#367ab2"/><stop offset="1" style="stop-color:#438ecc"/></linearGradient><path style="fill:url(#SVGID_00000093137269890926329420000011965046462777482428_)" d="M202.33 370.85v11.5h-71.49v-11.5h71.49z"/><linearGradient id="SVGID_00000165940483713366013990000013537634019199866287_" gradientUnits="userSpaceOnUse" x1="214.776" y1="376.596" x2="274.167" y2="376.596"><stop offset="0" style="stop-color:#195685"/><stop offset=".645" style="stop-color:#367ab2"/><stop offset="1" style="stop-color:#438ecc"/></linearGradient><path style="fill:url(#SVGID_00000165940483713366013990000013537634019199866287_)" d="M274.17 382.39h-59.39v-11.58h59.39v11.58z"/><linearGradient id="SVGID_00000047757042651324303710000017031782888995096214_" gradientUnits="userSpaceOnUse" x1="130.97" y1="334.538" x2="178.242" y2="334.538"><stop offset="0" style="stop-color:#195685"/><stop offset=".645" style="stop-color:#367ab2"/><stop offset="1" style="stop-color:#438ecc"/></linearGradient><path style="fill:url(#SVGID_00000047757042651324303710000017031782888995096214_)" d="M130.97 328.72h47.27v11.64h-47.27v-11.64z"/><linearGradient id="SVGID_00000044859458952466767550000007690474042969397419_" gradientUnits="userSpaceOnUse" x1="232.674" y1="310.637" x2="274.105" y2="310.637"><stop offset="0" style="stop-color:#195685"/><stop offset=".645" style="stop-color:#367ab2"/><stop offset="1" style="stop-color:#438ecc"/></linearGradient><path style="fill:url(#SVGID_00000044859458952466767550000007690474042969397419_)" d="M232.67 304.85h41.43v11.58h-41.43v-11.58z"/><linearGradient id="SVGID_00000000204047269051402150000010881442913761333914_" gradientUnits="userSpaceOnUse" x1="250.62" y1="424.518" x2="286.182" y2="424.518"><stop offset="0" style="stop-color:#195685"/><stop offset=".645" style="stop-color:#367ab2"/><stop offset="1" style="stop-color:#438ecc"/></linearGradient><path style="fill:url(#SVGID_00000000204047269051402150000010881442913761333914_)" d="M286.18 418.77v11.49h-35.56v-11.49h35.56z"/><linearGradient id="SVGID_00000123427580175403885020000012907969918473899957_" gradientUnits="userSpaceOnUse" x1="310.306" y1="378.359" x2="430.181" y2="378.359"><stop offset="0" style="stop-color:#195685"/><stop offset=".645" style="stop-color:#367ab2"/><stop offset="1" style="stop-color:#438ecc"/></linearGradient><path style="fill:url(#SVGID_00000123427580175403885020000012907969918473899957_)" d="M310.34 357.17c0-7.11-.02-14.22.01-21.32.02-4.53 1.91-6.62 6.35-7.15 17.66-2.13 33.71-8.39 48.19-18.71 4.63-3.3 6.06-3.32 10.68-.01 14.47 10.35 30.53 16.56 48.18 18.72 4.42.54 6.32 2.63 6.33 7.17.02 13.34.24 26.69-.05 40.03-.45 20.82-9.03 37.89-25.4 50.63-9.72 7.56-20.18 14.17-30.28 21.24-2.8 1.96-5.46 1.95-8.27-.01-9.7-6.79-19.65-13.22-29.1-20.34-17.42-13.12-26.3-30.79-26.63-52.65-.09-5.88-.01-11.74-.01-17.6zm108.21-16.96c-15.63-2.59-29.56-7.24-41.99-15.36-4.74-3.1-7.89-3.14-12.65-.02-12.52 8.19-26.55 12.84-41.11 15.28 0 13.67-.73 27.15.19 40.52 1.11 16.22 9.54 28.84 22.69 38.24 7.3 5.22 14.78 10.18 22.09 15.38 1.78 1.26 3.03 1.38 4.87.06 7.19-5.15 14.54-10.08 21.79-15.16 12.31-8.63 20.83-20.26 22.56-35.14 1.68-14.4 1.13-29.06 1.56-43.8z"/><linearGradient id="SVGID_00000041992579547181669580000006907390618935173048_" gradientUnits="userSpaceOnUse" x1="336.613" y1="380.705" x2="410.822" y2="380.705"><stop offset="0" style="stop-color:#195685"/><stop offset=".645" style="stop-color:#367ab2"/><stop offset="1" style="stop-color:#438ecc"/></linearGradient><path style="fill:url(#SVGID_00000041992579547181669580000006907390618935173048_)" d="M336.61 393.33c2.41-3.21 4.7-6.26 7.24-9.64 6.41 4.78 12.66 9.45 19.24 14.36 12.8-16.43 25.48-32.7 38.34-49.21 3.18 2.48 6.19 4.83 9.39 7.33-.83 1.17-1.49 2.19-2.23 3.15-12.77 16.43-25.54 32.85-38.32 49.27-3.73 4.8-6.43 5.19-11.3 1.55-7.37-5.52-14.72-11.07-22.36-16.81z"/><g><linearGradient id="SVGID_00000001647045106548088330000003547929461741393085_" gradientUnits="userSpaceOnUse" x1="1528.574" y1="-873.925" x2="1911.816" y2="-873.925"><stop offset="0" style="stop-color:#195685"/><stop offset=".211" style="stop-color:#1c5989"/><stop offset=".446" style="stop-color:#236193"/><stop offset=".691" style="stop-color:#2f70a5"/><stop offset=".941" style="stop-color:#3e86c1"/><stop offset="1" style="stop-color:#438ecc"/></linearGradient><path style="fill:url(#SVGID_00000001647045106548088330000003547929461741393085_)" d="M1911.82-877.69v103.3c-3.52 7.37-9.49 9.78-17.37 9.09-4.95-.43-9.97-.02-14.96-.12-5.68-.11-10.2-3.64-11.87-9.1-.35-1.15-.66-2.31-1.08-3.76l-24.93 1.66c-.12 11.34-5.48 18.6-15.12 22.8 4.84 14.94-4.51 30.56-22.31 30.69-1.84 12.39-8.44 20.12-21.35 21.73-.75.09-1.76 1.25-1.96 2.08-3.85 15.44-18.65 20.86-31.58 11.49-5.73-4.15-11.43-8.35-17.41-12.72-4.78 8.21-8.87 16.86-19.58 18.12-9.22 1.09-15.74-3.37-21.31-14.51-13.04 1.13-21.67-4.62-25.95-16.79-13.63 1.76-22.6-3.81-27.23-16.36-19.86 3.71-35.31-16.69-23.9-35.53-7.33-4.99-27.51-8.12-40.26-6.26-2.01 9.66-6.15 13.05-15.99 13.05-5.11 0-10.23.06-15.34-.01-8.49-.12-13.73-5.41-13.74-13.84-.01-31.3-.01-62.6 0-93.9 0-8.49 5.16-13.75 13.67-13.91 4.49-.08 8.98-.02 13.47-.02 11.76 0 14.33 1.77 18.15 12.54h12.19v-141.18c0-10.72-.13-21.45.12-32.17.24-10.34 6.87-19.15 16.57-22.74 1.24-.46 2.44-1.02 3.66-1.53h227.56c16.03 5.21 20.71 16.79 20.55 32.83-.53 51.33-.2 102.67-.2 154v4.59h12.41c2.3-9.57 6.09-12.54 15.78-12.55 4.11 0 8.26.33 12.33-.07 7.8-.74 13.51 1.97 16.98 9.1zm-178.18 31.26c-.98.85-1.82 1.55-2.63 2.3-9.88 9.16-19.74 18.33-29.63 27.48-9.65 8.93-23.37 8.87-32.26-.13-8.9-9-8.77-22.65.32-32.23 8.75-9.23 17.51-18.46 26.25-27.7.7-.74 1.3-1.58 2.17-2.65-.97-.22-1.43-.38-1.9-.43-22.03-2.1-42.09 2.98-59.52 16.9-7.16 5.71-15.1 8.39-24.18 8.3-11.6-.11-23.2-.03-34.8-.03h-3.8v68.93c8.36.55 16.52.49 24.45 1.8 7.85 1.29 15.48 3.97 23.65 6.16 3.93-8.24 9.74-15.67 20.42-16.62 10.55-.95 18.06 4.17 22.95 13.2 16-6.19 26.78.28 32.78 19.55 13.26.67 21.34 7.54 23.67 20.7 16.72 1.76 23.42 15.97 17.31 29.46 6.17 4.52 12.35 9.13 18.61 13.62 3.52 2.53 7.45 2.01 9.57-1.07 2.05-2.99 1.29-6.54-2.11-9.1-3.08-2.33-6.34-4.43-9.35-6.84-1.3-1.04-2.57-2.47-3.13-3.99-.98-2.68-.16-5.19 2.21-6.95 2.5-1.86 5.12-1.79 7.63 0 4.47 3.18 8.82 6.52 13.35 9.61 3.63 2.47 7.51 2.54 11.21.07 3.39-2.26 4.75-5.73 3.62-9.45-.74-2.42-2.51-4.9-4.5-6.49-6.34-5.04-13.02-9.64-19.52-14.47-3.96-2.95-4.84-6.78-2.43-9.92 2.35-3.05 6.1-3.26 9.95-.55.81.57 1.61 1.18 2.41 1.77 7.75 5.66 15.47 11.36 23.26 16.97 3.6 2.59 7.42 2.77 11.16.3 3.58-2.36 4.72-6.03 3.56-9.82-.74-2.41-2.58-4.87-4.6-6.44-7.37-5.74-15.07-11.07-22.55-16.66-4.5-3.36-4.27-9.11.36-11.32 2.77-1.33 5.29-.58 7.67 1.18 6.01 4.45 11.97 8.98 18.12 13.22 6.21 4.28 13.73 1.31 15.04-5.88.8-4.4-1.24-7.65-4.83-10.14-18.43-12.8-36.82-25.64-55.23-38.46-11.52-8.06-23.08-16.08-34.73-24.18zm-62.14-47.15c-.21-.53-.65-1.66-1.11-2.79-4.75-11.65-7.54-23.77-7.69-36.33-.24-21.33-.13-42.66-.08-63.99.02-9.02 6.07-16.09 14.97-17.25 19.3-2.52 38.23-6.5 56.78-12.49 3.1-1 7.08-.92 10.2.08 18.31 5.87 36.99 9.84 56.03 12.37 9.72 1.29 15.36 8.08 15.37 17.96.02 20.08-.01 40.16.01 60.24.02 21.3-6.03 40.72-17.85 58.4-.66.98-1.24 2.01-1.94 3.17h45.29v-163.37c0-10.48-4.79-15.24-15.37-15.24h-192.55c4.3 6.89 3.56 13.93 3.56 20.87.01 49.39.01 98.79.01 148.18v3.35c11.49-4.4 22.68-8.69 34.37-13.16zm195.31 32.38h-4.53c-22.2 0-44.4-.07-66.6.05-4.88.03-9.29-.99-13.62-3.21-12.73-6.53-25.52-12.94-38.34-19.3-10.31-5.11-20.3-3.34-28.28 4.96-7.86 8.18-15.64 16.44-23.46 24.67-4.55 4.79-9.25 9.46-13.61 14.42-5.33 6.06-2.11 15.01 5.78 16.36 3.79.65 6.71-1.17 9.37-3.65 9.75-9.11 19.52-18.2 29.31-27.27 7.19-6.67 12.25-7.02 20.28-1.43 28.53 19.87 57.24 39.48 85.42 59.82 6.65 4.8 12.63 7.42 20.8 5.81 5.66-1.12 11.59-.84 17.48-1.2v-70.03zm-88.52-116.86c-11.45-2.66-21.91-4.86-32.22-7.61-4.47-1.19-8.5-1.63-13.02-.08-5.27 1.81-10.81 2.82-16.26 4.05-5.16 1.16-10.37 2.16-15.32 3.18 0 16.99-.57 33.58.19 50.12.57 12.42 5.76 23.54 13.7 33.5 15.62-8.54 29.9-3.84 43.75 4.73 9.17-9.58 15.9-20.44 17.05-33.21 1.62-18.16 1.5-36.5 2.13-54.68zm-179.16 110.79c7.49-.5 14.77-.88 22.03-1.52 2.11-.19 3.3-1.43 3.3-4.06-.09-55.47-.02-110.94-.19-166.41-.01-2.9-1.24-6.16-2.88-8.61-3.04-4.54-8.84-5.93-14.01-4.16-5.25 1.8-8.48 6.59-8.48 12.78-.01 55.97-.01 111.94 0 167.9 0 1.11.12 2.19.23 4.08zm183.71-11.18c11.2-14.08 18.64-29.65 19.51-47.21 1.16-23.39.69-46.86.89-70.29.03-3.2-1.48-4.99-4.88-5.39-19.07-2.26-37.77-6.26-56.05-12.24-1.76-.58-4.02-.64-5.77-.07-18.03 5.92-36.48 9.86-55.28 12.26-4.93.63-5.75 1.64-5.75 6.8-.02 19.2-.04 38.41.01 57.61.03 14.4 2.81 28.2 9.34 41.12.54 1.07 1.66 2.49 2.64 2.6 4.28.49 8.6.57 13.45.82-.87-1.59-1.43-2.66-2.03-3.69-5.38-9.27-9.45-19.18-9.94-29.85-.81-17.54-.73-35.13-.78-52.71-.02-6.51 4.43-11.34 10.61-12.72 12.37-2.77 24.7-5.72 37.08-8.38 2.33-.5 4.95-.42 7.29.09 11.9 2.6 23.72 5.51 35.61 8.14 7.94 1.75 11.71 6.15 11.72 14.36.02 13.97.08 27.93-.02 41.9-.13 17.64-5.63 33.49-16.34 47.51-.87 1.13-1.7 2.29-2.67 3.59 3.99 2.03 7.54 3.82 11.36 5.75zm97.32 100.06h18.64v-95.4h-18.64v95.4zm-338.62-88.83v95.13h18.65v-95.13h-18.65zm118.7 141.69c2.33-1.43 5.49-2.31 6.85-4.38 5.88-8.92 11.42-18.08 16.68-27.38 2.38-4.22.26-9.56-3.88-11.94-4.11-2.36-9.44-1.68-12.01 2.34-5.77 8.99-11.43 18.09-16.53 27.47-3.29 6.05 1.56 13.07 8.89 13.89zm-27.17-16.57c2.25-1.36 5.27-2.19 6.6-4.17 4.86-7.2 9.39-14.66 13.57-22.28 2.35-4.28.26-9.53-3.91-11.91-4.14-2.37-9.35-1.7-12.01 2.33-4.72 7.15-9.31 14.44-13.29 22.02-3.29 6.26 1.6 13.32 9.04 14.01zm54.55 33.08c2.32-1.45 5.42-2.36 6.83-4.43 4.82-7.07 9.25-14.43 13.42-21.91 2.39-4.28.52-9.51-3.56-12-4.17-2.54-9.56-1.87-12.31 2.27-4.73 7.14-9.29 14.43-13.3 21.98-3.33 6.28 1.46 13.36 8.92 14.09zm33.26-18.5c-.74.48-2.89 1.16-3.84 2.61-4.4 6.78-8.57 13.72-12.59 20.74-1.68 2.92-.41 6.42 2.38 8.1 2.72 1.63 6.21 1.29 8.01-1.51 4.51-7 8.9-14.11 12.9-21.41 2.19-4-1.1-8.54-6.86-8.53z"/><linearGradient id="SVGID_00000178922292112115565190000003606418294587467959_" gradientUnits="userSpaceOnUse" x1="1720.221" y1="-937.878" x2="1758.589" y2="-937.878"><stop offset="0" style="stop-color:#195685"/><stop offset=".211" style="stop-color:#1c5989"/><stop offset=".446" style="stop-color:#236193"/><stop offset=".691" style="stop-color:#2f70a5"/><stop offset=".941" style="stop-color:#3e86c1"/><stop offset="1" style="stop-color:#438ecc"/></linearGradient><path style="fill:url(#SVGID_00000178922292112115565190000003606418294587467959_)" d="M1732.44-935.12c4.41-5.87 8.7-11.66 13.08-17.38 1.04-1.36 2.2-2.81 3.64-3.67 2.82-1.69 5.63-1.06 7.75 1.37 2.25 2.58 2.18 5.54.21 8.25-4.49 6.14-9.1 12.19-13.66 18.27-1.8 2.39-3.51 4.86-5.45 7.13-2.68 3.13-6.48 3.36-9.55.61-2.04-1.83-3.95-3.81-5.84-5.8-2.93-3.09-3.17-6.63-.7-9.34 2.3-2.53 5.74-2.67 9.1-.39.39.27.79.53 1.42.95z"/></g><path style="fill:#6a59a6" d="M-205.56-1304.57H90.87v144.77h-296.43z"/><path style="fill:#6460ab" d="M-205.56-1106.6H90.87v144.77h-296.43z"/><path style="fill:#6474b7" d="M-205.56-903.49H90.87v144.77h-296.43z"/><path style="fill:#2574b1" d="M-205.56-720.14H90.87v144.77h-296.43z"/></svg>