<svg width="38" height="38" fill="none" xmlns="http://www.w3.org/2000/svg"><path d="M16.18 20.507c0-1.213-.962-2.196-2.15-2.196h-2.236c-1.188 0-2.151.983-2.151 2.196v15.297c0 1.213.963 2.196 2.15 2.196h2.236c1.189 0 2.152-.983 2.152-2.196V20.507zM6.538 25.846c0-1.305-1.036-2.363-2.315-2.363H2.315C1.036 23.483 0 24.541 0 25.846v9.79C0 36.943 1.036 38 2.315 38h1.908c1.279 0 2.315-1.058 2.315-2.363v-9.79zM25.661 14.667c0-1.213-.963-2.196-2.151-2.196h-2.236c-1.188 0-2.151.983-2.151 2.196v21.137c0 1.213.963 2.196 2.151 2.196h2.236c1.188 0 2.151-.983 2.151-2.196V14.667zM37.652 6.238 33.458.746C33.096.272 32.581 0 32.045 0c-.535 0-1.05.272-1.412.746l-4.194 5.492c-.36.47-.448.988-.242 1.418.224.47.763.75 1.44.75l1.13.003v27.458c0 1.21.967 2.133 2.153 2.133h2.251a2.11 2.11 0 0 0 2.135-2.133V8.39l1.137.016c.679 0 1.222-.28 1.447-.75.206-.43.122-.947-.238-1.418z" fill="#fff"/></svg>