<svg width="40" height="35" fill="none" xmlns="http://www.w3.org/2000/svg"><path d="m39.55 26.538-7.5-6.25a1.252 1.252 0 0 0-1.33-.172c-.44.207-.72.647-.72 1.132v3.75h-2.093c-1.735 0-3.32-.88-4.24-2.35l-8.095-12.95a9.94 9.94 0 0 0-8.48-4.7H0v5h7.092c1.735 0 3.32.88 4.24 2.35l8.095 12.95a9.946 9.946 0 0 0 8.48 4.7H30v3.75a1.252 1.252 0 0 0 1.25 1.25c.287 0 .572-.097.8-.29l7.5-6.25c.287-.237.45-.59.45-.96s-.163-.722-.45-.96z" fill="#fff"/><path d="m39.55 6.538-7.5-6.25a1.252 1.252 0 0 0-2.05.96v3.75h-2.093a9.94 9.94 0 0 0-8.48 4.7l-.452.725 2.947 4.718 1.745-2.793a4.976 4.976 0 0 1 4.24-2.35H30v3.75a1.249 1.249 0 0 0 2.05.96l7.5-6.25c.287-.237.45-.59.45-.96s-.163-.722-.45-.96zM13.078 19.856l-1.743 2.792a4.98 4.98 0 0 1-4.243 2.35H0v5h7.092c3.47 0 6.64-1.757 8.48-4.7l.453-.725-2.947-4.717z" fill="#fff"/></svg>