<svg width="40" height="35" fill="none" xmlns="http://www.w3.org/2000/svg"><path d="M8.281 11.667h26.953V3.5c0-1.933-1.574-3.5-3.515-3.5H3.516A3.508 3.508 0 0 0 0 3.5v18.667c0 1.933 1.574 3.5 3.516 3.5h1.25V31.5c0 .471.285.898.723 1.078.432.18.939.083 1.277-.253l6.688-6.658h3.03v-7H8.281A1.169 1.169 0 0 1 7.11 17.5c0-.645.525-1.167 1.172-1.167h8.322A5.766 5.766 0 0 1 17.686 14H8.281a1.169 1.169 0 0 1-1.172-1.167c0-.645.525-1.166 1.172-1.166zm0-4.667h18.75c.648 0 1.172.522 1.172 1.167 0 .644-.524 1.166-1.172 1.166H8.281A1.169 1.169 0 0 1 7.11 8.167C7.11 7.522 7.634 7 8.281 7z" fill="#fff"/><path d="M36.484 14h-14.14c-1.939 0-3.516 1.57-3.516 3.5v9.333c0 1.93 1.577 3.5 3.516 3.5h6.546l4.344 4.325c.338.337.845.432 1.277.253.438-.18.723-.606.723-1.078v-3.5h1.25c1.939 0 3.516-1.57 3.516-3.5V17.5c0-1.93-1.577-3.5-3.516-3.5zm-3.937 7.825-3.515 3.5c-.458.456-1.2.456-1.657 0l-1.758-1.75a1.163 1.163 0 0 1 0-1.65 1.175 1.175 0 0 1 1.657 0l.93.925 2.686-2.675a1.175 1.175 0 0 1 1.657 0 1.162 1.162 0 0 1 0 1.65z" fill="#fff"/></svg>