<svg width="40" height="40" fill="none" xmlns="http://www.w3.org/2000/svg"><path d="M20 0C8.954 0 0 8.955 0 20s8.954 20 20 20c11.045 0 20-8.955 20-20C40 8.954 31.045 0 20 0zm-7.958 27.262a1.38 1.38 0 1 1-.001-2.762 1.38 1.38 0 0 1 .001 2.762zm0-5.88a1.38 1.38 0 1 1 0-2.762 1.38 1.38 0 0 1 0 2.762zm0-5.88a1.38 1.38 0 1 1-.001-2.762 1.38 1.38 0 0 1 .001 2.761zM29.34 27.174H16.387a1.383 1.383 0 0 1 0-2.766h12.952a1.383 1.383 0 0 1 0 2.766zm0-5.835H16.387a1.383 1.383 0 0 1 0-2.767h12.952a1.383 1.383 0 0 1 0 2.767zm0-5.836H16.387a1.383 1.383 0 0 1 0-2.766h12.952a1.383 1.383 0 0 1 0 2.766z" fill="#333"/></svg>