<svg width="20" height="18" fill="none" xmlns="http://www.w3.org/2000/svg"><path d="M15.357 10.5h-.714a.337.337 0 0 0-.257.105c-.067.07-.1.16-.1.27v3.75c0 .516-.175.957-.525 1.324-.35.367-.77.55-1.261.55H3.214a1.68 1.68 0 0 1-1.261-.55 1.852 1.852 0 0 1-.524-1.324v-9.75c0-.516.174-.957.524-1.324.35-.368.77-.551 1.261-.551h7.857a.34.34 0 0 0 .257-.106c.067-.07.1-.16.1-.27v-.75c0-.109-.033-.199-.1-.269a.339.339 0 0 0-.257-.105H3.214c-.885 0-1.642.33-2.271.99C.314 3.15 0 3.945 0 4.875v9.75c0 .93.314 1.725.943 2.385.629.66 1.386.99 2.271.99H12.5c.885 0 1.643-.33 2.271-.99.629-.66.943-1.455.943-2.385v-3.75c0-.11-.033-.2-.1-.27a.338.338 0 0 0-.257-.105z" fill="#333"/><path d="M19.787.223A.671.671 0 0 0 19.285 0h-5.714a.67.67 0 0 0-.502.223.739.739 0 0 0-.213.527c0 .203.071.379.213.527l1.964 2.063-7.277 7.64a.379.379 0 0 0 0 .54l1.273 1.336c.074.078.16.117.256.117a.345.345 0 0 0 .257-.117l7.277-7.641 1.964 2.062a.67.67 0 0 0 .502.223c.194 0 .361-.074.503-.223A.739.739 0 0 0 20 6.75v-6a.74.74 0 0 0-.213-.527z" fill="#333"/></svg>