<svg width="80" height="80" fill="none" xmlns="http://www.w3.org/2000/svg"><g clip-path="url(#a)" fill="#333"><path d="M66.399 62.267a2.667 2.667 0 0 0 3.762 0l4.723-4.709a2.68 2.68 0 0 0 0-3.778l-5.552-5.559V33.333a2.667 2.667 0 0 0-2.667-2.666H60a2.667 2.667 0 0 0-2.667 2.666v2.888l-4.256-4.256a18.666 18.666 0 1 0-26.155 0L5.108 53.777a2.68 2.68 0 0 0 0 3.78l4.721 4.71a2.667 2.667 0 0 0 3.766 0L14.66 61.2v16.133H9.332a1.333 1.333 0 0 0 0 2.667h61.333a1.333 1.333 0 0 0 0-2.667h-5.333V61.2l1.067 1.066zm-6.4-28.934h6.666v12.221L60 38.888v-5.555zM73.004 55.67l-4.716 4.708-3.341-3.34-.015-.01-20.304-20.298a18.566 18.566 0 0 0 6.4-3.038l21.976 21.978zM24 18.667c0-8.837 7.163-16 16-16 8.836 0 16 7.163 16 16 0 8.836-7.164 16-16 16-8.833-.01-15.99-7.168-16-16zM11.713 60.376l-4.718-4.713L28.967 33.69a18.563 18.563 0 0 0 6.4 3.038L15.065 57.02l-.025.026-3.327 3.33zm22.952 16.957V72a5.333 5.333 0 1 1 10.667 0v5.333H34.665zm28 0H48V72a8 8 0 1 0-16 0v5.333H17.332v-18.8l21.276-21.27c.461.034.921.07 1.39.07.47 0 .934-.036 1.391-.07l21.276 21.27v18.8zM1.333 80H4a1.333 1.333 0 1 0 0-2.667H1.333a1.333 1.333 0 0 0 0 2.667zM76 80h2.666a1.333 1.333 0 1 0 0-2.667h-2.667A1.333 1.333 0 0 0 76 80z"/><path d="M35.999 23.333a1.333 1.333 0 0 0-2.667 0 6.207 6.207 0 0 0 5.333 5.879v.121a1.333 1.333 0 1 0 2.667 0v-.121a6.207 6.207 0 0 0 5.333-5.879 6.207 6.207 0 0 0-5.333-5.879v-6.582A3.433 3.433 0 0 1 43.999 14a1.333 1.333 0 1 0 2.666 0 6.207 6.207 0 0 0-5.333-5.879V8a1.333 1.333 0 1 0-2.667 0v.121A6.207 6.207 0 0 0 33.332 14a6.207 6.207 0 0 0 5.333 5.878v6.583A3.434 3.434 0 0 1 36 23.333zm8 0a3.434 3.434 0 0 1-2.667 3.128v-6.256a3.433 3.433 0 0 1 2.667 3.128zm-8-9.333a3.433 3.433 0 0 1 2.666-3.128v6.256A3.433 3.433 0 0 1 36 14zM33.333 45.333c-.736 0-1.333.597-1.333 1.333V60c0 .736.597 1.333 1.333 1.333h13.334c.736 0 1.333-.597 1.333-1.333V46.666c0-.736-.597-1.333-1.333-1.333H33.333zm12 6.667h-4v-4h4v4zm-6.666-4v4h-4v-4h4zm-4 6.666h4v4h-4v-4zm6.666 4v-4h4v4h-4zM42.667 74.667a1.333 1.333 0 1 0 0-2.667 1.333 1.333 0 0 0 0 2.667zM12 18.666c0 .737.597 1.334 1.333 1.334h4a1.333 1.333 0 0 0 0-2.667h-4c-.736 0-1.333.597-1.333 1.333zM61.334 18.666c0 .737.597 1.334 1.333 1.334h4a1.333 1.333 0 0 0 0-2.667h-4c-.736 0-1.333.597-1.333 1.333zM19.703 28.845l-3.466 2a1.333 1.333 0 1 0 1.333 2.31l3.467-2a1.333 1.333 0 1 0-1.334-2.31zM62.428 4.178l-3.467 2a1.333 1.333 0 1 0 1.334 2.31l3.466-2a1.333 1.333 0 1 0-1.333-2.31zM21.037 6.178l-3.467-2a1.333 1.333 0 1 0-1.333 2.31l3.466 2a1.333 1.333 0 1 0 1.334-2.31z"/></g><defs><clipPath id="a"><path fill="#fff" d="M0 0h80v80H0z"/></clipPath></defs></svg>