<svg width="80" height="80" fill="none" xmlns="http://www.w3.org/2000/svg"><path d="M45.477 37.939a1.337 1.337 0 0 0 1.795.582c.078-.04 7.926-4.026 11.797-5.249a1.333 1.333 0 0 0-.806-2.544c-4.077 1.29-11.871 5.25-12.202 5.417a1.334 1.334 0 0 0-.584 1.794zM46.667 22.667c.203 0 .411-.047.605-.145.078-.04 7.926-4.027 11.797-5.25a1.333 1.333 0 0 0-.806-2.543c-4.077 1.289-11.871 5.249-12.202 5.417a1.334 1.334 0 0 0 .606 2.521z" fill="#333"/><path d="M78.666 20c-.737 0-1.333.598-1.333 1.334v52c0 2.205-1.795 4-4 4h-32v-3.069c1.944-.68 7.008-2.265 12-2.265 11.615 0 19.501 2.572 19.58 2.599a1.332 1.332 0 0 0 1.753-1.265V14.666c0-.625-.433-1.166-1.044-1.301 0 0-1.045-.233-2.832-.562a1.333 1.333 0 0 0-.483 2.623c.682.125 1.252.236 1.692.324v55.81c-3.02-.792-9.73-2.228-18.666-2.228-5.81 0-11.516 1.908-13.281 2.555-1.57-.693-6.314-2.555-12.052-2.555-9.184 0-16.75 1.515-20 2.284V15.7c2.662-.655 10.526-2.365 20-2.365 4.861 0 9.03 1.513 10.666 2.197v52.47a1.334 1.334 0 0 0 2.02 1.142c.132-.079 13.343-7.97 25.068-11.877.545-.183.912-.691.912-1.266V1.334a1.333 1.333 0 0 0-1.803-1.25c-10.667 4.002-21.462 10.72-21.57 10.786a1.334 1.334 0 0 0 1.413 2.261c.099-.062 9.49-5.905 19.293-9.848v51.763c-9.101 3.162-18.604 8.326-22.666 10.638V14.667c0-.505-.285-.966-.737-1.193-.23-.113-5.694-2.807-12.596-2.807-12.048 0-21.31 2.607-21.7 2.719a1.333 1.333 0 0 0-.967 1.281v58.666a1.332 1.332 0 0 0 1.699 1.281C7.124 74.59 16.344 72 28 72c4.874 0 9.04 1.518 10.666 2.199v3.135h-32c-2.205 0-4-1.795-4-4v-52a1.334 1.334 0 0 0-2.666 0v52A6.674 6.674 0 0 0 6.667 80h66.666a6.674 6.674 0 0 0 6.666-6.666v-52c0-.736-.596-1.334-1.333-1.334z" fill="#333"/><path d="M45.477 29.939a1.337 1.337 0 0 0 1.795.583c.078-.04 7.926-4.027 11.797-5.25a1.333 1.333 0 0 0-.806-2.544c-4.077 1.29-11.871 5.25-12.202 5.418a1.334 1.334 0 0 0-.584 1.793zM45.477 45.939a1.337 1.337 0 0 0 1.795.582c.078-.04 7.926-4.026 11.797-5.249a1.333 1.333 0 0 0-.806-2.544c-4.077 1.29-11.871 5.25-12.202 5.417a1.334 1.334 0 0 0-.584 1.794zM32.303 24.744c-8.233-1.932-17.59.53-17.983.635a1.334 1.334 0 0 0 .691 2.576c.09-.025 9.098-2.395 16.684-.615a1.333 1.333 0 1 0 .608-2.596zM32.303 32.745c-8.233-1.931-17.59.529-17.983.634a1.334 1.334 0 0 0 .691 2.576c.09-.025 9.098-2.395 16.684-.615a1.333 1.333 0 1 0 .608-2.596zM45.477 53.939a1.337 1.337 0 0 0 1.795.583c.078-.04 7.926-4.027 11.797-5.25a1.333 1.333 0 0 0-.806-2.544c-4.077 1.29-11.871 5.25-12.202 5.418a1.334 1.334 0 0 0-.584 1.793zM32.303 40.744c-8.233-1.93-17.59.528-17.983.635a1.334 1.334 0 0 0 .691 2.576c.09-.025 9.098-2.395 16.684-.615a1.333 1.333 0 1 0 .608-2.596zM32.303 56.744c-8.233-1.932-17.59.53-17.983.635a1.334 1.334 0 0 0 .691 2.576c.09-.026 9.098-2.395 16.684-.615a1.333 1.333 0 1 0 .608-2.596zM32.303 48.744c-8.233-1.932-17.59.528-17.983.635a1.334 1.334 0 0 0 .691 2.576c.09-.025 9.098-2.395 16.684-.615a1.333 1.333 0 1 0 .608-2.596z" fill="#333"/></svg>