<svg width="80" height="80" fill="none" xmlns="http://www.w3.org/2000/svg"><path d="M47.743 64.175H41.68a1.562 1.562 0 1 0 0 3.125h6.063c.935 0 1.696.76 1.696 1.696 0 .936-.76 1.697-1.696 1.697h-16.32a8.21 8.21 0 0 1-6.328-2.968l-3.903-4.69a11.32 11.32 0 0 0-8.403-4.085v-9.23h5.753c2.837 0 5.523 1.086 7.563 3.056l8.424 8.13c.595.575.623 1.538.061 2.146-.572.62-1.543.66-2.165.09l-6.613-6.062a1.562 1.562 0 1 0-2.111 2.303l6.613 6.062a4.642 4.642 0 0 0 3.146 1.221 4.65 4.65 0 0 0 3.426-1.495c1.705-1.846 1.62-4.768-.187-6.513l-8.423-8.13a13.947 13.947 0 0 0-9.734-3.932h-6.056a3.879 3.879 0 0 0-3.57-2.37H1.563c-.862 0-1.562.7-1.562 1.562v11.425a1.562 1.562 0 0 0 3.125 0V47.35h5.792c.412 0 .748.336.748.748v12.523a.749.749 0 0 1-.748.748H7.294a1.562 1.562 0 1 0 0 3.124h1.623a3.878 3.878 0 0 0 3.591-2.426 8.209 8.209 0 0 1 6.282 2.966l3.902 4.69a11.325 11.325 0 0 0 8.731 4.095h16.32a4.827 4.827 0 0 0 4.821-4.822 4.827 4.827 0 0 0-4.821-4.821zM78.437 20.614c-.863 0-1.562.7-1.562 1.563V32.65h-5.792a.749.749 0 0 1-.748-.748V19.378c0-.412.335-.748.748-.748h1.508a1.562 1.562 0 0 0 0-3.124h-1.508a3.878 3.878 0 0 0-3.592 2.426 8.208 8.208 0 0 1-6.281-2.966l-3.903-4.69a11.325 11.325 0 0 0-8.731-4.095h-16.32a4.827 4.827 0 0 0-4.82 4.822 4.827 4.827 0 0 0 4.82 4.82h6.674a1.562 1.562 0 0 0 0-3.124h-6.673a1.699 1.699 0 0 1-1.697-1.696c0-.936.761-1.697 1.697-1.697h16.32a8.21 8.21 0 0 1 6.328 2.967l3.903 4.691a11.32 11.32 0 0 0 8.402 4.085v9.229h-5.752a10.838 10.838 0 0 1-7.564-3.055l-8.423-8.13a1.544 1.544 0 0 1-.062-2.146 1.538 1.538 0 0 1 2.165-.09l6.613 6.062a1.562 1.562 0 0 0 2.112-2.304l-6.614-6.061a4.668 4.668 0 0 0-6.572.274c-1.704 1.846-1.62 4.768.188 6.513l8.423 8.13a13.947 13.947 0 0 0 9.734 3.932h6.056a3.879 3.879 0 0 0 3.569 2.37h7.354c.863 0 1.563-.7 1.563-1.563V22.178c0-.863-.7-1.563-1.563-1.563zM50.443 59.32a1.56 1.56 0 0 0-2.065-.783 1.562 1.562 0 1 0 1.248 2.865l.034-.015a1.565 1.565 0 0 0 .783-2.068zM54.327 56.689a1.569 1.569 0 0 0-2.188-.33 1.562 1.562 0 1 0 1.866 2.507 1.556 1.556 0 0 0 .322-2.177z" fill="#333"/><path d="M46.077 61.073a1.564 1.564 0 0 0-1.846-1.206 1.562 1.562 0 1 0 .644 3.057 1.56 1.56 0 0 0 1.202-1.85zM57.592 53.29a1.562 1.562 0 0 0-2.24.152 1.562 1.562 0 0 0 2.356 2.052 1.562 1.562 0 0 0-.116-2.203zm-.873 1.318-.174-.157.188.17-.014-.013zM61.566 44.824c-.826-.25-1.7.22-1.95 1.046a1.562 1.562 0 1 0 2.987.92l.006-.022a1.558 1.558 0 0 0-1.043-1.944zM63.568 36.76a1.563 1.563 0 1 0 0 0zM62.134 40.15a1.564 1.564 0 0 0-1.698 1.48 1.562 1.562 0 0 0 3.118.206 1.563 1.563 0 0 0-1.42-1.686zM60.038 49.27a1.562 1.562 0 0 0-2.129.588l-.022.04a1.569 1.569 0 0 0 1.373 2.315 1.55 1.55 0 0 0 1.366-.812l-1.358-.772 1.36.77a1.562 1.562 0 0 0-.59-2.13zM31.703 19.516a1.562 1.562 0 0 0-2.096-.7l-.014.008a1.555 1.555 0 0 0-.692 2.092 1.563 1.563 0 0 0 2.103.696 1.562 1.562 0 0 0 .699-2.096zM36.222 18.213a1.562 1.562 0 0 0-1.923-1.14 1.565 1.565 0 0 0-1.126 1.902 1.56 1.56 0 0 0 1.9 1.124 1.562 1.562 0 0 0 1.15-1.886zM27.571 21.769a1.564 1.564 0 0 0-2.196-.238l.969 1.226-.974-1.223a1.562 1.562 0 1 0 1.947 2.445l.02-.017a1.56 1.56 0 0 0 .234-2.193zM19.241 32.884a1.562 1.562 0 0 0-1.933 1.155 1.561 1.561 0 0 0 3.035.744 1.562 1.562 0 0 0-1.102-1.899zM18.245 37.475a1.563 1.563 0 0 0-1.652 1.53 1.561 1.561 0 0 0 3.122.1 1.562 1.562 0 0 0-1.47-1.63zM21.207 28.615a1.562 1.562 0 0 0-2.109.658l-.025.05a1.561 1.561 0 0 0 1.4 2.25c.574 0 1.126-.317 1.4-.864a1.562 1.562 0 0 0-.666-2.094zM24.029 24.856a1.562 1.562 0 0 0-2.233.244 1.56 1.56 0 0 0 1.224 2.53c.459 0 .913-.2 1.221-.584a1.563 1.563 0 0 0-.212-2.19zM20.01 43.442a1.562 1.562 0 0 0-3.075.55l.003.016a1.554 1.554 0 0 0 1.812 1.255 1.569 1.569 0 0 0 1.26-1.821zM45.364 31.582a7.235 7.235 0 0 0-5.26 2.254 7.235 7.235 0 0 0-5.261-2.254c-4 0-7.255 3.254-7.255 7.255a7.239 7.239 0 0 0 2.642 5.599l8.903 7.048a1.56 1.56 0 0 0 1.944-.002l9.28-7.393c.046-.036.089-.075.13-.115a7.206 7.206 0 0 0 2.132-5.137c0-4-3.255-7.255-7.255-7.255zm2.973 10.122-8.237 6.56L32.188 42a4.122 4.122 0 0 1-1.474-3.162 4.135 4.135 0 0 1 4.13-4.13 4.12 4.12 0 0 1 3.817 2.55 1.563 1.563 0 0 0 2.887 0 4.12 4.12 0 0 1 3.817-2.55 4.135 4.135 0 0 1 4.13 4.13c0 1.078-.41 2.093-1.157 2.867zM1.563 64.488a1.557 1.557 0 1 0 0-3.114 1.557 1.557 0 0 0 0 3.114zM78.438 18.626a1.557 1.557 0 1 0 0-3.114 1.557 1.557 0 0 0 0 3.114z" fill="#333"/></svg>