<svg width="80" height="80" fill="none" xmlns="http://www.w3.org/2000/svg"><path d="M71.464 15.303h2.472a1.562 1.562 0 0 0 0-3.123h-5.934c-.862 0-1.561.699-1.561 1.561v5.934a1.562 1.562 0 0 0 3.123 0v-1.718A36.757 36.757 0 0 1 76.877 40c0 20.334-16.543 36.877-36.877 36.877C19.666 76.877 3.123 60.334 3.123 40 3.123 19.666 19.666 3.123 40 3.123c1.504 0 3.017.091 4.499.271a1.563 1.563 0 0 0 .377-3.1A40.57 40.57 0 0 0 40 0C29.316 0 19.27 4.16 11.716 11.716 4.16 19.27 0 29.316 0 40c0 10.684 4.16 20.73 11.716 28.284C19.27 75.84 29.316 80 40 80c10.684 0 20.73-4.16 28.284-11.716C75.84 60.73 80 50.684 80 40a39.87 39.87 0 0 0-8.536-24.697z" fill="#333"/><path d="M16.938 23.58a1.562 1.562 0 0 0-2.155.484C11.22 29.694 9.64 36.465 10.34 43.13a29.893 29.893 0 0 0 8.571 17.96c5.815 5.813 13.452 8.72 21.09 8.72 7.637 0 15.274-2.907 21.088-8.72 11.629-11.63 11.629-30.55 0-42.179a29.894 29.894 0 0 0-17.93-8.568c-6.652-.705-13.415.86-19.043 4.408a1.561 1.561 0 0 0 1.665 2.642c10.608-6.687 24.22-5.154 33.1 3.726 10.41 10.411 10.41 27.35 0 37.762-10.41 10.41-27.35 10.41-37.761 0-8.758-8.758-10.313-22.698-3.698-33.146a1.562 1.562 0 0 0-.484-2.155z" fill="#333"/><path d="M60.3 41.587h1.925a1.562 1.562 0 0 0 0-3.123H60.3a1.562 1.562 0 0 0 0 3.123zM16.213 39.975c0 .862.7 1.561 1.561 1.561H19.7a1.562 1.562 0 0 0 0-3.123h-1.926c-.862 0-1.561.7-1.561 1.562zM41.588 19.7v-1.925a1.562 1.562 0 0 0-3.123 0v1.926a1.562 1.562 0 0 0 3.123 0zM38.414 60.3v1.925a1.562 1.562 0 0 0 3.123 0V60.3a1.562 1.562 0 0 0-3.123 0zM32.173 29.965a1.562 1.562 0 0 0-2.208 2.208l5.292 5.292A5.346 5.346 0 0 0 34.621 40a5.385 5.385 0 0 0 5.38 5.38A5.385 5.385 0 0 0 45.38 40c0-.916-.231-1.779-.637-2.535l10.678-10.678a1.562 1.562 0 0 0-2.208-2.208L42.535 35.257A5.346 5.346 0 0 0 40 34.62c-.916 0-1.779.23-2.535.636l-5.292-5.292zM42.257 40A2.259 2.259 0 0 1 40 42.256 2.259 2.259 0 0 1 37.744 40 2.259 2.259 0 0 1 40 37.744 2.259 2.259 0 0 1 42.257 40zM21.119 21.119c.292-.29.459-.694.459-1.104 0-.411-.167-.812-.46-1.104a1.572 1.572 0 0 0-1.103-.458c-.411 0-.814.167-1.104.458-.29.29-.458.693-.458 1.104 0 .412.167.813.458 1.104.29.29.693.457 1.104.457.412 0 .813-.167 1.104-.457zM50.815 4.665c.413 0 .816-.165 1.106-.457.29-.29.458-.692.458-1.104 0-.41-.167-.814-.458-1.104a1.574 1.574 0 0 0-1.106-.458c-.41 0-.813.168-1.103.458-.29.29-.458.693-.458 1.104a1.567 1.567 0 0 0 1.561 1.561z" fill="#333"/></svg>