<svg width="80" height="80" fill="none" xmlns="http://www.w3.org/2000/svg"><path d="M21.43 50.526c-2.363 0-4.285 1.889-4.285 4.21 0 2.322 1.922 4.21 4.285 4.21 2.363 0 4.286-1.888 4.286-4.21 0-2.321-1.923-4.21-4.286-4.21zm0 5.614c-.788 0-1.428-.63-1.428-1.404 0-.773.64-1.403 1.428-1.403.788 0 1.429.63 1.429 1.403 0 .774-.64 1.404-1.429 1.404zM61.62 18.715l-2.53 2.13c-.6.505-.67 1.39-.157 1.98.284.323.684.49 1.086.49.329 0 .66-.112.929-.339l3.702-3.116a1.387 1.387 0 0 0 .081-2.058l-3.702-3.636a1.446 1.446 0 0 0-2.02 0 1.386 1.386 0 0 0 0 1.984l2.611 2.565zM49.202 22.976c.269.227.6.338.929.338a1.44 1.44 0 0 0 1.085-.49 1.386 1.386 0 0 0-.156-1.979l-2.53-2.13 2.61-2.565a1.386 1.386 0 0 0 0-1.984 1.446 1.446 0 0 0-2.02 0l-3.702 3.636a1.387 1.387 0 0 0 .081 2.058l3.703 3.116zM54.488 22.775a1.423 1.423 0 0 0 1.65-1.144l1.059-6.015a1.406 1.406 0 0 0-1.165-1.622c-.773-.132-1.517.38-1.65 1.144l-1.058 6.016a1.406 1.406 0 0 0 1.164 1.621z" fill="#333"/><path d="M77.142 0H32.858C31.282 0 30 1.259 30 2.807v37.895c0 1.548 1.282 2.807 2.857 2.807h8.572v5.614c0 .61.401 1.15.993 1.336a1.441 1.441 0 0 0 1.597-.52l4.675-6.43h28.448c1.576 0 2.858-1.26 2.858-2.807V2.807C80 1.259 78.718 0 77.142 0zm0 2.807v29.474H32.858V2.807h44.285zM47.96 40.702c-.462 0-.895.218-1.162.588l-2.511 3.453v-2.638c0-.775-.64-1.403-1.429-1.403h-10v-5.614h44.285v5.614H47.96zM72.856 77.193H37.142V60.35h4.286a1.43 1.43 0 0 0 1.33-.89 1.388 1.388 0 0 0-.358-1.542l-20-18.246c-.549-.5-1.394-.5-1.944 0l-20 18.245A1.388 1.388 0 0 0 .1 59.462c.215.536.742.89 1.33.89h4.285v18.245c0 .775.639 1.404 1.429 1.404h65.713c.79 0 1.429-.629 1.429-1.404 0-.775-.639-1.403-1.429-1.403zm-48.57 0H18.57v-9.825h5.714v9.825zm10-18.246v18.246h-7.144V65.965c0-.775-.639-1.404-1.428-1.404h-8.572c-.79 0-1.428.629-1.428 1.404v11.228H8.57V58.947c0-.775-.639-1.403-1.428-1.403H5.067l16.361-14.927L37.79 57.544h-2.075c-.79 0-1.429.628-1.429 1.403z" fill="#333"/></svg>